<svg width="81" height="115" viewBox="0 0 81 115" fill="none" xmlns="http://www.w3.org/2000/svg">
    <path fill-rule="evenodd" clip-rule="evenodd" d="M42.3329 1.62351C39.2507 3.26482 37.4933 5.57414 35.9387 10.0257C34.9853 12.7558 34.6409 13.4417 33.7441 14.3952L33.0186 15.1669L34.01 15.567C34.8716 15.9147 35.0014 16.0642 35.0014 16.7088C35.0014 17.4461 34.3624 18.9805 33.6789 19.8842C33.3356 20.338 33.2548 20.2905 31.6344 18.6784C30.7064 17.7552 29.8326 16.7894 29.6925 16.5323C29.5522 16.275 29.3559 15.3145 29.2563 14.3978C29.0951 12.9167 28.9763 12.6292 28.1879 11.8148C27.3519 10.951 24.8891 9.62028 23.4937 9.27832L22.8631 9.12373L23.191 10.5297C23.3713 11.3028 23.5209 12.5325 23.5236 13.262C23.5305 15.2373 24.0388 15.8947 26.5016 17.114C28.2608 17.9851 28.7796 18.3909 30.0098 19.8591C32.1319 22.3915 32.1231 22.3037 30.2562 22.3148C27.7714 22.3295 25.7165 23.6226 22.8222 26.993L21.5886 28.4293L22.34 28.8212C23.0718 29.203 23.0801 29.2256 22.6599 29.694C22.4227 29.9585 21.4971 30.6653 20.6032 31.2646C19.7094 31.8641 18.308 33.1095 17.4892 34.0321C16.6704 34.9548 15.7546 35.7718 15.4541 35.8478C15.1536 35.924 14.7991 36.1907 14.6664 36.4408C14.1208 37.4691 14.1263 37.4761 5.80248 24.8978C3.41067 21.2834 1.31005 18.3263 1.13458 18.3263C0.595494 18.3263 0.767139 19.6867 1.63732 22.3097C2.92897 26.2034 4.73435 29.5999 9.18232 36.504C10.2344 38.1369 11.0953 39.5587 11.0953 39.6636C11.0953 39.7688 10.8335 40.0994 10.5134 40.3987C9.22607 41.602 9.58824 43.8805 11.3965 45.9525C12.6939 47.4397 13.521 47.8369 14.9277 47.6486C15.5476 47.5656 16.2308 47.5661 16.4459 47.6493C16.6611 47.7325 18.423 49.7057 20.361 52.034C22.2993 54.3622 24.6536 57.1777 25.5931 58.2904L27.3012 60.3137L25.7127 63.7268C23.8033 67.8293 22.324 69.5666 19.5889 70.9188C18.0113 71.6985 17.7653 71.7469 14.987 71.8226C13.3723 71.8665 12.0515 71.9895 12.0515 72.0959C12.0515 72.3035 13.3389 73.484 14.7818 74.5996C15.6162 75.2444 15.646 75.3124 15.2777 75.7229C14.9069 76.1365 14.4998 76.3446 12.9384 76.9188C12.3649 77.1295 12.3073 77.2318 12.527 77.6461C13.2064 78.9267 15.7558 79.5802 20.7378 79.7512C23.6197 79.8501 24.7949 79.9745 24.8767 80.1891C24.9393 80.3541 24.7927 80.9085 24.5506 81.4212C24.093 82.3906 24.0072 82.4176 22.4205 82.0969C21.3216 81.8748 20.8968 82.6072 20.8968 84.7238C20.8968 86.1867 20.8153 86.4881 20.2104 87.2625C19.0328 88.7702 18.0443 91.0545 17.0379 94.5927C15.8383 98.8103 15.2459 100.18 13.724 102.25C12.4044 104.046 12.2963 104.538 13.0183 105.463C13.4878 106.065 13.4909 106.121 13.1005 106.883C12.7276 107.609 12.0673 110.679 12.0563 111.738C12.0537 111.984 12.4063 112.543 12.8397 112.98C15.0756 115.235 22.3766 115.51 23.5059 113.381C23.9458 112.552 23.7978 111.122 23.1356 109.802L22.5054 108.546L23.1671 107.752C23.8093 106.983 23.825 106.895 23.6931 104.84L23.5568 102.722L25.3141 100.52C27.5044 97.7748 29.3225 94.7246 29.8726 92.872C30.2787 91.5047 30.338 91.4364 31.5708 90.9208C33.1972 90.2408 35.0537 88.5618 35.7243 87.1648C36.2825 86.0012 36.2823 85.1533 35.7221 83.1956L35.4111 82.1082L36.5985 80.526C37.2514 79.6557 38.1352 78.3271 38.5627 77.5738C38.9899 76.8204 39.3731 76.204 39.4139 76.204C39.4548 76.204 40.3343 76.6292 41.3685 77.1486C43.8409 78.3906 45.7438 78.9257 47.7875 78.9541L49.4571 78.9773L50.7191 81.0107L51.9809 83.0439L51.3801 83.6765C50.6852 84.4084 50.6242 85.0894 51.1604 86.1356C51.5071 86.8113 51.508 87.0023 51.171 88.2336C50.5468 90.5145 50.4839 91.8696 50.8793 94.5071C51.3005 97.3156 51.1473 99.0688 50.2745 101.422C50.0027 102.154 49.8387 102.907 49.9099 103.094C49.9812 103.281 50.4507 103.696 50.9532 104.016L51.8671 104.598L51.701 106.619C51.3271 111.162 51.334 111.172 55.0676 111.172C56.6227 111.172 58.3423 111.328 59.311 111.557C60.4852 111.834 61.7425 111.916 63.8192 111.849C68.303 111.704 69.1 110.96 67.9863 107.957C67.4027 106.384 67.1749 106.218 65.1307 105.886C63.3138 105.591 62.3829 105.058 62.6966 104.493C62.8512 104.214 62.6452 103.583 61.9705 102.272C60.7174 99.8355 60.5947 98.1898 61.272 92.8971L61.7743 88.9713L62.6425 88.0952C64.6432 86.077 65.6394 82.2486 64.4919 80.9869C64.2105 80.6775 63.708 79.8749 63.375 79.2033C62.6609 77.7631 62.4097 77.5248 61.3002 77.2359C60.5151 77.0314 60.4487 76.9342 60.174 75.5864C59.3232 71.4103 58.7446 69.2736 57.6856 66.3959C57.0428 64.6489 56.5168 63.0561 56.5168 62.8562C56.5168 62.5957 56.8726 62.4542 57.7719 62.357C58.4621 62.2822 60.4721 62.0633 62.2385 61.8706C64.0049 61.6777 65.523 61.5653 65.6119 61.6207C65.7011 61.6762 65.8359 63.271 65.9119 65.1645C66.1127 70.1707 67.0852 73.817 68.8882 76.3234C70.5296 78.6049 72.2989 78.6573 74.4301 76.4876C79.5542 71.2709 82.2273 56.5504 79.9565 46.0553C78.7428 40.4452 75.9071 37.3051 73.2989 38.6836C71.1529 39.8177 69.3496 43.241 67.5081 49.6767C66.8115 52.1112 66.5567 52.7035 66.1833 52.7556C65.2562 52.8848 64.2791 51.9455 63.0781 49.7703C62.0207 47.855 60.8221 46.4266 58.8396 44.7183C58.3789 44.3216 58.2008 43.8118 57.9548 42.1861C57.7855 41.0669 57.458 39.4999 57.2271 38.7041C56.3258 35.5968 56.3997 35.2037 58.06 34.2849C59.8254 33.3077 59.8489 33.1777 58.6921 30.7669C57.0444 27.3328 55.3017 25.9912 51.2496 25.0379C49.2745 24.5735 48.6173 24.1141 49.9276 24.1141C50.9001 24.1141 50.9795 23.7142 50.6199 20.6173C50.4351 19.0256 50.3146 17.2917 50.3524 16.7643C50.4186 15.8339 50.4523 15.7997 51.4698 15.6256C52.0469 15.5269 52.5484 15.416 52.5848 15.3791C52.6209 15.342 52.18 14.3426 51.6046 13.1578C51.0294 11.9732 50.3899 10.2369 50.1836 9.2993C49.9773 8.36192 49.4856 6.92318 49.0909 6.10252C48.3209 4.50075 45.8894 1.76796 44.6747 1.13878C43.9743 0.77584 43.8925 0.792962 42.3329 1.62351ZM45.6169 4.61699C46.3558 6.59761 46.9095 10.2687 46.5272 10.6544C46.2341 10.95 46.181 10.7836 45.7443 8.19769C45.4235 6.29882 44.7173 4.56876 43.9764 3.86651L43.4275 3.34633L42.7548 3.93018L42.0819 4.51402L42.6049 4.79641C43.1593 5.09569 44.0857 6.70445 44.0857 7.36787C44.0857 7.58515 43.7727 8.05782 43.3905 8.41811L42.6951 9.07333L44.6018 10.2261C46.1889 11.1854 47.137 12.1486 46.8327 12.4925C46.7964 12.5335 45.9001 12.1093 44.8406 11.5498C43.127 10.6447 42.8275 10.5589 42.1254 10.7718L41.3365 11.011L42.1732 11.3759C42.6334 11.5768 43.8139 12.246 44.7966 12.8631C46.8031 14.1234 47.487 14.2269 48.6338 13.4429C49.5504 12.8163 49.8906 12.1715 49.1939 12.3813C47.5179 12.8858 47.4325 12.8728 47.4325 12.1119C47.4325 11.7159 47.5939 11.2568 47.7911 11.0916C48.2661 10.6939 48.2487 10.1269 47.7612 10.1269C47.4428 10.1269 47.4074 9.98539 47.565 9.34319C48.0345 7.42936 47.3211 5.24593 45.7211 3.69939L45.0228 3.02463L45.6169 4.61699ZM43.6076 15.6087C44.0677 15.6634 44.5466 15.8089 44.6714 15.9318C44.9594 16.2159 46.7153 16.2273 46.7153 15.9449C46.7153 15.6478 45.4402 15.4254 43.996 15.471C43.0348 15.5014 42.9511 15.531 43.6076 15.6087ZM43.488 17.5818C42.8201 17.7338 42.8512 17.7567 43.9398 17.9151C45.8435 18.192 46.7153 18.1317 46.7153 17.7234C46.7153 17.4441 46.4292 17.3682 45.4603 17.3901C44.7701 17.4058 43.8825 17.4921 43.488 17.5818ZM43.7868 18.9813C42.7716 19.1366 43.0056 19.4653 44.3365 19.7532C45.9449 20.1012 46.2257 20.0841 46.3991 19.6283C46.6692 18.9186 45.7261 18.6849 43.7868 18.9813ZM43.4505 20.87C43.2375 21.4297 43.7701 21.6945 45.1184 21.6989C46.1772 21.7022 46.2642 21.6586 46.1942 21.1599C46.1275 20.687 45.9561 20.6079 44.86 20.5442C43.8662 20.4866 43.5703 20.5551 43.4505 20.87ZM43.2671 23.3303C43.3549 23.8278 43.4942 24.3063 43.5767 24.3936C43.7651 24.593 46.4457 23.7605 46.8069 23.3906C47.3013 22.8839 46.2662 22.426 44.6269 22.426H43.1077L43.2671 23.3303ZM29.1444 24.6338C27.8977 25.3215 27.7265 26.5608 28.7148 27.7456C29.5376 28.7322 30.6022 29.1784 32.1326 29.1784C33.528 29.1784 35.0014 28.6399 35.0014 28.1296C35.0014 27.7425 32.6607 25.494 31.535 24.7994C30.7289 24.3022 29.8551 24.2416 29.1444 24.6338ZM49.345 28.0184C48.8848 28.1525 47.4595 28.2202 46.1775 28.1691C44.8954 28.118 43.8466 28.1481 43.8466 28.2359C43.8466 28.7573 44.806 29.045 46.7997 29.1222C48.6797 29.195 49.0954 29.1376 49.7634 28.7139C50.1908 28.4426 50.5403 28.1108 50.5403 27.9762C50.5403 27.6909 50.4602 27.6938 49.345 28.0184ZM54.0335 28.1701C53.9663 28.2796 53.8843 28.8345 53.8511 29.4034C53.7973 30.3229 53.8821 30.5141 54.6158 31.1279C55.7738 32.0966 56.0387 32.0315 56.0387 30.7784C56.0387 30.0779 55.8726 29.5126 55.5419 29.0889C54.962 28.3449 54.2077 27.8858 54.0335 28.1701ZM50.8528 30.0673C49.0897 30.8872 47.5913 31.0042 45.101 30.5163C43.9372 30.2882 42.668 30.1382 42.2803 30.1825C41.6489 30.2551 41.7249 30.319 43.0099 30.7965C45.8442 31.8492 47.3883 32.1407 48.5583 31.8436C50.1157 31.4479 51.7136 30.6352 52.0017 30.0921C52.1396 29.8321 52.2169 29.5903 52.1733 29.5546C52.1298 29.5191 51.5355 29.7499 50.8528 30.0673ZM36.1938 30.8062C36.1924 31.4363 36.0389 32.5485 35.8531 33.278C35.6327 34.1433 35.6131 34.4414 35.7962 34.1351C35.9507 33.8771 36.5522 33.1413 37.1328 32.4998L38.1885 31.3338L37.3848 30.4972C36.9428 30.0371 36.4945 29.6607 36.3889 29.6607C36.2832 29.6607 36.1955 30.176 36.1938 30.8062ZM23.7411 31.8933C22.5152 32.7152 21.8231 34.2824 21.9054 36.0513L21.9726 37.4983L23.4191 37.4778C25.4093 37.4496 27.6211 36.279 28.5866 34.7433C29.6629 33.0313 29.5479 32.7166 27.5769 31.9796C25.5109 31.2072 24.7889 31.1908 23.7411 31.8933ZM40.1412 32.1933C38.7878 32.6761 37.631 34.0078 37.631 35.0831C37.631 36.5853 38.8548 37.3779 41.1727 37.3772C42.8285 37.377 43.9987 36.831 44.7383 35.7142C45.696 34.268 45.2788 33.1001 43.516 32.2927C42.3472 31.7571 41.439 31.7305 40.1412 32.1933ZM50.345 32.8292C48.4457 33.7775 48.2697 34.8164 49.7667 36.246C50.4992 36.9455 52.2859 37.6189 53.41 37.6189C55.4423 37.6189 55.4095 34.0601 53.3655 32.8029C52.3529 32.1803 51.6319 32.1866 50.345 32.8292ZM18.9762 34.867L17.6695 36.2148L18.2671 36.6154C18.5958 36.8358 19.3391 37.45 19.9185 37.9806L20.9726 38.9452L20.815 37.766C20.7285 37.1175 20.6577 35.8968 20.6577 35.0529C20.6577 34.2094 20.5733 33.5192 20.4703 33.5192C20.3673 33.5192 19.6948 34.1257 18.9762 34.867ZM16.292 37.887C15.8167 38.1593 14.6812 40.2836 14.6812 40.9008C14.6812 41.1229 15.1749 41.8876 15.778 42.6L16.8748 43.8952L18.1555 42.7466C19.553 41.493 19.7316 40.8979 19.1368 39.4801C18.5712 38.1323 17.2021 37.3654 16.292 37.887ZM27.2971 38.5738C26.4867 39.1172 25.2675 39.6564 24.3089 39.8959C21.3814 40.6268 21.5231 40.5426 21.3331 41.6645C21.2379 42.2276 20.9697 43.0131 20.7373 43.41C20.3237 44.1161 20.3261 44.1397 20.8447 44.5063C21.248 44.7911 21.3756 45.1232 21.3778 45.8922C21.3811 47.0867 21.9274 48.1244 24.0275 50.9266C25.6541 53.097 28.8075 56.4291 29.235 56.4291C29.6942 56.4291 32.1582 51.19 31.9995 50.5516C31.836 49.8945 32.4489 48.244 33.0169 47.8121C33.5952 47.3722 33.5359 45.0294 32.9103 43.6061C32.6378 42.9863 31.7059 41.4832 30.8393 40.2658C29.973 39.0484 29.2639 37.955 29.2639 37.8357C29.2639 37.431 28.6698 37.6538 27.2971 38.5738ZM44.7431 39.6357C43.5927 40.7332 42.6513 41.8135 42.6513 42.0366C42.6513 42.2594 42.691 42.442 42.7393 42.442C42.7876 42.442 43.6625 41.7909 44.6833 40.9951C45.7041 40.1992 46.7706 39.5481 47.0531 39.5481C47.3642 39.5481 48.1275 40.1197 48.9864 40.9951C49.7672 41.7909 50.4899 42.442 50.5927 42.442C51.1227 42.442 50.6187 41.6469 49.2338 40.2979C48.3838 39.47 47.4964 38.5333 47.2616 38.2164L46.8349 37.6403L44.7431 39.6357ZM54.6538 42.5947C54.0973 44.1431 53.6902 45.4586 53.749 45.518C53.8955 45.6658 56.2419 44.8659 56.3952 44.616C56.535 44.3877 56.0958 40.9519 55.8365 40.2448C55.7102 39.9004 55.4026 40.512 54.6538 42.5947ZM45.6408 41.9828C44.1701 43.8713 42.2239 45.7847 40.7264 46.8144C40.0764 47.2613 39.5442 47.7224 39.544 47.8393C39.5433 48.1726 41.1438 47.8263 42.3683 47.2282C43.9035 46.4785 45.2411 45.0069 46.275 42.9306L47.1495 41.1742L47.5363 41.9288C47.7488 42.3436 47.9745 42.6832 48.0376 42.6832C48.2047 42.6832 47.101 40.5272 46.93 40.5193C46.8507 40.5156 46.2707 41.1742 45.6408 41.9828ZM48.1497 43.1512C48.1497 43.2762 48.2561 43.4445 48.3861 43.5255C48.5215 43.6099 48.5616 43.5132 48.4801 43.2986C48.3211 42.8809 48.1497 42.8045 48.1497 43.1512ZM46.8573 45.224C46.5686 46.4054 45.5996 47.8717 44.6984 48.4909C44.2317 48.8114 43.8492 49.1435 43.8483 49.2284C43.8452 49.5106 45.7553 50.159 46.5894 50.159C47.5344 50.159 48.5482 49.7515 48.7189 49.3029C48.7835 49.1334 48.6233 48.5782 48.3629 48.0696C48.1029 47.5608 47.6969 46.5516 47.461 45.8269C47.0433 44.5444 47.0273 44.5285 46.8573 45.224ZM17.9974 45.496C17.7001 45.8597 17.7197 45.8703 18.2073 45.6082C18.7636 45.3091 18.9006 45.0947 18.5353 45.0947C18.4201 45.0947 18.1779 45.2754 17.9974 45.496ZM74.6121 46.936C74.172 47.7964 72.5019 52.1445 72.5894 52.2019C72.6245 52.225 73.1634 52.4343 73.7864 52.6673C74.4333 52.9092 75.1755 53.4187 75.5169 53.8555L76.1146 54.6204L76.1172 52.7831C76.1201 50.8304 75.5188 46.8036 75.1724 46.4541C75.0555 46.3362 74.8112 46.5465 74.6121 46.936ZM56.2402 47.5666C55.4069 48.1304 54.6854 48.8054 54.6369 49.0668C54.5678 49.4411 54.7612 49.3487 55.5458 48.6337C56.589 47.6828 57.6215 47.0934 57.8463 47.3201C57.9189 47.3934 57.6579 47.9264 57.2661 48.5047C56.0043 50.3676 56.0246 50.4542 58.0485 51.8319C59.0351 52.5036 59.9815 53.0486 60.1518 53.043C60.322 53.0377 60.8214 52.7225 61.2617 52.3427C61.9096 51.7837 62.0286 51.5442 61.8864 51.0865C61.6048 50.1788 59.878 47.2094 59.4336 46.8689C58.7093 46.3133 57.7989 46.5122 56.2402 47.5666ZM51.7435 48.7338C51.7143 50.1477 54.6285 58.5315 55.2304 58.7645C55.3952 58.8281 56.7471 58.79 58.2347 58.6796L60.9395 58.4789L61.016 57.6737C61.1054 56.732 61.1032 56.7298 57.9512 54.8322C56.7021 54.0802 55.0079 52.9868 54.186 52.4028C52.7956 51.4142 52.6919 51.2763 52.6919 50.4147C52.6919 49.8479 52.5095 49.2682 52.2216 48.9197C51.8657 48.4885 51.7495 48.4434 51.7435 48.7338ZM38.2727 49.7146C38.0458 49.8426 37.9246 50.0527 38.0033 50.1812C38.0821 50.3097 39.3482 51.0231 40.8172 51.7661C42.2863 52.5091 44.1007 53.5367 44.8495 54.0496C45.5982 54.5626 46.3685 54.9822 46.5607 54.9822C47.3443 54.9822 50.8523 51.5992 50.4696 51.2129C50.4019 51.1446 49.8791 51.3877 49.3077 51.7528C47.5454 52.8793 46.3357 52.8257 43.3685 51.49C39.2621 49.641 38.7307 49.4558 38.2727 49.7146ZM62.3332 52.8959C61.6002 53.576 61.4771 53.806 61.7155 54.0494C61.9548 54.2934 62.0858 54.2609 62.381 53.8839C63.7728 52.1071 63.7475 51.5838 62.3332 52.8959ZM73.2171 54.2917C73.3345 54.6052 73.5083 55.4343 73.6032 56.1342L73.7758 57.4068L74.6491 57.2505C75.8734 57.0313 76.006 56.8369 75.6802 55.7399C75.3904 54.7642 74.7206 54.1567 73.6302 53.8806C73.0503 53.7337 73.0192 53.7646 73.2171 54.2917ZM39.0654 54.4427C39.0654 54.5724 38.8553 55.9135 38.5985 57.4227C38.3415 58.9321 38.0068 61.3569 37.8546 62.8113C37.5263 65.9471 37.1981 65.4903 41.5755 67.9883C43.1533 68.8887 44.8234 69.8538 45.287 70.1331L46.1294 70.641L49.1294 68.9008C50.7791 67.9436 52.6962 66.8932 53.389 66.5661C54.6381 65.977 54.6479 65.964 54.5059 65.069C54.3266 63.9375 52.9018 59.5622 52.242 58.1172L51.7466 57.032L51.8757 57.9966C51.9816 58.7881 52.5458 61.7908 53.06 64.3C53.1461 64.7206 53.033 64.8351 52.4449 64.9222C51.8616 65.0085 51.7053 64.9333 51.6237 64.5272C51.5685 64.2513 51.3452 63.1699 51.1279 62.1243L50.7325 60.2232L48.4055 62.562L46.0782 64.9007L43.7845 62.8405C42.5227 61.7073 41.4225 60.6694 41.3396 60.5338C40.9736 59.9365 40.773 60.4427 40.4907 62.678C40.2036 64.9511 40.1641 65.0592 39.6867 64.8812C39.232 64.7114 39.1923 64.5383 39.265 63.0332C39.3621 61.027 39.9401 57.5158 40.2786 56.8777C40.417 56.6167 40.6487 56.4872 40.8105 56.5803C41.3269 56.8769 43.1655 58.4175 44.5839 59.7421C45.7531 60.8341 46.0476 61.0012 46.4352 60.7921C47.1344 60.4147 51.0443 56.1474 51.2922 55.4912C51.6465 54.5541 51.3464 54.6161 50.1079 55.7351C49.4653 56.3158 48.3044 57.2925 47.5281 57.9052L46.117 59.0196L44.7648 57.7803C42.9936 56.1564 39.0654 53.8562 39.0654 54.4427ZM74.9377 60.632C74.6164 60.979 73.7691 61.5511 73.0551 61.9034L71.757 62.5441L71.8622 66.4219C71.9245 68.718 72.0799 70.4956 72.2435 70.7799C72.44 71.1221 72.522 71.1563 72.5286 70.8985C72.5339 70.6996 73.1227 69.0918 73.837 67.3258C75.2499 63.8343 75.7311 62.0589 75.6039 60.8076L75.5222 60.0014L74.9377 60.632ZM35.6662 62.2767L35.0571 64.2667L30.3674 64.3321C26.4174 64.3873 25.678 64.4536 25.678 64.7541C25.678 65.0575 26.4258 65.1108 30.6875 65.1108H35.6968L35.8242 64.327C35.8943 63.8958 36.0673 62.8538 36.2086 62.0109C36.3501 61.1683 36.4231 60.4355 36.3707 60.3826C36.3183 60.3298 36.0014 61.1823 35.6662 62.2767ZM32.7583 67.4912C31.8171 68.5405 28.0686 78.3324 28.0686 79.742V80.2865L29.2041 79.7922C30.8109 79.0923 32.5221 78.9532 33.6538 79.4304C34.1599 79.6436 34.6574 79.7661 34.7592 79.7027C35.0408 79.5271 37.6877 75.542 38.5643 73.9733C38.9908 73.2107 39.3047 72.4313 39.2621 72.2413C39.2198 72.0513 38.134 70.8033 36.8495 69.468C34.3533 66.8727 33.6277 66.522 32.7583 67.4912ZM54.5546 68.8895C53.2003 69.6501 52.7347 70.5339 51.8657 73.9919C50.9847 77.4978 51.0352 78.1525 52.3536 80.3148C54.2144 83.3664 54.4753 83.5048 55.4014 81.9315C56.0318 80.861 56.8675 79.9024 58.1176 78.8169L58.8577 78.1742L58.5137 76.2848C57.8577 72.6792 56.4427 68.2412 55.9529 68.2516C55.803 68.255 55.1736 68.5419 54.5546 68.8895ZM59.4262 80.6543C58.6306 81.2449 57.8611 81.9522 57.716 82.2259C57.4523 82.723 60.4788 80.6471 61.076 79.9214C61.6296 79.2484 60.8577 79.5913 59.4262 80.6543ZM30.6385 81.5485C30.277 81.6819 29.9811 81.9018 29.9811 82.0376C29.9811 82.1734 30.1513 82.2187 30.3593 82.1381C30.5673 82.0576 31.2632 81.9918 31.9055 81.9918C32.8458 81.9918 33.047 81.9211 32.9364 81.63C32.7788 81.2162 31.6493 81.1762 30.6385 81.5485ZM58.7281 103.452C57.9127 103.954 57.7074 104.419 58.3017 104.419C58.9029 104.419 60.3418 103.622 60.3418 103.29C60.3418 102.83 59.6222 102.902 58.7281 103.452ZM16.8327 104.958C16.2934 105.198 16.3869 105.242 17.789 105.405C18.6436 105.504 19.7464 105.759 20.2394 105.97C21.4595 106.494 21.4258 105.924 20.186 105.069C19.5145 104.605 17.7543 104.547 16.8327 104.958ZM61.3191 107.285C59.9988 108.39 60.736 109.023 63.3002 108.988C64.9141 108.965 65.9597 108.501 65.9597 107.805C65.9597 107.275 65.8089 107.181 64.5254 106.912C62.5012 106.487 62.2361 106.518 61.3191 107.285ZM16.0381 109.593C14.8856 110.007 14.785 110.114 15.14 110.545C15.6281 111.138 17.554 111.654 19.2817 111.654C21.8074 111.654 22.4688 111.048 21.2661 109.835C20.7411 109.305 20.4832 109.244 18.8158 109.253C17.7909 109.259 16.5408 109.412 16.0381 109.593Z" fill="currentColor"/>
</svg>
