<svg width="81" height="115" viewBox="0 0 81 115" fill="none" xmlns="http://www.w3.org/2000/svg">
    <path fill-rule="evenodd" clip-rule="evenodd" d="M38.9422 2.75648C34.9469 8.4725 30.9562 13.1901 28.4438 15.1675C27.1712 16.1691 27.0133 16.234 25.8967 16.2121C24.3396 16.1814 21.2729 14.9932 17.8448 13.0923C15.835 11.9777 15.1783 11.7047 14.9755 11.8987C14.5104 12.344 14.6778 13.5414 15.3983 14.9212C15.7756 15.6435 16.1845 16.62 16.3069 17.0915C16.5714 18.1099 16.506 18.184 14.8614 18.7239C13.5661 19.1493 13.1472 19.57 13.565 20.0252C13.7159 20.1896 14.6689 20.8869 15.6828 21.5748C16.6967 22.2627 17.5917 22.9035 17.6717 22.9989C18.072 23.4769 19.1761 25.1352 19.1794 25.2634C19.1814 25.344 19.3987 26.3568 19.6622 27.5137L20.1413 29.6174L19.3795 30.5704C18.3862 31.8132 18.2367 32.7363 18.6895 34.8326C18.8825 35.7263 18.9734 36.6279 18.8936 36.8571C18.8146 37.0842 18.719 38.2111 18.6811 39.3615C18.5662 42.8535 17.7289 45.0749 15.1996 48.5986C13.3843 51.1279 12.4893 52.9662 12.1986 54.7633C11.8635 56.8354 12.5037 59.5708 13.7408 61.3534L14.3037 62.1645L13.5673 63.8549C12.6213 66.0266 12.2928 67.8052 12.4526 69.8907C12.5208 70.7798 12.6273 71.7639 12.6894 72.0776C12.7967 72.6194 12.7086 72.6912 10.9573 73.4905C8.65798 74.54 8.41075 74.8267 9.16232 75.5721C9.46465 75.8719 9.68004 76.1456 9.64104 76.18C9.60203 76.2145 9.07421 76.47 8.468 76.7475C7.86198 77.0252 6.71164 77.7288 5.91215 78.311C5.11246 78.8933 3.62176 79.8056 2.5995 80.3382C1.57724 80.8707 0.740875 81.3973 0.740875 81.5083C0.740875 82.3092 4.3741 87.8251 6.49663 90.2466C9.31445 93.4613 11.9912 95.4828 14.5666 96.341C15.5076 96.6547 15.6545 96.7715 15.5072 97.0886C15.411 97.2954 14.3633 98.6904 13.179 100.189C11.9947 101.687 11.0256 103.005 11.0256 103.118C11.0256 103.23 12.5047 103.742 14.3122 104.254C23.0607 106.732 32.6949 110.461 38.6748 113.685L40.8065 114.834L42.506 113.81C43.4407 113.246 45.1647 112.333 46.3367 111.779C51.8107 109.194 63.2772 105.141 68.4883 103.951C69.4083 103.74 70.2708 103.49 70.4049 103.395C70.5753 103.273 69.9953 102.381 68.479 100.431C65.3992 96.4712 65.5323 96.8066 66.8185 96.2517C71.2182 94.3534 75.3127 90.4799 79.014 84.7142C80.4791 82.4322 80.827 81.7531 80.6388 81.5443C80.5068 81.3982 79.482 80.7965 78.3614 80.207C77.2408 79.6176 75.5816 78.5965 74.6744 77.9382C73.7672 77.2797 72.6538 76.6249 72.2003 76.4833C71.3026 76.2024 71.21 76.0048 71.6901 75.393C71.8632 75.1726 71.9571 74.8488 71.8987 74.6734C71.8403 74.4982 70.891 73.8262 69.7892 73.1802L67.7856 72.0056V69.1829V66.3603L66.9362 64.3087L66.0871 62.2574L66.5157 61.5628C67.0824 60.6454 67.6529 58.7364 67.8021 57.2583C68.0784 54.5218 67.2058 51.9359 64.8929 48.6386C62.6739 45.4754 61.8833 43.2634 61.8696 40.179C61.8657 39.3174 61.7343 38.0587 61.5777 37.3818C61.3142 36.2424 61.3223 36.0311 61.686 34.5343C62.137 32.6772 61.9994 31.5566 61.164 30.2831L60.6909 29.5619L61.0701 27.8552C61.2787 26.9164 61.7306 25.4275 62.0743 24.5467L62.6993 22.9449L64.8129 21.6041C67.7076 19.7678 67.6861 19.7882 67.2035 19.3579C66.99 19.1677 66.1824 18.7998 65.4085 18.5402C64.6346 18.2809 64.0016 17.9481 64.0016 17.8009C64.0016 17.6539 64.4819 16.6147 65.0689 15.4918C66.1606 13.4038 66.3254 12.7031 65.8872 12.0124C65.6569 11.6489 65.451 11.7295 63.122 13.0943C60.5176 14.6206 57.2337 15.9856 55.5452 16.2439C54.2705 16.439 53.5275 16.07 51.5167 14.2438C49.2258 12.1634 44.8829 6.94079 41.6849 2.42037C41.0983 1.5913 40.5311 0.913045 40.4244 0.913269C40.3176 0.913493 39.6507 1.74302 38.9422 2.75648ZM39.066 7.78508C37.3388 10.544 32.4797 16.1814 29.9211 18.395C28.8405 19.3301 26.8538 20.878 25.5065 21.8346L23.0568 23.5742V24.548C23.0568 25.0838 23.1026 25.5219 23.1587 25.5219C23.2147 25.5219 23.8712 25.1672 24.6175 24.7338C27.2101 23.2282 31.1099 21.7402 32.6955 21.6513C33.468 21.6079 33.5732 21.5092 35.0084 19.4801C36.5309 17.3269 39.0592 13.0475 39.9416 11.1296C40.383 10.17 40.7154 9.80037 40.7154 10.2692C40.7154 10.6344 44.1676 16.4945 45.8268 18.9457L47.51 21.432L48.6302 21.5493C50.0357 21.6963 53.4421 23 55.8332 24.3059C56.8372 24.8542 57.6794 25.2766 57.705 25.2446C57.7304 25.2124 57.8405 24.8096 57.9495 24.3491C58.1331 23.5737 58.1096 23.4809 57.6303 23.0911C57.3456 22.8597 56.6762 22.4164 56.1425 22.1058C54.5284 21.1671 51.2033 18.5451 49.3387 16.7409C46.7786 14.2639 44.4294 11.3571 40.9095 6.31087L40.4244 5.61539L39.066 7.78508ZM38.7497 18.3109C36.5521 21.8731 35.3121 23.4442 34.5058 23.6885C34.1323 23.8015 33.1046 24.0052 32.222 24.1408C27.929 24.8007 21.4819 28.5106 21.0315 30.5803C20.961 30.9041 20.9342 31.2046 20.9721 31.2482C21.0097 31.2916 21.5007 30.9701 22.063 30.5335C24.903 28.328 29.7323 26.3418 32.9534 26.0547C34.1759 25.9457 34.6494 26.0142 35.9127 26.4828C36.7397 26.7898 37.4166 27.0055 37.4166 26.9625C37.4166 26.9196 37.1983 26.5134 36.9314 26.0601C36.2781 24.9497 36.294 23.8356 36.98 22.6637C37.8945 21.1011 40.1436 18.3612 40.5115 18.3612C40.7046 18.3612 41.4433 19.0712 42.1534 19.9392C44.7917 23.1642 45.1668 24.1826 44.3262 25.8367C44.0479 26.3843 43.8203 26.8865 43.8203 26.9525C43.8203 27.0185 44.235 26.863 44.742 26.6072C46.2337 25.8542 47.834 25.8325 50.5112 26.5291C53.8762 27.4045 55.8949 28.401 58.5148 30.4793L59.3444 31.1377V30.5626C59.3444 29.1949 56.5908 26.8813 53.3286 25.5085C51.7335 24.8372 49.2184 24.1585 47.1609 23.8443C46.137 23.6879 46.1326 23.6836 44.3454 21.1921C43.361 19.8197 42.1196 18.0678 41.5869 17.2992C41.0543 16.5303 40.5311 15.9035 40.4244 15.906C40.3176 15.9087 39.5639 16.9908 38.7497 18.3109ZM17.8871 17.5767C17.9556 17.7821 18.0124 18.1182 18.0136 18.3236C18.0151 18.5995 18.4962 18.8667 19.8578 19.3485C20.8712 19.707 21.7559 19.9361 21.824 19.8576C22.0487 19.5982 21.5129 19.097 20.5799 18.6935C20.0744 18.4749 19.2338 18.0502 18.7118 17.7494C17.9276 17.2978 17.7844 17.2679 17.8871 17.5767ZM60.7512 18.4834C59.5757 19.1254 58.9563 19.5886 58.9563 19.826C58.9563 20.0279 59.064 20.138 59.1988 20.0746C59.3323 20.0117 60.1617 19.6806 61.0423 19.3384C62.5369 18.758 62.6432 18.6749 62.6432 18.0913C62.6432 17.7474 62.6213 17.4744 62.5947 17.4845C62.5681 17.4948 61.7384 17.9441 60.7512 18.4834ZM41.0762 21.9975C40.8092 22.5692 40.7512 24.2142 40.9656 25.1269C41.1589 25.9493 41.8745 26.1449 42.6876 25.5973C43.7752 24.8647 43.752 23.1513 42.6397 22.072C41.9067 21.3606 41.3851 21.3358 41.0762 21.9975ZM38.6209 21.9523C38.376 22.0655 38.0399 22.5325 37.8741 22.9901C37.16 24.9609 38.7429 26.9015 39.9392 25.5219C40.2332 25.1829 40.3273 24.7761 40.3273 23.8436C40.3273 22.9112 40.2332 22.5043 39.9392 22.1653C39.5152 21.6764 39.294 21.6406 38.6209 21.9523ZM30.8031 27.9856C27.485 28.6332 24.0532 30.4261 22.2321 32.4633C21.2226 33.5927 21.1163 33.801 21.1163 34.6516C21.1163 35.1687 21.1679 35.5916 21.2309 35.5916C21.294 35.5916 21.6777 35.2643 22.0836 34.8644C23.0176 33.9438 25.71 32.3928 27.2289 31.9003C27.9542 31.6651 29.455 31.4785 31.2104 31.4051C34.4404 31.2704 35.6004 31.5098 37.9704 32.8005C38.7551 33.2279 39.4543 33.5777 39.524 33.5777C39.7349 33.5777 40.1667 31.7269 39.9889 31.5843C39.8979 31.5116 39.4349 31.1379 38.9597 30.7544C37.0097 29.1799 33.8127 27.7334 32.3994 27.786C32.0103 27.8003 31.2921 27.8903 30.8031 27.9856ZM47.5072 28C46.1559 28.2535 43.9788 29.4961 41.3385 31.521C41.029 31.7584 41.2341 33.5777 41.5704 33.5777C41.6933 33.5777 42.4289 33.2266 43.2053 32.7976C45.5314 31.5121 46.6303 31.2771 49.7388 31.4004C53.563 31.5519 55.7399 32.3957 58.3256 34.7288L59.5384 35.823V35.1407C59.5384 33.4027 58.1048 31.5886 55.519 30.0544C52.8241 28.4556 49.5514 27.6162 47.5072 28ZM30.4162 33.1107C28.9169 33.3544 26.689 34.1624 25.2952 34.9678C23.0284 36.2775 20.5341 38.6531 20.5341 39.5023C20.5341 40.1781 20.9523 40.0373 22.0933 38.9769C24.3913 36.8419 27.5543 35.3656 30.8097 34.9096C34.0263 34.4587 36.6683 35.0062 39.0315 36.6136C39.6528 37.0361 40.2608 37.3818 40.3827 37.3818C40.5045 37.3818 41.4806 36.8777 42.5519 36.2612C44.868 34.9286 46.5017 34.5652 49.1567 34.7916C53.1594 35.1334 56.4386 36.623 58.8649 39.2017C59.4882 39.8646 59.7325 40.0185 59.7325 39.7489C59.7325 38.4693 57.9055 36.4925 55.3688 35.0273C52.8524 33.5737 51.0341 33.0776 48.1864 33.0677C45.5656 33.0585 44.5986 33.3441 41.8483 34.9384L40.3155 35.8273L39.0061 34.9454C37.0704 33.6417 35.5498 33.1228 33.3681 33.0214C32.3396 32.9737 31.0111 33.0138 30.4162 33.1107ZM33.665 38.6499C33.5938 38.7318 33.5355 39.0798 33.5355 39.4233C33.5355 39.9603 33.7271 40.1763 34.9106 40.9733C35.6668 41.4827 36.671 42.096 37.1422 42.3363C38.0864 42.8179 38.1883 43.0596 37.6197 43.4691C37.2509 43.7347 37.2561 43.7723 37.8138 44.8967C38.1289 45.5318 38.3868 46.1926 38.3868 46.3649C38.3868 46.797 37.253 48.3466 36.9369 48.3466C36.7952 48.3466 36.2144 47.9438 35.6462 47.4515C34.4812 46.4419 34.4299 46.4289 33.4684 46.8921C32.4493 47.3833 30.7909 47.3309 30.1934 46.789C29.71 46.3506 29.7089 46.3506 29.099 46.8695C28.714 47.1971 28.3158 47.3511 28.0216 47.2862C27.5949 47.1922 27.518 47.315 27.1258 48.7192L26.6968 50.2552L27.6067 52.8254C28.7246 55.9824 29.2449 57.0328 30.1391 57.9382C31.0232 58.8332 31.6069 58.8315 33.1249 57.9288C34.2526 57.2579 34.3381 57.1498 34.6174 56.0424C34.9781 54.6116 35.4799 53.8373 36.2468 53.5292C37.0494 53.2065 37.199 53.5992 36.5645 54.363C35.7433 55.3516 36.0621 56.6291 37.0553 56.3295C37.3023 56.2549 37.8542 56.4268 38.4084 56.7506C39.5874 57.4396 40.5356 57.4421 41.9909 56.7593C42.8681 56.3476 43.2269 56.2758 43.5146 56.4534C43.8172 56.6401 43.9608 56.587 44.2439 56.1836C44.7327 55.4876 44.6879 55.1307 44.0143 54.354C43.4828 53.7411 43.2746 53.2696 43.5354 53.2696C43.8775 53.2696 44.9929 53.97 45.3451 54.4059C45.6608 54.7969 45.7608 55.2037 45.7608 56.0994C45.7608 57.253 45.779 57.291 46.5989 57.8451C48.1305 58.8802 48.5602 58.966 49.5217 58.4293C50.6253 57.8133 51.1244 56.916 52.2336 53.5545C53.2069 50.604 53.3069 49.6803 52.8281 48.06C52.546 47.1054 52.479 47.0322 51.9902 47.145C51.599 47.2352 51.3015 47.1148 50.862 46.6883C50.1302 45.9782 50.1236 45.978 49.4124 46.6683C48.7385 47.3222 47.9749 47.3775 46.2459 46.8977C45.147 46.5925 45.0544 46.5992 44.5965 47.0161C43.4642 48.0472 43.2954 48.0537 42.4398 47.0989C41.6849 46.2564 41.6585 46.1801 41.7893 45.2138C41.8642 44.66 41.9248 43.8455 41.924 43.4037C41.9226 42.7074 42.0034 42.5662 42.5318 42.3397C42.8669 42.1963 43.8234 41.5731 44.6574 40.955C46.0047 39.9563 46.1669 39.7632 46.1128 39.2219C46.0074 38.1688 45.3867 38.3794 41.5594 40.765C40.4022 41.4862 40.3623 41.5415 40.2429 42.5782C40.1502 43.3838 40.0378 43.6474 39.7871 43.6476C39.5057 43.6481 39.4642 43.4615 39.5193 42.4433L39.5843 41.2385L38.0663 40.2611C37.2313 39.7236 36.1977 39.1134 35.7695 38.9048C34.9698 38.5154 33.8945 38.3852 33.665 38.6499ZM47.3617 41.5607C46.3746 42.0025 45.5667 42.4664 45.5667 42.5912C45.5667 42.7398 46.2609 42.7664 47.5756 42.6684L49.5846 42.5187L50.3408 43.4747C50.7568 44.0005 51.2464 44.6824 51.4288 44.9901L51.7605 45.5495L52.5588 44.5895L53.3571 43.6297L52.9694 42.9112C52.5233 42.085 50.4642 40.7335 49.6734 40.7478C49.3892 40.7532 48.3488 41.1188 47.3617 41.5607ZM28.6592 41.411C27.8778 41.8872 26.9378 43.0585 26.9378 43.5559C26.9378 44.0227 28.3035 45.6108 28.4207 45.2805C28.6887 44.5259 29.4548 43.4827 30.161 42.9105C30.8994 42.312 31.0074 42.2858 31.7685 42.5221C32.57 42.7711 33.3415 42.6718 33.3415 42.3198C33.3415 42.0457 30.6042 40.9586 29.9456 40.9709C29.6254 40.9769 29.0466 41.175 28.6592 41.411ZM22.4108 42.3048C22.3613 42.4894 22.1742 43.6459 21.9949 44.8746C21.426 48.7738 20.3899 51.0035 17.6557 54.2137C16.7418 55.2867 16.0418 56.2196 16.1002 56.2869C16.2997 56.517 19.0774 54.2368 20.2067 52.9158C21.4778 51.4293 22.5625 49.122 22.8596 47.273C23.1495 45.4691 22.7494 41.0407 22.4108 42.3048ZM57.465 42.67C57.3814 43.0229 57.3117 44.4212 57.3099 45.7773C57.307 48.1211 57.3387 48.3171 57.9519 49.7542C58.7906 51.72 60.4146 53.7261 62.3522 55.1902C63.206 55.8354 63.9403 56.3225 63.9839 56.2726C64.0276 56.2229 63.2361 55.1992 62.2253 53.998C59.5303 50.7954 58.6487 48.7611 58.0902 44.4557C57.9323 43.2388 57.7611 42.1947 57.7099 42.1356C57.6586 42.0765 57.5484 42.3171 57.465 42.67ZM58.7758 43.2184C58.7834 43.762 58.8691 44.4082 58.9667 44.6544C59.0836 44.9498 59.1038 44.6452 59.0257 43.7593C58.8831 42.1365 58.7572 41.864 58.7758 43.2184ZM20.9445 43.8152C20.9667 45.0883 20.9686 45.0923 21.1273 44.2068C21.3478 42.9788 21.3447 42.5286 21.1163 42.5286C21.0068 42.5286 20.9319 43.0896 20.9445 43.8152ZM33.3415 48.5704C32.0206 49.0878 31.2972 49.1137 30.2367 48.6823C29.2924 48.2981 29.0724 48.2703 29.0724 48.5348C29.0724 48.8506 30.9345 49.913 31.4879 49.913C32.0551 49.913 33.9966 48.8964 34.3395 48.42C34.5958 48.0638 34.6595 48.0542 33.3415 48.5704ZM50.3113 48.3258C49.8341 48.8512 48.6714 48.9763 47.3029 48.6498C45.4769 48.2139 45.2388 48.3589 46.5793 49.0902C47.3208 49.4948 47.997 49.6893 48.6624 49.6893C49.5182 49.6893 49.7425 49.5872 50.3724 48.9121C50.8379 48.4131 50.9895 48.1327 50.7964 48.1289C50.6309 48.1255 50.4126 48.2142 50.3113 48.3258ZM35.5731 58.1957C33.1845 58.8035 30.4294 61.7933 30.4317 63.7748L30.4327 64.5701L30.8999 63.8988L31.3672 63.2275L31.5021 63.8428C31.6835 64.6699 31.9203 64.6175 32.2618 63.675C32.5692 62.8265 32.8814 62.6604 32.9984 63.2834C33.0489 63.5522 33.2315 63.3194 33.5798 62.542C33.859 61.9191 34.2322 61.2706 34.4094 61.1012C34.7032 60.8199 34.7187 60.87 34.5881 61.6745C34.4515 62.5161 34.4618 62.5414 34.8149 62.2326C35.0185 62.0547 35.5125 61.5559 35.9127 61.1242C36.619 60.3625 36.8494 60.4569 36.4395 61.3402C36.1281 62.0113 36.666 61.8913 37.2596 61.1576C37.8276 60.4554 38.1928 59.7089 38.1928 59.2501C38.1928 58.6607 36.4704 57.9673 35.5731 58.1957ZM43.0675 58.4305C42.2541 58.8511 42.2226 58.9035 42.3282 59.6536C42.4431 60.4699 42.9806 61.4109 43.6334 61.9381C43.987 62.2238 44.0143 62.197 44.0143 61.5619C44.0143 61.1858 44.0935 60.8779 44.1903 60.8779C44.2872 60.8779 44.762 61.3851 45.2456 62.0052L46.1246 63.1328L46.1852 62.2849L46.2459 61.4373L46.8673 62.7799C47.242 63.5897 47.4923 63.9464 47.4979 63.679C47.5051 63.3391 47.6318 63.4436 48.0409 64.1266L48.5745 65.0176L48.6366 64.0107L48.6989 63.0037L49.2622 63.7869C49.7825 64.5106 49.8258 64.5311 49.8306 64.0576C49.8444 62.7112 48.1067 60.4473 45.8726 58.9008C44.5553 57.989 44.076 57.9086 43.0675 58.4305ZM38.6234 61.8484C38.3798 62.0043 38.2415 62.2021 38.316 62.2881C38.5211 62.5244 40.8701 62.4751 41.0005 62.2317C41.3209 61.6338 39.4339 61.3294 38.6234 61.8484ZM28.3253 62.8401C28.3092 63.4886 28.0779 64.7397 27.811 65.6202C26.9384 68.5004 27.2669 69.7356 29.3805 71.5213C30.0995 72.1289 30.991 72.9564 31.3614 73.3605C31.7318 73.7646 32.0681 74.0571 32.1085 74.0104C32.1491 73.9636 32.0501 73.5606 31.8886 73.115C31.4771 71.979 31.5102 70.4466 31.9602 69.8059C32.3243 69.2874 32.3251 69.2906 32.2278 70.8585C32.1122 72.7201 32.3109 73.2762 33.613 74.7378C34.5365 75.7741 34.9851 75.8464 34.4297 74.8692C33.945 74.0159 33.7463 73.2925 33.912 72.9835C34.0112 72.7982 34.2702 73.0846 34.6962 73.8499C35.046 74.4785 35.692 75.3259 36.1318 75.7327C37.2772 76.7923 37.6607 76.9793 36.7027 76.0111C35.8042 75.1032 35.088 73.9011 35.088 73.3012C35.088 72.9016 35.4912 72.9018 36.5919 73.3023C36.9679 73.4393 37.0285 73.3807 37.0285 72.8805C37.0285 72.3354 37.0595 72.3162 37.5363 72.5666C37.9818 72.8006 38.0872 72.7724 38.3923 72.3381C38.5836 72.0655 38.883 71.8427 39.0577 71.8427C39.2323 71.8427 39.524 71.5413 39.7058 71.1727C40.109 70.3555 40.4729 70.3112 40.6357 71.0595C40.7302 71.4938 40.8821 71.6189 41.3149 71.6189C41.7459 71.6189 41.8997 71.7442 41.9927 72.1718C42.1093 72.7078 42.1334 72.7149 42.7726 72.407C43.4044 72.1027 43.4335 72.1101 43.4628 72.5813C43.4799 72.8519 43.4811 73.2482 43.4657 73.4619C43.4407 73.8083 43.4793 73.8022 43.823 73.4059C44.2363 72.9293 45.1786 72.7964 45.1786 73.2148C45.1786 73.3542 44.9904 73.8325 44.7603 74.2778C44.3547 75.0625 44.3725 75.0533 45.3424 73.977C45.8927 73.3661 46.3429 72.9935 46.3429 73.1488C46.3429 73.557 45.837 74.6239 45.4825 74.9632C45.3154 75.1232 45.1786 75.3425 45.1786 75.4503C45.1786 75.8274 45.6137 75.6414 46.3895 74.933C47.3671 74.0401 48.0849 72.3316 48.0875 70.8916C48.0896 69.6694 48.4016 69.4705 48.5815 70.5763C48.7238 71.4504 48.4185 72.9192 47.8849 73.9282C47.2719 75.0878 47.4512 75.2026 48.3378 74.2187C48.7944 73.7118 49.8454 72.6487 50.6732 71.8561C52.2242 70.3711 52.8254 69.4881 53.1528 68.2142C53.4343 67.1191 53.3825 64.9286 53.048 63.7869C52.8654 63.1632 52.7891 63.0355 52.8477 63.4512C52.8999 63.8204 52.9902 64.6764 53.0484 65.3533L53.1541 66.584L52.8398 65.8008C52.6671 65.3701 52.4136 64.4134 52.2768 63.675L52.0281 62.3324L51.8911 63.2275C51.8156 63.7198 51.7123 64.355 51.6615 64.6392C51.5053 65.5131 50.0922 67.0768 49.1107 67.4626C47.2827 68.1809 46.2339 67.8222 45.1284 66.1009C44.5301 65.1698 44.3093 65.0022 43.3091 64.7218C41.5374 64.2246 37.9648 64.1275 37.2448 64.5569C36.9229 64.7487 36.3623 64.9057 35.999 64.9057C35.4268 64.9057 35.2642 65.0411 34.785 65.9152C34.0998 67.1652 32.8839 67.9271 31.9373 67.6993C31.0226 67.4796 29.8197 66.6225 29.3144 65.831C28.9123 65.2009 28.6158 64.0301 28.4285 62.3324C28.3858 61.9464 28.342 62.1623 28.3253 62.8401ZM52.5679 62.3509C52.5772 62.6116 52.6232 62.6647 52.6851 62.4863C52.7412 62.3248 52.7342 62.1316 52.6698 62.0574C52.6054 61.9831 52.5596 62.1151 52.5679 62.3509ZM27.6463 63.9402C27.4806 64.5327 27.2966 65.4204 27.2374 65.9127C27.1784 66.405 27.3407 65.9519 27.5982 64.9057C28.1044 62.8495 28.1374 62.184 27.6463 63.9402ZM20.5413 64.9552C20.1718 65.5751 19.0622 66.9463 18.0757 68.0025C17.0891 69.0587 16.318 69.9643 16.3618 70.0149C16.5628 70.2467 18.253 68.8224 19.2487 67.5821C20.1998 66.3976 21.4603 64.1051 21.2748 63.8972C21.241 63.8592 20.911 64.3354 20.5413 64.9552ZM59.455 64.682C60.0538 66.0888 61.55 68.0744 62.764 69.0735C63.4185 69.6119 64.0253 70.0525 64.1124 70.0525C64.1997 70.0525 63.3486 69.0202 62.221 67.7588C61.0934 66.4974 59.9347 65.1127 59.6461 64.682L59.1216 63.8988L59.455 64.682ZM38.1767 66.4359C37.4076 66.9982 36.6404 67.9766 36.6404 68.3948C36.6404 68.4765 37.0242 68.1352 37.4932 67.6364C38.3135 66.7648 39.3464 66.2522 40.2885 66.2497C40.8981 66.2479 41.749 66.7852 42.6988 67.7716C43.2371 68.3304 43.4232 68.4429 43.2738 68.1187C42.9771 67.4753 41.9263 66.4737 41.1583 66.1025C40.1486 65.6147 39.1464 65.7268 38.1767 66.4359ZM28.9963 68.4302C28.8356 69.2156 28.9916 70.4161 29.2814 70.6227C29.4841 70.7672 29.4834 69.3883 29.2798 68.3742L29.1451 67.7029L28.9963 68.4302ZM50.8129 69.6609C50.8195 71.1808 50.8374 71.2479 51.0972 70.7238C51.5237 69.8634 51.4438 68.0386 50.9794 68.0386C50.8841 68.0386 50.8092 68.7685 50.8129 69.6609ZM29.8587 69.8104C29.6877 70.5247 29.6792 70.944 29.8282 71.3208C30.1804 72.2126 30.369 71.8979 30.2864 70.556C30.1763 68.7667 30.1284 68.6832 29.8587 69.8104ZM49.8359 70.4589C49.8359 70.82 49.786 71.4553 49.7249 71.8706C49.6199 72.5856 49.6304 72.6026 49.9189 72.1915C50.2571 71.7097 50.3338 70.1572 50.0299 69.9406C49.9174 69.8605 49.8359 70.0782 49.8359 70.4589ZM38.3222 75.4975C39.635 77.0116 39.9779 77.8261 38.9205 76.9185C37.9993 76.1279 37.2225 75.5777 37.2225 75.7157C37.2225 75.8415 39.6988 77.8845 39.8515 77.8845C39.8999 77.8845 39.9392 77.6737 39.9392 77.4162C39.9392 76.9556 37.6411 74.0804 37.2728 74.0804C37.174 74.0804 37.6461 74.7181 38.3222 75.4975ZM41.5402 76.1301C41.1932 76.6294 40.9095 77.1217 40.9095 77.2242C40.9095 77.7605 41.4255 77.6032 42.3736 76.7777C43.7007 75.6224 43.7723 75.323 42.4619 76.4087C41.3834 77.302 41.1509 77.0434 41.994 75.8878C42.2704 75.5092 42.4231 75.2044 42.3336 75.2109C42.2442 75.2171 41.8871 75.6309 41.5402 76.1301ZM44.0991 75.907C43.5302 76.6135 43.53 76.6139 44.0547 76.1868C44.3436 75.9513 44.6246 75.6329 44.6791 75.479C44.8297 75.0542 44.7216 75.1341 44.0991 75.907ZM28.2962 76.9474C28.2962 77.6706 27.5526 80.6331 26.8683 82.637L26.2004 84.5925L27.0057 84.8308C32.0613 86.3272 35.6088 88.167 38.6919 90.8921C39.3947 91.5133 40.019 91.9647 40.0792 91.8953C40.292 91.6498 39.7555 89.3078 39.1923 88.0243C38.8786 87.3089 38.2595 86.2502 37.8169 85.6715C36.3462 83.7489 33.0689 81.6038 30.6993 81.0128L29.7515 80.7765L29.1867 78.6592C28.6616 76.6909 28.2962 75.9885 28.2962 76.9474ZM52.5052 77.1302C52.4032 77.3307 51.9079 79.3328 51.7034 80.3711C51.6062 80.8654 51.4541 80.9768 50.7165 81.0934C48.7158 81.4096 45.2097 83.6334 43.7399 85.5185C42.6251 86.9484 41.6552 89.2036 41.5351 90.6449C41.433 91.8698 41.5456 91.9696 42.2679 91.2961C43.5843 90.0682 45.7988 88.4727 47.2957 87.6739C49.0548 86.7351 53.7714 84.8293 54.3476 84.8243C54.7915 84.8205 54.7875 84.7881 54.0807 82.6956C53.7483 81.711 53.2801 80.0121 53.0404 78.9203C52.8008 77.8283 52.56 77.0228 52.5052 77.1302ZM8.11483 80.5389C6.99418 80.9867 6.04178 81.3771 5.9985 81.4067C5.85859 81.5018 6.6381 83.3181 7.41352 84.7044C8.36108 86.3977 10.7335 89.2275 12.384 90.633C13.8277 91.8624 16.2605 93.3543 16.52 93.1695C16.7763 92.9866 16.5105 91.4111 16.0424 90.3392C15.8189 89.8274 14.953 88.2004 14.1184 86.7235C13.2836 85.2466 12.1362 83.0897 11.5687 81.9303C11.0011 80.7709 10.4502 79.8004 10.3447 79.7736C10.2389 79.7467 9.23547 80.0911 8.11483 80.5389ZM69.4517 82.1921C68.7749 83.5768 67.603 85.8172 66.8476 87.171C66.0921 88.5249 65.2757 90.1864 65.0336 90.8633C64.6146 92.0334 64.4429 93.3248 64.7058 93.3248C64.773 93.3248 65.6027 92.8537 66.5499 92.278C69.7187 90.3511 72.378 87.515 74.4167 83.8879C75.72 81.5689 75.7235 81.5785 73.219 80.553C72.045 80.0721 70.994 79.6778 70.8834 79.6767C70.7728 79.6756 70.1286 80.8076 69.4517 82.1921ZM15.8033 81.9124C15.885 82.097 16.2543 82.7965 16.624 83.4669C17.6589 85.3437 18.9214 88.5956 19.1736 90.0342C19.2986 90.7474 19.3407 91.742 19.2671 92.2444C19.0649 93.6239 19.4899 93.1151 19.7775 91.6333C20.2846 89.0198 19.2466 85.8738 16.9841 83.1669C16.2531 82.2924 15.7218 81.7278 15.8033 81.9124ZM64.1634 82.9738C63.578 83.6822 62.8683 84.665 62.5862 85.1573C61.4498 87.1417 60.9723 90.166 61.5053 92.0047C61.8197 93.0887 61.9961 93.2292 61.9043 92.3227C61.6936 90.2412 62.678 86.9256 64.5164 83.5242C65.0033 82.6231 65.3627 81.8408 65.3148 81.7857C65.2668 81.7305 64.7487 82.2651 64.1634 82.9738ZM26.7331 89.6648C26.6322 89.9709 26.5497 90.3994 26.5497 90.6171C26.5497 91.3202 25.7554 93.8504 25.1477 95.0832C24.375 96.6511 22.5848 98.8403 20.8939 100.286C20.1495 100.922 19.6112 101.52 19.6978 101.613C19.7841 101.706 21.1784 102.196 22.796 102.701C28.5248 104.49 33.418 106.581 37.8505 109.132C39.2096 109.915 40.4618 110.555 40.633 110.555C40.8041 110.555 42.2681 109.806 43.8862 108.891C45.5042 107.976 48.0122 106.722 49.4594 106.103C52.2004 104.933 58.1558 102.848 60.7512 102.15C61.5783 101.928 62.2526 101.689 62.2493 101.619C62.2462 101.549 61.5831 100.989 60.7757 100.374C57.7714 98.0835 55.6584 94.7565 54.9821 91.2511C54.4987 88.7462 54.6633 88.8247 52.0395 89.8447C47.9066 91.4509 44.9351 93.3773 41.9207 96.4043C40.8251 97.5042 40.6662 97.5968 40.3683 97.3079C40.1857 97.1309 39.5123 96.4788 38.872 95.8588C36.2934 93.3628 32.8418 91.1721 29.6545 90.0089C26.9394 89.0181 26.9461 89.0187 26.7331 89.6648Z" fill="currentColor"/>
</svg>
