<svg width="81" height="115" viewBox="0 0 81 115" fill="none" xmlns="http://www.w3.org/2000/svg">
    <path fill-rule="evenodd" clip-rule="evenodd" d="M33.5019 1.06055C32.319 1.35187 32.0514 1.77563 31.1667 4.75692C30.4948 7.02151 29.8979 8.14886 29.3712 8.14886C29.2129 8.14886 28.4981 7.87478 27.7827 7.53955C26.0654 6.73525 24.946 6.89919 23.5345 8.16174C22.977 8.66046 22.5208 9.17206 22.5208 9.29852C22.5208 9.42498 22.9816 9.52845 23.5451 9.52845C24.1085 9.52845 25.614 9.83886 26.8905 10.2182C28.167 10.5976 29.4329 10.908 29.7033 10.908C30.7066 10.908 31.0032 11.5125 31.0032 13.5559C31.0032 15.2261 30.9266 15.5582 30.4249 16.0642C30.1066 16.3852 29.3838 16.7791 28.8183 16.9396C27.5763 17.2923 27.3452 18 28.1534 18.9777C28.4484 19.3348 28.6898 19.6689 28.6898 19.7206C28.6898 19.7721 28.2189 20.0931 27.6431 20.4339C26.5322 21.0915 25.0917 23.3593 25.0915 24.4514C25.0912 24.9541 24.9578 24.8911 23.6132 23.7552C22.8004 23.0686 21.8026 22.2945 21.3964 22.0353C20.7986 21.6539 20.613 21.3097 20.424 20.2331C20.0747 18.2403 19.1185 15.8516 18.6702 15.8516C18.4607 15.8516 18.0143 16.3172 17.678 16.8862C16.6152 18.6843 14.7681 21.025 14.4123 21.025C14.1982 21.025 14.0082 20.6157 13.9054 19.9328C13.5443 17.5356 12.6019 15.2767 11.9629 15.2767C11.3704 15.2767 10.9232 16.9348 10.9797 18.9234L11.0358 20.91L9.95027 21.2529C8.88945 21.5879 8.85321 21.5828 8.36354 21.0229C8.08799 20.7079 7.44307 19.7029 6.93052 18.7894C6.41797 17.8759 5.90697 17.1792 5.79516 17.241C5.40471 17.4569 5.24354 19.8742 5.52449 21.306C5.70828 22.2427 6.0833 23.1001 6.59302 23.7481C7.47314 24.8674 7.55951 24.6197 5.53786 26.7733C3.30569 29.151 3.36018 28.9337 4.39453 31.3294C4.89191 32.4813 5.29881 33.7853 5.29881 34.227C5.29881 35.1097 3.86296 38.1912 2.06776 41.1617L0.913635 43.071L2.11377 45.1682C2.77386 46.3218 3.38897 47.5954 3.48099 47.9985C3.62314 48.6236 3.85499 48.8069 5.05179 49.2419C6.82796 49.8876 9.4092 49.9434 10.6741 49.3636C11.4283 49.0177 11.6355 48.7257 12.1562 47.2733C12.4888 46.3446 13.0924 45.1547 13.4972 44.629C14.2229 43.687 17.3112 41.121 17.5079 41.2969C17.6822 41.4525 18.106 44.2743 18.2793 46.4324C18.4633 48.7227 18.0855 52.8105 17.4927 54.9398C17.2814 55.6986 16.4746 57.5135 15.6996 58.9728C13.0464 63.9679 13.0142 66.5399 15.552 70.7938C16.3404 72.1155 16.3517 72.1812 16.3517 75.441C16.3517 78.3052 16.472 79.2826 17.2514 82.7456C18.2425 87.1507 18.3736 89.3729 17.7654 91.4619C17.247 93.2425 17.2791 93.9849 17.924 95.1155C18.4227 95.9899 18.4415 96.1764 18.1487 97.3481C17.749 98.9487 16.9396 100.6 15.7178 102.309C14.865 103.502 14.7871 103.739 14.9344 104.696C15.0847 105.675 15.0104 105.879 13.9897 107.281C13.3803 108.118 12.3611 109.689 11.7249 110.773C10.333 113.142 10.4258 113.356 12.8302 113.316C14.0609 113.296 15.2369 113.022 17.994 112.115C19.9575 111.469 21.6265 110.885 21.7031 110.817C21.7794 110.748 21.637 109.914 21.3862 108.963C21.1355 108.011 21.0027 107.065 21.0908 106.859C21.179 106.653 21.7869 105.765 22.4413 104.884L23.6312 103.283L23.1698 101.692C22.5922 99.6992 22.7323 98.0637 23.6787 95.7489C25.5014 91.2915 25.4639 91.4393 25.1367 90.022C24.5116 87.3144 25.0783 83.6093 26.6273 80.2812C27.4943 78.4179 28.0056 77.9718 29.1371 78.0911C29.7159 78.1523 29.8642 78.3321 30.1444 79.3125C31.4775 83.9755 31.5754 89.0462 30.3902 92.0565C29.4656 94.405 29.5157 94.8784 30.9174 97.02C31.9807 98.6451 32.1303 99.0441 32.2378 100.543C32.3553 102.18 32.3242 102.294 31.2374 104.185L30.1159 106.136L30.7045 107.051L31.2932 107.966L30.7762 108.75C29.9432 110.013 28.4328 113.21 28.4328 113.71C28.4328 114.298 29.8167 114.838 31.3163 114.834C32.3314 114.831 38.4811 112.836 39.0561 112.324C39.1734 112.219 38.9112 111.363 38.4732 110.422L37.6771 108.712L38.5814 106.961C39.0788 105.998 39.4857 105.022 39.4857 104.792C39.4857 104.562 39.0782 103.861 38.5801 103.234C37.5391 101.924 36.9152 100.258 36.9152 98.7861C36.9152 98.2239 37.2252 96.5863 37.6044 95.147L38.2932 92.5299L37.6956 91.2398C37.1036 89.9623 37.1021 89.9326 37.5231 88.195C37.7573 87.23 38.6125 84.6306 39.424 82.4187L40.8994 78.397L42.5216 78.0845C44.5577 77.6924 44.8062 77.8564 45.7745 80.2311C46.7687 82.6698 47.2646 83.042 50.3424 83.6619C52.7993 84.1565 53.33 90.1363 51.3338 94.8329C50.7475 96.2127 49.7592 97.762 48.3305 99.5419C47.5628 100.498 47.4278 100.839 47.5113 101.611C47.5939 102.373 47.3707 102.962 46.2475 104.95C44.7288 107.638 44.3579 108.795 44.9139 109.11C45.849 109.64 48.9289 109.159 52.3379 107.95C54.5207 107.176 54.5718 107.09 53.9529 105.249C53.3632 103.494 53.4005 103.357 54.8556 101.916L55.7887 100.992L55.8139 98.4299C55.8362 96.1384 55.928 95.6487 56.6829 93.7982C57.1472 92.66 58.2391 90.4897 59.1094 88.9752C60.3481 86.8196 60.7111 86.3452 60.7807 86.7908C60.9041 87.5811 61.2838 87.932 62.5351 88.4116C63.1288 88.6395 63.8126 89.0959 64.0544 89.4261C64.4693 89.9926 64.4696 90.1398 64.0557 92.0231C63.5319 94.4084 62.5798 96.5932 60.9779 99.0866C59.6883 101.094 59.6502 101.233 60.0924 102.326C60.3556 102.977 60.2947 103.303 59.596 104.986C58.2835 108.147 58.1964 108.587 58.8246 108.888C59.7944 109.352 63.0445 109.002 65.4008 108.18C66.5768 107.769 67.6004 107.291 67.6749 107.117C67.7497 106.943 67.4955 106.081 67.1099 105.203L66.4092 103.605L66.9385 102.84C67.2294 102.42 67.8081 101.784 68.2242 101.428L68.9812 100.781L68.5154 99.4416C67.8294 97.4704 67.6762 95.6498 68.0124 93.4706C68.5741 89.8312 69.6927 87.4206 74.3038 79.9122C78.115 73.7059 79.0666 71.1367 79.0761 67.025C79.081 64.9694 79.1591 64.5087 79.5845 64.0221L80.0873 63.4473L80.093 65.439C80.0996 67.7962 79.6197 70.2231 78.7288 72.3355C78.3738 73.1773 76.1792 77.2128 73.8517 81.3033C69.504 88.9441 68.6679 90.7801 68.3764 93.3243C68.2332 94.5742 68.2946 94.9548 68.7866 95.8637C69.139 96.5151 69.7564 97.1644 70.3672 97.5258C71.509 98.2016 71.84 98.0993 71.3874 97.2106C70.8263 96.1092 70.7463 93.8725 71.2026 92.0385C71.7005 90.0363 72.4567 88.5457 75.0978 84.36C78.7692 78.542 79.7028 76.3221 80.4729 71.5804C80.9749 68.489 80.989 63.0104 80.5009 60.7279C79.4285 55.7149 75.7903 51.0361 71.3853 49.0053C68.9573 47.886 67.5736 47.6067 65.2412 47.7651C63.6725 47.8718 62.9692 47.8088 61.8485 47.4609C60.7046 47.1059 59.6911 47.0208 56.5392 47.0148L52.6437 47.0072L51.9312 45.915C51.2017 44.7971 48.7845 41.7843 47.873 40.8568C47.5936 40.5724 47.3324 40.1068 47.2931 39.8221C47.2535 39.5374 47.1474 38.9831 47.0569 38.5901L46.8924 37.876L49.3757 37.1103C52.2145 36.2349 53.274 35.4316 52.9738 34.3822C52.88 34.0543 52.5245 32.4928 52.1836 30.912C51.843 29.3313 51.3845 27.4838 51.1647 26.8064C50.7971 25.6728 50.7995 25.5411 51.1948 25.1502C51.5971 24.7526 51.5883 24.6197 51.0555 23.0507C50.0466 20.0798 49.4746 19.3743 47.0839 18.1539C44.8684 17.0226 43.9778 15.8345 43.2483 13.0377L42.884 11.6411L44.5204 11.2732C48.4228 10.3964 50.7755 9.17918 50.4332 8.21393C50.2005 7.55863 48.447 5.96406 47.4535 5.50443C46.3241 4.98202 44.3181 4.81854 43.0213 5.14343C42.4144 5.29542 41.0032 6.02292 39.8851 6.76008C38.0899 7.94399 37.2242 8.31533 35.2444 8.75128C34.9617 8.81359 35.4665 8.52756 36.3662 8.11552C38.0544 7.34272 41.7991 4.42973 41.7991 3.88916C41.7991 3.39182 40.017 2.22561 38.3382 1.62457C36.4168 0.936384 34.7807 0.745771 33.5019 1.06055ZM36.9152 4.90522C36.9152 5.23472 37.6298 5.38831 38.4657 5.23885C39.7466 5.00961 39.6029 4.6999 38.2156 4.6999C37.5005 4.6999 36.9152 4.79233 36.9152 4.90522ZM34.928 10.8892C34.3296 10.9791 33.7618 11.123 33.6657 11.2088C33.5698 11.2948 33.6256 11.7657 33.7896 12.2554C33.9536 12.745 34.0877 13.8321 34.0877 14.6711C34.0877 16.1822 34.0944 16.1965 34.7946 16.1951C36.1685 16.1928 37.4028 15.7131 38.6801 14.6858C39.3908 14.1142 40.055 13.4184 40.156 13.1395C40.3321 12.6532 40.3532 12.6606 40.6722 13.3223C40.9971 13.996 41.005 13.982 41.0164 12.7178C41.0274 11.4898 40.9881 11.4091 40.2486 11.135C39.2985 10.783 39.1376 10.894 39.4687 11.6728C39.6396 12.0752 39.6365 12.3191 39.4587 12.4175C39.1109 12.6098 39.0592 12.5465 38.7868 11.5978C38.5639 10.8214 38.5109 10.7919 37.2856 10.7593C36.587 10.7409 35.5262 10.7993 34.928 10.8892ZM35.1426 11.808C34.9398 11.923 34.8548 12.1761 34.9465 12.3904C35.0743 12.6884 35.3161 12.7387 36.0765 12.6256C37.5342 12.4088 37.691 12.3359 37.526 11.9515C37.3579 11.5597 35.7518 11.4631 35.1426 11.808ZM33.0596 12.9774C33.0596 13.1039 33.1822 13.2073 33.3318 13.2073C33.4814 13.2073 33.5325 13.1039 33.4451 12.9774C33.3577 12.851 33.2354 12.7475 33.1729 12.7475C33.1105 12.7475 33.0596 12.851 33.0596 12.9774ZM38.7102 15.7439C38.2179 16.1061 37.3812 16.5784 36.851 16.794C35.7971 17.2226 35.7706 17.2723 36.1377 18.1359C36.4639 18.903 37.1964 18.9009 39.0862 18.127C40.236 17.6561 40.5087 17.4473 40.3635 17.1497C40.2617 16.9417 40.1254 16.434 40.0607 16.0219C39.9959 15.6097 39.8671 15.2305 39.7743 15.1792C39.6815 15.128 39.2027 15.382 38.7102 15.7439ZM39.4967 18.5059C37.8786 19.3037 37.6897 19.5088 37.7067 20.4502C37.718 21.0848 37.7372 21.0993 37.948 20.6307C38.0927 20.309 38.8916 19.8181 40.1167 19.298C42.0818 18.464 42.3836 18.1975 41.6495 17.9455C41.0583 17.7425 41.03 17.7499 39.4967 18.5059ZM18.3248 18.697C17.8873 20.6514 18.2284 23.3319 18.8443 22.7808C19.2044 22.4586 19.2211 19.4973 18.8674 18.7257L18.4985 17.9209L18.3248 18.697ZM43.3084 20.3725C42.0389 21.8063 40.5722 22.9955 38.7521 24.0672C36.7271 25.2594 35.8063 26.3633 36.197 27.1301C36.3459 27.4226 36.8011 27.7854 37.2085 27.9365C38.7546 28.5093 42.2484 27.6647 43.0378 26.5275C43.3352 26.0991 43.2956 25.9343 42.7164 25.1865C42.3532 24.7179 42.0561 24.1082 42.0561 23.8318C42.0561 23.07 42.9627 21.0961 43.721 20.2067C44.6813 19.0805 44.3258 19.2233 43.3084 20.3725ZM34.6193 20.1343C34.8311 20.4886 34.8355 20.7732 34.6345 21.1676C34.3756 21.6759 34.3918 21.693 34.8807 21.4258C35.3246 21.1834 35.4601 21.2073 35.7716 21.583C36.5235 22.4901 36.3952 21.73 35.6238 20.7077C34.8167 19.6376 34.0656 19.2092 34.6193 20.1343ZM46.75 20.2593C46.2994 20.4545 45.6174 20.982 45.2342 21.4313C43.5907 23.3588 43.6405 25.493 45.2918 23.8991C46.1105 23.1089 46.4258 23.1783 46.4258 24.1493V24.9743L47.5183 24.817C48.119 24.7306 48.8624 24.517 49.17 24.3427C49.6664 24.0615 49.7008 23.9323 49.4741 23.1979C49.0865 21.9422 48.3388 20.4759 47.9324 20.174C47.6514 19.9657 47.3833 19.985 46.75 20.2593ZM28.4952 23.8803C27.9038 24.5528 27.7226 25.3937 28.169 25.3937C28.5199 25.3937 29.252 24.0624 29.1533 23.6039C29.089 23.305 28.9497 23.3634 28.4952 23.8803ZM35.2596 23.6308C34.8311 23.9111 34.8578 23.9375 35.5714 23.9375C36.1163 23.9375 36.3125 23.8449 36.2207 23.6308C36.1482 23.4623 36.0079 23.3243 35.9086 23.3243C35.8094 23.3243 35.5174 23.4623 35.2596 23.6308ZM19.2704 24.3629C19.1882 24.5547 19.2154 24.9943 19.3308 25.3401C19.7334 26.5438 19.484 31.1445 18.9278 32.7851C18.2255 34.8556 15.2618 38.4108 14.4655 38.1374C14.2306 38.0567 14.0383 37.859 14.0383 37.698C14.0383 37.5373 14.8431 36.1607 15.8271 34.6395C17.8577 31.4995 18.6651 29.5961 18.6651 27.9498C18.6651 26.8813 18.5911 26.754 17.4441 25.8499C16.6961 25.2603 16.2049 25.0076 16.1761 25.198C15.9425 26.7374 15.7266 27.3159 15.1618 27.9163C14.3586 28.7702 13.3664 28.8877 13.6481 28.0954C13.9746 27.1777 14.1152 24.7039 13.8412 24.7039C13.4749 24.7039 13.2746 25.5326 13.2708 27.0658C13.2674 28.283 13.1849 28.4739 12.2755 29.3651C11.1121 30.5055 10.7846 31.0238 10.2947 32.4993C10.0955 33.0994 9.46652 34.2352 8.89716 35.0232C8.32781 35.8114 7.24154 37.5628 6.48352 38.915C5.7255 40.2675 4.90347 41.72 4.65697 42.1428C4.2367 42.8639 4.2349 43.0066 4.62689 44.4272C5.27284 46.7688 5.79413 47.5692 6.72643 47.6508C7.85794 47.7497 9.74644 46.222 10.2988 44.7608C10.8597 43.2768 12.0956 41.8032 15.6207 38.4163C18.9597 35.2081 19.5555 34.218 19.9138 31.2804L20.113 29.6474L20.5772 31.0105C21.4473 33.5643 20.7551 36.0207 18.5479 38.2124C17.8793 38.8762 17.4876 39.4172 17.6773 39.4144C18.4816 39.4027 20.1901 38.4892 20.8456 37.7205C22.8135 35.4125 22.7135 32.2622 20.5328 27.8606C20.1711 27.1308 19.9603 26.4583 20.0644 26.3661C20.3809 26.0856 23.3662 29.1006 24.2525 30.5959C25.2683 32.3098 25.9196 34.7057 26.6828 39.5345C27.1794 42.6751 27.2614 44.1386 27.2437 49.5365C27.2247 55.3937 27.1751 56.0628 26.5692 58.6187C26.2096 60.1363 25.9487 61.4099 25.9893 61.4487C26.125 61.5784 34.1337 56.5687 35.8462 55.2831C38.9996 52.9155 39.7977 50.3539 37.9794 48.4353C33.9428 44.1754 32.9223 42.7291 29.5954 36.5506C28.2426 34.0377 26.4908 31.1148 25.7027 30.0555C24.316 28.191 20.1351 24.0141 19.656 24.0141C19.5262 24.0141 19.3527 24.1712 19.2704 24.3629ZM31.5659 25.0295C31.26 25.4194 30.7564 26.0207 30.447 26.3654C29.8997 26.9745 29.8971 27.0051 30.3549 27.4576C31.0269 28.1216 32.6383 28.0956 33.1734 27.4118C33.7675 26.6533 33.6616 25.889 32.8478 25.0598L32.1221 24.3204L31.5659 25.0295ZM9.19379 26.788C8.10084 27.9255 7.35516 29.2292 7.35516 30.0027C7.35516 31.0856 7.68957 30.9419 8.57612 29.4777C9.62666 27.7431 10.5039 25.8462 10.243 25.8731C10.1392 25.8837 9.66701 26.2955 9.19379 26.788ZM48.1609 26.8211C47.5399 26.9678 47.1967 27.1839 47.1962 27.4284C47.1957 27.6371 47.6003 28.7392 48.0953 29.8774L48.9953 31.9467L50.2928 32.3128C51.4793 32.6473 51.5752 32.6473 51.4112 32.3128C51.3128 32.1114 50.8735 30.7651 50.4355 29.3209C49.9975 27.8765 49.5232 26.6721 49.3819 26.6443C49.2405 26.6162 48.6912 26.696 48.1609 26.8211ZM42.0561 28.6058C41.844 28.7128 40.8829 29.0275 39.9206 29.3055C38.24 29.7909 37.6516 29.8086 36.5297 29.4081C36.0225 29.2271 36.0222 29.2312 36.5052 29.7233C36.9044 30.1303 37.2841 30.2241 38.5616 30.2319L40.1283 30.2413L39.1214 31.0367C38.5402 31.4958 37.8406 31.8318 37.4658 31.8318C36.8402 31.8318 36.8348 31.8437 37.316 32.1693C38.0622 32.6742 38.3061 32.6154 40.2504 31.4588C41.5903 30.6619 42.1088 30.2016 42.3242 29.6173C42.6702 28.6799 42.5805 28.3414 42.0561 28.6058ZM32.8382 29.3223C32.5046 29.5644 32.064 29.7624 31.8592 29.7624C31.6546 29.7624 31.5584 29.8659 31.6458 29.9923C31.9394 30.4172 32.7871 30.2273 33.2169 29.6403C33.7641 28.8932 33.6091 28.7633 32.8382 29.3223ZM45.9118 29.4313C45.9118 29.5527 45.036 30.448 43.9657 31.4211C42.3448 32.8947 42.0335 33.2978 42.1021 33.8331C42.2121 34.6907 42.882 34.6436 45.4439 33.5981L47.4178 32.7924L46.897 31.2199C46.423 29.7891 45.9118 28.8608 45.9118 29.4313ZM14.1702 30.1089C12.9436 30.4998 12.4955 30.9884 12.4976 31.9332C12.4991 32.7294 12.9585 34.361 13.1811 34.361C13.2618 34.361 13.7232 34.0506 14.2062 33.6712C14.756 33.2394 15.367 32.9814 15.8399 32.9814C16.4057 32.9814 16.6859 32.8225 16.9552 32.3491C17.6577 31.1135 17.6906 30.7302 17.1359 30.234C16.5247 29.6872 15.6145 29.649 14.1702 30.1089ZM15.2379 30.6055C14.8004 30.9967 15.0968 31.3993 15.771 31.3296C16.6969 31.2342 16.9257 30.4522 16.0278 30.4522C15.6875 30.4522 15.332 30.5212 15.2379 30.6055ZM32.8267 32.1507C32.6442 32.3473 32.6185 32.5347 32.7632 32.6147C32.8966 32.6885 33.0783 32.5795 33.1673 32.3723C33.3852 31.8642 33.2027 31.7453 32.8267 32.1507ZM37.3008 33.4413C36.9242 33.5861 37.1517 33.6432 38.1513 33.6551C38.9998 33.665 39.4558 33.5843 39.3571 33.4413C39.1669 33.1658 38.0172 33.1658 37.3008 33.4413ZM49.626 33.8618C49.36 34.0695 43.2418 36.1995 42.9054 36.2018C42.7918 36.2025 42.2651 36.3108 41.7348 36.4426C41.0585 36.6104 40.7709 36.8107 40.7709 37.1133C40.7709 37.477 40.6488 37.4354 39.9933 36.8491C39.233 36.169 39.169 36.1554 37.0579 36.2345C35.2167 36.3035 34.8054 36.395 34.2553 36.8571C33.9009 37.1554 33.6736 37.5456 33.7505 37.7244C33.8572 37.9735 34.0312 37.9137 34.4908 37.4701C35.3041 36.6849 35.5303 36.7367 34.8763 37.558C34.363 38.2029 34.1523 39.1896 34.5278 39.1896C34.6286 39.1896 34.9758 38.9049 35.2997 38.5573L35.8883 37.9249L35.6305 38.5722C35.3233 39.3438 35.292 40.3392 35.5745 40.3392C35.6855 40.3392 35.9757 40.0371 36.2197 39.6676C36.4942 39.2519 37.1 38.8467 37.8097 38.6042C38.9001 38.2317 39.2888 38.2331 40.3211 38.6134C40.6604 38.7382 40.7709 38.6672 40.7709 38.3243C40.7709 37.936 41.187 37.7794 43.6261 37.2496C45.1964 36.9084 47.5185 36.2212 48.786 35.7222C50.0538 35.2233 51.1979 34.874 51.3287 34.9464C51.8767 35.2495 51.5117 34.5857 50.8894 34.1479C50.1383 33.6193 49.9821 33.5838 49.626 33.8618ZM11.2334 40.2475C9.87033 41.6868 9.2835 42.1561 9.07761 41.972C8.92184 41.8326 8.64269 41.7188 8.45711 41.7188C8.18772 41.7188 8.198 41.8873 8.50851 42.5516C9.00461 43.6141 9.00127 43.7932 8.4972 43.1497C7.77851 42.2316 6.12238 42.565 5.5795 43.7371C5.20807 44.5391 5.54017 45.4809 6.32724 45.8578C7.09888 46.2271 8.54707 45.7529 9.01823 44.9767C9.30124 44.5106 9.39352 44.463 9.40123 44.779C9.4074 45.0252 9.52847 45.1303 9.69812 45.0365C9.87033 44.9413 9.93562 44.4874 9.86185 43.9013C9.74232 42.9519 9.79168 42.8742 11.6316 41.1182C12.8325 39.9718 13.5242 39.1213 13.5242 38.7906C13.5242 38.5041 13.4301 38.2698 13.3152 38.2698C13.2001 38.2698 12.2634 39.1597 11.2334 40.2475ZM42.8915 39.8177C42.2908 39.8662 41.7991 40.0155 41.7991 40.1493C41.7991 40.4298 45.0239 40.1909 45.6547 39.8635C46.0534 39.6566 45.0895 39.6407 42.8915 39.8177ZM16.0484 41.0364C13.4193 42.2785 10.8574 45.2508 10.6643 47.2822C10.5471 48.5149 10.8535 48.5848 11.0399 47.368C11.3848 45.1176 12.895 43.1809 15.4628 41.6954C16.3759 41.1672 17.1228 40.6977 17.1228 40.6522C17.1228 40.5326 17.0899 40.5443 16.0484 41.0364ZM46.0064 43.6693C45.9256 43.8572 46.5585 45.1227 47.4147 46.486C49.5225 49.8418 49.7641 50.3667 52.2433 56.9713C53.4318 60.1377 54.4757 62.7865 54.5631 62.8577C54.9325 63.1594 54.3814 56.4521 53.8878 54.6416C52.5671 49.7954 48.5141 43.3283 46.7973 43.3283C46.4428 43.3283 46.0868 43.4819 46.0064 43.6693ZM38.778 47.1222C38.8287 47.2486 39.0854 47.766 39.3487 48.2718C39.6119 48.7777 39.8795 49.7807 39.9435 50.5008C40.1221 52.5157 39.4908 53.4283 35.7359 56.582C33.9803 58.0566 32.1221 59.8316 31.6065 60.5265C29.5979 63.2332 29.2252 66.2104 30.584 68.6946C31.2716 69.952 33.0277 71.8398 33.5096 71.8398C33.6595 71.8398 34.1037 71.3484 34.4969 70.7476C36.4412 67.7785 38.9428 65.0692 39.3792 65.4599C39.4379 65.5123 39.014 66.5813 38.4372 67.8353C37.8406 69.1328 37.3275 70.6766 37.2468 71.4176C37.1178 72.6011 37.1661 72.7749 37.7753 73.3198C38.4228 73.899 38.4773 73.9078 39.3661 73.5758C42.1204 72.5464 43.6878 70.5246 44.25 67.2766C44.5001 65.8321 44.9157 66.409 44.9157 68.2002C44.9157 70.6136 43.8827 73.4203 42.4969 74.7714C42.1864 75.0742 42.097 75.2887 42.281 75.2887C43.3439 75.2887 45.6521 73.3714 46.3259 71.929C46.5264 71.5002 46.8556 70.451 47.0579 69.5975C47.26 68.7442 47.6054 67.5932 47.8252 67.0397C48.057 66.4566 48.2252 65.278 48.2252 64.2353V62.437L47.1602 62.4749C46.2117 62.5087 45.9922 62.4089 45.1496 61.5593C44.6294 61.0349 43.8099 59.9519 43.3285 59.1524C42.4879 57.7563 42.4478 57.5762 42.3111 54.5855C42.1846 51.8142 42.0929 51.3338 41.4765 50.2168C40.8976 49.1674 38.4914 46.4082 38.778 47.1222ZM57.991 49.0097C61.1833 51.292 63.0255 53.4028 63.8383 55.7099C64.0858 56.4119 64.5325 57.2049 64.8312 57.4721C65.8486 58.3821 66.5488 60.4931 66.6737 63.0272C66.7765 65.1115 66.7048 65.6376 66.0147 67.8558C64.6544 72.2272 64.8001 72.5762 66.9686 70.1387C68.6026 68.3018 69.7755 66.0887 70.1492 64.1373C70.3104 63.2951 70.5546 62.6706 70.7052 62.715C70.8527 62.7587 71.008 63.5533 71.0499 64.4808C71.1383 66.4348 70.4805 68.7104 69.4249 70.1017C69.0609 70.5816 68.8131 71.0185 68.874 71.073C69.1341 71.3056 70.982 69.0585 71.8359 67.4711C72.6765 65.9089 72.7729 65.5277 72.8605 63.4197C72.9713 60.7546 72.6215 59.3649 71.2075 56.8531C69.0563 53.0321 62.5076 48.682 58.5614 48.453L57.0932 48.3677L57.991 49.0097ZM66.0915 48.932C65.6399 49.2274 65.6815 49.2868 66.7493 49.8733C70.1443 51.7378 71.5103 52.7845 72.6855 54.4225C73.4288 55.4588 74.0838 55.9118 73.7656 55.1698C73.5106 54.5754 74.3688 54.78 75.3441 55.5462C76.5396 56.4852 77.459 57.9126 78.1857 59.9581C78.9275 62.047 79.0077 61.0965 78.2985 58.6164C77.1041 54.4381 72.8914 50.3152 68.4584 48.9855C66.959 48.536 66.7058 48.5303 66.0915 48.932ZM55.5751 50.2667C55.6884 50.4341 56.1748 51.0634 56.6554 51.6649C57.8186 53.1204 58.5069 54.806 58.5069 56.1989C58.5069 57.1368 58.3707 57.4769 57.7358 58.1237C56.9536 58.9206 56.7546 59.4235 57.2217 59.4235C57.6183 59.4235 57.5255 60.2522 57.0932 60.5732C56.8811 60.7307 56.7076 61.0082 56.7076 61.1903C56.7076 61.4529 56.959 61.4899 57.9286 61.3692C60.7226 61.0215 61.8906 59.8546 61.9166 57.3847C61.9354 55.6064 61.1797 54.2363 59.1706 52.406C57.7533 51.1147 55.0659 49.516 55.5751 50.2667ZM43.4863 51.0308C43.7202 51.5316 44.0112 52.9663 44.1328 54.2192C44.3806 56.7706 45.1905 58.6725 46.6716 60.1816C48.0311 61.5667 48.3349 61.2163 47.1906 59.5835C46.1246 58.0628 45.6547 56.5169 45.6547 54.5313C45.6547 53.2057 44.9245 51.7174 43.8025 50.7558L43.0609 50.1203L43.4863 51.0308ZM54.587 53.1376C54.7638 53.2016 55.053 53.2016 55.2296 53.1376C55.4065 53.074 55.2617 53.0218 54.9083 53.0218C54.5549 53.0218 54.4104 53.074 54.587 53.1376ZM57.0932 56.2045C56.9968 56.4765 56.9754 56.7508 57.0461 56.814C57.1168 56.8772 57.2538 56.7064 57.3502 56.4344C57.4466 56.1624 57.4679 55.8881 57.3973 55.8248C57.3266 55.7616 57.1896 55.9325 57.0932 56.2045ZM63.7113 59C63.0977 61.3402 62.013 62.1296 59.0408 62.3974C57.718 62.5168 56.8179 62.7099 56.6806 62.9037C56.5583 63.0762 56.4567 63.9026 56.4544 64.7397L56.4506 66.2621L55.1566 66.4157C54.4449 66.5001 53.4617 66.5019 52.9717 66.4198C52.4445 66.3313 52.0808 66.3628 52.0808 66.4971C52.0808 66.8376 53.5598 67.0347 54.9127 66.874C56.066 66.7372 56.1408 66.7647 56.9284 67.6189C57.378 68.1066 58.0532 69.1006 58.4285 69.8279C58.8041 70.5552 59.1968 71.15 59.3014 71.15C59.7348 71.15 61.6544 68.9045 62.4741 67.4387C63.7092 65.2304 64.1994 63.044 64.1082 60.1496L64.0334 57.7717L63.7113 59ZM17.9084 66.9347C17.9248 68.7329 18.3844 69.9176 19.6933 71.5337L20.5929 72.6445L20.67 71.938C20.7937 70.8062 20.0364 68.0188 19.2558 66.7321C18.2027 64.9966 17.8911 65.0435 17.9084 66.9347ZM25.5076 66.6098C24.6501 67.6155 24.3201 68.4557 24.3201 69.6338C24.3201 71.8453 25.6929 74.2564 27.3534 74.9613C28.1536 75.3009 28.4533 75.3182 29.4522 75.082C30.0933 74.9303 30.8803 74.5741 31.2011 74.2904L31.7849 73.7744L30.6341 73.0488C28.6333 71.7874 27.1866 69.5099 26.7566 66.9448C26.6569 66.349 26.4785 65.8616 26.3602 65.8616C26.2422 65.8616 25.8585 66.1982 25.5076 66.6098ZM50.6966 69.1139C50.1352 70.1215 50.0245 70.6329 50.0245 72.2148C50.0245 73.2566 50.1329 74.3646 50.2658 74.6769C50.5712 75.3957 51.5408 76.2128 52.0651 76.194C52.3214 76.1846 52.2623 76.1059 51.9014 75.9758C51.1352 75.6999 50.5242 74.5663 50.3561 73.109C50.2476 72.1684 50.372 71.4832 50.9182 70.0162C51.304 68.9797 51.5634 68.0813 51.4942 68.0195C51.4254 67.9579 51.0663 68.4501 50.6966 69.1139ZM56.5724 69.5235C56.7922 70.0808 56.9014 70.7361 56.8151 70.9794C56.6382 71.4776 55.2584 72.0697 54.2739 72.0697C53.4388 72.0697 53.4478 72.3728 54.3004 72.9726C55.0091 73.4714 55.5931 73.5452 56.9325 73.3056C57.6111 73.1842 57.7358 73.0582 57.7358 72.4935C57.7358 71.7494 56.805 69.0926 56.42 68.738C56.284 68.6127 56.3526 68.9661 56.5724 69.5235ZM65.5756 74.3177L63.7763 75.4037L63.8691 77.2432C63.92 78.2549 64.019 79.1343 64.0889 79.1976C64.3223 79.4087 66.4383 77.0703 67.2567 75.6964C67.8147 74.7599 68.0165 74.1665 67.9078 73.7797C67.8214 73.4714 67.6662 73.2221 67.5628 73.2256C67.4595 73.229 66.5652 73.7204 65.5756 74.3177ZM55.6794 74.8714C54.3364 75.4704 53.0931 75.9647 52.9162 75.9696C52.7396 75.9746 52.5949 76.0795 52.5949 76.2027C52.5949 76.494 53.894 76.2912 55.6794 75.7215C57.37 75.1818 58.3378 74.5677 58.2126 74.1136C58.1429 73.8602 57.5445 74.0393 55.6794 74.8714ZM34.8668 75.9684C34.5694 76.3423 34.1001 77.1047 33.824 77.6628C33.3403 78.6411 33.3369 78.7717 33.7281 81.2943C33.9512 82.7337 34.1751 83.9489 34.2258 83.9949C34.3864 84.1413 36.1485 82.3371 36.808 81.3507C37.6008 80.1649 39.0232 76.7205 38.7721 76.595C38.6698 76.5439 38.2459 76.429 37.8306 76.34C37.4152 76.2508 36.761 75.9778 36.3772 75.7334C35.4876 75.1666 35.5076 75.1634 34.8668 75.9684ZM20.1063 77.4919C19.8149 78.1714 19.9488 80.6204 20.3539 82.0188C20.7908 83.5272 22.0131 86.3965 22.1619 86.2634C22.2123 86.2181 22.0689 85.3085 21.8434 84.2413C21.5671 82.9353 21.4705 81.5417 21.5476 79.9757C21.6494 77.9111 21.6098 77.6205 21.1952 77.3889C20.5621 77.0353 20.2912 77.0608 20.1063 77.4919ZM35.7472 87.6434C35.4706 88.1056 34.8648 88.8912 34.4006 89.3897C33.9366 89.888 33.5916 90.3272 33.6343 90.3653C33.677 90.4035 34.2013 90.3759 34.7995 90.3042C35.8513 90.1779 35.887 90.1464 35.887 89.3403C35.887 88.8818 36.0007 88.1522 36.1397 87.7188C36.48 86.6572 36.3523 86.6326 35.7472 87.6434ZM21.8069 89.9025C21.4926 90.0993 21.2355 90.4097 21.2355 90.5923C21.2355 91.0353 21.4162 91.011 22.1935 90.4642C22.5531 90.2113 23.0919 90.0027 23.3908 90.0009C23.836 89.9979 23.8646 89.957 23.5489 89.7744C22.9945 89.4539 22.4598 89.4932 21.8069 89.9025ZM34.6604 91.3929C34.0705 91.6049 33.6433 92.2126 33.914 92.4547C33.9947 92.5269 34.3715 92.3673 34.7514 92.0999C35.1313 91.8325 35.7806 91.6139 36.194 91.6139C36.6296 91.6139 36.8787 91.5173 36.7867 91.3839C36.5926 91.1032 35.4537 91.108 34.6604 91.3929Z" fill="currentColor"/>
</svg>
