<svg width="81" height="114" viewBox="0 0 81 114" fill="none" xmlns="http://www.w3.org/2000/svg">
    <path fill-rule="evenodd" clip-rule="evenodd" d="M27.5268 1.07611C26.1171 3.7094 27.1467 5.66563 30.745 7.19269C31.6071 7.55831 32.3127 7.91659 32.3127 7.98825C32.3127 8.44781 31.2165 10.1805 30.212 11.3085C29.5607 12.04 29.0279 12.6879 29.0279 12.7484C29.0279 12.8089 29.3717 12.9315 29.7915 13.0209C30.3272 13.1348 30.513 13.3128 30.4144 13.6179C30.3368 13.8569 30.0522 14.9323 29.7816 16.0071C29.3313 17.7973 29.1749 18.0474 27.9225 18.9823C27.1703 19.5436 26.3927 20.0029 26.1941 20.0029C25.9955 20.0029 23.8309 19.1939 21.3837 18.2052C18.9363 17.2167 15.9421 16.0087 14.7297 15.521C12.2614 14.5284 10.134 13.0059 9.33226 11.6587C9.03842 11.1649 8.56751 10.0774 8.28561 9.24185C7.77528 7.72821 6.77552 6.07683 6.36971 6.07683C6.25205 6.07683 6.01077 6.79567 5.8331 7.67453C5.65572 8.55314 5.02833 10.202 4.43917 11.3384C3.85 12.4747 3.21067 14.1699 3.01836 15.1052C2.64062 16.9452 2.82217 20.7296 3.32355 21.4593C3.56304 21.8077 3.62993 21.8211 3.63829 21.5221C3.69144 19.6434 5.66229 17.3473 7.46861 17.0599C8.98288 16.8192 10.4969 17.221 15.8486 19.2848C18.4164 20.2748 21.1027 21.3079 21.8179 21.5804L23.1184 22.0756L22.2016 22.6218C21.6976 22.9221 20.6557 23.9939 19.8868 25.0036C19.1175 26.0131 18.3068 26.9672 18.0846 27.1234C17.419 27.5919 17.6206 27.7564 18.7258 27.6471C19.4696 27.5734 19.7691 27.6428 19.7643 27.8878C19.7536 28.4467 18.7117 30.2289 18.1757 30.6049C17.4083 31.1435 17.5842 31.397 18.7258 31.397C20.048 31.397 20.0492 31.5091 18.7616 35.0684C18.2077 36.6003 17.6588 38.3372 17.5421 38.9284C17.4256 39.5194 17.2124 40.0648 17.0688 40.1403C16.714 40.3259 12.9864 39.7724 11.783 39.3553C11.2494 39.1702 10.8125 39.1014 10.8125 39.2024C10.8125 39.3034 11.4375 40.2372 12.201 41.2779C13.8327 43.5008 14.8324 45.4332 16.3249 49.2477C17.789 52.9895 18.314 54.9819 18.0876 55.941C17.9425 56.5566 18.0482 56.8733 18.5502 57.3263C19.1543 57.8714 19.1907 58.1026 19.0608 60.5437L18.9208 63.1737L13.6311 65.5118C10.722 66.7976 7.58746 68.3279 6.66564 68.9123C4.67328 70.1755 0.604066 73.2124 0.744414 73.3314C1.03586 73.5785 13.9581 68.9525 18.6314 66.9279C21.1248 65.8475 21.6301 65.7199 23.5036 65.6954C24.6532 65.6804 25.9137 65.5786 26.3046 65.4695C27.0063 65.2735 27.0123 65.2864 26.7862 66.5011C26.6605 67.1779 26.5736 69.8818 26.5933 72.51C26.6241 76.5901 26.5551 77.3953 26.1215 78.0174C25.495 78.917 24.8569 79.1069 23.815 78.7046C22.8072 78.3152 22.3572 78.7593 22.6188 79.885C22.7161 80.3028 22.8556 81.0434 22.9293 81.5308L23.0628 82.417L22.6755 81.5713C22.1007 80.3167 20.6668 79.847 20.6668 80.9135C20.6668 81.1146 20.1331 81.6878 19.4807 82.1874C18.0049 83.3179 17.6484 84.5153 18.4236 85.736C18.9261 86.5273 18.9267 86.6225 18.437 87.6578C18.1536 88.2569 17.33 90.7357 16.6068 93.1659C15.2033 97.8811 14.294 99.8104 12.305 102.294C11.1222 103.771 11.0863 103.869 11.6074 104.205C11.9093 104.399 12.3913 104.626 12.6788 104.709C13.4116 104.92 13.3444 105.172 12.1563 106.668C11.3252 107.714 11.1111 108.231 11.1111 109.19C11.1111 110.257 11.247 110.511 12.2933 111.398C14.5087 113.277 17.6451 114.107 21.6958 113.886C24.271 113.746 25.4446 113.244 25.4446 112.281C25.4446 111.182 24.6338 109.941 23.5197 109.335C22.6719 108.873 22.4793 108.63 22.6068 108.181C22.703 107.841 22.4686 107.111 22.0254 106.369C21.3775 105.285 21.3431 105.107 21.7555 104.973C22.1485 104.845 22.1948 104.551 22.0284 103.234C21.915 102.337 21.9687 101.102 22.1521 100.389C22.626 98.5439 25.1328 94.4568 27.7024 91.3401C29.7064 88.9094 30.0253 88.6324 30.6649 88.7686C31.2607 88.8954 31.7253 88.6288 33.4194 87.1884C36.6029 84.4811 39.1808 81.4458 39.1808 80.4048C39.1808 79.8845 37.204 78.0488 36.1424 77.5834C35.6784 77.3798 35.2988 77.0709 35.2988 76.8967C35.2988 76.7225 36.0212 75.3297 36.9042 73.8016C37.7872 72.2733 38.8144 70.3074 39.1871 69.4326C39.9581 67.6235 40.0653 67.529 41.1012 67.7496C41.8719 67.9137 42.1437 68.2945 46.5082 75.3274C47.3724 76.72 48.1733 78.2392 48.288 78.7036C48.4794 79.4789 48.4391 79.544 47.7952 79.4986C47.4097 79.4713 46.9263 79.4617 46.7208 79.4771C46.258 79.5121 46.2359 80.3745 46.6802 81.0781C46.9466 81.5002 46.9167 81.6506 46.5309 81.8337C45.8122 82.1747 45.1531 83.4139 45.1531 84.4242C45.1531 85.0853 45.3377 85.4197 45.8635 85.7119C46.4162 86.0188 46.6083 86.3999 46.7277 87.4269C46.8125 88.1531 47.1792 90.1713 47.5429 91.9121C48.2811 95.445 48.2405 97.8289 47.4079 99.8482C46.9526 100.952 46.9481 101.117 47.3611 101.504C47.7693 101.886 47.7714 102.07 47.3823 103.167C46.7384 104.981 46.8104 106.416 47.5743 107.002C48.1043 107.408 48.6824 107.485 51.2323 107.492C53.2438 107.498 54.9127 107.657 56.2018 107.967C57.6668 108.319 58.7475 108.401 60.6085 108.303C63.6209 108.144 64.7168 107.666 64.4197 106.641C63.9715 105.093 63.2673 104.603 60.7061 104.053C59.0715 103.703 55.9818 101.177 56.5175 100.63C56.7495 100.393 56.6886 100.074 56.2953 99.4631C55.2424 97.8271 55.7049 90.0072 57.1201 85.5188C57.341 84.8174 57.5775 84.5692 58.0246 84.5692C58.3575 84.5692 58.8711 84.4599 59.1656 84.3262C60.2896 83.8162 61.7955 79.7209 61.9457 76.7656C62.0155 75.3965 61.9364 75.1388 61.2783 74.5893C60.0519 73.5651 59.1285 73.519 57.9162 74.4214C57.3404 74.8501 56.802 75.2008 56.7199 75.2008C56.4318 75.2008 56.1833 74.0338 55.7458 70.6229C55.5031 68.7315 55.0504 66.3388 54.7398 65.3057C54.429 64.2724 54.2367 63.3398 54.3128 63.2335C54.3886 63.1269 54.9784 62.8117 55.6234 62.5326C56.7531 62.0439 56.7826 61.9991 56.4246 61.3183C55.4314 59.4304 51.0881 52.4231 50.8262 52.2858C50.6622 52.2 50.5282 51.7463 50.5282 51.2778C50.5282 50.7314 50.2516 50.1473 49.7574 49.6492C49.1405 49.0274 49.027 48.7157 49.1898 48.0872C49.3543 47.4522 49.2483 47.1739 48.6343 46.6293C47.7325 45.8294 47.0822 43.7945 47.6334 43.4975C47.8296 43.3916 48.2626 43.3035 48.5955 43.3012C49.3636 43.2964 52.8469 41.8843 55.0677 40.6778C57.0568 39.5971 57.3369 39.5566 57.525 40.3223C59.4836 48.2964 62.1911 54.2066 65.7644 58.3069C68.2775 61.1907 69.2268 61.1874 72.6244 58.2829C80.0076 51.9716 82.6381 38.696 79.1811 25.1935C77.4234 18.3287 73.3859 11.5865 69.0375 8.25563C67.5307 7.10128 64.7458 5.57043 64.1527 5.57043C63.4005 5.57043 61.0038 8.13511 59.7756 10.2547C57.1511 14.7824 55.6082 22.243 55.6055 30.4166C55.6049 32.8012 55.5016 33.6864 55.1988 33.8994C54.6299 34.2997 51.4733 35.195 50.6306 35.195C49.7786 35.195 49.7661 35.0474 50.5294 33.9862C50.8572 33.5302 51.1254 32.9764 51.1254 32.7556C51.1254 31.5208 47.1126 26.8262 45.742 26.4573C45.2725 26.3309 45.1531 26.0711 45.1531 25.1766C45.1531 24.1812 45.2293 24.0541 45.825 24.0546C46.4631 24.0551 46.4918 23.9726 46.3968 22.4088C46.298 20.785 46.3073 20.7625 47.0687 20.7625C47.9329 20.7625 48.0873 20.3984 47.3676 20.0568C46.9959 19.8804 46.8928 19.3772 46.8863 17.7021L46.8776 15.5719L47.8815 15.4987C49.6559 15.3698 49.6977 15.2969 48.7359 14.0111C47.7146 12.6456 47.6283 12.2256 48.3444 12.1086C48.758 12.041 48.6711 11.8549 47.8592 11.0707C47.1619 10.3972 46.8334 9.79965 46.7462 9.04562C46.6327 8.06294 46.702 7.93457 47.5937 7.46944C49.816 6.31054 50.4616 4.38342 49.3585 2.20108C48.6499 0.799863 48.2599 0.570463 48.0114 1.40957C47.7911 2.15424 45.3717 4.30442 44.7545 4.30442C44.5263 4.30442 43.4507 3.9626 42.3641 3.54482C39.9366 2.61152 38.5917 2.58721 35.5115 3.42151C34.2322 3.76789 32.9864 4.05122 32.7427 4.05122C32.0305 4.05122 29.7694 2.12638 29.1802 1.01838C28.8822 0.458294 28.5182 0 28.3707 0C28.2235 0 27.8436 0.484374 27.5268 1.07611ZM48.2563 3.80005C48.0906 3.94057 47.2085 4.27784 46.2959 4.55003C44.6517 5.03997 44.6264 5.03997 43.497 4.55155C42.8699 4.28062 42.3088 4.09984 42.25 4.14972C42.1909 4.1996 42.4065 4.62523 42.729 5.09542C43.3608 6.01682 44.0978 8.08168 44.4128 9.81231C44.7186 11.4936 43.8577 10.9429 43.4092 9.17019C42.5065 5.60259 42.0995 5.3628 36.261 4.95819C33.8282 4.78956 31.642 4.56471 31.4031 4.45862C31.1642 4.35253 31.281 4.49888 31.662 4.78348C32.0434 5.06808 32.8496 5.37116 33.4537 5.45674C37.5979 6.04442 39.3651 6.76681 40.7011 8.41844C41.0675 8.87116 41.7068 9.55506 42.1216 9.93815L42.8759 10.6345L41.2523 10.6643C39.8584 10.6902 37.542 11.0107 37.9864 11.1166C38.0685 11.136 40.0817 11.3113 42.4602 11.506C47.0299 11.88 48.3071 11.7501 46.7713 11.0677C45.9597 10.7071 45.882 10.5377 45.5963 8.50579L45.2908 6.33003H46.2442C47.5659 6.33003 49.0351 5.2519 49.0351 4.28189C49.0351 3.51899 48.7765 3.35897 48.2563 3.80005ZM64.8616 10.8269C72.2189 15.5782 76.656 26.4431 76.1059 38.36C75.7715 45.6074 73.6185 51.3991 70.1029 54.5105C69.3609 55.167 68.8732 55.7043 69.0195 55.7043C69.4818 55.7043 71.8453 53.3103 72.7032 51.9734C74.087 49.8169 75.5714 45.5403 76.0922 42.2107C77.0352 36.1789 76.2048 27.685 74.1524 22.3665C72.8206 18.9152 70.5822 15.3691 68.3142 13.1181C67.2756 12.0871 64.4755 10.1212 64.0724 10.14C63.9318 10.1465 64.2868 10.4557 64.8616 10.8269ZM40.5246 12.9378C42.4665 13.4789 47.5578 14.2504 47.8048 14.041C47.8884 13.9701 47.6764 13.6741 47.3336 13.3837C46.5363 12.7077 44.7936 12.4276 41.4204 12.4337L38.7329 12.4388L40.5246 12.9378ZM42.8203 16.2208C42.892 16.4034 43.1273 16.6029 43.3429 16.6639C43.5669 16.7272 43.6788 16.6323 43.6042 16.4424C43.5322 16.2596 43.2969 16.0601 43.0816 15.9993C42.8577 15.936 42.7457 16.0309 42.8203 16.2208ZM39.9274 18.2305C39.8258 18.3698 39.9524 18.4837 40.2084 18.4837C40.4643 18.4837 40.6739 18.3698 40.6739 18.2305C40.6739 18.0912 40.5476 17.9773 40.3929 17.9773C40.2382 17.9773 40.0289 18.0912 39.9274 18.2305ZM42.9135 18.2305C43.015 18.3698 43.3587 18.4837 43.6777 18.4837C43.9966 18.4837 44.2573 18.3698 44.2573 18.2305C44.2573 18.0912 43.9133 17.9773 43.4931 17.9773C43.0598 17.9773 42.8087 18.0869 42.9135 18.2305ZM43.0628 20.0029C43.0628 20.3744 43.262 20.5093 43.8093 20.5093C44.6983 20.5093 44.7849 20.1247 43.9784 19.7586C43.1754 19.3942 43.0628 19.4243 43.0628 20.0029ZM40.3753 20.2483C40.3753 20.383 40.5768 20.4278 40.8232 20.3478C41.0696 20.2675 41.2711 20.1571 41.2711 20.1024C41.2711 20.0477 41.0696 20.0029 40.8232 20.0029C40.5768 20.0029 40.3753 20.1133 40.3753 20.2483ZM43.0628 22.0108C43.0628 22.405 43.2533 22.5349 43.8311 22.5349C44.8115 22.5349 44.7243 21.688 43.7317 21.5677C43.2238 21.5064 43.0628 21.613 43.0628 22.0108ZM29.6434 21.8687C29.7154 21.9262 31.0511 22.5367 32.6113 23.2251C34.1716 23.9136 36.5067 25.0654 37.8006 25.7848C39.0945 26.5041 40.3615 27.0925 40.616 27.0925C41.3025 27.0925 36.998 24.6408 34.2907 23.49C32.2085 22.6045 29.2898 21.5864 29.6434 21.8687ZM40.8232 22.0285C40.9247 22.1678 41.1341 22.2817 41.2887 22.2817C41.4434 22.2817 41.5697 22.1678 41.5697 22.0285C41.5697 21.8893 41.3601 21.7753 41.1042 21.7753C40.8483 21.7753 40.7217 21.8893 40.8232 22.0285ZM43.1512 24.162C43.4465 24.3516 43.9488 24.4491 44.2677 24.3785C45.134 24.1863 44.6589 23.7997 43.5678 23.809C42.6994 23.8164 42.6624 23.8478 43.1512 24.162ZM27.6842 24.853C26.8161 25.2556 26.3404 25.8415 26.3404 26.5079C26.3404 27.0718 26.4276 27.0923 28.804 27.087C30.6402 27.0829 31.6098 26.9492 32.6113 26.5626C33.8951 26.0671 33.9288 26.0273 33.3629 25.6744C32.6233 25.2125 30.0698 24.558 29.0483 24.5681C28.6266 24.5724 28.0127 24.7006 27.6842 24.853ZM64.9327 27.2885C64.0682 27.6577 63.4056 28.0729 63.4599 28.2109C63.514 28.3489 63.9885 28.5563 64.514 28.6718C65.7052 28.9336 67.1257 30.528 67.4017 31.9127C67.6328 33.0721 68.2515 33.2256 69.3824 32.4039L70.0874 31.892L68.9294 32.0586C67.4432 32.2723 67.5486 31.7228 69.1157 31.0876C70.4953 30.5282 70.9387 29.9925 69.8333 30.2208C69.3982 30.3107 68.7063 30.4543 68.2957 30.5404C66.989 30.8136 67.4339 30.0261 68.9356 29.4076C70.0071 28.966 70.2415 28.7677 69.967 28.535C69.6929 28.3026 69.3477 28.3631 68.4483 28.8019C67.7068 29.1637 67.215 29.2741 67.0926 29.1063C66.8403 28.7601 67.4933 28.1109 68.3823 27.8243C69.2029 27.5597 69.1061 26.9244 68.2646 27.0513C67.9532 27.0981 67.4028 27.3688 67.0418 27.6529C66.6136 27.9896 66.1979 28.1074 65.8474 27.9912C65.3699 27.8332 65.4102 27.7445 66.2054 27.2009C67.3584 26.4129 66.9092 26.4438 64.9327 27.2885ZM37.0905 27.4293C37.0905 27.4931 38.1915 28.3834 39.5371 29.4078C42.0209 31.299 42.2431 31.3192 40.5177 29.498C39.7091 28.6442 37.0905 27.0637 37.0905 27.4293ZM32.5202 28.0294C32.2237 28.0945 32.029 28.2238 32.0878 28.3165C32.1467 28.4092 32.4295 28.9219 32.7161 29.4557C33.1563 30.275 33.3071 30.3768 33.6872 30.1094C34.4851 29.5478 34.7479 28.9052 34.403 28.3585C34.0921 27.8663 33.6299 27.7856 32.5202 28.0294ZM36.6053 29.1498C36.708 29.5851 36.7919 30.4315 36.7919 31.0308C36.7919 32.5093 37.3727 32.9628 39.1423 32.8655C40.4069 32.7962 40.5327 32.7296 40.6201 32.0842C40.6984 31.5053 40.389 31.1081 38.8954 29.8686C36.8203 28.1469 36.3326 27.9939 36.6053 29.1498ZM41.5697 28.7434C41.5697 29.0067 43.0001 30.7751 43.5466 31.1873C44.4323 31.8555 45.5885 32.0044 46.1553 31.5238C46.7029 31.0595 46.7641 30.6809 46.3756 30.1608C46.1702 29.8859 46.071 29.9266 45.9122 30.3507C45.6578 31.0306 45.0498 31.0344 43.7699 30.3634C43.0765 30.0001 42.7642 29.6463 42.7642 29.224C42.7642 28.7806 42.5997 28.6118 42.167 28.6118C41.8385 28.6118 41.5697 28.671 41.5697 28.7434ZM45.1531 28.9916C45.1531 29.2004 45.2875 29.3714 45.4517 29.3714C45.616 29.3714 45.7503 29.2004 45.7503 28.9916C45.7503 28.7827 45.616 28.6118 45.4517 28.6118C45.2875 28.6118 45.1531 28.7827 45.1531 28.9916ZM43.66 29.2448C43.66 29.3144 43.9177 29.5899 44.2325 29.8567C44.9477 30.4632 45.3344 30.2143 44.6595 29.5818C44.1931 29.1447 43.66 28.965 43.66 29.2448ZM61.774 31.0126C61.3314 31.3881 61.4138 32.2943 61.9143 32.5566C62.3345 32.7769 63.2957 32.4295 63.497 31.9846C63.9876 30.9009 62.7376 30.1958 61.774 31.0126ZM25.8402 33.1061C23.3856 35.2768 22.9473 35.9756 23.1381 37.4113C23.3806 39.2351 23.7377 39.2789 25.6303 37.7164C27.6421 36.0556 28.7225 34.2703 28.7263 32.5997C28.7305 30.927 28.1984 31.0205 25.8402 33.1061ZM48.3996 31.816C47.3205 32.9197 45.0343 33.1063 43.4406 32.2209C42.6609 31.7879 42.5641 32.0548 43.2145 32.8422C43.8419 33.6016 46.6384 34.087 48.1599 33.7006C49.4266 33.3785 49.7389 32.9334 49.3328 32.0277C48.9984 31.282 48.936 31.2678 48.3996 31.816ZM58.8213 32.6774L57.708 33.1757L58.2073 34.0634C58.482 34.5519 58.7813 34.9147 58.8726 34.8699C58.964 34.8251 59.54 34.5944 60.1528 34.3574L61.2669 33.9262L60.7694 33.0413C60.4956 32.5549 60.1958 32.1616 60.1032 32.1677C60.0104 32.174 59.4334 32.4032 58.8213 32.6774ZM41.3073 35.9974C40.4189 36.3703 39.5395 37.0778 38.5624 38.2061C37.7717 39.1191 37.1738 39.9076 37.2339 39.9585C37.2936 40.0094 38.1148 39.5673 39.0587 38.976C41.2183 37.6232 43.7416 36.5367 45.2125 36.3258C47.2371 36.0359 46.4309 35.4479 44.0088 35.4484C43.1808 35.4484 42.0843 35.6713 41.3073 35.9974ZM48.8482 36.326C48.5564 36.9707 49.1826 38.1007 49.8796 38.1878C50.6183 38.28 50.6924 37.9488 50.2003 36.7519C49.8572 35.9176 49.136 35.6902 48.8482 36.326ZM20.7996 37.5655C20.4506 38.7446 20.7725 39.8491 21.5626 40.1841C22.2288 40.4664 22.3196 40.4459 22.4056 39.9939C22.5259 39.3604 21.6092 36.9674 21.2458 36.9674C21.0977 36.9674 20.897 37.2365 20.7996 37.5655ZM43.8971 38.1141C43.365 38.3623 43.0255 38.777 42.9039 39.3275C42.6907 40.2907 43.2142 44.7083 43.6588 45.7001C43.8237 46.068 43.9587 46.4635 43.9587 46.5789C43.9587 46.8823 42.3626 46.5179 39.6679 45.599C37.4722 44.8506 37.2715 44.8237 36.6071 45.1929C36.2159 45.4101 35.8961 45.6828 35.8961 45.7988C35.8961 45.9148 37.2736 46.5551 38.9569 47.2215C41.4572 48.2116 42.4085 48.4559 44.1513 48.5557C46.1803 48.6719 46.3093 48.6463 46.7818 48.0351C47.2646 47.4099 47.2491 47.3593 46.2159 46.2115C45.0856 44.9562 44.8844 43.9623 45.4317 42.3436C45.5852 41.8904 45.7426 40.6948 45.782 39.6865C45.8459 38.043 45.7939 37.8475 45.2794 37.7954C44.9635 37.7632 44.3415 37.9068 43.8971 38.1141ZM25.8178 39.5252C25.1197 40.123 24.5487 40.7528 24.5487 40.9247C24.5487 41.0966 24.9522 41.481 25.4452 41.7785C26.8236 42.6107 27.1168 43.245 26.3888 43.82C25.5879 44.4525 25.3332 46.3414 25.5049 50.3739C25.6058 52.7429 25.7665 53.7478 26.1105 54.1643C26.5683 54.7186 26.6086 54.6778 27.9141 52.341C28.6484 51.0266 29.4012 49.8715 29.5867 49.7743C29.7721 49.6771 29.9238 49.2801 29.9238 48.8922C29.9238 48.5043 30.1836 47.9875 30.501 47.7439C30.8181 47.5003 31.0015 47.1324 30.9083 46.9263C30.8152 46.72 30.9086 46.1148 31.1162 45.5813C31.7871 43.8575 31.0269 42.273 28.2175 39.5387L27.087 38.4382L25.8178 39.5252ZM39.3928 41.6364C37.7081 43.2691 37.4277 43.6646 37.7334 43.977C38.1885 44.4419 42.1711 46.1637 42.3805 45.9859C42.4644 45.915 42.3805 45.3094 42.1944 44.6404C42.0084 43.9715 41.7582 42.5799 41.6381 41.5481L41.4204 39.6721L39.3928 41.6364ZM19.9202 41.2718C20.0217 41.4111 20.5336 41.5288 21.0576 41.5334C21.5817 41.5379 22.7099 41.7466 23.5648 41.997C25.3651 42.5244 25.3499 42.2006 23.5415 41.5043C22.2348 41.0011 19.5998 40.832 19.9202 41.2718ZM23.282 45.8791C23.0539 47.1965 23.735 54.339 24.1196 54.6652C24.5323 55.0151 24.7903 54.2071 24.552 53.3113C24.4057 52.7613 24.1916 50.7357 24.0763 48.8099C23.8721 45.3962 23.563 44.2558 23.282 45.8791ZM36.0454 49.3181C36.7274 49.886 44.6168 53.1723 45.2988 53.1723C45.7061 53.1723 46.438 52.8588 46.9254 52.476C47.9013 51.7088 48.2942 50.6909 47.542 50.8785C45.7503 51.3252 44.0064 51.1535 41.1218 50.2468C38.1575 49.315 35.4467 48.819 36.0454 49.3181ZM35.2096 53.4888C34.5863 54.3593 34.3531 54.7864 34.6912 54.4383C36.8071 52.2595 37.0917 51.9063 36.7334 51.9063C36.5184 51.9063 35.8325 52.6185 35.2096 53.4888ZM37.9458 54.1866C36.6471 55.6602 36.0009 57.4851 35.1424 62.1052C34.9859 62.9469 35.3633 63.1099 38.4343 63.5295C43.6821 64.246 45.4108 64.3772 47.3181 64.2033C49.2668 64.0258 49.3337 63.9964 49.3337 63.3214C49.3337 62.4896 47.8821 55.7127 47.6298 55.3665C47.3521 54.9857 46.7429 56.1851 46.057 58.4624C45.332 60.8706 44.5956 62.5407 44.2588 62.5407C44.1313 62.5407 43.7341 61.2094 43.3764 59.5823C43.0189 57.955 42.5244 56.2175 42.2778 55.721C41.8463 54.8518 41.8131 54.8368 41.3927 55.3192C41.1526 55.5949 40.5437 56.9622 40.0399 58.3576C39.5362 59.7532 39.0267 60.9825 38.9076 61.0896C38.7887 61.1967 38.7505 59.715 38.8228 57.7968C38.9945 53.2338 38.9494 53.0475 37.9458 54.1866ZM50.2505 54.4383C50.2209 54.6322 54.0309 62.5569 54.2381 62.7327C54.3382 62.8175 54.5347 62.7805 54.6747 62.6504C54.8204 62.5152 53.9327 60.6812 52.5993 58.3629C51.318 56.1347 50.2609 54.3687 50.2505 54.4383ZM25.2953 55.9575C24.8662 56.3596 24.8444 56.4639 25.1893 56.4639C25.6578 56.4639 26.3404 55.9833 26.3404 55.6537C26.3404 55.2949 25.8504 55.4374 25.2953 55.9575ZM28.3011 57.7679C28.4334 57.956 28.9524 58.5655 29.4538 59.1225C29.9551 59.6796 30.4004 60.1829 30.4434 60.2409C30.4861 60.2989 30.6079 60.2726 30.7139 60.1827C30.9931 59.9459 29.449 58.0565 28.6974 57.7155C28.1805 57.4808 28.1055 57.4906 28.3011 57.7679ZM26.2473 58.3999C25.5046 59.0293 26.6719 60.9362 27.6122 60.6301C28.2399 60.4257 28.2393 60.3672 27.5952 59.2676C27.0777 58.3842 26.616 58.0869 26.2473 58.3999ZM34.2208 65.0132C33.2414 65.5627 31.7155 69.7927 31.7155 71.9578C31.7155 73.2395 32.2921 74.7504 32.9037 75.0709C33.9407 75.6143 37.1126 71.1012 37.7472 68.1795C38.0589 66.7429 38.0383 66.5532 37.5155 66.0557C36.9899 65.5556 35.3475 64.814 34.7858 64.8233C34.6574 64.8256 34.403 64.9109 34.2208 65.0132ZM51.6548 68.0501C51.4177 68.8189 51.7005 69.6304 52.2055 69.6304C52.7101 69.6304 52.7116 69.2359 52.2109 68.24C51.8468 67.5161 51.8221 67.5078 51.6548 68.0501ZM59.5971 75.0109C59.2722 75.3244 58.445 76.2073 57.7588 76.9732C57.0729 77.7391 56.1454 78.7646 55.6981 79.252L54.8846 80.1382L56.0107 79.252C57.3198 78.2217 60.7954 74.4412 60.4335 74.4412C60.2982 74.4412 59.922 74.6974 59.5971 75.0109ZM31.8089 78.7223C30.4816 79.2664 29.3074 79.8329 29.1996 79.9807C29.0921 80.1286 30.0507 79.8258 31.3303 79.3077C33.182 78.558 34.0073 78.3658 35.3765 78.3658C36.8245 78.3658 37.0162 78.3157 36.5886 78.0493C35.7097 77.5019 34.3021 77.7001 31.8089 78.7223ZM52.3198 82.0223C52.3198 82.1535 52.4542 82.3309 52.6185 82.417C52.7827 82.5031 52.9171 82.3958 52.9171 82.1788C52.9171 81.9618 52.7827 81.784 52.6185 81.784C52.4542 81.784 52.3198 81.8911 52.3198 82.0223ZM54.4101 101.66C54.0957 101.981 54.1593 102.04 54.8216 102.04C55.3185 102.04 55.6046 101.901 55.6046 101.66C55.6046 101.451 55.4195 101.281 55.1931 101.281C54.9671 101.281 54.6147 101.451 54.4101 101.66ZM57.0595 103.892C57.5077 104.359 58.2921 104.47 58.2921 104.066C58.2921 103.926 58.1688 103.813 58.018 103.813C57.8672 103.813 57.4975 103.734 57.1968 103.639C56.7151 103.485 56.6987 103.516 57.0595 103.892ZM59.6183 105.45C59.0676 105.803 59.0844 105.822 59.9521 105.83C60.4544 105.835 61.1263 105.671 61.4452 105.466C61.9958 105.113 61.9791 105.094 61.1113 105.087C60.6091 105.082 59.9372 105.246 59.6183 105.45ZM18.8751 105.811C18.8751 106.092 19.7936 106.41 20.0289 106.21C20.1239 106.13 20.0038 105.958 19.7622 105.828C19.2038 105.529 18.8751 105.522 18.8751 105.811ZM19.323 108.623C19.4245 108.763 19.8354 108.877 20.2365 108.877C20.6375 108.877 20.9654 108.763 20.9654 108.623C20.9654 108.484 20.5542 108.37 20.0519 108.37C19.5189 108.37 19.2152 108.476 19.323 108.623ZM20.6668 110.858L19.6216 111.278L21.0299 111.357C22.4351 111.435 23.6529 111.103 23.6529 110.64C23.6529 110.259 21.8239 110.392 20.6668 110.858Z" fill="currentColor"/>
</svg>
