<svg width="81" height="115" viewBox="0 0 81 115" fill="none" xmlns="http://www.w3.org/2000/svg">
    <path fill-rule="evenodd" clip-rule="evenodd" d="M51.8541 1.77113C51.6903 2.24307 51.2839 3.06753 50.9506 3.60352C50.267 4.70364 47.841 6.81786 47.0501 7.0027C46.7633 7.06996 45.382 6.7609 43.98 6.31619C40.604 5.24535 38.7207 5.07995 36.6966 5.6768C33.7807 6.53626 29.2508 9.52436 26.3941 12.4731L24.9573 13.9562L23.74 13.6274C23.0706 13.4467 22.0542 13.1848 21.4811 13.0455C20.6894 12.8531 20.3434 12.6156 20.0411 12.057C19.1293 10.3733 17.6436 9.37749 16.0438 9.37749C13.5402 9.37749 11.5939 11.1513 11.5964 13.4307C11.5976 14.623 12.3296 15.6321 13.7286 16.3703C16.1376 17.6411 16.5654 17.9959 17.8455 19.7862C19.4743 22.0642 20.4986 23.9588 21.2935 26.1648C22.109 28.4282 22.0874 29.5345 21.197 31.11C20.0932 33.0636 19.8461 34.1578 20.3174 35.0069C20.5317 35.3928 20.8669 35.766 21.0624 35.8357C21.6024 36.0288 21.4995 36.6494 20.5457 38.9538C18.9427 42.8265 17.819 44.3519 14.761 46.8061C10.2995 50.3866 8.17047 54.2617 8.16114 58.8188C8.15918 59.778 8.39026 61.8369 8.67487 63.3941C9.58002 68.3466 9.26275 70.0557 6.83607 73.2938C5.94001 74.4893 5.82459 74.7917 5.82459 75.9424C5.82459 77.6149 6.60156 78.6253 8.58523 79.5326C9.9297 80.1478 10.1618 80.1791 13.3143 80.1695C16.2353 80.1606 16.8475 80.0885 18.4638 79.5637C20.2911 78.9706 20.2599 79.1952 18.3899 80.0972C15.7415 81.3744 10.0495 81.9214 7.71151 81.123C5.31185 80.3038 4.42487 79.2073 4.42487 77.0613C4.42487 76.0431 4.60732 75.3611 5.1903 74.2004C5.61144 73.3622 5.90513 72.6292 5.84301 72.5714C5.67921 72.4188 3.34512 74.296 2.66711 75.1257C0.431733 77.861 0.0250778 81.4245 1.61462 84.3469C2.42032 85.8279 4.38337 87.492 6.32235 88.337C7.19656 88.7181 7.91189 89.0942 7.91189 89.1729C7.91189 89.2514 7.37141 89.8336 6.71059 90.4668C5.33027 91.7893 0.788539 97.3976 0.794433 97.7726C0.799344 98.0894 4.56705 100.395 6.8179 101.458C8.76622 102.378 13.6704 103.9 16.7522 104.541C20.063 105.229 27.2335 106.3 32.8368 106.942C39.5316 107.709 45.393 108.551 48.9213 109.252C52.439 109.951 58.4158 111.469 58.072 111.576C57.9311 111.62 56.008 111.346 53.7985 110.968C46.5933 109.735 42.5577 109.152 33.1825 107.987C25.3831 107.018 17.6454 105.896 14.6679 105.301C14.0233 105.173 14.1127 105.288 15.4046 106.252C18.6269 108.655 20.6368 110.778 22.1773 113.405L23.0142 114.832L36.0291 114.834C43.1873 114.836 53.5983 114.768 59.1645 114.685L69.285 114.534L69.563 113.256C69.9188 111.621 70.6113 110.137 71.5035 109.099L72.2082 108.278L71.3696 106.726C70.1546 104.477 70.2322 103.622 71.8229 101.731C72.3786 101.071 72.5199 100.71 72.4145 100.219C72.2868 99.6244 72.3551 99.5532 73.3066 99.2888C75.085 98.7947 77.2634 97.7831 78.201 97.0165C79.1297 96.2568 80.5992 93.8273 80.5992 93.0514C80.5992 92.6531 80.4801 92.6771 79.28 93.3167C77.1262 94.4647 77.0385 94.4049 77.038 91.7884C77.0375 89.7441 76.9769 89.4568 76.3077 88.3304C75.5293 87.0203 73.5225 85.1963 71.8352 84.2657L70.8065 83.6982L71.2572 82.7191C72.3487 80.3468 72.4334 78.0212 71.5017 76.0085C70.808 74.5099 69.8987 73.5429 67.8617 72.1379C65.7634 70.6905 65.3742 70.3162 65.3742 69.7468C65.3742 69.5258 66.463 68.5149 67.8529 67.4457C70.6531 65.2912 72.2151 63.5124 72.994 61.591C73.5989 60.0995 73.8781 58.0001 73.5998 57.0377L73.412 56.3882L73.1937 57.1265C72.6539 58.9529 71.1899 58.4707 69.8503 56.025C68.7593 54.0334 68.2453 51.6242 68.387 49.1662C68.4928 47.3285 68.6004 47.0064 70.1069 44.019C72.0864 40.0939 72.4865 38.8797 72.664 36.2571C72.9641 31.8269 71.2852 28.9504 66.9814 26.5205C65.3692 25.6103 65.2774 25.395 65.2803 22.5313C65.2835 19.0667 66.6602 16.6357 70.9333 12.5481C73.2229 10.3582 73.4778 10.0304 73.4778 9.27706C73.4778 6.97342 71.101 5.55967 68.44 6.28027C67.4487 6.54884 66.8994 6.88169 66.1654 7.65834C65.3734 8.49653 64.9621 8.72941 63.8971 8.94215C63.1815 9.08513 62.2302 9.34432 61.783 9.51841C60.6092 9.97525 60.2959 9.91463 60.1424 9.20043C60.0559 8.79758 59.1478 7.77752 57.6558 6.40701C56.3629 5.21973 54.7291 3.49806 54.0251 2.58095C53.3208 1.66361 52.6114 0.913269 52.4483 0.913269C52.2853 0.913269 52.0179 1.29942 51.8541 1.77113ZM51.5086 6.91829C50.7331 8.58551 50.002 10.0448 49.8839 10.1612C49.7542 10.2896 49.4979 10.2324 49.2341 10.0157C47.6082 8.68159 43.565 7.53984 40.4493 7.53481C37.8205 7.53092 35.9255 7.95642 33.7188 9.04624C31.7258 10.0306 28.034 12.7707 27.3425 13.7789C26.869 14.4691 26.8614 14.5459 27.2408 14.8106C27.951 15.3059 28.3957 15.1322 29.7755 13.8217C31.5031 12.1807 33.738 10.6 35.2924 9.91943C36.3005 9.47815 36.9239 9.38161 38.774 9.37978C40.0134 9.37841 41.8876 9.4889 42.9383 9.62501C45.0458 9.89816 48.5674 10.8592 48.812 11.2282C48.898 11.3574 48.659 11.8788 48.2811 12.3866C47.0221 14.0793 43.94 16.2184 39.7696 18.2942L37.4121 19.4678L36.3523 18.9638C34.6893 18.173 30.8546 17.0294 24.8559 15.5351C21.817 14.7781 19.1374 14.1056 18.9009 14.0404C18.6028 13.9582 18.4712 13.6878 18.4712 13.1571C18.4712 12.146 17.3301 11.2076 16.1005 11.2076C14.481 11.2076 13.319 12.9071 14.0584 14.1941C14.4704 14.9117 15.5725 15.2992 19.52 16.1143C24.4109 17.1241 30.6733 18.7796 34.0115 19.9452L36.6806 20.8772L38.8104 20.0239C43.7413 18.0483 48.0083 15.4271 49.9134 13.2033C51.5407 11.3037 52.2757 9.79956 53.1114 6.65865L53.3783 5.65552L54.0005 6.88741C54.3426 7.565 55.0452 9.17046 55.5619 10.4552C56.8329 13.6165 58.0376 15.4541 60.7047 18.2992C63.0162 20.7651 63.5273 21.1938 63.7517 20.8552C63.9548 20.5489 62.9934 19.0349 61.3299 17.041C59.1925 14.4791 59.0943 14.2774 59.7834 13.8594C60.0896 13.6737 61.3899 13.1967 62.6729 12.7996C65.7521 11.8463 66.8898 11.252 66.7965 10.6453C66.6477 9.6758 63.8408 10.0958 60.3744 11.6061C58.5084 12.4191 58.4328 12.4328 58.103 12.0124C57.6266 11.4057 57.6759 10.9788 58.2933 10.3667C58.7459 9.91806 58.7832 9.75403 58.544 9.2654C58.2412 8.64591 57.1828 8.45786 56.9225 8.97716C56.8096 9.20272 56.7484 9.20043 56.6323 8.9664C55.7905 7.26853 53.4205 3.8913 53.0686 3.88833C52.9861 3.88764 52.2841 5.25107 51.5086 6.91829ZM49.7663 7.41768C49.3719 7.68876 49.3456 7.79743 49.613 8.04678C49.8807 8.2959 49.9973 8.27142 50.2883 7.90403C50.929 7.09535 50.6343 6.82084 49.7663 7.41768ZM68.111 8.02093C67.6852 8.17992 67.5808 8.34165 67.7151 8.63538C68.3745 10.0784 68.4091 10.7025 67.902 11.9847C67.6233 12.6897 67.4308 13.2665 67.4742 13.2665C67.7171 13.2665 70.6516 10.705 71.0443 10.1503C71.6407 9.30703 71.6351 8.80467 71.0221 8.23368C70.4905 7.73841 69.1338 7.63935 68.111 8.02093ZM49.0738 15.5234C48.6799 15.9288 48.7013 15.9839 49.491 16.6101C51.8472 18.4779 54.0428 20.1293 54.1702 20.1293C54.4325 20.1293 57.7616 16.8448 57.7616 16.586C57.7616 16.2173 57.2329 15.7822 56.7916 15.7877C56.4245 15.7922 54.3237 18.5124 54.3237 18.9832C54.3237 19.4145 53.8908 19.2168 53.4522 18.5852C52.5647 17.3069 50.3215 15.0966 49.9116 15.0966C49.6788 15.0966 49.3019 15.2887 49.0738 15.5234ZM47.0142 18.574C47.0682 18.7252 48.2101 19.2987 49.5516 19.8486C54.4187 21.8441 54.5074 21.8528 56.1768 20.5027C57.4407 19.4806 57.2032 19.2891 55.7308 20.1431C55.0928 20.513 54.3841 20.8156 54.1562 20.8156C53.9284 20.8156 53.0114 20.4636 52.119 20.0333C50.5651 19.2843 47.7652 18.2992 47.1896 18.2992C47.039 18.2992 46.96 18.4228 47.0142 18.574ZM27.1603 19.3893C26.5827 19.7436 23.9878 25.5959 24.1757 26.1206C24.3061 26.4848 27.7037 23.0193 28.5256 21.684C29.4733 20.1447 29.4693 19.7793 28.5028 19.4655C27.5979 19.1715 27.5225 19.1674 27.1603 19.3893ZM58.4983 20.5562C58.4983 20.6466 59.0786 20.9931 59.7875 21.3265C60.4965 21.66 61.657 22.2497 62.366 22.637C63.9531 23.504 64.0724 23.1639 62.5283 22.1742C61.3479 21.4177 58.4983 20.2735 58.4983 20.5562ZM37.1342 22.0521C31.9255 23.7308 27.1286 25.8576 25.0062 27.4292C23.6197 28.4558 24.1423 28.3012 26.8045 26.8973C29.679 25.3813 32.9753 24.0638 37.4976 22.6231C39.3857 22.0214 40.9696 21.4202 41.0173 21.2869C41.169 20.8628 40.2835 21.0373 37.1342 22.0521ZM48.4302 22.4481C42.8391 22.8738 36.7354 24.2532 31.8545 26.1948C26.5081 28.3211 22.4002 30.9999 22.4002 32.3601C22.4002 32.5532 22.4965 32.7113 22.6139 32.7113C22.7315 32.7113 23.9193 32.0307 25.2537 31.1989C26.5881 30.3669 28.7606 29.1808 30.0815 28.5627C34.2146 26.6283 41.3309 24.7206 46.2846 24.2185C48.882 23.9552 59.9526 24.0746 61.2975 24.3804C62.5062 24.6552 61.8127 24.0943 60.274 23.5523C58.4458 22.9088 54.1248 22.1795 52.3791 22.22C51.6252 22.2376 49.8483 22.3401 48.4302 22.4481ZM61.8358 28.9394C60.0474 29.5759 58.7169 30.7012 57.5114 32.5969C56.442 34.2788 56.618 34.4442 58.0138 33.0693C59.3386 31.7642 61.4977 30.5593 62.9654 30.3056C64.9294 29.9664 67.5796 31.3783 68.536 33.274C69.1571 34.5048 69.2337 37.1049 68.6915 38.5447C68.3855 39.3571 68.3875 39.4088 68.7097 39.0062C69.2681 38.3084 69.7948 36.4154 69.7889 35.1289C69.782 33.63 69.132 32.3251 67.6596 30.8537C66.7574 29.9522 66.6093 29.7122 67.0317 29.8355C67.9219 30.0956 67.6682 29.7866 66.5583 29.259C65.2452 28.635 63.0995 28.4899 61.8358 28.9394ZM34.4197 29.7003C32.1057 31.0763 30.1365 33.7629 29.5474 36.3477C29.2358 37.7143 29.3257 38.0653 29.778 37.249C30.2082 36.4728 31.0412 35.6644 31.6286 35.4526C31.9326 35.343 32.3191 34.8205 32.5836 34.1614C33.3345 32.2897 34.4332 30.3404 35.1087 29.6802C35.923 28.8845 35.7845 28.8887 34.4197 29.7003ZM39.8128 29.941C38.3684 30.4676 36.6415 31.5753 35.773 32.5326C34.871 33.5266 34.2861 34.7955 33.6749 37.0827C32.8073 40.3302 31.5549 41.9945 29.155 43.0891C27.5559 43.8186 24.8124 44.1819 22.9977 43.9044C21.1805 43.6265 20.99 43.6443 21.5889 44.035C21.8782 44.2238 22.8047 44.5429 23.6477 44.744C26.3303 45.3843 29.3659 44.7545 31.4324 43.1291C32.6617 42.1622 33.6113 40.7319 34.7947 38.0641C36.131 35.052 37.2552 33.452 38.8715 32.2618C41.8935 30.0366 46.0212 30.3049 47.7001 32.8357C48.395 33.8835 48.5647 33.7204 48.0431 32.5059C47.5601 31.3813 45.9885 30.0549 44.7626 29.7378C43.4145 29.3887 41.0627 29.4855 39.8128 29.941ZM50.5933 30.5499C50.5184 30.6694 50.3777 31.2774 50.2805 31.9017C50.1214 32.9218 49.2474 35.4564 49.0544 35.4564C49.0121 35.4564 48.661 35.3027 48.274 35.1147C46.5197 34.2623 42.9334 34.9799 41.2262 36.5245C39.9105 37.715 39.4889 38.6051 38.4907 42.2978C37.5929 45.6185 37.0551 47.0762 35.6016 50.1279C34.8192 51.7707 34.7809 51.9672 34.9572 53.445C35.3177 56.469 35.2981 56.5049 34.1547 54.91L33.1398 53.4942L32.1902 54.8933C31.6679 55.6626 31.2406 56.3663 31.2406 56.4569C31.2406 56.7133 32.4596 57.8752 32.7287 57.8752C32.8623 57.8752 32.9006 57.6215 32.8149 57.3033C32.7243 56.9672 32.7663 56.7314 32.9166 56.7314C33.0573 56.7314 33.2076 57.0048 33.2503 57.339L33.3279 57.9463L34.1076 57.333C34.9867 56.6412 34.8877 56.5319 35.4275 58.7902C35.926 60.875 36.6445 62.0213 38.5928 63.8413C41.5128 66.5691 46.8681 69.6434 50.4818 70.6667C52.4366 71.2203 55.1761 71.2958 56.3749 70.8291C57.228 70.4969 58.9057 68.5927 60.1802 66.5096C60.5839 65.8499 61.4896 63.5599 62.1929 61.421C64.263 55.1236 64.204 55.4263 63.9172 52.5624C63.7775 51.1688 63.6297 49.9973 63.5889 49.9593C63.5481 49.9211 62.9998 50.0625 62.3706 50.2732C61.0227 50.7248 60.5478 50.4816 61.507 49.8308C62.6194 49.0758 62.1774 48.3159 60.8118 48.6352C60.1603 48.7876 59.997 49.1822 60.5856 49.1822C60.7882 49.1822 60.954 49.2852 60.954 49.411C60.954 49.696 59.9712 49.7049 59.4951 49.4242C59.2662 49.2893 58.8979 49.333 58.4514 49.548C57.8363 49.8442 57.7616 49.8413 57.7616 49.5199C57.7616 47.4347 62.1408 45.2111 63.2756 46.7203C63.5793 47.1243 63.7475 47.181 64.0729 46.99C64.7236 46.6075 64.9687 45.6343 64.5937 44.9222C63.8516 43.5132 63.2166 43.5942 59.9717 45.5113C57.5846 46.9216 56.8533 47.1835 57.1214 46.5327C57.2035 46.3337 57.2705 46.0248 57.2705 45.8464C57.2705 45.668 57.4088 45.5215 57.5775 45.5211C57.7464 45.5204 58.3817 45.2061 58.9895 44.8224C61.1359 43.4673 62.4505 42.9482 63.4266 43.0701L64.3379 43.184L64.2477 42.3514C63.5977 36.3536 63.3846 35.7371 61.6858 34.9422C60.1942 34.244 58.666 34.411 56.8282 35.4731C56.2831 35.7882 56.1657 35.7033 53.4962 33.0663C51.9744 31.5631 50.668 30.4308 50.5933 30.5499ZM43.4707 42.4529C42.2908 42.7913 39.5542 44.87 39.8808 45.18C39.9731 45.2678 40.7246 44.9512 41.5502 44.4766C42.6432 43.8479 43.402 43.5862 44.3412 43.5137C45.5352 43.4215 45.8475 43.518 48.5419 44.8112C51.2807 46.1257 52.6355 46.4883 52.9633 45.9944C53.2884 45.5042 48.8606 43.1747 46.2368 42.4559C44.6907 42.0325 44.9372 42.0327 43.4707 42.4529ZM43.7644 46.5514C43.0619 46.9918 42.2839 47.3521 42.0354 47.3521C41.421 47.3521 41.1992 47.7543 41.5789 48.1802C41.8213 48.4525 41.8247 48.5691 41.5941 48.7018C41.267 48.8901 41.6133 49.2316 42.8747 49.9643C43.966 50.5983 44.9205 50.7831 45.7358 50.5182C46.666 50.2162 46.6638 49.9625 45.7289 49.7884C44.8569 49.626 44.7712 49.2458 45.5448 48.9715C45.9227 48.8372 46.2198 48.8757 46.485 49.0932C46.9383 49.465 47.6935 49.516 47.6935 49.1751C47.6935 49.0452 47.5277 48.8798 47.3251 48.8075C46.6486 48.5655 46.9464 48.2672 47.8644 48.2672C48.4464 48.2672 49.1091 48.4847 49.7105 48.8731C50.2267 49.2062 50.71 49.4222 50.7846 49.3526C50.9757 49.1747 50.0472 47.5413 49.4998 47.0929C48.6443 46.3915 46.9779 45.7508 46.0089 45.7508C45.3105 45.7508 44.6868 45.9731 43.7644 46.5514ZM52.9031 57.3033C52.9508 57.6133 53.1315 57.7405 53.4642 57.6979C53.7344 57.6634 54.5916 57.5719 55.3691 57.4945C56.5547 57.3765 56.7359 57.3015 56.4928 57.0285C56.2809 56.7906 55.7495 56.7222 54.518 56.7744C52.9942 56.8389 52.8398 56.8895 52.9031 57.3033ZM19.6251 57.5961C18.7914 58.4544 18.1404 60.2463 18.137 61.6921C18.134 62.9455 18.2794 63.3765 19.4105 65.4667C21.196 68.7661 21.1206 69.8717 18.9871 71.6673C17.7166 72.7368 15.9225 73.5781 13.7166 74.1395L11.9637 74.5856L14.2165 74.4955C16.076 74.4214 16.7405 74.2869 18.0228 73.7262C18.8771 73.3524 19.9267 72.7704 20.3552 72.4327C22.232 70.9538 22.705 68.1288 21.5093 65.5387C19.674 61.5628 19.3506 60.0333 19.9404 58.1177C20.2304 57.1754 20.155 57.0505 19.6251 57.5961ZM32.0104 59.146C31.3381 59.9423 31.6691 60.6203 32.7304 60.6203C33.5909 60.6203 33.8743 60.1541 33.5442 59.2805C33.2368 58.4661 32.6295 58.4128 32.0104 59.146ZM56.2882 61.3126C56.0856 61.4377 55.5069 61.4789 55.0022 61.4039C54.3773 61.311 53.5585 61.4304 52.437 61.7781C51.5311 62.059 50.4799 62.2805 50.101 62.2706C49.5735 62.2565 49.4124 62.3576 49.4124 62.7016C49.4124 62.9489 49.6059 63.2191 49.8422 63.3021C50.0784 63.3854 50.9533 63.8864 51.786 64.4157C54.461 66.1161 56.8015 66.1896 58.1727 64.6164C58.5543 64.1785 59.1645 63.4792 59.5285 63.0624L60.19 62.3045L58.8475 61.6912C57.407 61.033 56.8692 60.9534 56.2882 61.3126ZM32.2351 62.5305C31.8439 63.6341 31.8295 65.7835 32.2098 66.2106C32.7105 66.7725 33.3608 66.6361 33.6879 65.9004C33.9195 65.3798 33.9199 64.9392 33.6903 63.8987C33.1928 61.6459 32.7093 61.1913 32.2351 62.5305ZM56.411 63.1644C56.0058 63.2838 55.2687 63.3266 54.7729 63.2594C54.2773 63.1921 53.6695 63.2095 53.4222 63.298C53.0279 63.4392 53.048 63.4783 53.587 63.6181C55.169 64.0287 57.5161 63.7361 57.5161 63.1287C57.5161 62.8702 57.3962 62.8741 56.411 63.1644ZM36.5202 68.452C36.5202 71.3015 36.4318 72.1957 36.0392 73.3116C34.5339 77.5918 28.3876 82.9265 20.8652 86.4822C19.4147 87.1678 18.2274 87.8481 18.2269 87.9943C18.2244 88.5338 19.7695 89.4445 21.4894 89.9173C25.0749 90.903 27.4309 92.481 28.713 94.7554C29.3104 95.8153 29.3947 96.2179 29.3966 98.0231C29.3991 100.282 28.9966 101.377 27.5888 102.941C26.7028 103.926 26.4336 103.767 26.9727 102.576C27.5591 101.281 27.5215 98.9582 26.8933 97.652C25.7461 95.2669 23.5981 93.8376 19.699 92.8651C17.0685 92.2091 15.9114 91.2798 15.642 89.6069C15.5468 89.0144 15.3901 88.5294 15.2943 88.5294C14.8665 88.5294 11.0871 89.6698 10.37 90.0152C9.35017 90.5064 7.54035 92.0521 6.64527 93.1962C6.08489 93.9126 5.94737 94.3292 5.94737 95.3115C5.94737 96.3963 6.04805 96.6386 6.83828 97.4532C8.30308 98.9637 14.6281 101.569 19.2794 102.577L19.9647 102.726L19.5554 101.976C19.3304 101.563 18.6573 100.582 18.0596 99.796C17.4619 99.0097 17.0717 98.3662 17.1925 98.3662C17.3134 98.3662 18.0483 98.57 18.826 98.8194C21.3554 99.6301 23.2565 100.907 24.4868 102.621L25.3239 103.787L28.0981 104.053C38.7826 105.074 40.1502 105.245 45.8517 106.267C47.6075 106.582 50.5958 107.204 52.4925 107.649L55.941 108.459L58.3861 106.193C59.7308 104.947 61.8911 103.202 63.1867 102.315C64.4823 101.429 65.7806 100.421 66.0721 100.076C67.1793 98.7645 66.4313 97.5475 64.1252 96.9081C62.2299 96.3826 60.9729 95.6492 60.0631 94.5379C58.6378 92.797 58.4745 90.4391 59.6048 87.9191C59.8101 87.4613 59.9491 87.0662 59.9135 87.0413C59.8779 87.0164 58.9772 87.1367 57.9119 87.3085C54.3993 87.8751 53.1941 88.6667 52.9174 90.5883C52.7546 91.7188 52.3941 91.6721 51.9324 90.4611C51.5179 89.3738 51.6844 87.8276 52.3253 86.816L52.7799 86.0981L52.0667 85.7168C50.2044 84.7212 49.5882 80.239 50.7414 76.0781C51.0877 74.8288 51.332 73.7705 51.2846 73.7264C51.2372 73.6822 50.5479 73.548 49.7528 73.4281C46.0153 72.8646 39.563 68.8974 37.0089 65.5925L36.5202 64.9602V68.452ZM68.2404 76.2906C69.4441 77.9315 69.5348 79.4704 68.5159 80.9802L67.9757 81.7809L67.8028 80.5483C67.6002 79.1067 66.6621 77.748 65.3742 77.0316L64.5147 76.5534L65.2833 77.3372C65.7062 77.7682 66.1757 78.3456 66.3269 78.6203C66.7356 79.3626 66.6639 81.5775 66.2047 82.405L65.8076 83.1205L65.5085 82.31C65.0164 80.977 64.2082 80.1267 62.8512 79.5143C61.3302 78.828 58.9813 78.2351 57.7837 78.2351C56.645 78.2351 57.076 78.5382 58.7439 78.9106C61.2619 79.4725 63.5255 80.8089 64.3302 82.2085C64.5567 82.6024 64.8012 83.4664 64.8739 84.1282L65.0058 85.3318L66.7876 83.7501C67.8035 82.8481 68.7774 81.7409 69.0537 81.174C69.9264 79.3819 69.5718 77.0899 68.2571 76.0255L67.737 75.6043L68.2404 76.2906ZM42.5125 80.2367C44.2403 84.7084 44.5441 85.3558 45.5708 86.7528C46.5305 88.0588 47.7976 89.1949 48.0412 88.9679C48.1853 88.8337 43.6858 80.2722 42.7311 78.8642C42.3259 78.2664 41.8971 77.7775 41.7783 77.7775C41.6594 77.7775 41.99 78.8841 42.5125 80.2367ZM29.6265 87.155C27.7256 87.2394 26.0385 87.3847 25.8774 87.4773C25.3036 87.8079 25.8514 88.0099 27.7344 88.1618C30.5157 88.3864 42.2164 89.8791 43.5152 90.1751C45.2965 90.5812 46.6346 91.2544 47.5636 92.2122C48.0402 92.7039 48.4302 93.2085 48.4302 93.3341C48.4302 93.4595 48.5551 93.5622 48.7081 93.5622C49.2182 93.5622 48.7499 91.7655 47.9294 90.5745C47.0643 89.3186 45.5821 88.2489 43.9513 87.7033C43.3472 87.5013 41.3478 87.2666 39.2215 87.1484C35.2239 86.9255 34.7748 86.9258 29.6265 87.155ZM66.0433 90.7603C64.7369 92.105 65.1193 93.9005 66.9765 95.1429C68.2028 95.9635 68.2772 95.861 67.7161 94.124C67.5184 93.5121 67.4045 92.9672 67.4627 92.9127C67.8617 92.541 69.8827 94.6053 70.1703 95.6782C70.3933 96.5109 70.6791 96.475 70.8692 95.5902C71.2132 93.9881 69.9476 92.1791 67.5553 90.8523C66.4856 90.2588 66.5278 90.2616 66.0433 90.7603ZM68.799 101.587C67.6581 102.101 65.813 103.085 64.6983 103.775C62.7326 104.993 58.4983 108.502 58.4983 108.914C58.4983 109.304 59.6527 109.115 60.1028 108.652C60.7109 108.026 64.7303 105.185 67.4615 103.451C69.9404 101.877 71.5206 100.677 71.1319 100.663C70.9897 100.658 69.9399 101.074 68.799 101.587Z" fill="currentColor"/>
</svg>