<svg width="80" height="115" viewBox="0 0 80 115" fill="none" xmlns="http://www.w3.org/2000/svg">
    <path fill-rule="evenodd" clip-rule="evenodd" d="M7.14261 1.10491C7.14261 1.52253 10.8057 10.0051 11.9057 12.1341C15.2038 18.5182 20.0143 22.8582 25.6947 24.5743C27.6707 25.1713 27.7305 25.2124 27.8886 26.0789C28.5594 29.7606 27.3723 33.9664 24.9444 36.5089C23.5252 37.9951 23.1273 39.5715 23.5472 42.0431C23.9064 44.1569 24.6209 45.5654 25.8173 46.5183C26.7211 47.2383 28.1679 47.7388 29.352 47.7412C29.9855 47.7426 29.9858 47.7433 29.81 49.8439C29.5233 53.2706 28.8024 55.1993 27.3522 56.4207C26.4148 57.2101 25.5173 57.6229 22.7392 58.5427C20.7849 59.1896 20.4487 59.2369 19.6537 58.9761C18.8841 58.7235 18.536 58.7554 17.1215 59.2079C16.2196 59.4963 14.35 59.9411 12.9668 60.1961C7.42932 61.217 4.63584 62.8877 2.21034 66.6297C1.3886 67.8972 0.00694618 71.4359 6.30756e-05 72.2896C-0.00629056 73.0588 0.46441 73.3326 2.75145 73.8907C4.18023 74.2394 4.37243 74.358 4.44629 74.938C4.495 75.3217 4.07089 76.541 3.41991 77.887C2.8097 79.1495 2.35515 80.2206 2.41021 80.2674C2.46501 80.3142 3.31428 80.5767 4.29777 80.8505C5.96904 81.3161 9.8752 81.7784 13.2315 81.9079L14.6876 81.9641L14.5946 84.135C14.4811 86.7829 14.7217 87.3826 17.0387 90.2257C17.9642 91.3614 18.8653 92.5422 19.0414 92.8498C19.8941 94.3402 21.1463 99.4619 21.4155 102.561C21.6943 105.77 21.6615 105.74 27.9243 108.391C32.2967 110.242 31.8712 110.296 31.6695 107.917L31.4969 105.88L33.2351 106.474C37.4455 107.911 39.8665 109.496 42.6118 112.61L44.5724 114.834L45.1787 114.129C45.5122 113.741 46.5317 112.508 47.4443 111.388C49.0864 109.373 50.9769 107.977 54.5611 106.133L55.6624 105.566L55.4742 107.524L55.286 109.482L57.5524 107.895C58.799 107.023 59.9988 106.075 60.219 105.79C60.5089 105.415 60.6191 104.634 60.6191 102.955C60.6191 100.473 61.0585 97.759 62.0574 94.0727C62.5948 92.0893 62.9101 91.4699 64.3431 89.5814L66.0054 87.3907L66.2526 84.7976C66.3887 83.3711 66.5361 82.0858 66.5801 81.9412C66.6296 81.7777 67.9453 81.6254 70.0592 81.5387C72.6814 81.4312 73.958 81.2554 75.6428 80.7705C76.8439 80.4249 77.8268 80.0873 77.8268 80.0203C77.8268 79.953 77.3503 78.8827 76.7679 77.6413C75.3704 74.6628 75.3778 74.2538 76.8341 73.9193C78.9803 73.4262 79.9447 72.9317 79.9447 72.3244C79.9447 71.236 78.3465 67.2558 77.3466 65.8531C75.2295 62.8846 72.3201 61.1793 67.7669 60.2379C66.3837 59.9521 64.4747 59.4706 63.5251 59.1682C62.2506 58.7626 61.6266 58.6762 61.1443 58.838C60.6606 59.0001 60.1807 58.9322 59.2975 58.5758C58.641 58.3111 57.5219 57.8722 56.8106 57.6005L55.5174 57.1066L55.713 54.4058C55.8207 52.9205 56.0455 50.7911 56.2123 49.6741L56.5157 47.6432L58.0448 47.3053C58.9417 47.1072 59.6766 46.7931 59.8225 46.5457C60.1124 46.0546 59.7624 43.7602 59.1622 42.2172C58.9443 41.6567 58.7659 40.5801 58.7659 39.8246C58.7659 38.3371 58.9751 38.0439 60.5529 37.3189C61.8387 36.7281 61.696 36.0394 59.9294 34.3084C57.9937 32.4119 57.1775 30.2743 57.1775 27.1019V24.9711L58.435 24.4281C63.0462 22.4365 66.0295 19.7 68.4931 15.2022C69.8755 12.6785 70.4 11.2441 71.8319 6.07002C72.489 3.69613 73.1122 1.55231 73.2165 1.30592C73.3795 0.921434 73.3173 0.88349 72.7799 1.03815C72.4352 1.13757 71.3747 1.57272 70.4233 2.00571C65.5169 4.23791 62.1339 5.07123 57.9717 5.07292C55.2399 5.07412 54.671 4.99511 52.4319 4.30491C51.0595 3.88201 48.724 2.94566 47.2417 2.22449C45.7598 1.50332 44.4107 0.913269 44.2439 0.913269C43.5865 0.913269 44.0114 1.56192 45.5244 2.86785C48.8714 5.7571 52.3479 7.41438 56.989 8.33392C58.2687 8.58728 59.4749 8.9146 59.6697 9.06109C60.1717 9.43933 60.7128 11.349 60.5174 12.0543C60.3437 12.6828 57.8229 14.4741 54.3478 16.439L52.4133 17.5326L49.0343 15.8345C43.8214 13.215 44.6262 13.2376 39.6285 15.5685L35.3634 17.5576L34.1588 17.269C32.4822 16.8669 27.3808 14.6155 25.4448 13.4229C23.629 12.3043 23.2914 11.873 23.2914 10.6708C23.2914 9.07622 23.6282 8.70567 25.7222 7.99627C28.2298 7.14685 31.3166 5.65936 32.8219 4.57508C35.5905 2.58087 37.162 0.913269 36.2724 0.913269C36.1319 0.913269 34.8514 1.5026 33.4265 2.22257C32.002 2.94278 29.8833 3.82798 28.7185 4.18988C26.8259 4.77777 26.2345 4.84693 23.1591 4.83829C20.3298 4.8306 19.2701 4.72013 17.2025 4.21774C15.2893 3.75281 9.6756 1.89452 7.34116 0.953374C7.23209 0.909186 7.14261 0.977389 7.14261 1.10491ZM69.62 3.46919C66.8409 5.00591 63.8774 5.96531 60.4867 6.42616L57.3099 6.85771L58.714 7.04023C61.4763 7.39877 63.0025 9.1048 63.0006 11.831C62.9996 13.5704 62.4677 14.4885 60.8263 15.585C58.9303 16.8518 55.5626 18.2144 54.1852 18.2723C53.5032 18.3009 52.9447 18.3554 52.9436 18.3938C52.9425 18.432 53.1925 18.9092 53.4988 19.4538C54.2379 20.7682 54.0597 21.6222 52.5873 23.8222C51.4354 25.5433 50.6007 27.3726 50.0283 29.4311C49.6847 30.6665 49.11 30.7625 48.5911 29.6713C46.461 25.1918 45.9506 24.4627 42.8101 21.4156C40.9448 19.6059 40.0312 19.2512 36.03 18.7843C31.9586 18.3093 29.5842 17.7029 26.791 16.4248C22.1525 14.3021 21.3184 13.4078 21.4846 10.7364C21.5709 9.35072 21.7083 8.96792 22.3977 8.19127C22.844 7.68863 23.6149 7.1483 24.1108 6.99052C24.6066 6.83298 24.9482 6.69777 24.8698 6.69033C19.0694 6.13846 15.9252 5.38799 12.1064 3.64426C10.3327 2.83447 9.98216 2.80782 10.6858 3.53595C10.8873 3.74464 11.7344 4.99583 12.5686 6.31665C13.4025 7.63748 14.4959 9.22776 14.9981 9.85071C16.6387 11.8862 20.1827 14.6391 23.7298 16.6335C25.5999 17.6849 28.1694 19.1611 29.4396 19.9142C32.3215 21.6226 33.3686 21.9279 37.9429 22.3923C44.633 23.0717 46.1759 24.3056 46.9879 29.6261C47.2084 31.0709 47.4432 32.3881 47.5096 32.5531C47.5761 32.7183 47.4779 32.8533 47.2915 32.8533C46.6074 32.8533 45.7955 31.849 45.3947 30.5075C45.1686 29.7505 44.866 28.7337 44.7223 28.2482C44.4424 27.3034 43.2403 26.2198 42.2123 25.9857C40.7722 25.6579 36.8914 27.4369 36.129 28.7746C35.69 29.5445 35.7438 30.3744 36.3198 31.7296C36.5412 32.25 36.7368 32.3783 37.1638 32.2834C39.0307 31.8682 40.4717 31.8886 42.4609 32.3586C45.2004 33.0058 46.9495 33.7562 48.5689 34.9791C49.2942 35.5271 49.9494 35.9712 50.0249 35.9661C50.1003 35.9611 50.4982 35.5165 50.9089 34.9784C51.6491 34.0084 51.653 33.9844 51.3382 32.2923C50.4662 27.6017 51.8566 24.6209 56.2067 21.8558C60.0337 19.4231 66.0202 13.8098 67.9144 10.8778C68.3062 10.2712 68.9598 8.74313 69.3667 7.48186C69.7739 6.22059 70.3629 4.64833 70.6761 3.98816C70.9893 3.32798 71.2071 2.76003 71.1608 2.72592C71.1142 2.69206 70.4209 3.02635 69.62 3.46919ZM64.3574 7.45737C65.0031 9.15307 64.997 11.6158 64.3431 13.177L63.8311 14.3992L64.4021 14.0553C65.4539 13.4215 66.708 11.5008 66.708 10.5234C66.708 9.28467 66.035 7.65838 65.1921 6.86036C64.0852 5.81234 63.8067 6.01142 64.3574 7.45737ZM17.7219 7.41534C16.8878 8.89851 16.9407 10.5109 17.863 11.7181C18.6369 12.7313 20.3524 14.2263 20.5427 14.0533C20.602 13.9995 20.3815 13.4256 20.0524 12.7779C19.5494 11.787 19.4541 11.19 19.4536 9.01859C19.4528 6.50902 19.4364 6.43721 18.8624 6.43697C18.4383 6.43673 18.1172 6.71218 17.7219 7.41534ZM38.1166 32.9868C37.0232 33.2992 32.1415 36.4555 32.752 36.4555C32.8984 36.4555 34.2274 35.9692 35.7051 35.3749C39.1671 33.9825 40.4587 33.9416 43.6241 35.1244C44.8332 35.5763 46.7393 36.4426 47.8599 37.0494C49.3268 37.8438 50.072 38.1138 50.5213 38.0136C50.8644 37.937 52.2659 37.1587 53.6356 36.2841C55.7328 34.9448 56.0998 34.6148 55.9603 34.1938C55.687 33.3706 55.4064 33.2445 54.558 33.5632C53.4805 33.9681 51.9951 35.3146 51.339 36.4808C50.4903 37.9903 50.1692 37.9457 48.2035 36.0458C46.1984 34.1081 45.5996 33.7858 42.7405 33.1064C40.3412 32.5363 39.7474 32.5212 38.1166 32.9868ZM28.2039 36.646C29.6689 37.2802 31.1252 38.8842 31.4842 40.259C31.7984 41.4639 31.4119 43.3865 30.5521 44.8951C30.3231 45.2972 30.1915 45.6766 30.2598 45.7386C30.4925 45.9499 31.7547 43.3044 32.0113 42.0671C32.3785 40.2967 31.9792 39.2569 30.3466 37.7303C29.3732 36.8201 28.7182 36.4162 28.0567 36.3182L27.1301 36.181L28.2039 36.646ZM26.2316 38.8316C25.6359 39.3719 25.2928 40.9509 25.5449 41.9917C25.7582 42.8738 27.1412 44.3805 27.7371 44.3805C28.027 44.3805 27.8862 44.1401 27.2834 43.6055C26.2565 42.6949 25.9388 42.0357 25.9388 40.8159C25.9388 39.1246 27.424 38.2631 28.6314 39.2545C28.8977 39.473 29.1156 39.5854 29.1156 39.504C29.1156 39.4226 28.8548 39.1356 28.5361 38.8664C27.811 38.2533 26.8844 38.2394 26.2316 38.8316ZM47.867 40.8978C47.9255 42.1207 47.8382 42.899 47.6023 43.2523C47.3855 43.577 47.2807 44.3159 47.3296 45.1716C47.4003 46.4055 47.4848 46.5892 48.0749 46.7926C48.441 46.9189 49.4642 47.0222 50.3484 47.0222H51.9567L51.7804 45.7614C51.6832 45.0681 51.5304 43.4062 51.4407 42.0683L51.2774 39.6363L50.0577 39.493C49.3871 39.4142 48.6001 39.2872 48.3089 39.2105C47.8072 39.0787 47.7839 39.1676 47.867 40.8978ZM40.4992 39.8496C39.9896 39.9754 39.4037 40.1313 39.1975 40.1961C38.4499 40.4305 39.3389 40.7194 41.2836 40.8741L43.2591 41.0314L42.4916 40.3044C42.0694 39.9046 41.6569 39.5873 41.5748 39.5991C41.4928 39.6111 41.0088 39.7237 40.4992 39.8496ZM54.132 40.5398C53.9139 40.8599 54.6736 41.1121 55.2508 40.911C55.6412 40.7751 55.6508 40.7204 55.3169 40.529C54.8052 40.2353 54.3364 40.2396 54.132 40.5398ZM34.4103 42.5369C34.4103 43.1749 35.5328 44.0664 36.7545 44.3985C37.5789 44.6226 38.2601 44.6303 39.5856 44.4309C40.5458 44.2866 41.506 44.2294 41.7194 44.3037C42.3367 44.5186 42.8297 45.6132 43.0293 47.2136C43.1307 48.0284 43.3771 48.818 43.5765 48.9681C43.7761 49.1184 45.2658 49.2983 46.8873 49.368C50.2359 49.512 50.5292 49.2889 48.3939 48.2229C46.3025 47.1787 46.2702 47.1314 46.3668 45.2371L46.4531 43.5433L45.001 43.0181C43.1847 42.3613 40.8971 42.1087 39.5475 42.4158C38.9788 42.5453 38.1756 42.7206 37.7624 42.8054C37.1403 42.9329 37.0661 43.0196 37.3314 43.3097C37.5077 43.5025 38.084 43.6617 38.6122 43.6637C39.1406 43.6658 39.7513 43.7722 39.9697 43.9002C40.2514 44.0654 39.9213 44.1341 38.834 44.1367C37.1299 44.1408 35.5135 43.5412 34.8249 42.6493C34.4752 42.1963 34.4103 42.1788 34.4103 42.5369ZM54.2797 43.1212C53.7831 43.4857 53.7182 43.7371 53.799 44.9823C53.8839 46.2945 53.9117 46.3521 54.1135 45.6338C54.3766 44.6975 55.3972 43.9002 56.3327 43.9002H57.0052L56.3833 43.2998C55.6505 42.5921 55.067 42.5426 54.2797 43.1212ZM35.6125 49.904C36.2931 54.9666 37.2003 56.1027 41.5833 57.3813C43.5622 57.9586 44.3757 58.0756 46.021 58.0187L48.0357 57.949L48.6554 56.9284C49.6416 55.304 51.1953 55.3614 51.9066 57.0484C52.0393 57.3628 52.3585 57.5888 52.6704 57.5888C53.3113 57.5888 53.3285 57.432 52.8099 56.3059C52.219 55.0233 51.6649 54.8563 48.599 55.0386C45.5845 55.2178 44.2592 55.6721 43.7147 56.7132C43.3041 57.4978 42.9657 57.4896 40.4463 56.6347C38.057 55.8237 36.8305 54.4106 36.2449 51.7939C36.0861 51.0848 35.8534 50.1801 35.7276 49.7839C35.5052 49.0817 35.5021 49.0848 35.6125 49.904ZM39.8488 51.0881C39.7648 51.2111 39.8175 51.3795 39.9655 51.4625C40.1135 51.5454 40.2345 51.4448 40.2345 51.239C40.2345 50.817 40.0756 50.7551 39.8488 51.0881ZM42.2091 51.1208C41.9656 51.4784 42.248 51.6727 42.7547 51.4964C42.9888 51.415 43.1061 51.2394 43.0152 51.1064C42.8008 50.7916 42.4289 50.798 42.2091 51.1208ZM44.3908 51.1866C44.3159 51.3636 44.3593 51.6609 44.4872 51.847C44.7733 52.2632 45.6144 51.8708 45.747 51.2591C45.8537 50.7678 44.5962 50.7005 44.3908 51.1866ZM46.7591 51.4642C46.4076 51.7831 46.4076 51.9044 46.7597 52.5449C47.1978 53.3417 47.1692 53.3251 47.7577 53.1203C48.0222 53.0283 48.1765 52.6835 48.1765 52.1854C48.1765 51.6873 48.0222 51.3425 47.7577 51.2505C47.1989 51.056 47.2124 51.0531 46.7591 51.4642ZM51.7504 51.3449C51.6604 51.477 51.7727 51.585 51.9996 51.585C52.2264 51.585 52.4123 51.477 52.4123 51.3449C52.4123 51.2128 52.3003 51.1047 52.1632 51.1047C52.026 51.1047 51.8405 51.2128 51.7504 51.3449ZM48.8391 52.0632C48.6239 52.6782 48.8683 53.0259 49.5158 53.0259C49.9103 53.0259 50.0297 52.8585 50.0297 52.3055C50.0297 51.7536 49.91 51.585 49.5179 51.585C49.2365 51.585 48.931 51.8002 48.8391 52.0632ZM39.9697 53.5062C39.9697 53.6383 40.0889 53.7464 40.2345 53.7464C40.3801 53.7464 40.4992 53.6383 40.4992 53.5062C40.4992 53.3741 40.3801 53.2661 40.2345 53.2661C40.0889 53.2661 39.9697 53.3741 39.9697 53.5062ZM42.4606 53.5965C42.2364 54.1268 42.5348 54.3974 42.9393 54.0305C43.1781 53.8139 43.1789 53.6796 42.9435 53.4661C42.7079 53.2524 42.593 53.2834 42.4606 53.5965ZM44.735 53.6263C44.735 53.8736 44.9084 53.9913 45.1983 53.9409C45.7563 53.8434 45.7211 53.4171 45.1461 53.3086C44.9062 53.2632 44.735 53.3955 44.735 53.6263ZM26.2035 61.0813C26.2035 61.4163 28.8726 63.7489 30.1745 64.5519C32.0626 65.7162 39.4231 69.2118 39.6166 69.036C39.8416 68.8319 36.96 67.2111 33.3749 65.5248C31.0966 64.4532 29.6512 63.5791 28.3492 62.4857C26.6372 61.0477 26.2035 60.7638 26.2035 61.0813ZM12.3084 62.4156C9.26737 63.0856 8.15178 65.246 9.64965 67.5641C10.7202 69.2214 14.4432 71.0156 17.0217 71.1167C18.6173 71.1794 18.7512 70.7802 18.0611 68.0216C16.8298 63.101 15.4222 61.7292 12.3084 62.4156ZM65.6395 62.8121C64.9493 63.3733 64.7881 63.7309 64.5657 65.1931C64.4217 66.1393 64.3386 67.8684 64.3809 69.0356L64.4577 71.1573L65.3295 71.0948C66.5084 71.0105 69.5756 69.7236 70.5032 68.9241C73.1834 66.6141 72.4323 63.4343 68.9871 62.5061C67.1337 62.0071 66.5655 62.0589 65.6395 62.8121ZM56.6306 63.6338C55.9655 64.2714 55.475 64.7933 55.5401 64.7933C55.9483 64.7933 57.402 63.7494 57.7019 63.241C58.2793 62.2621 57.9251 62.392 56.6306 63.6338ZM18.8256 63.5339C18.6514 63.8289 18.7671 64.4852 19.2106 65.7186C19.5589 66.6883 19.9809 68.4496 20.1482 69.6326C20.4463 71.7416 20.4654 71.7817 21.1333 71.7104C21.9945 71.6184 22.1716 71.067 22.206 68.3737C22.2341 66.1775 21.7777 64.3308 21.0184 63.5697C20.441 62.9907 19.1584 62.9698 18.8256 63.5339ZM24.3273 63.6134C23.6134 64.2611 23.7198 64.6458 25.6187 68.2755C26.9747 70.8674 27.1359 71.3436 27.222 73.0096C27.3297 75.0946 26.7431 78.643 25.9409 80.758C25.6478 81.5306 25.4541 82.2047 25.5104 82.2561C25.6987 82.4266 27.2254 80.5806 28.0326 79.2069C28.4818 78.4422 28.9605 77.1236 29.1294 76.1848C29.4463 74.4228 29.4267 74.3011 28.1033 69.8016C27.8062 68.792 27.4337 67.1218 27.2754 66.0901C26.863 63.3999 25.6688 62.3966 24.3273 63.6134ZM60.8041 63.5397C60.4425 63.9021 60.3657 64.825 60.2998 69.6035L60.222 75.2398L61.3743 78.2417C62.0081 79.8928 62.6885 81.5138 62.886 81.844C63.5513 82.9559 63.2794 81.758 62.2321 78.9619C60.2937 73.7867 60.1817 71.6489 61.6727 68.2755C62.733 65.8766 62.9876 64.0945 62.3528 63.5186C61.7794 62.9984 61.3381 63.0044 60.8041 63.5397ZM34.675 63.6833C34.675 63.8651 34.4963 64.1485 34.2779 64.313C34.0595 64.4775 33.8808 64.6989 33.8808 64.8055C33.8808 65.037 36.7588 66.0445 37.1135 65.9371C37.3886 65.854 35.2395 63.3524 34.8929 63.3524C34.773 63.3524 34.675 63.5013 34.675 63.6833ZM29.2596 67.5788C28.5951 68.1816 28.8199 69.6808 30.0014 72.5276C31.0704 75.1039 31.1366 75.5883 30.6055 76.9538C30.4057 77.4675 30.1587 78.3366 30.0565 78.8851C29.7674 80.4374 30.8586 81.3497 35.7472 83.6434C39.2571 85.2901 40.0507 85.7798 42.2343 87.6443C43.6027 88.8129 44.8043 89.7689 44.9049 89.7689C45.0055 89.7689 44.9965 89.688 44.8845 89.5888C44.7726 89.4896 42.6978 87.5348 40.2737 85.2443C37.8497 82.9537 35.0555 80.478 34.0643 79.7424C32.2225 78.3755 30.9092 76.7761 31.9348 77.1493C32.2043 77.2473 33.9735 77.8106 35.8663 78.4012C39.6425 79.5794 40.9262 80.168 43.2127 81.77L44.735 82.8365V82.1473C44.735 81.0299 43.487 79.0544 42.2668 78.2398C41.6587 77.8337 39.8506 76.8964 38.249 76.1565C34.6719 74.5038 32.5593 73.1928 31.939 72.2406C31.6801 71.8429 31.5197 71.5175 31.5824 71.5175C31.9755 71.5175 36.9989 73.4853 40.2993 74.9322C42.4461 75.8734 44.2727 76.5796 44.3585 76.5018C44.6426 76.2441 43.487 74.2365 42.462 73.2072C40.5892 71.3271 37.589 69.6347 33.5436 68.177C30.7948 67.1864 29.8391 67.0531 29.2596 67.5788ZM52.4123 69.2373C49.249 70.7224 47.8903 71.6578 46.9643 72.9884C46.3461 73.877 45.6049 76.229 45.868 76.4677C45.9371 76.5306 47.8983 75.4526 50.2261 74.0722C54.0256 71.8191 54.5566 71.42 55.4207 70.1667C57.2551 67.5065 56.5583 67.2913 52.4123 69.2373ZM23.8386 69.0999C23.3706 69.5245 23.2914 69.8943 23.2914 71.6544C23.2914 73.6512 23.3092 73.7101 23.8871 73.6356C24.6424 73.5381 25.1094 72.3703 25.1298 70.5262C25.148 68.8586 24.6776 68.3389 23.8386 69.0999ZM56.2509 73.7166C55.3773 74.2202 53.1628 75.3337 51.33 76.1908C48.0301 77.7338 46.7207 78.6188 46.3176 79.5782C45.9692 80.4067 45.7134 82.8046 45.9734 82.8046C46.1058 82.8046 46.9235 82.2585 47.7908 81.5909C49.8843 79.9795 51.8185 78.827 53.6716 78.0866C54.5079 77.7525 55.4136 77.2996 55.6844 77.0801C56.3007 76.5806 58.03 73.5012 57.9206 73.0987C57.8679 72.9058 57.2778 73.1244 56.2509 73.7166ZM55.4157 80.613C53.9822 81.7849 51.2734 84.2666 49.3962 86.1278C47.5189 87.989 45.8511 89.561 45.6899 89.6213C45.504 89.6909 45.5202 89.738 45.7338 89.75C45.9194 89.7603 47.0511 88.9258 48.2488 87.8953C49.4467 86.8648 51.4394 85.3084 52.677 84.4366C55.1666 82.6828 56.7486 81.2542 57.8039 79.807C59.2758 77.7883 58.5854 78.0213 55.4157 80.613ZM61.7852 86.6729C61.5078 86.9515 60.6852 87.4544 59.9572 87.7906C58.8178 88.317 58.1546 88.4236 55.192 88.5562C53.095 88.6498 51.4947 88.8376 51.0955 89.0365C50.1345 89.5156 47.7461 91.6234 46.7019 92.9137C45.6287 94.2401 45.4752 94.8304 46.5206 93.6114C47.8056 92.1128 49.4904 90.561 50.5668 89.8842C51.5103 89.291 51.9389 89.2044 54.7311 89.0427C58.6688 88.8148 59.8463 88.4901 61.3781 87.2104C62.0526 86.647 62.5336 86.1816 62.4471 86.1763C62.3605 86.171 62.0627 86.3946 61.7852 86.6729ZM25.2748 86.6439C25.6047 87.1283 27.7022 88.2817 28.9832 88.6835C29.8688 88.9613 31.6369 89.1551 34.3261 89.269C38.1642 89.4318 38.4025 89.4714 39.6208 90.1537C40.3594 90.5672 41.565 91.6395 42.4847 92.7009C45.019 95.6257 44.9941 94.967 42.4553 91.9195C41.2304 90.449 39.7394 89.4017 38.3601 89.043C37.864 88.914 36.0088 88.8083 34.2372 88.8083C30.5441 88.8083 28.6277 88.3924 26.6591 87.1638C25.4136 86.3864 24.9913 86.2279 25.2748 86.6439ZM56.3833 94.572C56.1649 94.7 54.7949 94.8087 53.3388 94.8138C50.2497 94.8241 49.0478 95.2026 47.7079 96.5871C46.8298 97.4943 44.8424 100.816 45.1776 100.816C45.2793 100.816 46.3827 99.9117 47.6298 98.8068C50.1904 96.5378 51.8219 95.6817 54.3435 95.2833C55.3003 95.1322 56.2996 94.8597 56.5641 94.6779C57.114 94.2999 56.9805 94.2218 56.3833 94.572ZM30.5203 95.0138C31.1345 95.2881 32.4261 95.5241 33.8295 95.6185C37.0579 95.8356 39.3855 96.8853 42.0341 99.3195C43.1021 100.301 44.021 101.063 44.0758 101.014C44.2592 100.847 42.0564 97.5842 41.2063 96.7631C39.7116 95.3195 38.5465 95.0143 34.3169 94.9584C32.257 94.931 30.3334 94.8311 30.0422 94.7365C29.751 94.6416 29.9662 94.7665 30.5203 95.0138ZM30.4393 99.9787C30.4393 100.276 32.9749 101.321 34.7568 101.757C38.5341 102.682 40.7515 104.052 42.7688 106.71C43.3162 107.431 43.8193 107.97 43.8865 107.909C44.1494 107.671 42.1027 104.238 41.0697 103.185C39.7034 101.792 38.3951 101.308 35.2545 101.038C33.8679 100.918 32.2757 100.619 31.6144 100.354C30.9682 100.094 30.4393 99.9256 30.4393 99.9787ZM55.192 100.349C54.6096 100.599 53.7161 100.809 53.2065 100.815C49.5121 100.864 47.2785 102.479 45.4008 106.459L44.7212 107.9L45.5376 107.06C45.9869 106.597 46.9386 105.611 47.6531 104.867C49.2884 103.164 50.9443 102.164 53.2412 101.493C54.2318 101.203 55.3739 100.72 55.7789 100.42C56.6623 99.7638 56.5784 99.7534 55.192 100.349Z" fill="currentColor"/>
</svg>
