<svg xmlns="http://www.w3.org/2000/svg" width="512" height="512" viewBox="0 0 512 512" version="1.1">
	<path d="M 246.641 2.210 C 246.303 3.470, 246.021 5.986, 246.014 7.803 C 246.006 9.619, 245.280 14.271, 244.400 18.139 C 243.085 23.920, 242.061 25.942, 238.650 29.489 C 233.827 34.504, 232.029 35.091, 212.500 38.022 C 193.626 40.855, 185.727 42.910, 169.910 49.100 C 148.003 57.674, 141.066 57.093, 129.909 45.747 C 127.070 42.861, 125.087 41.400, 125.502 42.500 C 125.917 43.600, 127.165 46.750, 128.275 49.500 C 131.014 56.281, 131.158 66.388, 128.577 70.668 C 127.526 72.410, 121.115 78.419, 114.330 84.021 C 97.959 97.539, 89.071 107.586, 80.291 122.500 C 75.716 130.270, 70.946 135.332, 66.685 136.939 C 62.347 138.574, 52.286 138.170, 44.038 136.028 C 39.934 134.962, 36.372 134.295, 36.121 134.545 C 35.561 135.106, 35.235 134.842, 42.616 139.791 C 50.682 145.200, 54 149.221, 54 153.586 C 54 155.474, 51.951 161.816, 49.446 167.680 C 41.951 185.229, 37.158 204.287, 35.033 225 C 32.836 246.407, 28.284 250.982, 9.167 250.994 C 2.955 250.999, 0.939 251.318, 1.249 252.248 C 1.478 252.934, 6.293 255.372, 11.948 257.666 C 23.340 262.287, 28.452 265.859, 31.170 271.096 C 32.166 273.016, 33.898 280.642, 35.019 288.043 C 36.139 295.444, 38.359 306.900, 39.952 313.500 C 42.587 324.419, 44.453 330.052, 52.539 351.500 C 57.209 363.887, 54.859 370.204, 42.250 379.161 C 38.263 381.994, 35 384.670, 35 385.108 C 35 385.546, 37.137 385.247, 39.750 384.444 C 51.767 380.751, 56.807 379.826, 63.019 380.174 C 73.241 380.747, 77.218 383.641, 87.190 397.764 C 99.317 414.938, 115.168 430.480, 131.500 441.208 C 153.202 455.464, 154.500 457.549, 154.500 478.167 C 154.500 485.683, 154.614 491.719, 154.754 491.579 C 154.894 491.439, 156.831 487.123, 159.058 481.988 C 163.765 471.136, 168.031 465.303, 172.680 463.360 C 175.650 462.120, 176.577 462.197, 181.744 464.116 C 200.836 471.206, 214.432 475.292, 229.086 478.345 C 253.420 483.414, 257.504 485.960, 265.644 501.138 L 270.129 509.500 269.591 501.910 C 268.896 492.116, 270.318 483.355, 273.077 480.418 C 275.545 477.791, 281.233 476.332, 292.500 475.436 C 310.231 474.026, 329.448 469.006, 348 460.938 C 354.004 458.326, 356.912 457.658, 362.582 457.588 C 368.805 457.511, 370.159 457.843, 373.751 460.330 C 376 461.887, 379.067 464.933, 380.568 467.098 C 382.069 469.264, 383.434 470.899, 383.602 470.732 C 383.769 470.564, 383.205 468.036, 382.349 465.114 C 381.356 461.726, 380.923 457.197, 381.155 452.611 C 381.603 443.725, 383.739 440.477, 396.013 430.019 C 409.876 418.208, 421.731 406.150, 430.173 395.278 C 439.313 383.505, 444.004 379.279, 448.974 378.341 C 451.912 377.786, 453.793 378.359, 460.253 381.772 L 468.006 385.869 464.962 381.445 C 458.170 371.573, 457.452 363.878, 462.122 351 C 471.747 324.455, 474.855 312.496, 478.098 289.520 C 479.191 281.779, 480.762 274.485, 481.620 273.177 C 483.980 269.575, 491.239 266.863, 500.158 266.252 C 504.505 265.954, 508.264 265.382, 508.512 264.981 C 508.759 264.581, 506.645 263.945, 503.813 263.570 C 494.001 262.268, 486.384 257.634, 482.930 250.863 C 481.508 248.075, 480.272 241.882, 478.902 230.671 C 476.743 213.004, 474.147 201.319, 468.009 181.651 C 465.804 174.584, 464 167.062, 464 164.936 C 464 159.277, 468.191 155.115, 479.994 149.052 C 492.270 142.746, 493.383 141.419, 485.391 142.617 C 482.151 143.103, 473.650 143.500, 466.500 143.499 C 455.070 143.499, 453.017 143.237, 449.500 141.334 C 443.881 138.293, 439.250 133.131, 431.228 120.965 C 422.962 108.430, 410.730 95.199, 400.163 87.365 C 383.613 75.094, 381.798 73.524, 379.931 69.865 C 376.044 62.246, 378.514 50.339, 386.114 40.059 C 389.772 35.113, 387.583 35.491, 381.694 40.824 C 366.685 54.417, 355.650 55.677, 332.346 46.460 C 314.338 39.338, 303.462 36.723, 284.674 34.996 C 270.455 33.690, 264.085 31.707, 258.604 26.882 C 253.240 22.161, 251.267 18.131, 249.585 8.457 C 248.130 0.091, 247.542 -1.156, 246.641 2.210 M 281 50.462 C 276.875 51.757, 270.238 53.829, 266.250 55.065 L 259 57.314 259.013 61.407 C 259.059 75.633, 263.953 172.738, 264.840 177 C 265.361 179.507, 266.168 180.587, 267.684 180.807 C 269.423 181.058, 270.082 180.254, 271.371 176.307 C 275.135 164.782, 302 55.707, 302 51.950 C 302 47.436, 292.731 46.779, 281 50.462 M 204.250 51.662 C 201.375 52.822, 201.382 52.847, 222.483 119 C 229.237 140.175, 236 162, 237.512 167.500 C 240.538 178.510, 242.788 181.719, 246.202 179.892 C 248.201 178.822, 248.212 178.310, 247.505 121.156 C 247.011 81.212, 246.439 62.732, 245.642 61 C 244.639 58.821, 242.695 58.030, 230.496 54.835 C 217.792 51.509, 207.665 50.284, 204.250 51.662 M 314.494 56.250 C 313.437 59.227, 294.912 151.971, 292.499 166.363 C 290.065 180.886, 289.847 187.036, 291.769 186.978 C 293.276 186.933, 346 81.215, 346 78.239 C 346 74.456, 339.523 68.228, 327.570 60.517 C 319.103 55.055, 315.352 53.831, 314.494 56.250 M 180.989 58.792 C 176.279 61.779, 163.274 75.251, 161.002 79.497 C 159.961 81.441, 159.921 82.792, 160.813 85.770 C 164.214 97.123, 222.173 186, 226.175 186 C 226.757 186, 226.977 185.213, 226.663 184.250 C 226.350 183.287, 224.067 176.650, 221.590 169.500 C 216.102 153.657, 204.038 112.045, 196.569 83.190 C 190.677 60.431, 189.346 56.690, 186.981 56.235 C 186.154 56.076, 183.458 57.226, 180.989 58.792 M 358.283 88.250 C 357.231 90.037, 348.119 108.375, 338.035 129 C 304.894 196.784, 305.664 195.056, 307.979 196.487 C 309.865 197.653, 312.799 194.954, 333.169 173.311 C 364.811 139.690, 394 106.572, 394 104.291 C 394 102.985, 389.014 100.007, 386.800 99.990 C 383.937 99.969, 375.140 95.030, 369.286 90.158 C 365.877 87.321, 362.437 85, 361.643 85 C 360.848 85, 359.336 86.463, 358.283 88.250 M 135.282 90.537 C 124.681 93.393, 110 101.495, 110 104.491 C 110 105.871, 135.431 130.605, 163 156.038 C 178.480 170.318, 202.251 190, 204.020 190 C 204.534 190, 202.085 185.613, 198.578 180.250 C 195.071 174.887, 182.455 153.400, 170.541 132.500 C 150.433 97.223, 144.910 88.896, 141.734 89.066 C 141.055 89.102, 138.152 89.764, 135.282 90.537 M 402.300 115.638 C 400.210 118.189, 395.101 124.376, 390.946 129.388 C 369.921 154.749, 325.702 209.488, 322.133 214.573 C 320.826 216.435, 320.034 218.646, 320.365 219.508 C 321.172 221.611, 319.405 222.616, 367.500 192.686 C 423.285 157.971, 423.448 157.862, 423.804 155.368 C 423.971 154.195, 422.296 148.994, 420.082 143.811 C 417.867 138.628, 414.873 129.913, 413.427 124.444 C 411.009 115.299, 408.920 111, 406.895 111 C 406.457 111, 404.390 113.087, 402.300 115.638 M 97.654 116.723 C 96.870 118.250, 95.679 122.200, 95.007 125.500 C 94.336 128.800, 92.263 136, 90.401 141.500 C 88.538 147, 87.012 151.821, 87.007 152.213 C 86.994 153.544, 143.184 186.085, 173.560 202.337 C 189.840 211.047, 195.467 213.199, 197.264 211.402 C 197.593 211.073, 197.650 210.250, 197.390 209.573 C 196.868 208.213, 102.558 115.966, 100.418 114.723 C 99.514 114.198, 98.616 114.848, 97.654 116.723 M 75.048 165.746 C 69.516 168.470, 60.546 177.976, 57.140 184.723 C 53.362 192.207, 49 204.897, 49 208.403 C 49 213.633, 49.463 213.737, 99 219.554 C 115.775 221.524, 140.525 224.451, 154 226.059 C 180.739 229.249, 183.389 229.439, 182.565 228.106 C 182.261 227.614, 176.165 223.780, 169.017 219.586 C 161.870 215.392, 144.879 204.913, 131.261 196.300 C 97.917 175.211, 79.786 163.995, 79.083 164.023 C 78.762 164.035, 76.946 164.811, 75.048 165.746 M 420.974 176.642 C 409.154 183.485, 385.610 198.610, 355 219.026 C 345.375 225.445, 335.363 231.933, 332.750 233.444 C 329.707 235.203, 328 236.875, 328 238.095 C 328 240.591, 328.514 240.552, 342 237.019 C 348.325 235.363, 368.125 230.411, 386 226.015 C 427.617 215.780, 454.786 208.370, 457.701 206.460 C 460.986 204.308, 460.665 199.818, 456.628 191.472 C 450.754 179.329, 441.612 170, 435.586 170 C 433.535 170, 428.474 172.301, 420.974 176.642 M 242 202.882 C 238.975 203.859, 234.925 205.462, 233 206.447 C 206.246 220.124, 196.064 257.121, 211.678 283.920 C 215.456 290.405, 224.511 298.945, 231.608 302.719 C 261.749 318.743, 298.774 302.513, 306.460 269.907 C 312.059 246.154, 302.861 222.421, 282.885 209.082 C 271.202 201.280, 254.712 198.780, 242 202.882 M 429 229.584 C 392.746 240.810, 362.326 249.714, 344.015 254.459 C 330.167 258.048, 328.360 258.889, 329.291 261.315 C 330.447 264.328, 440.179 264.885, 450.453 261.931 C 459.093 259.446, 462.976 252.176, 465.165 234.389 C 466.572 222.961, 465.960 219.974, 462.231 220.070 C 460.729 220.108, 445.775 224.390, 429 229.584 M 48.649 228.473 C 47.691 230.970, 49.908 246.679, 52.012 252.303 C 55.007 260.307, 60.713 265, 67.450 265 C 70.729 265, 158.613 250.349, 170.062 247.893 C 172.778 247.311, 175 246.461, 175 246.005 C 175 245.021, 173.184 244.711, 148.730 241.514 C 122.478 238.083, 98.890 234.539, 75.280 230.478 C 52.671 226.589, 49.464 226.348, 48.649 228.473 M 146 267.594 C 124.940 271.308, 71.424 279.001, 66.728 278.989 C 64.402 278.983, 60.291 278.308, 57.591 277.489 C 48.698 274.791, 49 274.441, 49 287.435 C 49 301.082, 49.829 304, 53.708 304 C 55.224 304, 78.298 296.400, 104.982 287.112 C 131.667 277.824, 156.875 269.084, 161 267.691 L 168.500 265.158 164 265.185 C 161.525 265.200, 153.425 266.284, 146 267.594 M 459 274.063 C 453.158 275.478, 419.927 276.989, 394.550 276.995 C 380.581 276.998, 370.996 277.369, 371.550 277.886 C 372.435 278.712, 411.212 287.724, 445.358 295.039 C 462.095 298.625, 464.270 298.399, 465.358 292.961 C 466.159 288.954, 466.025 279.303, 465.123 276.074 C 464.316 273.186, 463.596 272.950, 459 274.063 M 171.133 280.625 C 159.955 283.647, 64.778 315.624, 59.308 318.195 C 54.116 320.636, 53.891 322.279, 57.717 329.841 C 63.207 340.692, 71.663 348, 78.730 348 C 83.373 348, 93.624 341.832, 131.470 316.267 C 174.166 287.427, 182.606 281.033, 180.437 279.168 C 179.922 278.725, 175.735 279.380, 171.133 280.625 M 325.357 285.513 C 324.519 287.695, 326.473 289.610, 333.917 293.902 C 337.537 295.990, 351.750 304.224, 365.500 312.200 C 406.758 336.133, 428.595 348.060, 432.241 348.652 C 437.001 349.424, 440.663 347.291, 447.464 339.783 C 456.744 329.540, 462.717 314.433, 458.750 311.238 C 458.063 310.684, 451.425 309.243, 444 308.035 C 415.760 303.441, 370.943 294.224, 343.801 287.429 C 328.436 283.583, 326.187 283.349, 325.357 285.513 M 181.435 307.360 C 171.498 312.125, 150.087 324.201, 123 340.320 C 91.990 358.774, 91 359.468, 91 362.764 C 91 366.007, 98.203 389.141, 101.615 396.857 C 106.035 406.850, 108.607 408.105, 113.698 402.750 C 122.071 393.944, 189.735 305.401, 188.803 304.470 C 188.565 304.231, 185.249 305.532, 181.435 307.360 M 316 304.436 C 316 304.676, 319.607 307.663, 324.015 311.073 C 332.889 317.938, 338.246 324.509, 341.108 332.042 C 345.001 342.288, 344.521 342.010, 319.563 319.561 C 312.820 313.496, 309.474 311.077, 309.154 312.037 C 308.468 314.095, 323.374 327.819, 364.346 362.851 C 407.481 399.731, 407.107 399.441, 410.330 398.632 C 415.186 397.413, 422.145 383.732, 424.238 371.290 C 425.110 366.102, 425.025 364.687, 423.719 362.693 C 422.720 361.169, 411.736 354.957, 393.327 345.506 C 357.742 327.234, 343.729 319.661, 329.205 310.851 C 318.921 304.613, 316 303.194, 316 304.436 M 204.244 315.588 C 202.453 317, 200.478 319.107, 199.855 320.272 C 198.949 321.964, 199.521 321.756, 202.707 319.232 C 207.248 315.636, 209.653 312.995, 208.372 313.011 C 207.893 313.017, 206.035 314.177, 204.244 315.588 M 294.536 321.941 C 294.205 322.477, 297.281 327.997, 301.371 334.208 C 305.461 340.418, 315.898 356.750, 324.563 370.500 C 346.518 405.339, 357.583 421.681, 360.523 423.607 C 364.193 426.012, 368.030 425.039, 384.264 417.587 C 394.674 412.809, 398.500 410.582, 398.500 409.301 C 398.500 408.336, 395.617 405.296, 392.073 402.525 C 342.843 364.031, 314.807 340.775, 304.393 329.791 C 296.407 321.368, 295.391 320.559, 294.536 321.941 M 205.230 327.848 C 198.481 331.061, 191.786 334.772, 190.353 336.095 C 180.012 345.639, 122.200 412.357, 121.355 415.721 C 120.586 418.787, 122.261 420.598, 129.020 424.010 C 139.310 429.205, 151.873 431.382, 157.295 428.911 C 160.352 427.519, 162.878 423.213, 179.459 391.139 C 197.729 355.800, 206.405 339.892, 211.989 331.500 C 217.360 323.427, 218.235 321.999, 217.809 322.003 C 217.639 322.004, 211.978 324.634, 205.230 327.848 M 229.159 332.507 C 224.579 337.980, 176.605 427.729, 174.568 434.636 C 173.671 437.677, 177.480 441.814, 188.317 449.566 C 202.474 459.694, 203.889 459.455, 206.523 446.500 C 209.314 432.770, 222.838 375.424, 228.087 355.058 C 230.847 344.347, 232.964 334.021, 232.799 332.065 L 232.500 328.514 229.159 332.507 M 246.669 338 C 244.094 352.765, 241.777 362.819, 231.803 402.500 C 225.720 426.700, 220.033 449.340, 219.165 452.811 C 217.362 460.024, 218.092 462.308, 222.364 462.818 C 226.341 463.292, 247.839 457.043, 250.703 454.579 L 253.180 452.449 251.603 424.474 C 250.736 409.088, 249.553 383.675, 248.973 368 C 247.638 331.895, 247.667 332.272, 246.669 338 M 266.111 335.366 C 265.278 336.370, 265.157 351.767, 265.653 393.440 C 266.439 459.367, 265.424 453.864, 277.273 456.452 C 288.284 458.857, 303.541 460.933, 305.824 460.336 C 306.944 460.043, 308.089 459.211, 308.366 458.489 C 308.643 457.766, 305.048 445.547, 300.377 431.337 C 290.451 401.145, 278.268 361.745, 274.453 347.500 C 272.979 342, 271.359 336.712, 270.852 335.750 C 269.748 333.655, 267.671 333.487, 266.111 335.366 M 289.562 349.345 C 289.948 350.910, 293.282 361.935, 296.970 373.845 C 300.658 385.755, 307.635 408.325, 312.475 424 C 317.315 439.675, 321.718 453.063, 322.260 453.750 C 324.001 455.960, 328.386 455.094, 334.865 451.261 C 342.108 446.977, 349 440.010, 349 436.973 C 349 433.321, 346.259 429.068, 316.473 386.500 C 310.316 377.700, 301.583 365.100, 297.068 358.500 C 292.234 351.433, 289.148 347.670, 289.562 349.345" stroke="none" fill="black" fill-rule="evenodd"/>
</svg>