<svg xmlns="http://www.w3.org/2000/svg" width="512" height="512" viewBox="0 0 512 512" version="1.1">
	<path d="M 124.166 17.048 C 116.474 22.184, 113.908 26.272, 113.253 34.431 L 112.747 40.738 117.358 42.499 C 122.873 44.605, 129.758 51.615, 133.431 58.864 C 134.860 61.685, 137.350 69.848, 138.964 77.004 L 141.897 90.015 135.967 98.257 C 124.336 114.423, 114.262 138.407, 110.590 158.673 C 108.727 168.959, 108.094 188.878, 109.291 199.555 L 110.083 206.610 105.168 209.794 C 97.648 214.667, 92.901 221.702, 90.929 230.897 C 88.742 241.091, 94.263 253.724, 103.526 259.721 C 112.658 265.634, 112.170 264.958, 111.157 270.280 C 110.656 272.909, 108.635 277.672, 106.665 280.864 C 101.383 289.420, 100.602 294.195, 102.575 305.857 C 103.473 311.161, 105.258 318.828, 106.543 322.895 L 108.880 330.291 106.560 333.395 C 97.824 345.088, 80.225 382.817, 81.707 386.678 C 81.985 387.402, 86.674 389.409, 92.129 391.138 C 100.697 393.855, 101.965 394.536, 101.453 396.148 C 100.387 399.508, 103.061 408.890, 106.572 414.108 C 109.500 418.458, 110 420.050, 110 425.024 C 110 430.192, 110.346 431.192, 113.077 433.923 C 115.728 436.574, 116.870 436.997, 121.327 436.980 C 124.172 436.969, 130.213 436.356, 134.751 435.618 L 143.003 434.277 144.169 438.168 C 145.276 441.865, 145.181 442.221, 142.278 445.280 C 138.293 449.477, 137.621 452.003, 139.139 457.070 L 140.385 461.228 132.692 468.414 C 127.999 472.798, 125 476.390, 125 477.626 C 125 482.495, 136.137 487.800, 152.293 490.625 C 172.739 494.200, 228.535 489.466, 237.846 483.365 C 241.456 481, 240.348 475.227, 235.086 468.988 C 232.842 466.326, 231.192 463.552, 231.419 462.824 C 231.647 462.096, 232.110 460.240, 232.448 458.701 C 232.903 456.627, 234.156 455.423, 237.281 454.053 C 239.602 453.035, 245.074 449.692, 249.442 446.623 L 257.385 441.043 263.942 444.689 C 277.540 452.250, 277.727 452.419, 279.064 458.395 L 280.288 463.867 274.644 470.104 C 268.001 477.445, 267.235 481.036, 271.809 483.401 C 279.410 487.332, 313.235 492, 334.114 492 C 352.276 492, 362.298 490.821, 373.076 487.416 C 388.502 482.543, 389.704 478.195, 378.604 467.419 L 372.131 461.133 372.709 455.531 C 373.240 450.387, 373.030 449.570, 370.144 445.550 C 366.732 440.800, 366.282 438.365, 368.303 435.600 C 369.432 434.056, 370.147 433.963, 373.644 434.904 C 383.691 437.610, 388.043 438.009, 391.543 436.547 C 395.536 434.878, 398.989 429.764, 399.002 425.500 C 399.006 423.850, 399.796 421.336, 400.755 419.913 C 407.782 409.492, 409.137 407.167, 410.007 404.035 C 410.547 402.091, 410.994 398.925, 410.999 397 L 411.010 393.500 419.019 391.100 C 430.740 387.588, 430.829 387.489, 428.614 380.356 C 425.156 369.221, 409.365 338.382, 402.917 330.171 C 401.140 327.909, 401.145 327.686, 403.097 322.471 C 406.488 313.408, 409.976 299.712, 409.966 295.500 C 409.955 291.090, 407.936 286.070, 403.150 278.554 C 400.758 274.798, 400 272.471, 400 268.878 L 400 264.147 405.256 261.740 C 415.928 256.855, 421.329 248.428, 421.437 236.500 C 421.488 230.803, 420.987 228.456, 418.745 223.891 C 416.249 218.807, 408.085 209.812, 403.802 207.425 C 402.339 206.610, 402.249 205.860, 403.152 201.990 C 403.777 199.305, 403.981 191.470, 403.657 182.500 C 402.574 152.461, 392.216 122.381, 374.224 97.024 C 365.865 85.243, 345.442 64.529, 333.500 55.720 C 309.448 37.977, 283.061 26.798, 256.105 22.932 C 244.175 21.220, 224.417 22.269, 208 25.484 C 180.489 30.871, 155.111 27.428, 138.601 16.070 C 136.147 14.381, 133.260 13, 132.184 13 C 131.108 13, 127.500 14.822, 124.166 17.048 M 127.160 30.861 C 125.289 33.868, 125.245 34.099, 126.905 32.192 C 129.322 29.415, 129.767 29.595, 141.533 38.107 C 157.159 49.411, 167.649 52.486, 190.500 52.460 C 204.471 52.445, 207.917 52.098, 217.678 49.721 C 229.714 46.791, 231.002 46.600, 230.996 47.750 C 230.993 48.163, 227.359 49.842, 222.918 51.481 C 215.342 54.279, 215.027 54.509, 217.797 55.227 C 222.036 56.326, 223.282 58.152, 221.514 60.677 C 219.364 63.747, 201.331 79.114, 194.500 83.697 C 180.686 92.967, 170.283 96.565, 159.836 95.689 L 153.068 95.122 148.143 101.698 C 133.227 121.616, 122.916 146.979, 121.435 167.395 L 120.847 175.500 124.346 165.733 C 128.833 153.209, 143.113 125.862, 140.656 134.500 C 138.844 140.870, 137.805 151.304, 138.324 157.931 C 139.252 169.783, 143.974 181.310, 149.004 184.002 C 152.014 185.613, 154.961 183.819, 165.306 174.081 C 182.066 158.302, 190.540 153.927, 217.500 147.128 C 230.907 143.747, 252.529 137.203, 259.250 134.492 C 260.230 134.097, 261 134.232, 261 134.799 C 261 135.357, 256.845 137.854, 251.767 140.348 C 246.440 142.965, 243.161 145.091, 244.017 145.375 C 244.833 145.645, 255.400 146.084, 267.500 146.352 C 307.054 147.228, 321.371 152.142, 345 172.951 C 360.109 186.257, 361.821 186.638, 367.221 177.902 C 373.162 168.290, 374.661 149.663, 370.545 136.591 C 368.172 129.054, 368.663 128.943, 373.171 136 C 378.748 144.729, 386.496 161.245, 388.961 169.655 L 390.967 176.500 390.399 169.500 C 388.697 148.494, 378.770 123.096, 364.261 102.628 C 361.093 98.158, 352.875 88.858, 346 81.962 C 331.305 67.222, 317.187 57.281, 297.977 48.148 C 274.579 37.024, 261.294 33.713, 240 33.700 C 227.614 33.692, 223.314 34.145, 210.500 36.810 C 202.250 38.526, 192.800 40.211, 189.500 40.554 C 176.215 41.937, 145.027 36.028, 134.626 30.158 L 129.424 27.222 127.160 30.861 M 322 75.401 C 322 76.112, 329.074 80.001, 330.307 79.968 C 332.316 79.915, 326.022 75, 323.944 75 C 322.875 75, 322 75.181, 322 75.401 M 199 122.691 C 188.867 124.387, 179.656 130.274, 174.165 138.564 C 169.636 145.402, 170.181 146.891, 175.500 142.209 C 181.504 136.924, 192.242 131.392, 200.103 129.532 C 203.621 128.700, 211.598 127.719, 217.829 127.353 C 227.905 126.760, 228.842 126.553, 226.300 125.484 C 219.978 122.826, 206.457 121.443, 199 122.691 M 292.830 123.453 C 289.161 124.218, 285.111 125.442, 283.830 126.172 C 281.777 127.342, 283.104 127.570, 295 128.088 C 305.991 128.567, 309.955 129.175, 316.328 131.357 C 323.959 133.971, 333.215 139.124, 337.750 143.285 C 341.215 146.463, 340.508 143.459, 336.509 138.012 C 332.531 132.594, 324.594 126.786, 318.037 124.497 C 311.679 122.277, 300.655 121.820, 292.830 123.453 M 229.308 161.789 C 228.548 162.272, 230.046 163.557, 233.444 165.336 C 236.374 166.870, 241.988 171.022, 245.919 174.563 C 249.850 178.103, 253.389 180.998, 253.783 180.996 C 255.083 180.989, 260.877 177.123, 266.728 172.358 C 269.895 169.778, 275.302 166.350, 278.743 164.739 C 282.184 163.129, 285 161.629, 285 161.406 C 285 160.650, 230.509 161.025, 229.308 161.789 M 193.951 174.362 C 181.544 177.708, 170.832 189.963, 172.508 198.893 C 172.876 200.857, 173.617 203.285, 174.155 204.290 C 175.033 205.930, 175.417 205.724, 177.914 202.278 C 190.159 185.374, 211.529 180.634, 231.002 190.501 C 236.124 193.096, 241.661 197.673, 240.764 198.569 C 240.518 198.815, 237.260 197.424, 233.524 195.476 C 229.788 193.529, 226.503 192.163, 226.225 192.441 C 225.947 192.720, 227.306 194.703, 229.245 196.849 C 237.132 205.579, 240.754 215.641, 239.133 224.317 L 238.322 228.658 244.411 227.227 C 250.574 225.779, 265.486 225.975, 269.388 227.555 C 271.120 228.257, 271.221 227.956, 270.620 223.910 C 269.295 214.982, 274.252 203.376, 282.476 196.155 C 287.431 191.805, 284.367 191.930, 275.398 196.444 C 271.634 198.338, 268.353 199.687, 268.107 199.440 C 267.126 198.459, 272.808 193.646, 278 191.059 C 286.078 187.034, 292.568 185.489, 301 185.585 C 313.612 185.729, 325.594 191.452, 332.259 200.516 C 334.042 202.939, 335.800 204.940, 336.167 204.961 C 336.534 204.982, 337.303 202.814, 337.876 200.143 C 339.388 193.092, 337.835 188.504, 332.027 182.869 C 317.331 168.611, 287.390 170.114, 270.645 185.951 C 267.709 188.728, 264.584 191, 263.700 191 C 262.817 191, 260.648 189.200, 258.880 187 C 257.112 184.800, 255.373 183, 255.017 183 C 254.660 183, 253.364 184.787, 252.137 186.970 C 250.910 189.154, 249.471 191.209, 248.939 191.538 C 248.407 191.866, 245.458 189.894, 242.384 187.155 C 229.476 175.650, 209.115 170.272, 193.951 174.362 M 147.959 199.529 C 144.911 202.263, 140.488 206.075, 138.130 208 L 133.843 211.500 135.921 216.333 C 139.068 223.649, 138.775 232.861, 135.154 240.500 C 133.589 243.800, 131.095 247.938, 129.612 249.695 C 127.601 252.077, 126.271 255.763, 124.380 264.195 C 122.986 270.413, 121.006 277.413, 119.979 279.750 C 118.952 282.087, 118.446 284, 118.853 284 C 119.957 284, 126.343 277.068, 129.448 272.500 L 132.167 268.500 131.532 271.623 C 130.864 274.906, 132.731 288, 133.867 288 C 134.546 288, 137.775 281.234, 143.453 267.914 C 145.232 263.742, 148.542 257.872, 150.809 254.869 C 153.076 251.867, 155.678 247.630, 156.592 245.455 C 158.778 240.249, 158.760 228.525, 156.552 219.500 C 155.610 215.650, 154.538 208.463, 154.169 203.529 L 153.500 194.557 147.959 199.529 M 357.659 202.773 C 357.310 207.023, 356.125 214.775, 355.026 220 C 353.926 225.225, 353.020 230.868, 353.013 232.540 C 352.985 238.975, 356.054 247.528, 360.934 254.617 C 365.544 261.314, 377 284.916, 377 287.717 C 377 288.423, 377.394 289, 377.875 289 C 379.105 289, 380 283.812, 380 276.679 L 380 270.608 382.866 275.054 C 386.093 280.061, 391.677 285.656, 392.563 284.770 C 392.885 284.449, 392.396 282.732, 391.477 280.956 C 390.559 279.180, 388.735 272.554, 387.424 266.232 C 385.725 258.043, 384.188 253.409, 382.078 250.119 C 373.322 236.466, 371.203 224.986, 375.820 216.216 C 377.061 213.859, 377.805 211.493, 377.473 210.957 C 376.952 210.113, 367.299 202.039, 360.517 196.773 L 358.293 195.047 357.659 202.773 M 190.624 198.783 C 186.225 202.063, 180.769 208.730, 179.011 212.974 C 178.321 214.638, 177.474 215.995, 177.129 215.988 C 176.783 215.981, 174.529 214.849, 172.119 213.472 L 167.738 210.967 168.351 215.734 C 168.688 218.355, 169.253 224.775, 169.608 230 C 170.191 238.602, 170.007 240.204, 167.657 246.948 C 166.230 251.044, 165.279 254.612, 165.543 254.877 C 165.808 255.141, 171.981 253.466, 179.262 251.155 C 186.543 248.844, 194.547 246.690, 197.048 246.368 C 200.997 245.861, 209.470 246.765, 218.058 248.610 C 220.282 249.088, 220.752 248.715, 221.661 245.754 L 222.706 242.348 214.923 242.798 C 204.505 243.401, 201.076 242.613, 196.286 238.513 C 190.469 233.533, 187.675 227.112, 187.578 218.500 C 187.496 211.145, 188.695 207.093, 192.838 200.730 C 194.188 198.656, 195.079 196.746, 194.818 196.485 C 194.557 196.223, 192.669 197.258, 190.624 198.783 M 317.928 199.910 C 328.511 213.271, 324.408 233.421, 309.500 241.296 C 305.338 243.495, 296.305 244.169, 290.758 242.695 L 288.016 241.966 289.600 245.288 L 291.184 248.609 300.304 247.190 C 308.406 245.929, 310.320 245.949, 317.462 247.368 C 321.883 248.247, 330.225 250.507, 336 252.391 C 341.775 254.275, 346.602 255.718, 346.726 255.598 C 346.851 255.479, 346.020 252.933, 344.881 249.940 C 341.659 241.482, 341.059 235.545, 342.231 223.733 C 342.819 217.811, 343.031 212.698, 342.702 212.369 C 342.374 212.041, 340.566 212.723, 338.685 213.886 C 336.803 215.049, 334.867 215.988, 334.382 215.974 C 333.897 215.960, 332.698 214.206, 331.717 212.077 C 328.620 205.355, 319.164 196, 315.466 196 C 315.117 196, 316.225 197.759, 317.928 199.910 M 211 205.752 C 207.865 207.317, 207.469 207.973, 207.204 212.033 C 206.827 217.808, 209.897 221.200, 215.500 221.200 C 225.093 221.200, 227.350 209.133, 218.452 205.415 C 214.342 203.698, 215.186 203.660, 211 205.752 M 295.635 207.073 C 292.348 209.658, 292.102 214.589, 295.073 218.365 C 297.886 221.941, 304.625 222.087, 308.611 218.658 C 317.094 211.362, 304.489 200.108, 295.635 207.073 M 111.384 218.890 C 96.484 225.741, 98.215 249.090, 113.875 252.483 C 117.651 253.301, 118.937 252.179, 119.017 248 C 119.059 245.806, 121.187 238.973, 123.454 233.750 C 124.090 232.286, 123.681 232, 120.952 232 C 118.434 232, 116.800 232.936, 113.784 236.106 C 111.636 238.364, 109.602 239.936, 109.265 239.598 C 108.927 239.261, 109.067 237.316, 109.576 235.276 C 110.761 230.519, 115.728 227, 121.256 227 C 125.073 227, 125.192 226.900, 124.545 224.250 C 123.046 218.108, 117.762 215.957, 111.384 218.890 M 388.923 219.923 C 384.471 224.375, 384.990 226.626, 390.614 227.260 C 395.948 227.861, 400.097 230.573, 401.436 234.333 C 402.803 238.170, 401.386 238.744, 398.164 235.657 C 395.366 232.976, 389.446 230.606, 387.913 231.554 C 387.471 231.827, 388.396 235.076, 389.967 238.775 C 391.539 242.474, 393.139 247.188, 393.523 249.250 C 394.310 253.471, 395.468 253.821, 400.593 251.389 C 411.414 246.254, 414.191 232.323, 406.270 222.909 C 400.959 216.597, 393.528 215.318, 388.923 219.923 M 244.803 232.335 C 235.742 234.899, 228.091 242.132, 226.550 249.591 C 225.815 253.144, 226.731 254.170, 232.215 255.936 C 234.259 256.594, 238.205 259.177, 240.986 261.677 C 250.670 270.384, 260.044 269.720, 272.900 259.416 C 275.320 257.477, 278.621 255.626, 280.236 255.303 C 283.904 254.569, 284.581 252.882, 283.139 248.069 C 281.431 242.368, 274.862 235.490, 269.247 233.523 C 262.805 231.265, 250.668 230.675, 244.803 232.335 M 169 259.411 C 153.153 265.632, 152.545 265.945, 153.819 267.219 C 154.464 267.864, 156.793 268.285, 158.996 268.155 C 162.037 267.976, 163 268.289, 163 269.459 C 163 273.351, 168.716 270.184, 175.369 262.607 C 182.196 254.830, 181.526 254.493, 169 259.411 M 335.285 262.202 C 340.978 268.696, 345.056 271.029, 347.365 269.112 C 348.011 268.576, 350.520 267.994, 352.942 267.819 C 355.363 267.643, 357.509 266.999, 357.710 266.387 C 358.123 265.128, 356.531 264.454, 342.563 259.978 C 337.097 258.226, 331.922 256.526, 331.063 256.199 C 330.203 255.871, 332.103 258.573, 335.285 262.202 M 152.592 286.767 C 150.443 292.670, 148.482 298.063, 148.235 298.750 C 147.505 300.783, 151.176 300.183, 153.642 297.867 L 155.912 295.734 154.900 299.399 C 154.344 301.415, 154.026 304.963, 154.194 307.282 L 154.500 311.500 157.834 307 L 161.167 302.500 160.455 315.125 C 159.601 330.273, 161.277 339.734, 166.286 348.036 C 170.261 354.625, 172.416 355.734, 171.472 350.705 C 170.835 347.309, 172.418 333.750, 173.693 331.688 C 174.039 331.128, 175.133 334.682, 176.124 339.585 C 178.530 351.485, 184.098 362.416, 192.891 372.500 C 196.728 376.900, 200.459 380.500, 201.183 380.500 C 202.884 380.500, 203.450 374.728, 202.121 370.919 C 201.562 369.313, 201.224 368, 201.371 368 C 201.517 368, 204.448 371.569, 207.885 375.932 C 213.797 383.438, 220.572 389.761, 221.600 388.733 C 221.858 388.475, 221.629 386.304, 221.091 383.909 C 220.553 381.514, 220.279 379.388, 220.483 379.184 C 221.113 378.554, 227.038 387.206, 230.087 393.207 C 234.394 401.687, 237.716 412.408, 239.085 422.250 C 239.755 427.063, 240.654 431, 241.083 431 C 242.229 431, 253.023 416.240, 261.744 402.750 C 265.921 396.288, 269.769 391, 270.295 391 C 271.197 391, 270.909 393.462, 269.369 398.898 L 268.689 401.297 272.095 399.398 C 273.968 398.354, 279.663 393.346, 284.750 388.268 C 293.321 379.713, 294 379.240, 294 381.818 C 294 383.348, 293.460 385.140, 292.800 385.800 C 292.140 386.460, 292.027 386.982, 292.550 386.959 C 294.440 386.879, 300.155 381.171, 304.442 375.082 L 308.823 368.861 308.273 374.930 C 307.920 378.818, 308.096 381, 308.762 381 C 309.334 381, 312.019 378.413, 314.728 375.250 C 327.548 360.285, 333.484 347.454, 334.276 333 L 334.522 328.500 336.761 335.355 C 337.993 339.126, 339 344.693, 339 347.728 C 339 352.640, 339.173 353.101, 340.578 351.935 C 343.217 349.745, 347.074 341.142, 348.560 334.131 C 349.343 330.437, 349.994 321.520, 350.029 314 L 350.093 300.500 352.584 305.286 C 355.983 311.816, 357.345 310.552, 356.517 301.635 L 355.853 294.500 358.247 297.393 C 362.796 302.892, 363.043 299.929, 358.940 289.075 C 356.773 283.342, 355 278.055, 355 277.325 C 355 274.541, 353.309 276.214, 350.529 281.750 C 348.594 285.602, 347.511 286.922, 347.247 285.750 C 346.623 282.975, 345.445 283.686, 343.492 288.017 C 342.125 291.049, 341.248 291.896, 339.916 291.473 C 338.627 291.064, 338.063 291.530, 337.825 293.200 C 337.590 294.853, 336.669 295.630, 334.500 296.003 C 332.765 296.302, 331.500 297.138, 331.500 297.986 C 331.500 302.330, 309.042 302.954, 293.793 299.035 L 285.085 296.797 277.793 303.148 C 262.348 316.600, 257.091 323.293, 256.930 329.710 C 256.891 331.245, 256.493 333.400, 256.044 334.500 C 255.315 336.290, 255.160 336.185, 254.569 333.500 C 252.050 322.050, 249.441 318.543, 234.507 306.531 C 229.329 302.367, 224.841 298.552, 224.534 298.054 C 224.220 297.546, 221.015 297.998, 217.237 299.082 C 207.720 301.812, 195.629 302.562, 186.440 300.990 C 179.990 299.886, 178.696 299.332, 177.941 297.344 C 177.353 295.798, 176.245 295, 174.685 295 C 173.134 295, 171.929 294.141, 171.182 292.500 C 170.555 291.125, 169.337 290, 168.473 290 C 167.610 290, 166.268 288.538, 165.491 286.750 C 164.714 284.962, 164.061 284.063, 164.039 284.750 C 163.958 287.336, 162.312 285.835, 159.947 281.016 C 158.601 278.274, 157.275 276.032, 157 276.032 C 156.725 276.033, 154.741 280.864, 152.592 286.767 M 262.158 291.234 C 256.906 293.302, 256.701 293.308, 249.998 291.570 C 243.324 289.838, 239.923 289.964, 234.104 292.158 L 231.709 293.061 233.934 295.430 C 237.582 299.313, 247.181 303.072, 253.926 303.259 C 259.090 303.402, 260.937 302.891, 267.630 299.462 C 271.885 297.283, 275.538 294.962, 275.749 294.304 C 276.047 293.370, 269.070 288.778, 267.790 289.065 C 267.630 289.101, 265.096 290.077, 262.158 291.234 M 113.631 343.256 C 106.112 356.307, 101.292 365.489, 98.803 371.500 L 95.905 378.500 97.969 380.174 C 100.478 382.208, 112.251 385, 118.322 385 C 130.200 385, 131.964 382.346, 123.983 376.487 C 119.635 373.296, 117 370.337, 117 368.646 C 117 368.379, 118.774 368.858, 120.942 369.710 C 123.111 370.561, 125.493 371.025, 126.237 370.739 C 126.981 370.454, 128.187 367.212, 128.918 363.535 L 130.247 356.850 127.294 353.675 C 125.669 351.929, 122.651 348.137, 120.585 345.250 C 118.520 342.363, 116.530 340.003, 116.165 340.006 C 115.799 340.010, 114.659 341.472, 113.631 343.256 M 393.931 345.167 C 393.209 346.909, 390.048 351.083, 386.905 354.442 L 381.191 360.550 382.184 366.025 C 382.730 369.036, 383.306 371.632, 383.464 371.793 C 383.623 371.954, 386.058 371.210, 388.876 370.139 C 396.855 367.107, 394.877 371.302, 385.195 377.947 C 382.888 379.530, 381.981 380.862, 382.195 382.358 C 382.484 384.385, 382.985 384.489, 391.500 384.288 C 401.646 384.049, 413.891 381.448, 414.692 379.361 C 416.035 375.861, 399.215 342, 396.134 342 C 395.644 342, 394.652 343.425, 393.931 345.167 M 143.016 380.461 C 141.804 383.446, 141.093 386.342, 141.436 386.896 C 142.925 389.306, 158.730 399.472, 167.226 403.485 C 172.327 405.894, 181.697 409.435, 188.049 411.354 C 201.523 415.425, 221.676 419.657, 222.702 418.631 C 223.582 417.752, 220.860 412.650, 217.031 408.005 L 214.151 404.509 211.761 406.755 C 208.686 409.644, 207.914 409.601, 196.262 405.895 C 179.585 400.592, 163.829 391.627, 150.859 380.064 L 145.218 375.035 143.016 380.461 M 354.029 385.391 C 338.196 397.209, 323.613 404.147, 304.375 409.017 C 299.527 410.244, 299.072 410.187, 295.957 407.969 L 292.664 405.624 288.287 410.459 C 282.623 416.715, 282.920 418.540, 289.577 418.378 C 299.636 418.133, 331.553 408.723, 346.150 401.699 C 350.193 399.754, 357.021 395.863, 361.323 393.053 C 368.949 388.074, 369.129 387.863, 368.455 384.722 C 368.074 382.950, 367.230 380.467, 366.579 379.204 C 365.410 376.935, 365.256 377.011, 354.029 385.391 M 117.750 395.739 C 112.979 396.038, 112 396.411, 112 397.927 C 112 401.960, 114.575 402.458, 122.198 399.897 C 130.021 397.270, 132.379 394.874, 126.833 395.189 C 125 395.293, 120.912 395.541, 117.750 395.739 M 380.198 396.790 C 380.579 398.768, 391.783 402.189, 396.500 401.768 C 399.044 401.541, 399.500 401.080, 399.500 398.742 L 399.500 395.983 389.687 395.543 C 380.883 395.149, 379.907 395.277, 380.198 396.790 M 340.783 459.551 C 318.828 465.216, 317.746 465.927, 331 465.985 C 343.282 466.038, 343.039 466.449, 327.687 471.588 C 321.740 473.579, 317.085 475.418, 317.342 475.675 C 318.157 476.491, 339.380 473.187, 344.545 471.440 C 350.811 469.322, 359 465.210, 359 464.183 C 359 463.752, 358.483 462.883, 357.851 462.251 C 356.986 461.386, 357.110 460.481, 358.351 458.587 C 361.325 454.049, 362.316 453.994, 340.783 459.551 M 155.500 458 C 157.187 459.864, 157.198 460.124, 155.655 461.829 C 154.745 462.835, 154 464.207, 154 464.878 C 154 466.567, 167.416 472.769, 173.500 473.894 C 181.931 475.452, 194.604 476.320, 193.500 475.265 C 192.950 474.739, 188.225 472.845, 183 471.056 C 169.173 466.323, 169.109 466.065, 181.750 466.030 C 192.880 466, 196.728 464.694, 189.250 463.484 C 187.188 463.150, 179.309 461.330, 171.743 459.439 C 164.176 457.547, 157.019 456, 155.838 456 C 153.753 456, 153.743 456.059, 155.500 458" stroke="none" fill="black" fill-rule="evenodd"/>
</svg>