<svg xmlns="http://www.w3.org/2000/svg" width="512" height="512" viewBox="0 0 512 512" version="1.1">
	<path d="M 258.668 22.739 C 245.775 29.545, 238.424 39.121, 231.921 57.580 C 227.933 68.901, 226.492 71.745, 222.741 75.699 L 219.706 78.899 223.853 80.558 C 227.457 82, 228 82.620, 228 85.293 C 228 88.350, 225.327 94.713, 222.468 98.460 C 221.032 100.342, 220.694 100.145, 213.916 93.460 C 210.034 89.632, 206.379 85.627, 205.793 84.561 C 205.206 83.494, 204.385 79.511, 203.968 75.710 C 203.294 69.568, 202.797 68.376, 199.499 64.999 C 196.002 61.417, 185.700 55.899, 179.863 54.481 L 177.225 53.840 178.597 59.670 C 179.351 62.876, 179.977 67.975, 179.988 71 C 180.017 79.191, 182.143 81.917, 192.445 86.973 C 199.804 90.585, 201.974 92.268, 207.120 98.356 C 215.997 108.857, 215.960 108.493, 208.151 108.539 C 197.757 108.600, 189.161 113.962, 177.054 127.938 L 171.894 133.894 175.037 135.519 C 178.098 137.102, 178.133 137.196, 176.375 139.138 C 175.383 140.235, 171.511 143.166, 167.772 145.651 C 164.033 148.137, 158.171 153.301, 154.746 157.127 C 151.321 160.953, 147.490 164.341, 146.233 164.656 C 144.976 164.972, 143.493 166.078, 142.938 167.115 C 140.656 171.379, 140.679 171.408, 105.860 119.250 C 95.855 104.262, 87.068 92, 86.334 92 C 84.079 92, 84.797 97.641, 88.437 108.518 C 93.840 124.664, 101.392 138.748, 119.998 167.377 C 124.399 174.148, 128 180.044, 128 180.479 C 128 180.915, 126.905 182.286, 125.566 183.527 C 120.181 188.517, 121.696 197.965, 129.260 206.557 C 134.687 212.724, 138.147 214.371, 144.031 213.590 C 146.624 213.246, 149.482 213.248, 150.382 213.593 C 151.282 213.938, 158.652 222.120, 166.759 231.775 C 174.867 241.429, 184.715 253.104, 188.645 257.718 L 195.790 266.108 189.145 280.261 C 181.158 297.273, 174.970 304.477, 163.529 310.084 C 156.930 313.317, 155.901 313.518, 144.279 313.832 C 137.525 314.014, 132 314.524, 132 314.965 C 132 315.826, 137.385 320.721, 143.421 325.347 C 146.911 328.021, 147.036 328.303, 145.495 330.005 C 143.944 331.720, 142.241 332.583, 135.710 334.964 C 133.311 335.838, 133.070 336.262, 133.989 337.980 C 136.831 343.290, 147.495 346, 168.335 346.709 C 180.390 347.119, 185.306 347.635, 185.648 348.525 C 185.910 349.209, 185.297 351.508, 184.284 353.634 C 182.370 357.654, 182.011 357.766, 175.374 356.436 C 170.777 355.515, 169 358.552, 169 367.329 C 169 373.395, 168.659 374.645, 166.129 377.856 C 161.203 384.108, 157.068 393.580, 152.858 408.252 C 147.840 425.741, 145.362 431.419, 138.996 440.005 C 133.476 447.451, 133.024 449.490, 136.044 453.329 C 138.008 455.825, 138.021 456.058, 136.388 459.214 C 134.828 462.228, 132.066 474.957, 132.020 479.350 C 132.009 480.367, 133.484 482.684, 135.297 484.497 C 144.650 493.850, 175.190 494.988, 179.914 486.160 C 181.754 482.723, 181.135 476.795, 178.365 471.320 L 175.729 466.111 178.497 462.821 C 181.183 459.630, 181.249 459.267, 180.697 450.746 L 180.127 441.962 187.478 432.830 C 196.640 421.447, 204.245 408.799, 206.546 401.117 C 208.245 395.447, 208.493 395.164, 213.650 393.026 C 220.453 390.206, 228.219 383.244, 231.024 377.451 C 233.359 372.626, 233.358 369.110, 231.015 360.992 L 229.714 356.483 234.681 349.922 C 237.412 346.313, 241.109 340.804, 242.897 337.680 C 244.684 334.556, 246.287 332, 246.458 332 C 246.629 332, 250.308 333.763, 254.634 335.917 C 264.976 341.067, 272.936 343.286, 281.485 343.404 L 288.469 343.500 293.748 351.932 L 299.026 360.363 296.513 362.986 C 293.606 366.021, 293.351 368.845, 295.594 373.183 C 297.044 375.985, 297.048 376.777, 295.638 381.883 C 293.027 391.341, 292.764 396.960, 294.418 407.897 C 296.180 419.543, 295.539 426.813, 291.888 436.570 C 290.751 439.608, 290.065 442.728, 290.363 443.504 C 290.661 444.280, 292.625 446.001, 294.727 447.328 L 298.550 449.741 297.855 458.121 C 296.291 476.961, 296.320 477, 311.938 477 C 318.443 477, 325.636 477.647, 329.688 478.597 C 334.600 479.748, 339.859 480.086, 348.546 479.808 C 367.302 479.208, 370.636 476.121, 365.977 463.668 C 363.536 457.145, 362.583 456.460, 354.032 455.083 C 346.432 453.859, 342.538 451.649, 343.850 449.304 C 344.497 448.147, 343.635 445.533, 340.813 440.094 C 335.571 429.992, 335.058 423.168, 337.891 401.221 L 339.992 384.942 343.624 381.309 C 351.993 372.940, 356.160 357.065, 351.360 351.833 C 350.183 350.550, 348.081 347.222, 346.688 344.437 C 343.701 338.465, 342.650 337.477, 338.009 336.279 C 334.725 335.431, 334.447 335.028, 333.298 329.439 C 329.739 312.122, 327.319 303.262, 322.889 291.329 C 320.200 284.085, 318 277.480, 318 276.651 C 318 275.571, 319.488 274.984, 323.250 274.581 C 326.137 274.271, 334.545 273.363, 341.934 272.564 C 349.323 271.764, 355.673 271.298, 356.045 271.528 C 356.418 271.758, 356.982 278.371, 357.300 286.223 C 358.140 306.982, 362.208 322.102, 369.750 332.495 C 376.616 341.956, 384.017 342.173, 392.932 333.176 C 414.366 311.544, 425.548 250.503, 416.049 206.983 C 410.972 183.720, 399.110 170.699, 388.200 176.415 C 379.223 181.118, 371.680 195.313, 363.977 222 C 361.063 232.095, 359.997 234.551, 358.435 234.767 C 354.557 235.303, 350.470 231.408, 345.446 222.388 C 341.023 214.446, 336.009 208.523, 327.716 201.439 C 325.789 199.794, 325.044 197.680, 324.015 190.939 C 323.307 186.298, 321.937 179.800, 320.971 176.500 C 317.201 163.615, 317.510 161.985, 324.455 158.175 C 331.840 154.123, 331.938 153.584, 327.099 143.587 C 320.207 129.347, 312.917 123.784, 295.967 119.831 C 287.705 117.905, 284.956 116, 290.437 116 C 294.505 116, 294.837 114.342, 293.333 101.500 C 292.560 94.900, 292.056 87.710, 292.214 85.523 C 292.491 81.665, 292.632 81.523, 296.888 80.801 C 299.302 80.392, 301.400 79.932, 301.552 79.779 C 301.703 79.625, 299.859 75.481, 297.452 70.568 C 295.046 65.656, 292.371 58.456, 291.508 54.568 C 290.645 50.681, 288.588 44.715, 286.937 41.312 C 283.716 34.670, 273.545 23.338, 268.464 20.729 C 265.534 19.224, 265.192 19.295, 258.668 22.739 M 272.405 35.152 C 275.496 43.365, 277.812 58.588, 276.213 60.187 C 274.987 61.413, 274.765 60.723, 272.938 50 C 271.596 42.126, 268.642 34.952, 265.543 32.040 L 263.247 29.883 260.433 32.304 L 257.618 34.725 259.806 35.896 C 262.125 37.137, 266 43.808, 266 46.559 C 266 47.460, 264.691 49.420, 263.092 50.914 L 260.183 53.631 268.159 58.411 C 274.798 62.389, 278.764 66.383, 277.491 67.809 C 277.339 67.979, 273.590 66.220, 269.158 63.900 C 261.990 60.147, 260.737 59.791, 257.800 60.674 L 254.500 61.666 258 63.179 C 259.925 64.012, 264.863 66.787, 268.974 69.346 C 277.367 74.572, 280.228 75.001, 285.025 71.750 C 288.859 69.152, 290.282 66.478, 287.368 67.348 C 280.357 69.440, 280 69.386, 280 66.231 C 280 64.589, 280.675 62.685, 281.500 62 C 283.487 60.351, 283.414 58, 281.375 58 C 280.043 58, 279.895 57.413, 280.554 54.750 C 282.518 46.814, 279.534 37.760, 272.841 31.347 L 269.920 28.549 272.405 35.152 M 264 80.731 C 265.925 80.958, 267.928 81.561, 268.450 82.071 C 269.655 83.249, 277 83.296, 277 82.125 C 277 80.893, 271.666 79.971, 265.625 80.160 C 261.604 80.286, 261.254 80.409, 264 80.731 M 263.500 88.913 C 260.706 89.543, 260.836 89.638, 265.390 90.295 C 273.353 91.443, 277 91.193, 277 89.500 C 277 88.342, 275.803 88.027, 271.750 88.118 C 268.863 88.183, 265.150 88.541, 263.500 88.913 M 264.750 94.716 C 260.503 95.360, 261.482 96.723, 267.049 97.917 C 273.777 99.360, 274.952 99.289, 275.677 97.399 C 276.807 94.456, 272.862 93.487, 264.750 94.716 M 263.343 102.548 C 262.452 104.869, 264.680 105.967, 270.320 105.985 C 274.749 105.999, 275.113 105.818, 274.820 103.750 C 274.541 101.789, 273.824 101.461, 269.239 101.197 C 265.082 100.958, 263.844 101.242, 263.343 102.548 M 262.576 112.750 C 262.943 114.813, 263.526 116.797, 263.871 117.159 C 264.659 117.986, 275.872 114.534, 277.383 113 C 279.451 110.899, 275.121 109, 268.264 109 L 261.909 109 262.576 112.750 M 203.500 118.155 C 198.285 121.007, 197.569 126.146, 201.703 131.059 C 205.145 135.150, 209.598 137, 216 137 C 221.837 137, 228 134.767, 228 132.651 C 228 131.046, 218.209 121.722, 213.500 118.842 C 210.128 116.780, 206.473 116.529, 203.500 118.155 M 288 132.190 C 286.075 132.746, 280.113 133.027, 274.750 132.815 C 269.387 132.603, 265 132.728, 265 133.092 C 265 135.254, 269.013 136.447, 277.353 136.767 C 285.217 137.069, 286.956 136.831, 289.750 135.074 C 291.538 133.949, 293 132.573, 293 132.015 C 293 130.832, 292.665 130.844, 288 132.190 M 307.612 132.819 C 307.331 133.273, 306.988 135.574, 306.849 137.933 C 306.624 141.746, 306.979 142.539, 310.048 145.084 C 314.892 149.101, 316 148.831, 316 143.635 C 316 140.730, 315.305 138.386, 313.922 136.629 C 311.496 133.544, 308.341 131.640, 307.612 132.819 M 294.307 140.686 C 286.932 144.086, 280.664 144.571, 270.247 142.548 C 265.379 141.602, 260.070 140.980, 258.448 141.164 C 255.807 141.465, 256.125 141.730, 261.500 143.710 C 273.356 148.075, 279.815 149.284, 284.709 148.052 C 291.224 146.411, 297.908 143.041, 299.113 140.789 C 299.690 139.711, 300.013 138.708, 299.831 138.560 C 299.649 138.413, 297.163 139.370, 294.307 140.686 M 232.988 143.750 C 232.982 146.363, 232.340 150.975, 231.563 154 C 230.641 157.588, 230.559 158.824, 231.325 157.554 C 231.971 156.484, 234.487 153.433, 236.916 150.773 L 241.332 145.938 237.970 142.469 C 236.121 140.561, 234.246 139, 233.804 139 C 233.362 139, 232.995 141.137, 232.988 143.750 M 180.898 148.258 C 175.770 151.666, 172.875 158.165, 173.219 165.500 L 173.500 171.500 179.551 171.415 C 187.876 171.298, 197.128 166.444, 201.167 160.076 C 205.669 152.977, 205.188 151.672, 196.943 148.616 C 188.301 145.413, 185.281 145.345, 180.898 148.258 M 249.500 149.502 C 243.839 151.504, 239 157.026, 239 161.485 C 239 167.714, 244.119 171.001, 253.815 170.998 C 260.741 170.997, 265.636 168.733, 268.730 164.102 C 272.736 158.105, 270.991 153.262, 263.617 149.914 C 258.728 147.693, 254.929 147.583, 249.500 149.502 M 292.183 152.139 C 284.238 156.071, 283.502 160.379, 289.764 166.307 C 292.828 169.208, 300.302 172, 305.004 172 C 313.505 172, 313.368 157.243, 304.818 152.030 C 300.582 149.448, 297.566 149.474, 292.183 152.139 M 160.966 160.589 L 155.500 166.178 158 167.839 C 159.375 168.753, 162.484 171.300, 164.908 173.500 L 169.317 177.500 168.658 172.610 C 168.296 169.921, 168 164.859, 168 161.360 C 168 157.862, 167.647 155, 167.216 155 C 166.785 155, 163.972 157.515, 160.966 160.589 M 149.738 173.112 C 147.750 174.241, 143 183.050, 143 185.609 C 143 186.530, 145.065 189.701, 147.588 192.655 L 152.176 198.026 157.533 193.263 C 163.379 188.065, 164.126 185.597, 161.638 179.718 C 159.272 174.129, 153.545 170.949, 149.738 173.112 M 195.773 175.960 C 192.383 178.213, 187.283 180.449, 183.273 181.442 C 171.027 184.473, 171.620 184.124, 170.825 188.776 C 170.427 191.111, 169.305 194.368, 168.333 196.014 C 166.603 198.942, 166.613 199.040, 168.782 200.560 C 170.469 201.741, 171.003 203.118, 171.012 206.307 C 171.026 211.260, 173.311 215.563, 182.096 227.183 C 188.900 236.183, 202.091 250, 203.879 250 C 205.800 250, 216.107 228.275, 215.443 225.628 C 214.759 222.903, 217.323 216.059, 219.699 214.268 C 222.118 212.444, 221.870 202.729, 219.253 196.827 C 218.113 194.257, 214.215 188.024, 210.590 182.976 C 206.966 177.928, 204 173.394, 204 172.899 C 204 171.221, 201.515 172.145, 195.773 175.960 M 268.750 180.363 C 263.938 184.914, 260 189.394, 260 190.319 C 260 191.243, 260.166 192, 260.368 192 C 260.570 192, 264.230 189.300, 268.500 186 C 272.770 182.700, 277.231 180, 278.413 180 C 279.714 180, 282.907 182.370, 286.500 186 C 289.766 189.300, 292.789 192, 293.219 192 C 295.436 192, 293.328 188.703, 287.535 183.109 C 283.979 179.676, 280.267 175.792, 279.285 174.478 L 277.500 172.089 268.750 180.363 M 310.207 192.633 C 307.879 199.054, 306.176 204.509, 306.422 204.755 C 307.035 205.368, 316.850 202.051, 317.491 201.015 C 318.076 200.068, 316.239 185.821, 315.154 182.889 C 314.626 181.461, 313.339 183.997, 310.207 192.633 M 272.505 190.096 C 266.353 197.927, 258.212 205.861, 251.948 210.131 C 249.229 211.984, 247.003 213.896, 247.002 214.381 C 246.999 215.763, 253.694 214.327, 258.816 211.847 C 265.238 208.738, 270.833 202.636, 275.158 194.026 L 278.816 186.743 280.434 189.872 C 281.323 191.592, 282.267 193, 282.531 193 C 283.230 193, 278.613 184.060, 277.898 184.027 C 277.566 184.012, 275.140 186.743, 272.505 190.096 M 283 194.941 C 283 195.459, 283.445 196.157, 283.989 196.493 C 284.555 196.843, 284.723 196.442, 284.382 195.552 C 283.717 193.820, 283 193.503, 283 194.941 M 277.594 203.536 C 276.386 208.435, 272.333 214.515, 268.563 217.083 C 266.611 218.412, 265.011 219.789, 265.007 220.141 C 264.994 221.311, 272.984 224, 276.473 224 C 280.426 224, 284.667 222.310, 285.381 220.450 C 285.651 219.747, 284.981 217.445, 283.892 215.336 C 282.804 213.226, 281.106 209.041, 280.119 206.036 C 278.372 200.718, 278.305 200.652, 277.594 203.536 M 156.872 204.664 C 155.628 206.172, 155.710 206.216, 157.750 205.129 C 160.077 203.889, 160.650 203, 159.122 203 C 158.640 203, 157.627 203.749, 156.872 204.664 M 393.693 210.635 C 391.852 214.203, 384.866 232.233, 385.232 232.471 C 385.379 232.567, 387.633 233.435, 390.239 234.401 C 392.945 235.404, 396.050 237.517, 397.478 239.328 L 399.978 242.500 399.989 234.881 C 400.001 226.784, 397.486 210.086, 396.037 208.637 C 395.548 208.148, 394.526 209.020, 393.693 210.635 M 316.843 213.250 C 313.357 215.588, 310.339 218.387, 310.136 219.471 C 309.847 221.023, 310.656 220.640, 313.938 217.675 C 318.302 213.732, 322.621 211.288, 323.561 212.228 C 323.865 212.532, 322.773 214.742, 321.134 217.140 C 315.856 224.865, 315.941 225.224, 324.407 230.937 C 328.534 233.722, 332.493 235.982, 333.205 235.959 C 333.917 235.937, 336.006 234.630, 337.848 233.055 C 340.558 230.737, 341.056 229.744, 340.461 227.846 C 339.283 224.082, 332.060 211.769, 330.201 210.357 C 327.171 208.053, 323.363 208.878, 316.843 213.250 M 298.033 218.090 C 297.911 223.953, 310.101 258.718, 312.619 259.684 C 313.308 259.948, 318.963 259.790, 325.186 259.332 L 336.500 258.500 336.820 255.161 C 337.194 251.256, 337.185 251.247, 324 243.378 C 318.775 240.260, 311.688 235.726, 308.250 233.304 C 302.434 229.205, 302 228.633, 302 225.060 C 302 222.710, 301.237 220.306, 300.033 218.861 C 298.544 217.073, 298.058 216.886, 298.033 218.090 M 241.684 222.157 C 240.735 222.688, 240.228 223.559, 240.557 224.092 C 240.887 224.625, 246.183 227.583, 252.328 230.664 C 258.473 233.745, 266.063 238.006, 269.195 240.133 C 272.327 242.260, 275.549 244, 276.353 244 C 279.631 244, 294.305 229.972, 292.704 228.370 C 292.421 228.087, 290.234 229.095, 287.844 230.609 C 280.472 235.280, 275.412 235.058, 263 229.519 C 245.823 221.852, 243.600 221.084, 241.684 222.157 M 342.330 235.349 C 339.264 238.169, 338.749 239.123, 339.746 240.132 C 340.747 241.144, 341.295 241.009, 342.530 239.446 C 348.352 232.078, 348.246 229.908, 342.330 235.349 M 387.858 241.137 C 388.349 242.437, 389.076 245.875, 389.473 248.777 L 390.195 254.054 393.848 253.406 C 398.969 252.497, 399.524 251.691, 398.161 247.142 C 396.949 243.096, 394.147 240.577, 389.586 239.432 C 387.160 238.823, 387.030 238.951, 387.858 241.137 M 245 241.763 C 245 242.301, 244.121 247.862, 243.047 254.120 C 241.972 260.379, 240.572 270.434, 239.935 276.465 C 238.562 289.468, 237.189 287.574, 255.500 297.932 C 262.100 301.666, 269.086 305.668, 271.025 306.826 L 274.549 308.932 287.098 301.716 C 293.999 297.747, 302.018 293.391, 304.916 292.035 C 310.141 289.592, 310.182 289.538, 309.588 285.827 C 308.838 281.135, 302.878 262.992, 300.118 257 L 298.046 252.500 298.586 256.500 C 299.029 259.782, 301.389 272.233, 303.540 282.638 C 303.900 284.382, 303.427 284.857, 300.967 285.218 C 298.527 285.576, 297.873 285.264, 297.532 283.580 C 297.301 282.436, 296.367 277.952, 295.458 273.616 L 293.804 265.733 284.070 275.431 L 274.335 285.129 264.740 276.586 C 259.462 271.887, 254.860 267.583, 254.513 267.021 C 252.982 264.544, 252.143 266.643, 250.962 275.912 C 249.761 285.338, 249.596 285.786, 247.599 285.048 C 245.697 284.344, 245.531 283.626, 245.835 277.385 C 246.241 269.066, 248.659 254.506, 250.075 251.860 C 250.654 250.778, 251.623 250.241, 252.300 250.627 C 254.460 251.857, 262.151 258.245, 268.084 263.738 C 272.975 268.266, 274.207 268.959, 275.828 268.092 C 278.753 266.527, 295.108 248.832, 296.145 246.111 C 297.627 242.225, 296.372 242.482, 291.191 247.122 C 288.503 249.530, 283.647 253.580, 280.400 256.121 L 274.497 260.742 268.841 255.603 C 261.432 248.869, 245 239.331, 245 241.763 M 395.055 267.428 C 393.711 268.867, 390.167 271.239, 387.180 272.700 L 381.750 275.357 382.190 291.437 C 382.451 300.958, 383.101 308.329, 383.785 309.508 C 384.607 310.927, 384.950 311.069, 384.978 310 C 385 309.175, 387.463 302.508, 390.451 295.185 C 396.361 280.707, 398.374 273.345, 397.842 268.156 L 397.500 264.813 395.055 267.428 M 230.781 274.248 L 228.233 282.500 208.616 282.771 C 192.093 283, 189 283.275, 189 284.521 C 189 285.779, 192.128 286, 209.955 286 L 230.909 286 231.442 282.750 C 231.735 280.962, 232.459 276.641, 233.050 273.146 C 233.642 269.652, 233.947 266.613, 233.728 266.394 C 233.509 266.175, 232.183 269.710, 230.781 274.248 M 218.617 295.871 C 214.680 300.222, 199 340.826, 199 346.671 L 199 348.929 203.750 346.879 C 210.471 343.977, 217.629 343.400, 222.363 345.379 C 224.480 346.263, 226.561 346.771, 226.987 346.508 C 228.165 345.780, 239.237 329.255, 242.904 322.750 C 244.688 319.588, 246.001 316.356, 245.823 315.568 C 245.646 314.780, 241.104 309.605, 235.731 304.068 C 225.289 293.306, 222.254 291.852, 218.617 295.871 M 309.792 301.669 C 304.127 304.823, 302.179 308.488, 298.544 322.827 C 294.859 337.365, 295.070 340.080, 300.585 349.046 C 308.369 361.700, 309.460 362.274, 313.334 355.750 C 315.971 351.311, 319.467 347.336, 324.696 342.835 L 327.792 340.170 326.353 332.335 C 323.609 317.384, 317.690 298.981, 315.641 299.024 C 315.014 299.038, 312.381 300.228, 309.792 301.669 M 330.170 350.454 C 326.842 352.903, 323.623 355.836, 323.016 356.971 C 321.913 359.032, 334.573 350.424, 337.071 347.415 C 339.387 344.624, 336.158 346.046, 330.170 350.454 M 209.750 354.162 C 208.238 354.715, 207 355.627, 207 356.190 C 207 356.753, 207.712 356.941, 208.582 356.607 C 209.452 356.273, 212.363 356, 215.050 356 C 218.983 356, 219.825 355.707, 219.362 354.500 C 218.703 352.784, 213.978 352.618, 209.750 354.162 M 327.250 444.989 C 323.839 447.069, 322.980 449, 325.466 449 C 327.981 449, 334 445.695, 334 444.315 C 334 442.408, 330.990 442.708, 327.250 444.989 M 152 451.232 C 149.744 452.229, 150.135 452.410, 156 453.086 C 159.575 453.498, 164.188 454.554, 166.250 455.431 C 171.354 457.603, 171.213 455.241, 166.027 451.692 C 163.218 449.770, 155.855 449.528, 152 451.232 M 338.088 460.883 C 332.565 465.463, 335.649 468.090, 346.375 467.944 C 353.126 467.851, 357.500 465.924, 357.500 463.041 C 357.500 460.841, 356.869 460.451, 351.500 459.335 C 343.033 457.574, 341.924 457.702, 338.088 460.883 M 148.676 470.452 C 143.855 472.171, 143.434 472.613, 144.919 474.403 C 146.961 476.862, 155.017 479, 162.244 479 C 172.809 479, 175.576 476.485, 170.545 471.455 C 168.349 469.258, 167.270 469.005, 160.295 469.044 C 156.008 469.068, 150.779 469.702, 148.676 470.452" stroke="none" fill="black" fill-rule="evenodd"/>
</svg>