<svg xmlns="http://www.w3.org/2000/svg" width="512" height="512" viewBox="0 0 512 512" version="1.1">
	<path d="M 148.553 22.915 C 148.242 23.418, 147.732 26.681, 147.420 30.165 C 147.108 33.649, 146.154 41.225, 145.300 47 C 143.543 58.881, 143.997 69.487, 146.627 78 L 148.327 83.500 150.075 73.107 C 152.091 61.117, 154.023 57.665, 158.987 57.176 C 166.433 56.444, 169.020 58.382, 183.313 75.406 C 188.898 82.057, 197.194 91.754, 201.750 96.952 C 206.305 102.151, 209.886 106.842, 209.708 107.377 C 209.530 107.911, 207.073 109.134, 204.249 110.094 C 193.026 113.909, 182.737 120.199, 175.250 127.823 C 171.262 131.883, 168 135.778, 168 136.477 C 168 137.817, 172.280 139, 177.125 139 C 180.633 139, 180.670 139.433, 177.514 143.571 C 176.146 145.363, 174.234 148.923, 173.264 151.481 C 171.651 155.733, 170.987 156.338, 165.504 158.554 C 162.207 159.886, 158.382 161.816, 157.004 162.843 C 154.317 164.846, 143.832 179.720, 141.926 184.233 C 140.131 188.483, 141.611 193.507, 146.025 198.147 C 149.891 202.211, 150.046 202.270, 155.229 201.663 C 158.586 201.269, 162.497 201.577, 166 202.511 C 174.863 204.872, 181.130 204.401, 192.398 200.525 C 197.954 198.614, 204.075 196.927, 206 196.775 C 209.492 196.501, 209.511 196.522, 214.339 206.204 C 218.931 215.412, 219.097 216.024, 217.589 218.176 C 215.516 221.136, 215.542 221.302, 218.640 224.984 C 221.060 227.860, 221.186 228.435, 220.155 231.878 C 219.536 233.944, 217.408 237.715, 215.427 240.258 C 213.446 242.801, 210.763 247.495, 209.465 250.689 C 206.214 258.687, 203.484 261.794, 191.700 270.904 C 186.090 275.241, 177.112 282.640, 171.749 287.345 C 166.386 292.050, 160.423 297.101, 158.499 298.569 C 154.083 301.937, 154.084 304.064, 158.506 307.436 C 165.569 312.824, 174.768 316.317, 183.173 316.804 C 187.478 317.053, 191 317.361, 191 317.487 C 191 317.614, 189.271 322.394, 187.159 328.109 C 185.046 333.824, 181.623 343.900, 179.552 350.500 C 174.661 366.090, 172.012 370.651, 167.073 371.980 C 162.426 373.232, 161.198 374.582, 156.142 384 C 152.109 391.514, 149.311 398.535, 141.796 420 C 136.014 436.515, 131.990 443.653, 123.802 451.923 C 116.908 458.885, 116.757 459.148, 117.300 463.197 C 117.744 466.509, 117.267 468.510, 114.928 473.143 C 111.264 480.401, 111.252 482.909, 114.864 486.370 C 118.354 489.714, 124.196 491.567, 134.206 492.505 C 143.800 493.404, 149.281 492.476, 153.035 489.317 C 155.493 487.249, 155.983 486.111, 155.900 482.661 C 155.845 480.372, 155.481 477.375, 155.091 476 C 154.527 474.014, 154.976 472.939, 157.275 470.770 C 159.540 468.633, 160.049 467.440, 159.622 465.270 C 157.518 454.598, 157.624 453.791, 161.988 447.255 C 167.442 439.089, 182.649 423.721, 197.179 411.692 C 203.602 406.374, 209.143 401.125, 209.491 400.028 C 209.839 398.931, 209.413 395.259, 208.545 391.868 C 207.676 388.476, 207.161 385.506, 207.400 385.267 C 207.639 385.028, 209.109 386.267, 210.667 388.021 C 217.161 395.331, 231.949 400.009, 248.480 399.983 C 265.501 399.956, 278.250 396.509, 287.531 389.424 C 291.257 386.580, 292.194 386.312, 296.842 386.759 L 302.010 387.255 304.874 380.878 C 307.726 374.528, 313.173 357.666, 314.525 351 C 314.916 349.075, 315.453 347.132, 315.719 346.682 C 315.985 346.232, 319.535 349.382, 323.608 353.682 L 331.013 361.500 329.506 368.197 C 327.534 376.966, 327.596 380.110, 330.147 400.957 C 332.548 420.577, 332.253 424.230, 327.394 435.057 L 324.688 441.087 326.770 443.903 C 328.518 446.267, 328.708 447.345, 327.950 450.610 C 326.644 456.240, 326.801 462.346, 328.305 464.402 C 329.290 465.750, 332.290 466.521, 340.555 467.551 C 346.575 468.300, 353.975 469.819, 357 470.924 C 363.367 473.252, 380.742 473.679, 387.392 471.671 C 392.993 469.981, 393.753 468.231, 391.709 461.745 C 389.530 454.832, 386.725 452.243, 380.362 451.272 C 375.947 450.598, 374.758 449.866, 370.987 445.500 C 363.088 436.354, 361.068 428.888, 362.948 415.792 C 365.260 399.687, 370.648 381.549, 376.623 369.758 C 381.164 360.797, 382.117 357.147, 380.999 352.997 C 379.395 347.038, 376.273 343.733, 372.739 344.252 C 370.110 344.638, 369.596 344.274, 368.275 341.094 C 363.128 328.696, 355.356 312.936, 349.722 303.471 L 343.192 292.500 346.286 291.431 C 347.987 290.843, 349.529 289.914, 349.711 289.366 C 349.894 288.818, 345.405 284.708, 339.735 280.232 C 334.065 275.757, 327.418 270.049, 324.963 267.548 C 322.508 265.046, 320.050 262.582, 319.500 262.073 C 318.950 261.563, 317.262 260.008, 315.750 258.618 C 313.996 257.006, 313 255.068, 313 253.268 C 313 251.715, 312.308 249.457, 311.462 248.249 C 310.317 246.615, 310.093 244.779, 310.585 241.070 C 311.180 236.586, 310.932 235.613, 308.114 231.358 L 304.981 226.629 307.654 223.839 L 310.326 221.050 308.554 217.120 C 307.060 213.806, 306.968 212.627, 307.969 209.595 C 308.621 207.618, 309.377 206, 309.647 206 C 309.918 206, 312.021 207.293, 314.320 208.874 C 323.908 215.467, 337.924 221.752, 349.205 224.519 C 355.417 226.042, 360.624 227.385, 360.775 227.503 C 360.981 227.663, 364.959 259.073, 364.994 260.809 C 364.997 260.979, 365.474 260.825, 366.053 260.467 C 367.933 259.305, 372.032 248.789, 375.671 235.790 C 379.154 223.349, 379.301 223.056, 382.615 221.962 C 385.044 221.160, 386.166 220.089, 386.584 218.172 C 386.905 216.703, 387.414 214.825, 387.715 214 C 388.276 212.462, 389.142 204.315, 389.182 200.192 C 389.194 198.922, 388.473 197.075, 387.579 196.087 C 386.591 194.996, 386.060 192.958, 386.226 190.895 C 386.467 187.914, 386.104 187.326, 383.250 186.070 L 380 184.639 380 160.411 C 380 144.052, 379.482 132.175, 378.404 123.842 C 375.862 104.178, 369.087 80, 366.119 80 C 365.573 80, 365.323 81.463, 365.563 83.250 C 367.863 100.344, 368.520 137.962, 366.930 161.595 C 365.585 181.610, 365.225 183.103, 361.454 184.309 C 359.829 184.829, 357.536 186.130, 356.359 187.199 C 354.233 189.131, 354.183 189.127, 349.242 186.622 C 344.527 184.233, 344.092 183.664, 340.967 175.800 C 339.153 171.235, 335.904 163.945, 333.748 159.601 L 329.828 151.701 333.914 147.966 C 340.066 142.343, 339.633 140.105, 330.806 131.886 C 322.704 124.342, 315.117 119.409, 307.812 116.936 C 305.088 116.014, 302.367 114.767, 301.765 114.165 C 300.748 113.148, 297.742 98.545, 296.352 87.869 L 295.750 83.238 299.625 81.998 C 305.218 80.209, 305.716 79.408, 303.199 76.253 C 300.177 72.464, 295.499 63.371, 292.573 55.599 C 289.699 47.962, 285.318 40.878, 278.142 32.262 C 268.242 20.375, 264.425 20.536, 251.437 33.388 C 241.299 43.420, 237.649 49.101, 234.339 60 C 231.148 70.504, 229.727 73.337, 225.960 76.693 C 224.332 78.144, 223 79.635, 223 80.007 C 223 80.379, 224.800 81.223, 227 81.882 C 230.431 82.910, 231 83.479, 231 85.885 C 231 88.949, 225.112 101.299, 223.500 101.615 C 222.406 101.830, 191.550 68.724, 180.765 55.763 C 177.061 51.312, 173.761 46.822, 173.432 45.786 C 172.012 41.313, 178.503 36.320, 187.054 35.307 C 189.774 34.985, 192 34.431, 192 34.076 C 192 33.722, 190.537 32.547, 188.750 31.466 C 185.964 29.780, 183.968 29.538, 174.756 29.766 C 163.162 30.052, 159.769 29.214, 153.656 24.551 C 149.983 21.749, 149.390 21.560, 148.553 22.915 M 272.303 35 C 280.320 46.721, 281.477 50.447, 278.442 54.779 C 276.483 57.577, 277.228 58.870, 280.446 58.255 C 285.465 57.296, 285.471 55.730, 280.493 46.091 C 277.930 41.129, 274.039 35.141, 271.845 32.785 L 267.856 28.500 272.303 35 M 256.765 35.246 C 250.106 40.185, 249.276 41.920, 254.960 39.020 C 261.561 35.653, 261.886 36.774, 255.486 40.835 C 247.771 45.730, 244 50.176, 244 54.377 C 244 59.391, 245.325 60, 256.232 60 C 266.796 60, 270.828 61.106, 276.762 65.632 C 278.615 67.045, 280.330 68.003, 280.573 67.761 C 281.381 66.952, 275.375 59.520, 272.812 58.158 C 270.495 56.926, 270.235 56.098, 269.670 48.137 C 268.923 37.605, 267.050 31.599, 264.405 31.246 C 263.357 31.106, 259.919 32.906, 256.765 35.246 M 163.166 37.700 C 163.759 38.415, 164.810 39, 165.500 39 C 166.190 39, 167.241 38.415, 167.834 37.700 C 168.683 36.677, 168.187 36.400, 165.500 36.400 C 162.813 36.400, 162.317 36.677, 163.166 37.700 M 153.035 43.934 C 151.412 46.966, 151.780 47.243, 154.946 45.373 C 157.884 43.638, 158.141 42, 155.476 42 C 154.703 42, 153.605 42.870, 153.035 43.934 M 252.417 65.421 C 249.192 66.825, 238.273 76, 239.827 76 C 240.319 76, 242.371 74.880, 244.388 73.511 C 254.124 66.905, 258.233 66.523, 270.147 71.117 L 278.230 74.234 283.115 71.946 C 285.801 70.688, 288.730 68.851, 289.623 67.864 C 291.161 66.165, 291.094 66.116, 288.374 66.958 C 286.793 67.447, 284.150 68.378, 282.500 69.026 C 279.830 70.076, 278.857 69.865, 273.648 67.103 C 268.890 64.580, 266.648 64.007, 261.648 64.039 C 258.267 64.061, 254.112 64.682, 252.417 65.421 M 258.750 80.716 C 253.349 81.535, 256.125 83, 263.077 83 C 269.565 83, 270.397 83.243, 273.077 85.923 C 275.386 88.232, 276 89.735, 276 93.073 L 276 97.301 265.111 96.639 C 252.655 95.883, 253 95.658, 253 104.532 C 253 108.527, 252.569 110.142, 251.314 110.844 C 249.903 111.634, 250.512 112.351, 255.064 115.255 C 267.554 123.221, 267.988 123.337, 282.435 122.552 C 289.589 122.163, 295.733 121.665, 296.087 121.446 C 296.442 121.227, 296.533 120.005, 296.289 118.731 C 295.872 116.549, 295.482 116.438, 289.575 116.814 L 283.304 117.214 282.648 111.857 C 282.288 108.911, 281.705 101.958, 281.354 96.406 C 280.735 86.622, 280.787 86.263, 283.047 84.679 C 284.330 83.781, 285.181 82.894, 284.940 82.708 C 284.698 82.522, 280.652 81.836, 275.948 81.185 C 267.460 80.009, 264.036 79.916, 258.750 80.716 M 266.250 90.713 C 262.692 91.387, 263.632 93, 267.583 93 C 269.905 93, 271.027 92.582, 270.771 91.813 C 270.298 90.395, 269.262 90.143, 266.250 90.713 M 287 95 C 287 95.550, 287.675 96, 288.500 96 C 289.325 96, 290 95.550, 290 95 C 290 94.450, 289.325 94, 288.500 94 C 287.675 94, 287 94.450, 287 95 M 255 105.393 C 255 111.212, 255.337 112.915, 256.582 113.393 C 259.197 114.396, 260.249 114.086, 259.607 112.500 C 259.273 111.675, 258.727 110.325, 258.393 109.500 C 257.968 108.449, 258.417 108, 259.893 108 C 261.980 108, 262.251 108.641, 262.421 113.982 C 262.471 115.542, 263.173 116.595, 264.311 116.817 C 265.845 117.116, 266.043 116.659, 265.605 113.835 C 265.321 112.001, 264.816 108.368, 264.485 105.762 C 263.772 100.169, 261.940 98, 257.929 98 L 255 98 255 105.393 M 267.180 102.250 C 267.460 104.219, 267.999 104.461, 271.500 104.184 C 278.944 103.595, 278.833 100, 271.371 100 C 267.266 100, 266.890 100.202, 267.180 102.250 M 258 103 C 258 104.111, 258.667 105, 259.500 105 C 260.333 105, 261 104.111, 261 103 C 261 101.889, 260.333 101, 259.500 101 C 258.667 101, 258 101.889, 258 103 M 287.750 102.662 C 288.438 102.940, 289.563 102.940, 290.250 102.662 C 290.938 102.385, 290.375 102.158, 289 102.158 C 287.625 102.158, 287.063 102.385, 287.750 102.662 M 217 105 C 216.099 105.582, 215.975 105.975, 216.691 105.985 C 217.346 105.993, 218.160 105.550, 218.500 105 C 219.267 103.758, 218.921 103.758, 217 105 M 272.188 106.803 C 268.400 107.082, 267.915 107.387, 268.188 109.311 C 268.360 110.515, 268.837 111.388, 269.250 111.250 C 269.663 111.112, 271.800 111, 274 111 C 277.293 111, 278 110.657, 278 109.059 C 278 106.614, 277.482 106.413, 272.188 106.803 M 288 110 C 288 110.550, 288.900 111, 290 111 C 291.100 111, 292 110.550, 292 110 C 292 109.450, 291.100 109, 290 109 C 288.900 109, 288 109.450, 288 110 M 219.608 111.250 C 224.426 119.541, 236.956 131.835, 247.320 138.442 C 253.811 142.579, 264.828 147.998, 266.750 147.999 C 269.514 148.001, 267.707 146.091, 262.562 143.574 C 250.183 137.518, 234.886 125.833, 225.480 115.250 C 221.248 110.488, 217.801 108.139, 219.608 111.250 M 269 116.139 C 269 118.126, 269.366 118.235, 274.136 117.670 C 279.786 117.001, 280.519 116.648, 279.541 115.067 C 279.179 114.480, 276.659 114, 273.941 114 C 269.559 114, 269 114.242, 269 116.139 M 205.038 115.882 C 201.599 116.496, 201.593 116.508, 204.038 117.597 C 206.019 118.480, 207.086 118.334, 209.500 116.852 C 212.753 114.855, 211.866 114.662, 205.038 115.882 M 195.733 121.124 C 196.412 121.808, 197.219 122.115, 197.526 121.807 C 197.834 121.499, 197.279 120.940, 196.293 120.564 C 194.868 120.022, 194.753 120.136, 195.733 121.124 M 210 121 C 210 121.550, 211.800 122, 214 122 C 216.200 122, 218 121.550, 218 121 C 218 120.450, 216.200 120, 214 120 C 211.800 120, 210 120.450, 210 121 M 191.022 125.355 C 191.285 125.618, 194.590 128.114, 198.367 130.902 C 205.338 136.048, 210.035 137.984, 215.568 137.994 C 219.696 138.002, 228.488 135.322, 229.894 133.627 C 230.833 132.497, 229.949 132.514, 224.764 133.727 C 215.369 135.925, 209.482 134.952, 199.250 129.509 C 194.462 126.962, 190.759 125.093, 191.022 125.355 M 212.027 127.427 C 213.381 128.781, 221.564 128.836, 222.900 127.500 C 223.566 126.833, 221.742 126.476, 217.427 126.427 C 212.818 126.375, 211.263 126.663, 212.027 127.427 M 311.596 129.500 C 312.426 134.461, 313.005 135.259, 312.985 131.417 C 312.976 129.813, 312.510 127.825, 311.948 127 C 311.215 125.925, 311.116 126.634, 311.596 129.500 M 319.015 133.691 C 319.027 136.519, 319.280 137.113, 320 136 C 321.264 134.044, 321.264 131.281, 320 130.500 C 319.399 130.129, 319.006 131.403, 319.015 133.691 M 293 143.065 C 293 143.651, 290.720 146.351, 287.933 149.065 C 285.147 151.779, 283.514 154, 284.306 154 C 286.157 154, 294 145.523, 294 143.522 C 294 142.685, 293.775 142, 293.500 142 C 293.225 142, 293 142.479, 293 143.065 M 228.068 143.923 C 226.892 144.678, 226.842 145.531, 227.789 148.691 C 229.427 154.159, 231.093 156.078, 233.616 155.403 C 235.722 154.840, 235.724 154.806, 233.982 149.168 C 232.230 143.500, 230.758 142.194, 228.068 143.923 M 284 146.121 C 282.075 147.153, 278.925 148.011, 277 148.029 C 274.026 148.056, 273.777 148.222, 275.342 149.131 C 277.432 150.346, 284.939 147.983, 287.044 145.447 C 288.472 143.727, 288.464 143.729, 284 146.121 M 183.388 147.521 C 178.130 152.779, 183.120 157.839, 194.461 158.749 C 199.662 159.166, 201.656 158.861, 205.326 157.084 C 210.277 154.688, 211.507 152.817, 209.994 149.988 C 209.321 148.731, 207.445 147.932, 204.247 147.540 C 201.636 147.221, 197.328 146.518, 194.674 145.980 C 187.589 144.542, 186.174 144.735, 183.388 147.521 M 243.080 152.750 C 244.057 160.633, 244.673 161.793, 249.085 164.043 C 253.596 166.345, 255.774 171.835, 254.012 176.468 C 252.458 180.557, 252.738 186.962, 254.502 187.639 C 256.996 188.596, 260.757 187.152, 264.631 183.751 C 268.875 180.024, 271 175.582, 271 170.433 C 271 164.029, 268.605 160.761, 260.223 155.727 C 254.083 152.040, 243.906 147, 242.601 147 C 242.472 147, 242.688 149.588, 243.080 152.750 M 298.554 153.915 C 292.307 163.662, 291.113 168.390, 293.394 174.361 C 295.254 179.231, 299.978 184, 302.942 184 C 305.933 184, 309.747 180.228, 311.562 175.476 C 314.695 167.273, 311.946 155.001, 305.663 149.137 L 303.131 146.775 298.554 153.915 M 272.667 153.667 C 271.302 155.031, 272.069 156.129, 274.172 155.820 C 276.920 155.415, 277.843 153, 275.250 153 C 274.196 153, 273.033 153.300, 272.667 153.667 M 277.750 160.716 C 276.223 160.948, 275 161.770, 275 162.566 C 275 164.290, 282.068 164.569, 285.066 162.965 C 289.582 160.548, 286.043 159.460, 277.750 160.716 M 180.939 164.034 C 183.930 165.683, 187.116 167.700, 188.018 168.516 C 189.794 170.124, 192 170.495, 192 169.187 C 192 168.089, 187.022 163.513, 184.316 162.122 C 183.114 161.505, 180.639 161.008, 178.816 161.018 C 175.526 161.036, 175.543 161.060, 180.939 164.034 M 223.224 168.534 C 217.122 174.039, 214.220 176, 212.174 176 C 208.655 176, 207 177.652, 207 181.165 C 207 184.625, 209.402 186, 215.444 186 C 218.782 186, 220.483 185.459, 221.732 184 C 223.893 181.476, 226.052 181.467, 229.231 183.967 C 234.016 187.731, 234.482 183.124, 229.804 178.298 C 225.703 174.066, 228.132 173.856, 233.572 177.972 C 235.732 179.607, 238.063 180.957, 238.750 180.972 C 241.267 181.028, 239.897 177.305, 236 173.500 C 232.195 169.785, 230.888 167, 232.948 167 C 233.470 167, 236.570 169.225, 239.837 171.944 C 243.105 174.664, 246.053 176.614, 246.389 176.278 C 246.725 175.942, 247 174.428, 247 172.915 C 247 170.865, 246.134 169.628, 243.603 168.064 C 241.735 166.909, 239.475 164.848, 238.580 163.482 C 235.726 159.127, 232.461 160.201, 223.224 168.534 M 322.667 162.667 C 322.300 163.033, 321.989 165.396, 321.976 167.917 C 321.944 173.749, 320.481 180.102, 317.970 185.298 C 316.887 187.541, 316 189.741, 316 190.188 C 316 192.051, 324.160 190.802, 330.362 187.990 C 334.013 186.335, 337 184.830, 337 184.647 C 337 183.490, 332.895 172.715, 331.156 169.306 C 327.962 163.045, 324.778 160.555, 322.667 162.667 M 299.557 166.223 C 297.511 169.143, 297.572 174.429, 299.674 176.531 C 300.888 177.745, 302.330 178.046, 304.921 177.625 C 311.293 176.591, 312.870 171.561, 308.313 166.805 C 305.079 163.429, 301.672 163.203, 299.557 166.223 M 161.763 166.565 C 159.162 167.977, 155.330 173.663, 156.316 174.649 C 156.570 174.904, 159.416 174.449, 162.639 173.640 C 165.863 172.830, 171.329 171.858, 174.787 171.481 C 180.320 170.877, 180.920 170.609, 179.787 169.243 C 176.454 165.223, 166.862 163.799, 161.763 166.565 M 303.667 169.667 C 303.300 170.033, 303 171.213, 303 172.289 C 303 173.914, 303.254 174.034, 304.500 173 C 305.325 172.315, 306 171.135, 306 170.378 C 306 168.920, 304.783 168.550, 303.667 169.667 M 174 177.798 C 169.498 179.986, 166.776 180.537, 159 180.838 C 149.240 181.216, 148.043 181.738, 148.015 185.628 C 147.986 189.701, 150.413 190.428, 156.228 188.088 C 160.417 186.403, 165.494 185.714, 180.938 184.734 L 200.376 183.500 201.245 180.140 C 201.723 178.293, 201.976 176.665, 201.807 176.523 C 201.638 176.382, 196.550 176.010, 190.500 175.696 C 180.027 175.153, 179.237 175.254, 174 177.798 M 276.481 191.991 C 274.270 193.085, 268.195 197.875, 262.981 202.635 C 257.766 207.395, 250.012 213.997, 245.750 217.306 C 241.488 220.616, 238 223.512, 238 223.743 C 238 224.853, 246.679 218.724, 257.669 209.852 C 270.989 199.101, 277.757 195, 282.181 195 C 286.102 195, 291.925 197.555, 295.240 200.730 C 299.419 204.734, 299.460 202.898, 295.300 198.037 C 291.826 193.978, 285.340 190.070, 282 190.023 C 281.175 190.011, 278.691 190.897, 276.481 191.991 M 338.314 192.950 C 332.357 196.582, 331.235 202.749, 335.589 207.923 C 339.247 212.271, 340.470 211.829, 340.675 206.089 C 340.855 201.020, 342.719 196.308, 345.434 194.055 C 346.295 193.340, 347 192.360, 347 191.878 C 347 190.295, 341.568 190.966, 338.314 192.950 M 374.500 192.548 C 372.611 193.421, 369.926 193.719, 367.250 193.353 C 362.490 192.703, 361.669 193.954, 365.223 196.443 C 369.734 199.603, 380 197.193, 380 192.974 C 380 190.700, 378.715 190.601, 374.500 192.548 M 351.104 196.535 C 348.812 199.144, 348.004 201.042, 348.015 203.785 C 348.032 208.175, 349.989 212.500, 351.958 212.500 C 352.727 212.500, 353.654 211.375, 354.018 210 C 355.238 205.390, 356.034 193, 355.111 193 C 354.614 193, 352.811 194.591, 351.104 196.535 M 378.500 201.355 C 376.300 202.413, 372.587 203.500, 370.250 203.770 C 365.270 204.344, 364.515 206.011, 369.250 205.976 C 374.059 205.941, 380.078 204.351, 381.757 202.672 C 384.357 200.072, 382.624 199.372, 378.500 201.355 M 379 208.552 C 378.175 208.729, 375.308 209.162, 372.629 209.516 C 369.121 209.979, 368.063 210.463, 368.846 211.246 C 370.273 212.673, 381.193 210.985, 381.759 209.250 C 382.164 208.009, 381.881 207.937, 379 208.552 M 277.500 209.959 C 276.400 210.417, 272.261 214.379, 268.301 218.764 C 262.402 225.298, 259.514 227.567, 252.301 231.336 C 242.670 236.368, 243.452 237.081, 255.282 234.056 C 265.030 231.563, 268.186 229.883, 274.700 223.723 L 280.015 218.695 285.758 224.785 C 290.803 230.136, 296.085 233.248, 297.582 231.752 C 297.850 231.483, 296.222 227.391, 293.962 222.659 C 288.315 210.830, 283.792 207.341, 277.500 209.959 M 373 216 C 368.762 216.326, 367.137 216.761, 368.332 217.250 C 370.867 218.288, 377.194 218.163, 378.971 217.039 C 381.187 215.637, 380.123 215.452, 373 216 M 274.750 235.236 C 270.519 239.863, 270.453 240, 272.433 240 C 273.221 240, 274.132 239.159, 274.458 238.132 C 274.784 237.104, 275.931 235.467, 277.007 234.494 C 279.306 232.413, 281.673 233.701, 282.190 237.312 C 282.488 239.398, 286 241.137, 286 239.199 C 286 238.214, 279.683 230.949, 278.929 231.067 C 278.693 231.104, 276.813 232.980, 274.750 235.236 M 229.667 238.667 C 228.339 239.994, 229.075 240.858, 233.250 242.874 C 243.086 247.625, 254.198 249.395, 274.524 249.449 C 291.048 249.493, 294.095 249.254, 297.715 247.625 C 301.696 245.833, 303.726 243.567, 302.198 242.622 C 301.804 242.379, 299.462 242.609, 296.991 243.133 C 286.119 245.439, 283.151 245.408, 281.179 242.973 L 279.333 240.694 276.417 242.837 C 273.614 244.897, 272.988 244.944, 260.443 244.040 C 251.344 243.384, 244.979 242.330, 239.443 240.562 C 230.587 237.734, 230.597 237.736, 229.667 238.667 M 215.017 254.202 C 214.990 256.912, 221.797 262.781, 227.379 264.861 C 230.196 265.910, 235.200 267.321, 238.500 267.996 C 241.800 268.670, 244.794 269.397, 245.154 269.611 C 245.514 269.825, 244.951 272.254, 243.904 275.010 C 242.857 277.766, 242.005 281.704, 242.012 283.761 C 242.029 289.044, 244.394 297.294, 247.318 302.264 C 249.957 306.751, 254.654 311.679, 255.492 310.841 C 255.767 310.567, 254.390 307.219, 252.432 303.403 C 250.474 299.587, 248.619 294.448, 248.309 291.983 L 247.747 287.500 250.937 293.500 C 259.771 310.115, 276.758 317.410, 290.579 310.523 C 303.333 304.167, 312.361 288.543, 309.610 277.584 C 308.865 274.613, 307.214 274.192, 306.337 276.750 C 302.356 288.367, 295.965 296.427, 287.182 300.907 C 280.459 304.337, 277.176 303.743, 267.789 297.396 C 254.300 288.276, 251 284.374, 251 277.550 C 251 271.443, 252.651 272.320, 269.156 287.198 C 273.918 291.489, 278.109 295, 278.471 295 C 279.692 295, 288.960 286.541, 292.712 282.004 L 296.435 277.500 290.567 282.814 C 287.339 285.737, 283.201 289.270, 281.370 290.667 L 278.042 293.206 267.387 283.171 C 255.612 272.081, 252.854 270.452, 239 266.407 C 225.645 262.508, 219.533 259.524, 217.091 255.713 C 215.731 253.589, 215.028 253.077, 215.017 254.202 M 235.479 254.392 C 233.862 255.574, 233.776 256.025, 234.910 257.392 C 235.644 258.276, 237.035 259, 238 259 C 238.965 259, 240.356 258.276, 241.090 257.392 C 242.224 256.025, 242.138 255.574, 240.521 254.392 C 239.474 253.626, 238.340 253, 238 253 C 237.660 253, 236.526 253.626, 235.479 254.392 M 300.200 255.200 C 298.204 257.196, 298.777 259.171, 301.250 258.820 C 302.696 258.614, 303.614 257.696, 303.820 256.250 C 304.171 253.777, 302.196 253.204, 300.200 255.200 M 248.714 256.619 C 247.306 258.027, 248.037 260.877, 249.962 261.488 C 252.590 262.322, 256.199 260.279, 255.802 258.183 C 255.473 256.446, 250.078 255.256, 248.714 256.619 M 263.355 257.518 C 262.296 260.277, 265.155 264.915, 271.668 271.008 C 276.875 275.879, 278.434 276.838, 279.884 276.062 C 281.870 274.999, 288.046 267.716, 289.845 264.316 C 291.177 261.797, 291.393 257, 290.174 257 C 288.618 257, 284.954 261.678, 281.614 267.930 L 278.273 274.184 274.078 266.342 C 271.770 262.029, 269.148 257.938, 268.250 257.250 C 266.051 255.566, 264.062 255.675, 263.355 257.518 M 195.492 272.599 C 191.111 275.610, 187.070 278.579, 186.513 279.197 C 185.265 280.580, 191.933 276.716, 197.952 272.568 C 200.401 270.881, 202.862 269.187, 203.423 268.804 C 203.983 268.422, 204.221 267.887, 203.950 267.617 C 203.679 267.346, 199.873 269.588, 195.492 272.599 M 193.941 279.079 C 187.216 283.523, 178.545 290.259, 174.673 294.047 C 167.768 300.803, 167.667 300.975, 169.452 302.947 C 171.832 305.577, 181.781 309.272, 184.586 308.568 C 186.869 307.995, 189.418 304.329, 197.502 290 C 200.140 285.325, 203.580 279.619, 205.149 277.320 C 208.075 273.030, 208.697 271, 207.085 271 C 206.581 271, 200.667 274.636, 193.941 279.079 M 218.205 288.750 C 211.373 298.973, 210.743 300, 211.296 300 C 211.779 300, 218.529 290.401, 222.371 284.250 C 227.151 276.596, 224.187 279.798, 218.205 288.750 M 228.987 281.250 C 228.969 283.052, 210.339 313.023, 208.252 314.606 C 207.288 315.338, 205.150 315.958, 203.500 315.984 C 201.850 316.009, 199.925 316.395, 199.223 316.841 C 196.627 318.489, 184.832 351.904, 183.459 361.500 C 182.589 367.589, 182.058 368.656, 176.993 374.508 C 172.438 379.771, 172.199 381.175, 175.063 385.871 C 176.871 388.838, 177.501 389.177, 180.309 388.700 C 185.274 387.855, 202.473 379.401, 206.601 375.777 C 210.094 372.710, 213.929 366.149, 213.978 363.155 C 213.993 362.221, 212.651 362.600, 209.585 364.398 C 196.918 371.820, 196.450 369.220, 208.770 359.880 C 218.906 352.195, 234.151 338.119, 239.095 331.879 L 241.964 328.257 239.457 322.086 C 235.283 311.815, 233.015 300.442, 233.007 289.750 C 233 280.669, 232.863 280, 231 280 C 229.900 280, 228.994 280.563, 228.987 281.250 M 320.691 305.250 C 320.351 313.637, 319.567 324.170, 318.951 328.656 C 317.660 338.039, 317.686 338.115, 325.047 346.961 C 330.097 353.029, 334.295 356, 337.817 356 C 341.580 356, 349.061 342.107, 349.935 333.500 C 350.524 327.690, 350.589 327.579, 351.977 330 C 354.736 334.812, 353.757 342.639, 349.176 352.390 C 346.879 357.279, 345 362.176, 345 363.271 C 345 367.588, 356.271 362.758, 362.950 355.579 C 365.257 353.099, 365.329 352.680, 364.187 348.411 C 361.357 337.828, 343.660 303.157, 336.750 294.656 C 335.176 292.719, 333.012 291.536, 329.969 290.949 C 320.670 289.155, 321.389 288.047, 320.691 305.250 M 351.750 441.206 C 346.942 443.275, 345.109 445.680, 349.250 444.486 C 354.825 442.880, 360 440.654, 360 439.864 C 360 438.490, 356.883 438.997, 351.750 441.206 M 128.750 456.068 C 126.688 457.157, 125 458.227, 125 458.447 C 125 458.666, 128.262 458.606, 132.250 458.314 C 138.115 457.883, 140.551 458.184, 145 459.890 C 151.880 462.528, 151.846 462.532, 148.924 459.405 C 143.592 453.698, 135.710 452.394, 128.750 456.068 M 374.792 457.925 C 368.070 458.864, 367.714 460, 374.142 460 C 377.409 460, 380.401 459.408, 381.559 458.532 C 383.474 457.084, 383.473 457.065, 381.500 457.165 C 380.400 457.221, 377.381 457.563, 374.792 457.925 M 127.750 474.162 C 123.027 475.887, 124.731 476.950, 131.250 476.344 C 134.690 476.024, 139.273 476.253, 141.444 476.854 C 146.925 478.371, 147.162 477.428, 141.899 475.040 C 137.143 472.882, 132.110 472.570, 127.750 474.162" stroke="none" fill="black" fill-rule="evenodd"/>
</svg>