<svg xmlns="http://www.w3.org/2000/svg" width="512" height="512" viewBox="0 0 512 512" version="1.1">
	<path d="M 189.977 54.250 C 186.400 60.083, 179.886 78.045, 177.414 88.889 C 174.261 102.724, 173.402 119.066, 174.937 136.023 C 176.280 150.862, 179.970 171.454, 183.103 181.598 C 185.582 189.626, 185.078 191.987, 182.117 186.210 C 178.913 179.959, 176.201 179.265, 168.223 182.655 C 164.684 184.160, 161.530 186.061, 161.215 186.881 C 160.901 187.701, 157.574 191.268, 153.822 194.807 C 150.070 198.346, 147 201.874, 147 202.646 C 147 204.644, 151.856 206.254, 156.181 205.689 L 159.861 205.209 157.181 208.918 C 155.706 210.959, 153.397 214.991, 152.048 217.880 C 149.268 223.836, 149.590 224.417, 156.298 225.550 C 158.634 225.945, 159.961 226.658, 159.688 227.371 C 159.440 228.016, 158.486 231.922, 157.568 236.051 L 155.897 243.559 150.922 245.841 C 143.881 249.072, 140.652 254.216, 140.222 262.889 C 139.855 270.285, 141.648 275.023, 146 278.160 C 148.345 279.850, 149.027 279.869, 157 278.464 C 168.266 276.479, 168.020 276.578, 174.693 271.367 C 177.887 268.873, 181.746 266.180, 183.268 265.381 C 186.496 263.689, 186.099 263.008, 188.883 275 C 189.969 279.675, 191.134 284.214, 191.473 285.088 C 191.903 286.195, 190.873 287.480, 188.069 289.336 C 182.632 292.934, 180.594 296.369, 180 302.940 L 179.500 308.471 172.349 313.485 C 168.416 316.243, 160.386 321.425, 154.505 325 C 148.624 328.575, 143.377 332.310, 142.845 333.299 C 141.567 335.675, 143.373 341.101, 146.795 345.168 C 149.343 348.196, 157.968 352.955, 161 353.006 C 164.765 353.068, 165.010 354.419, 162.539 361.491 C 160.060 368.586, 160.063 370, 162.559 370 C 163.352 370, 164 370.172, 164 370.381 C 164 370.591, 162.200 377.620, 160 386 C 157.800 394.380, 156 402.084, 156 403.119 C 156 405.504, 155.565 405.478, 152.055 402.882 C 148.540 400.284, 147.243 400.964, 146.521 405.785 C 146.216 407.828, 145.238 412.557, 144.349 416.294 C 143.348 420.499, 142.953 424.958, 143.313 427.997 L 143.895 432.907 139.063 436.453 C 136.406 438.404, 133.885 440, 133.460 440 C 133.036 440, 131.136 441.184, 129.238 442.632 C 125.943 445.145, 123 450.239, 123 453.429 C 123 455.991, 130.523 457.310, 140.500 456.499 C 145.450 456.097, 153.464 455.692, 158.308 455.599 C 164.780 455.475, 167.380 455.041, 168.109 453.965 C 169.082 452.528, 168.693 444.629, 167.438 440.317 C 166.896 438.459, 167.557 437.751, 171.883 435.559 C 177.547 432.689, 179.525 430.229, 181.534 423.555 C 182.555 420.160, 182.632 418.244, 181.840 415.970 C 180.921 413.335, 181.126 412.429, 183.367 409.213 C 184.790 407.171, 188.467 402.873, 191.538 399.663 L 197.122 393.825 202.495 398.907 C 209.817 405.832, 210.485 405.460, 213.553 392.750 C 213.918 391.238, 214.556 390, 214.972 390 C 215.387 390, 217.173 394.045, 218.942 398.989 C 222.463 408.834, 225.749 412.740, 229.029 410.984 C 231.469 409.679, 234.521 405.688, 236.704 400.949 C 237.692 398.805, 238.725 397.045, 239 397.036 C 239.275 397.027, 240.254 398.816, 241.176 401.010 C 242.614 404.434, 243.288 405, 245.923 405 C 250.583 405, 256.379 399.150, 260.682 390.104 C 262.671 385.922, 264.435 382.334, 264.601 382.132 C 264.768 381.929, 267.288 383.749, 270.202 386.177 C 273.116 388.604, 277.413 391.814, 279.750 393.309 C 282.087 394.805, 284 396.162, 284 396.326 C 284 396.490, 283.100 398.487, 282 400.764 C 279.346 406.257, 279.467 407.905, 282.895 413.010 C 285.554 416.969, 299.369 429, 301.257 429 C 301.703 429, 301.782 431.160, 301.432 433.799 C 300.801 438.558, 300.830 438.622, 304.898 441.314 C 307.154 442.807, 309 444.165, 309 444.333 C 309 444.500, 308.299 446.998, 307.442 449.885 C 303.833 462.036, 307.310 465.219, 324.382 465.395 C 331.993 465.474, 335.677 465.046, 339.250 463.667 C 343.534 462.015, 343.999 461.524, 343.994 458.667 C 343.984 453.009, 341.856 447.586, 338.001 443.394 C 332.931 437.881, 331.892 435.711, 331.634 430.084 C 331.468 426.483, 330.661 424.352, 328.348 421.405 C 326.662 419.257, 324.964 415.700, 324.575 413.500 C 323.366 406.663, 316.863 384.687, 314.912 380.845 C 312.988 377.056, 309.200 373.516, 305.974 372.492 C 304.760 372.106, 303.543 369.941, 302.473 366.260 C 301.571 363.158, 299.307 357.589, 297.442 353.885 C 295.358 349.746, 294.477 347.008, 295.157 346.781 C 296.739 346.254, 294.579 342.469, 285.013 329 C 280.521 322.675, 275.236 314.800, 273.269 311.500 C 271.302 308.200, 268.706 304.150, 267.499 302.500 C 266.031 300.491, 265.121 297.427, 264.746 293.226 C 264.438 289.775, 263.292 285.147, 262.201 282.940 C 259.951 278.394, 260.021 278.030, 267.600 254.884 L 271.076 244.268 277.288 243.665 C 280.705 243.333, 288.036 242.763, 293.581 242.399 L 303.661 241.737 306.034 247.583 C 307.412 250.979, 310.339 255.433, 313.019 258.214 C 317.135 262.484, 318.100 263, 321.971 263 C 325.732 263, 326.816 262.467, 330.115 259 C 332.208 256.800, 334.756 255, 335.778 255 C 336.801 255, 339.874 254.336, 342.609 253.524 C 347.764 251.992, 351.670 248.645, 354.278 243.523 L 355.793 240.547 372.647 238.821 C 394.291 236.605, 393.346 236.579, 396.818 239.500 C 398.452 240.875, 400.725 242, 401.869 242 C 406.457 242, 408.862 230.501, 405.594 224.182 C 402.805 218.788, 398.353 219.032, 394.592 224.784 L 392.684 227.702 374.092 228.293 L 355.500 228.883 353.500 226.391 C 349.220 221.057, 333.319 220.177, 326.900 224.918 L 323.627 227.336 315.286 223.065 C 309.701 220.205, 306.475 217.885, 305.523 216.045 C 304.742 214.534, 302.966 212.553, 301.577 211.643 C 299.547 210.312, 299.164 209.430, 299.622 207.140 C 300.114 204.680, 299.598 203.812, 295.846 200.781 C 287.991 194.437, 283.530 192.044, 275.986 190.128 L 268.541 188.238 266.784 182.369 C 265.818 179.141, 265.021 173.912, 265.014 170.750 L 265 165 269.531 165 C 275.028 165, 275.958 163.433, 273.568 158.196 C 271.470 153.602, 269.076 150.646, 266.209 149.112 C 264.724 148.317, 264 146.996, 264 145.080 C 264 141.863, 265.856 140.370, 273.316 137.583 C 279.903 135.123, 280.327 133.644, 279.650 115.500 C 279.069 99.930, 277.099 88.720, 272.971 77.500 C 269.577 68.275, 268.393 67.655, 267.552 74.662 C 267.167 77.873, 266.611 81.513, 266.317 82.750 C 265.950 84.298, 266.238 85, 267.239 85 C 268.039 85, 269.183 83.987, 269.780 82.750 C 270.654 80.936, 270.878 82.159, 270.932 89.066 C 271.056 104.724, 267.779 115.511, 261.990 118.505 C 259.284 119.904, 258.708 119.900, 255.931 118.464 C 251.148 115.991, 238.266 113.826, 234.613 114.881 C 232.901 115.376, 225.780 118.566, 218.790 121.970 C 204.834 128.767, 204.150 128.827, 198.375 123.756 C 188.079 114.716, 185.197 92.147, 191.096 66.752 C 192.194 62.024, 193.986 61.138, 194.015 65.309 C 194.024 66.514, 194.509 68.175, 195.093 69 C 195.864 70.089, 196.021 68.307, 195.667 62.500 C 194.926 50.337, 193.577 48.381, 189.977 54.250 M 273 104.729 C 273 112.870, 269.902 118.834, 264.290 121.500 C 260.035 123.521, 259.267 125.229, 262.343 125.825 C 265.285 126.396, 271.132 121.921, 273.096 117.595 C 275.124 113.130, 275.751 100.582, 274 99.500 C 273.377 99.115, 273 101.086, 273 104.729 M 184.119 108.313 C 183.864 116.498, 186.238 142.469, 189.041 162.161 C 191.814 181.642, 193.167 188, 194.541 188 C 196.623 188, 199.448 185.238, 201.022 181.664 C 203.084 176.984, 209 154.848, 209 151.815 C 209 148.622, 203.748 144.273, 197.804 142.545 C 188.662 139.888, 188.908 140.345, 186.437 121.380 C 185.227 112.096, 184.184 106.216, 184.119 108.313 M 228.500 122.465 L 219.500 125.866 226.500 125.955 C 238.049 126.102, 242.540 129.024, 245.396 138.250 C 245.980 140.140, 252 140.823, 252 139 C 252 138.450, 251.570 138, 251.045 138 C 250.520 138, 249.807 136.313, 249.461 134.250 C 248.381 127.816, 247.023 124.370, 244.721 122.221 C 241.022 118.768, 238.170 118.811, 228.500 122.465 M 251.632 125.057 C 252.401 127.289, 253.135 131.563, 253.265 134.557 C 253.458 139.017, 253.821 139.999, 255.278 140 C 256.872 140, 256.987 139.301, 256.393 133.250 C 255.725 126.447, 254.625 123.117, 252.600 121.765 C 250.459 120.335, 250.250 121.046, 251.632 125.057 M 209 130 C 210.375 130.440, 216.012 130.845, 221.527 130.900 C 232.521 131.010, 234.866 131.906, 237.506 137.011 C 239.807 141.461, 239.361 142.578, 234.750 143.919 C 230.072 145.278, 220 150.953, 220 152.228 C 220 152.671, 222.354 151.841, 225.231 150.383 C 232.022 146.941, 240.687 146.186, 248.226 148.377 C 256.325 150.732, 257 150.592, 257 146.559 C 257 144.666, 256.555 142.843, 256.011 142.507 C 255.467 142.171, 252.360 141.883, 249.105 141.867 C 243.230 141.839, 243.169 141.809, 240.465 137.531 C 235.942 130.375, 232.293 128.983, 218.364 129.100 C 210.874 129.163, 207.422 129.495, 209 130 M 232.500 151.602 C 230.300 152.406, 227.600 153.969, 226.500 155.076 C 224.535 157.054, 224.583 157.052, 229.251 154.997 C 236.679 151.727, 242.791 151.372, 248.462 153.880 C 253.874 156.274, 259.231 156.632, 260.829 154.707 C 261.679 153.682, 261.199 153.495, 258.519 153.808 C 256.657 154.025, 252.408 153.259, 249.064 152.101 C 242.051 149.674, 238.103 149.555, 232.500 151.602 M 231 159 C 231 159.550, 231.388 160, 231.862 160 C 232.337 160, 234.474 161.404, 236.612 163.120 C 238.751 164.836, 242.486 167.102, 244.913 168.155 L 249.326 170.069 245.967 173.534 C 241.953 177.676, 240.148 177.852, 236.924 174.417 C 233.341 170.600, 222.950 163.913, 221.752 164.653 C 221.180 165.007, 222.012 165.956, 223.607 166.769 C 230.141 170.099, 234.094 176.597, 235.545 186.392 C 236.486 192.745, 234.824 191.843, 232.546 184.765 C 230.418 178.152, 226.457 172.288, 222.865 170.430 C 219.261 168.567, 216.690 168.640, 220.129 170.508 C 223.240 172.199, 225.552 177.504, 226.961 186.193 C 227.524 189.662, 227.988 192.860, 227.992 193.301 C 227.997 193.742, 229.465 194.714, 231.256 195.463 C 235.970 197.432, 258.646 202.073, 260.354 201.418 C 262.264 200.685, 262.983 197.673, 262.282 193.348 C 261.646 189.430, 259.264 188, 253.376 188 C 251.301 188, 250.133 187.594, 250.500 187 C 250.840 186.450, 253.116 186, 255.559 186 C 258.651 186, 260 185.584, 260 184.631 C 260 183.256, 255.184 182.033, 249.691 182.011 C 244.983 181.993, 247.623 180.278, 253.487 179.545 C 259.994 178.732, 260.845 177.007, 254.750 176.985 C 249.518 176.966, 246.712 175.517, 249 174.015 C 249.825 173.474, 251.625 173.017, 253 173 C 258.742 172.930, 259.414 169.689, 253.936 168.486 C 250.311 167.690, 250.555 165.630, 254.327 165.184 C 257.090 164.857, 257.798 162.809, 256.085 160.104 C 255.376 158.983, 254.656 159.253, 252.438 161.471 C 250.734 163.175, 248.202 164.431, 245.831 164.750 C 242.397 165.210, 241.620 164.877, 238.560 161.633 C 235.367 158.246, 231 156.726, 231 159 M 253 163 C 253 163.550, 253.450 164, 254 164 C 254.550 164, 255 163.550, 255 163 C 255 162.450, 254.550 162, 254 162 C 253.450 162, 253 162.450, 253 163 M 171.816 186.582 C 173.062 188.996, 175.835 191.498, 176.514 190.820 C 176.770 190.564, 175.576 189.037, 173.860 187.427 C 171.495 185.208, 171.001 185.004, 171.816 186.582 M 163 195.500 C 160.525 196.825, 158.945 197.930, 159.489 197.955 C 161.135 198.030, 168.992 194.555, 168.996 193.750 C 169.002 192.571, 167.831 192.913, 163 195.500 M 187 203.099 C 187 209.566, 192.062 215.944, 200.700 220.363 C 205.787 222.965, 205.811 222.266, 200.745 219.053 C 195.543 215.754, 191.768 210.592, 189.921 204.250 C 188.470 199.267, 187 198.688, 187 203.099 M 176.102 203.809 C 173.643 208.404, 175.770 216.736, 179.977 218.988 C 182.165 220.159, 194 223.959, 194 223.490 C 194 223.325, 191.972 222.001, 189.493 220.549 C 184.389 217.558, 182.754 215.406, 179.496 207.388 C 177.415 202.268, 177.103 201.939, 176.102 203.809 M 278.690 203.750 C 278.455 204.162, 277.699 206.300, 277.011 208.500 C 275.095 214.622, 270.165 223.468, 266.954 226.544 C 265.046 228.372, 262.453 229.556, 259.285 230.045 C 253.756 230.899, 252.683 230.430, 255.502 228.391 C 260.364 224.874, 265.979 218.575, 267.906 214.476 C 270.850 208.213, 270.549 205.899, 267.403 210.610 C 263.774 216.044, 258.414 221.533, 252.210 226.169 C 246.962 230.091, 243.499 231.173, 231.750 232.561 C 229.137 232.870, 227 233.529, 227 234.026 C 227 236.650, 231.573 236.941, 257.655 235.976 C 321.298 233.622, 329.591 232.883, 324.992 229.973 C 321.800 227.954, 315.814 227.703, 298 228.843 C 287.825 229.494, 277.296 230.020, 274.602 230.013 L 269.704 230 273.028 227.750 C 278.217 224.237, 281 217.986, 281 209.843 C 281 203.859, 280.053 201.361, 278.690 203.750 M 287.477 208.250 C 286.653 214.328, 284.680 218.744, 281.642 221.308 C 279.515 223.103, 279.524 223.111, 282.985 222.427 C 289.479 221.143, 293 217.641, 293 212.467 C 293 209.525, 290.229 203, 288.980 203 C 288.544 203, 287.868 205.363, 287.477 208.250 M 164.607 210.582 C 164.273 211.452, 164 212.836, 164 213.659 C 164 215.922, 169.552 221, 172.027 221 C 174.095 221, 174.049 220.819, 171.118 217.482 C 169.419 215.547, 167.749 212.847, 167.406 211.482 C 166.695 208.650, 165.496 208.264, 164.607 210.582 M 249.272 214 C 249.272 216.475, 249.467 217.488, 249.706 216.250 C 249.944 215.012, 249.944 212.988, 249.706 211.750 C 249.467 210.512, 249.272 211.525, 249.272 214 M 295.500 221.484 L 290.500 225.923 294.114 225.962 C 298.081 226.004, 303.321 221.894, 302.789 219.157 C 302.264 216.448, 300.559 216.992, 295.500 221.484 M 237.500 222.154 C 235.300 222.678, 230.226 222.971, 226.225 222.804 C 220.641 222.571, 219.309 222.762, 220.496 223.626 C 224.496 226.538, 238.645 225.783, 241.947 222.482 C 243.604 220.825, 243.203 220.795, 237.500 222.154 M 175 226.038 C 173.075 226.497, 169.475 226.672, 167 226.427 L 162.500 225.982 165.500 227.446 C 169.435 229.366, 175.367 229.378, 179.050 227.474 C 183.956 224.937, 182.216 224.320, 175 226.038 M 400.035 226.934 C 398.765 229.308, 398.633 234.797, 399.879 233.450 C 400.877 232.371, 402.361 225, 401.580 225 C 401.300 225, 400.605 225.870, 400.035 226.934 M 331 226.598 C 331 227.007, 331.611 228.053, 332.358 228.921 C 334.078 230.920, 336 236.582, 336 239.649 C 336 241.159, 336.585 242, 337.636 242 C 341.365 242, 336.664 226.944, 332.696 226.180 C 331.763 226, 331 226.188, 331 226.598 M 339.575 228.474 C 340.466 229.834, 341.757 232.848, 342.443 235.172 C 343.746 239.586, 346 241.546, 346 238.265 C 346 237.219, 345.308 234.031, 344.461 231.182 C 343.143 226.743, 342.566 226, 340.438 226 C 338.025 226, 338 226.071, 339.575 228.474 M 347.411 228.629 C 347.755 229.525, 348.530 232.219, 349.134 234.616 C 350.438 239.798, 352.466 239.392, 351.536 234.135 C 350.487 228.201, 349.946 227, 348.326 227 C 347.314 227, 347 227.558, 347.411 228.629 M 208.468 231.250 C 207.875 232.830, 212.519 244.340, 213.941 244.814 C 215.361 245.287, 215.286 240.098, 213.793 234.514 C 212.920 231.253, 212.079 230, 210.761 230 C 209.758 230, 208.726 230.563, 208.468 231.250 M 216.033 230.750 C 216.152 233.484, 220.102 242.500, 221.181 242.500 C 222.813 242.500, 222.559 233.378, 220.869 231.342 C 219.694 229.926, 215.977 229.471, 216.033 230.750 M 327.353 232.750 C 327.622 233.713, 328.132 235.512, 328.488 236.749 C 329.004 238.543, 328.615 239.196, 326.567 239.974 C 323.493 241.143, 323.394 241.605, 325.928 242.961 C 330.250 245.274, 332.719 241.187, 330.925 234.689 C 330.321 232.501, 329.287 231, 328.386 231 C 327.418 231, 327.043 231.637, 327.353 232.750 M 201.177 232.750 C 201.365 233.162, 202.588 236.313, 203.894 239.750 C 206.667 247.050, 208.547 248.009, 207.680 241.680 C 206.753 234.915, 205.326 232, 202.941 232 C 201.782 232, 200.988 232.338, 201.177 232.750 M 194.396 236.411 C 193.692 238.245, 198.823 246, 200.740 246 C 201.590 246, 201.987 245.410, 201.678 244.604 C 201.384 243.836, 200.589 241.361, 199.913 239.104 C 198.653 234.897, 195.557 233.386, 194.396 236.411 M 183.250 245.031 C 178.329 247.009, 182.854 258, 188.589 258 C 191.321 258, 191.572 256.624, 189.500 253 C 188.714 251.625, 188.055 249.037, 188.035 247.250 C 187.998 243.843, 187.166 243.457, 183.250 245.031 M 253.443 245.960 C 252.016 246.537, 250.866 248.660, 249.693 252.881 C 248.762 256.230, 248 259.417, 248 259.965 C 248 260.931, 255.908 265.460, 256.479 264.820 C 257.472 263.706, 261.970 246.761, 261.482 245.971 C 260.763 244.807, 256.305 244.801, 253.443 245.960 M 235.469 247.250 C 232.083 256.293, 229.363 266.567, 230.269 266.893 C 232.958 267.863, 240 255.285, 240 249.511 C 240 246.649, 239.625 246, 237.969 246 C 236.851 246, 235.727 246.563, 235.469 247.250 M 175.667 247.667 C 174.462 248.871, 174.970 254.578, 176.457 256.559 C 177.774 258.313, 177.857 257.970, 177.317 253 C 176.651 246.871, 176.607 246.727, 175.667 247.667 M 152.250 249.031 C 151.012 249.529, 150 250.427, 150 251.027 C 150 251.627, 150.505 251.806, 151.123 251.424 C 151.740 251.042, 154.328 250.156, 156.873 249.454 C 161.408 248.204, 161.431 248.178, 158 248.153 C 156.075 248.138, 153.488 248.534, 152.250 249.031 M 241.659 270.458 L 238.035 275.916 241.768 276.952 C 248.400 278.794, 250.633 278.330, 252.918 274.632 C 254.063 272.780, 255 270.999, 255 270.674 C 255 270.079, 246.769 265, 245.804 265 C 245.517 265, 243.652 267.456, 241.659 270.458 M 217.197 281.647 C 212.631 284.166, 209.121 286.454, 209.398 286.731 C 210.120 287.453, 222.032 281.687, 225 279.179 C 228.987 275.810, 226.148 276.708, 217.197 281.647 M 230 285.105 C 227.525 286.793, 222.616 289.489, 219.092 291.096 C 215.568 292.703, 212.916 294.249, 213.198 294.532 C 213.902 295.236, 230.357 289.359, 236.500 286.210 C 241.243 283.778, 241.371 283.609, 239 282.923 C 235.068 281.785, 234.759 281.860, 230 285.105 M 244.984 289.889 C 238.651 292.975, 230.101 296.350, 225.984 297.390 C 218.644 299.243, 215.111 300.896, 218.050 301.101 C 231.166 302.018, 258 292.133, 258 286.385 C 258 283.905, 256.360 284.347, 244.984 289.889 M 187.182 297.500 C 186.555 298.875, 186.411 300, 186.861 300 C 187.311 300, 188.192 298.875, 188.818 297.500 C 189.445 296.125, 189.589 295, 189.139 295 C 188.689 295, 187.808 296.125, 187.182 297.500 M 240.914 312.747 L 226.329 320.342 219.414 316.966 C 215.612 315.109, 212.050 313.384, 211.500 313.132 C 210.950 312.881, 211.147 313.458, 211.937 314.415 C 212.728 315.373, 215.623 317.295, 218.370 318.688 C 224.929 322.011, 230.290 321.507, 240.656 316.593 C 253.298 310.599, 261.409 304.794, 256.750 305.075 C 256.063 305.117, 248.937 308.569, 240.914 312.747 M 252.500 318.019 C 250.300 319.506, 244.843 322.360, 240.374 324.362 C 227.760 330.010, 218.638 329.165, 208.466 321.407 C 206.530 319.930, 204.715 318.951, 204.434 319.232 C 203.122 320.545, 210.944 328.721, 216.007 331.330 C 220.720 333.759, 222.355 334.097, 227.519 333.714 C 236.359 333.058, 251.272 324.813, 255.619 318.178 C 257.754 314.920, 257.132 314.888, 252.500 318.019 M 171.435 320.261 C 163.274 325.965, 154.798 333.132, 155.447 333.780 C 156.041 334.374, 173.512 321.302, 176.423 318.085 C 179.116 315.110, 178.288 315.471, 171.435 320.261 M 259.153 324.460 C 256.133 328.895, 248.238 334.907, 240 339.045 C 235.015 341.549, 231.808 342.421, 226.240 342.787 C 214.011 343.591, 206.519 339.179, 199.709 327.162 L 196.500 321.500 196.188 325.280 C 195.653 331.758, 198.689 339.952, 203.351 344.614 C 219.646 360.909, 256.597 348.675, 261.837 325.250 C 262.988 320.104, 262.264 319.891, 259.153 324.460 M 169.643 332.714 C 167.103 336.446, 164.757 341.075, 164.430 343 L 163.835 346.500 165.847 344.018 C 168.280 341.016, 175.319 326.986, 174.701 326.368 C 174.460 326.126, 172.183 328.982, 169.643 332.714 M 275.582 333.234 C 277.555 338.824, 279.707 342, 281.523 342 C 282.335 342, 283 341.734, 283 341.409 C 283 340.730, 274.870 329, 274.399 329 C 274.229 329, 274.761 330.905, 275.582 333.234 M 184.143 351.643 C 182.708 358.789, 182.677 376.003, 184.096 378 C 184.920 379.160, 185.029 378.890, 184.576 376.808 C 184.255 375.328, 184.433 367.931, 184.974 360.370 C 185.514 352.809, 185.805 346.472, 185.621 346.288 C 185.437 346.103, 184.771 348.513, 184.143 351.643 M 274.500 348.529 C 272.300 349.321, 270.403 349.977, 270.285 349.985 C 269.660 350.029, 267.583 354.908, 266.885 357.976 C 266.276 360.648, 266.552 362.475, 268.024 365.530 C 270.452 370.570, 278.036 378.087, 278.741 376.153 C 279.010 375.412, 280.576 373.275, 282.219 371.403 C 284.933 368.312, 285.708 368, 290.671 368 C 295.877 368, 296.102 367.894, 295.436 365.750 C 294.511 362.770, 288.421 350.966, 286.666 348.750 C 284.977 346.618, 280.052 346.529, 274.500 348.529 M 172.813 371.744 C 170.415 374.535, 170.017 375.540, 168.887 381.652 C 168.301 384.824, 166.801 389.463, 165.554 391.960 C 162.509 398.055, 161.668 401.895, 163.019 403.523 C 163.937 404.629, 165.006 404.594, 169.312 403.317 C 175.016 401.626, 181.549 398.539, 182.425 397.121 C 182.734 396.621, 181.848 393.725, 180.456 390.685 C 179.064 387.644, 177.240 381.869, 176.402 377.851 C 175.564 373.833, 174.753 370.420, 174.600 370.266 C 174.446 370.113, 173.642 370.778, 172.813 371.744 M 287.377 372.433 C 285.343 373.872, 283 380.583, 283 384.966 C 283 386.959, 283.105 386.977, 285.521 385.395 C 287.630 384.012, 288.893 383.911, 293.269 384.777 C 296.145 385.345, 298.881 385.573, 299.351 385.283 C 301.314 384.070, 303.055 377.971, 302 376 C 299.888 372.054, 290.982 369.882, 287.377 372.433 M 318 432.563 L 314.500 433.887 317.668 433.944 C 321.369 434.009, 324 433.157, 324 431.893 C 324 430.737, 322.334 430.923, 318 432.563" stroke="none" fill="black" fill-rule="evenodd"/>
</svg>