<svg xmlns="http://www.w3.org/2000/svg" width="512" height="512" viewBox="0 0 512 512" version="1.1">
	<path d="M 220.973 34.250 C 216.252 44.650, 219.700 52.376, 231.750 58.407 C 234.637 59.851, 237 61.266, 237 61.549 C 237 63.364, 233.329 70.207, 229.965 74.662 C 227.784 77.551, 226 80.110, 226 80.349 C 226 80.588, 227.151 81.072, 228.557 81.425 C 230.351 81.875, 230.973 82.578, 230.643 83.783 C 230.383 84.727, 229.430 88.974, 228.524 93.219 C 227.016 100.289, 226.492 101.277, 222.298 104.969 C 219.779 107.186, 217.175 109, 216.510 109 C 215.845 109, 208.596 105.805, 200.401 101.900 C 192.205 97.996, 182.178 93.225, 178.118 91.299 C 169.852 87.379, 162.728 81.366, 160.043 76.045 C 159.059 74.095, 157.482 69.800, 156.538 66.500 C 154.829 60.522, 151.481 54, 150.122 54 C 149.728 54, 148.920 56.839, 148.325 60.310 C 147.731 63.780, 145.630 70.292, 143.657 74.780 C 141.684 79.268, 139.543 85.963, 138.899 89.657 C 137.634 96.924, 138.242 111.870, 139.921 114.752 C 140.723 116.128, 140.947 116.181, 140.975 115 C 141.153 107.580, 147.753 98.512, 153.802 97.377 C 158.873 96.426, 163.943 98.013, 181.865 106.164 C 190.464 110.074, 199.460 114.154, 201.855 115.230 L 206.210 117.186 203.140 119.343 C 201.452 120.529, 197.963 124.762, 195.388 128.750 C 192.812 132.737, 190.097 136.505, 189.353 137.122 C 187.124 138.972, 187.799 139.622, 191.500 139.190 C 193.991 138.899, 194.994 139.173, 194.978 140.141 C 194.942 142.348, 191.453 149.387, 189.658 150.872 C 187.088 152.999, 187.677 154, 191.500 154 C 195.928 154, 195.932 154.443, 191.620 168.500 C 189.765 174.550, 187.927 181.410, 187.536 183.745 C 187.146 186.079, 186.432 188.233, 185.951 188.531 C 184.763 189.264, 172.280 187.078, 168.250 185.431 C 166.463 184.700, 165 184.428, 165 184.827 C 165 185.226, 167.093 188.914, 169.650 193.024 C 175.114 201.803, 178.462 209.435, 183.460 224.500 C 188.363 239.278, 190.121 247.147, 189.363 250.935 C 188.877 253.366, 189.231 254.617, 190.912 256.406 C 192.935 258.559, 193.057 259.472, 192.622 269.113 L 192.153 279.500 174.439 288.734 C 164.697 293.812, 154.200 299.856, 151.113 302.164 C 144.441 307.153, 130.814 319.147, 131.284 319.617 C 132.260 320.593, 175.534 302.323, 191.184 294.327 C 199.534 290.060, 201.226 289.556, 207.500 289.459 C 211.350 289.400, 215.571 288.998, 216.880 288.567 C 219.230 287.793, 219.250 287.844, 218.493 292.641 C 218.072 295.314, 217.781 305.993, 217.847 316.373 C 217.950 332.487, 217.719 335.667, 216.267 338.124 C 214.169 341.677, 212.032 342.427, 208.543 340.838 C 205.168 339.300, 203.661 341.054, 204.537 345.500 C 204.863 347.150, 205.330 350.075, 205.577 352 L 206.024 355.500 204.727 352.160 C 202.802 347.205, 198 345.350, 198 349.562 C 198 350.356, 196.213 352.620, 194.028 354.593 C 189.086 359.058, 187.892 363.787, 190.488 368.608 C 192.171 371.733, 192.173 372.109, 190.533 376.198 C 189.584 378.564, 186.826 388.354, 184.404 397.952 C 179.704 416.574, 176.659 424.194, 169.998 434.003 C 166.037 439.836, 165.917 440.222, 167.662 441.548 C 168.673 442.317, 170.287 443.214, 171.250 443.541 C 173.704 444.374, 173.479 445.368, 169.500 451.276 C 166.717 455.408, 166 457.449, 166 461.237 C 166 465.452, 166.455 466.455, 169.959 469.959 C 177.378 477.378, 187.881 480.656, 201.446 479.785 C 210.070 479.232, 214 477.247, 214 473.445 C 214 469.104, 211.285 464.204, 207.554 461.809 C 204.715 459.986, 204.070 459.027, 204.497 457.253 C 204.819 455.912, 204.034 453.027, 202.550 450.098 C 200.380 445.816, 200.265 445.112, 201.646 444.582 C 202.962 444.077, 203.117 442.915, 202.560 437.715 C 202.180 434.171, 202.360 429.295, 202.974 426.478 C 204.561 419.192, 212.956 403.050, 221.561 390.741 C 228.272 381.141, 229.340 380.047, 231.482 380.585 C 233.477 381.086, 235.033 380.033, 240.706 374.344 C 251.367 363.652, 260 351.664, 260 347.553 C 260 345.498, 253.380 338.248, 249.825 336.410 C 248.271 335.606, 247 334.386, 247 333.698 C 247 333.010, 249.419 327.509, 252.376 321.474 C 255.333 315.438, 258.773 307.674, 260.021 304.219 C 262.603 297.074, 262.962 296.701, 266.431 297.572 C 269.012 298.220, 269.922 299.724, 284.538 327.500 C 287.432 333, 290.114 339, 290.498 340.834 C 291.139 343.896, 291.004 344.153, 288.848 343.974 C 287.557 343.866, 285.938 343.828, 285.250 343.889 C 283.700 344.027, 283.626 347.433, 285.114 350.212 C 286.006 351.879, 285.906 352.473, 284.614 353.196 C 282.207 354.543, 280 359.437, 280 363.427 C 280 366.038, 280.618 367.359, 282.379 368.513 C 284.230 369.725, 284.873 371.230, 285.273 375.286 C 285.557 378.154, 286.785 386.125, 288.003 393 C 290.475 406.953, 290.339 416.368, 287.551 424.343 C 286.026 428.703, 286.011 429.354, 287.394 430.883 C 288.761 432.393, 288.768 433.119, 287.465 437.449 C 285.309 444.613, 285.550 450.284, 288.108 452.595 C 289.883 454.199, 291.819 454.505, 300.358 454.533 C 307.094 454.556, 312.683 455.185, 317 456.407 C 321.906 457.796, 325.525 458.121, 331.757 457.734 C 341.845 457.107, 345.515 455.219, 344.520 451.169 C 343.019 445.058, 340.661 443.121, 332.084 440.951 C 326.610 439.566, 316.263 429.593, 318.057 427.431 C 318.834 426.495, 318.630 425.236, 317.313 422.822 C 313.787 416.361, 315.336 385.477, 320.075 367.750 C 320.815 364.980, 321.607 364, 323.104 364 C 324.219 364, 325.939 363.568, 326.925 363.040 C 330.689 361.026, 335.732 344.852, 336.235 333.180 C 336.469 327.773, 336.204 326.755, 334 324.585 C 329.893 320.540, 326.801 320.358, 322.741 323.922 C 320.813 325.615, 319.010 327, 318.735 327 C 317.770 327, 316.938 322.391, 315.473 308.920 C 314.660 301.450, 313.144 292, 312.104 287.920 C 311.063 283.839, 310.419 280.156, 310.674 279.736 C 310.928 279.315, 312.903 278.070, 315.063 276.968 C 318.846 275.038, 318.945 274.861, 317.746 272.172 C 314.420 264.716, 299.875 237.041, 298.998 236.499 C 298.449 236.160, 298 234.368, 298 232.518 C 298 230.360, 297.074 228.053, 295.419 226.086 C 293.353 223.630, 292.973 222.399, 293.518 219.917 C 294.069 217.409, 293.714 216.310, 291.658 214.159 C 288.638 211, 286.460 202.963, 288.306 201.790 C 288.963 201.372, 290.413 201.024, 291.528 201.015 C 294.100 200.996, 305.765 195.419, 313.202 190.654 C 319.863 186.386, 320.801 186.226, 321.431 189.250 C 327.990 220.743, 337.057 244.085, 349.023 260.279 C 357.439 271.668, 360.618 271.655, 371.996 260.184 C 396.721 235.258, 405.530 182.827, 393.953 129.500 C 388.067 102.388, 374.546 75.760, 359.984 62.605 C 354.938 58.046, 345.612 52, 343.626 52 C 341.107 52, 333.081 62.129, 328.968 70.500 C 320.179 88.382, 315.012 117.847, 315.003 150.128 C 315.001 159.546, 314.655 163.042, 313.641 163.883 C 311.736 165.464, 301.165 169, 298.343 169 C 295.490 169, 295.448 168.417, 298.004 164.226 C 299.102 162.425, 300 160.238, 300 159.366 C 300 154.489, 286.562 135.948, 281.972 134.491 C 280.400 133.992, 280 132.966, 280 129.433 C 280 125.502, 280.255 125, 282.250 125.002 C 284.387 125.004, 284.483 124.678, 284.165 118.502 C 283.834 112.089, 283.865 112, 286.415 112 C 289.309 112, 289.826 110.562, 287.416 109.213 C 286.171 108.516, 285.826 106.529, 285.804 99.913 L 285.775 91.500 289.137 91.211 C 295.079 90.702, 295.219 90.414, 291.998 85.336 C 288.578 79.943, 288.289 78.284, 290.687 77.822 C 292.072 77.555, 291.781 76.820, 289.062 73.723 C 286.727 71.063, 285.627 68.703, 285.335 65.725 C 284.955 61.844, 285.187 61.337, 288.173 59.500 C 295.615 54.923, 297.777 47.312, 294.083 38.693 C 291.710 33.159, 290.404 32.253, 289.572 35.567 C 288.834 38.508, 280.732 47, 278.665 47 C 277.901 47, 274.299 45.650, 270.660 44 C 262.531 40.314, 258.027 40.218, 247.712 43.513 C 243.428 44.881, 239.256 46, 238.440 46 C 236.055 46, 228.483 38.398, 226.510 34.022 C 225.512 31.810, 224.293 30, 223.799 30 C 223.306 30, 222.034 31.913, 220.973 34.250 M 290.392 45.008 C 289.837 45.563, 286.883 46.895, 283.827 47.970 C 278.321 49.905, 278.236 49.905, 274.454 47.976 C 272.354 46.906, 270.475 46.192, 270.278 46.389 C 270.080 46.586, 270.802 48.267, 271.882 50.124 C 273.998 53.763, 276.466 61.918, 277.521 68.753 C 278.545 75.393, 275.662 73.218, 274.160 66.217 C 271.137 52.127, 269.774 51.180, 250.222 49.582 C 242.075 48.916, 234.754 48.028, 233.954 47.609 C 233.154 47.190, 233.545 47.768, 234.821 48.892 C 236.098 50.016, 238.798 51.213, 240.821 51.551 C 254.699 53.872, 260.617 56.725, 265.091 63.248 C 266.318 65.036, 268.459 67.737, 269.848 69.250 L 272.374 72 266.937 72.118 C 262.269 72.220, 254.512 73.486, 256 73.904 C 256.275 73.981, 263.017 74.673, 270.982 75.442 C 286.285 76.919, 290.562 76.406, 285.419 73.711 C 282.701 72.287, 282.441 71.618, 281.484 63.593 L 280.461 55 283.654 55 C 288.080 55, 293 50.742, 293 46.911 C 293 43.898, 292.134 43.266, 290.392 45.008 M 346 72.760 C 370.638 91.525, 385.497 134.435, 383.655 181.500 C 382.535 210.123, 375.325 232.997, 363.552 245.285 C 361.067 247.878, 359.434 250, 359.924 250 C 361.472 250, 369.387 240.545, 372.260 235.265 C 376.894 226.748, 381.865 209.858, 383.609 196.708 C 386.767 172.886, 383.986 139.340, 377.113 118.335 C 372.653 104.704, 365.157 90.699, 357.562 81.809 C 354.084 77.737, 344.707 69.973, 343.357 70.047 C 342.886 70.073, 344.075 71.294, 346 72.760 M 264.500 81.097 C 271.003 83.234, 288.053 86.281, 288.880 85.454 C 289.160 85.174, 288.450 84.005, 287.302 82.858 C 284.632 80.188, 278.796 79.082, 267.500 79.106 L 258.500 79.126 264.500 81.097 M 272.188 94.063 C 272.428 94.784, 273.216 95.572, 273.938 95.813 C 274.688 96.063, 275.063 95.688, 274.813 94.938 C 274.572 94.216, 273.784 93.428, 273.063 93.188 C 272.313 92.938, 271.938 93.313, 272.188 94.063 M 262.500 102 C 262.160 102.550, 262.584 103, 263.441 103 C 264.298 103, 265 102.550, 265 102 C 265 101.450, 264.577 101, 264.059 101 C 263.541 101, 262.840 101.450, 262.500 102 M 272.500 102 C 272.840 102.550, 273.991 103, 275.059 103 C 276.127 103, 277 102.550, 277 102 C 277 101.450, 275.848 101, 274.441 101 C 272.990 101, 272.149 101.433, 272.500 102 M 273 109 C 273 110.467, 273.667 111, 275.500 111 C 278.477 111, 278.767 109.481, 276.066 108.035 C 273.377 106.596, 273 106.715, 273 109 M 264 109.969 C 264 110.501, 264.675 110.678, 265.500 110.362 C 266.325 110.045, 267 109.609, 267 109.393 C 267 109.177, 266.325 109, 265.500 109 C 264.675 109, 264 109.436, 264 109.969 M 273 116.930 C 273 118.487, 273.638 119, 275.573 119 C 278.856 119, 278.564 115.655, 275.240 115.180 C 273.539 114.938, 273 115.359, 273 116.930 M 228.061 116.369 C 228.302 116.596, 232.775 119.007, 238 121.726 C 243.225 124.445, 251.045 128.994, 255.378 131.835 C 259.711 134.676, 263.954 137, 264.806 137 C 267.105 137, 252.690 127.317, 243.624 122.772 C 236.651 119.275, 226.877 115.254, 228.061 116.369 M 265.500 117 C 265.840 117.550, 266.541 118, 267.059 118 C 267.577 118, 268 117.550, 268 117 C 268 116.450, 267.298 116, 266.441 116 C 265.584 116, 265.160 116.450, 265.500 117 M 273.296 125.426 C 274.285 126.175, 275.967 126.560, 277.035 126.281 C 279.936 125.522, 278.345 123.995, 274.691 124.032 C 271.783 124.061, 271.659 124.185, 273.296 125.426 M 221.500 128.155 C 218.593 129.745, 217 132.059, 217 134.691 C 217 136.918, 217.292 136.999, 225.250 136.978 C 231.399 136.962, 234.646 136.434, 238 134.907 C 242.299 132.950, 242.412 132.793, 240.517 131.399 C 238.040 129.575, 229.489 126.990, 226.068 127.030 C 224.656 127.047, 222.600 127.553, 221.500 128.155 M 346.238 137.774 C 343.343 139.232, 341.124 140.872, 341.306 141.417 C 341.487 141.962, 343.076 142.781, 344.836 143.237 C 348.825 144.271, 353.582 150.568, 354.506 156.037 C 355.280 160.616, 357.352 161.222, 361.139 157.977 L 363.500 155.955 359.622 156.613 C 354.645 157.457, 354.998 155.287, 360.246 152.778 C 364.866 150.569, 366.351 148.453, 362.649 149.355 C 361.192 149.710, 358.875 150.277, 357.500 150.617 C 353.124 151.696, 354.614 148.586, 359.643 146.143 C 363.231 144.399, 364.016 143.616, 363.097 142.697 C 362.179 141.779, 361.023 142.018, 358.011 143.751 C 355.528 145.180, 353.881 145.616, 353.471 144.953 C 352.626 143.586, 354.813 141.022, 357.790 139.890 C 360.538 138.845, 360.214 136.336, 357.396 136.837 C 356.353 137.022, 354.510 138.091, 353.301 139.213 C 351.867 140.543, 350.475 141.008, 349.301 140.549 C 347.702 139.925, 347.837 139.575, 350.500 137.428 C 354.361 134.316, 352.857 134.438, 346.238 137.774 M 253 138.330 C 253 138.582, 256.687 142.098, 261.193 146.144 C 269.511 153.613, 270.255 153.693, 264.477 146.500 C 261.769 143.128, 253 136.886, 253 138.330 M 237.695 140.700 C 236.702 140.957, 236.050 141.468, 236.247 141.834 C 236.444 142.200, 237.391 144.225, 238.351 146.333 C 239.825 149.569, 240.330 149.971, 241.603 148.915 C 244.275 146.697, 245.155 144.159, 244 142 C 242.959 140.056, 241.411 139.737, 237.695 140.700 M 251.375 145.125 C 251.719 146.844, 252 150.187, 252 152.554 C 252 158.393, 253.945 160.184, 259.871 159.800 C 264.106 159.526, 264.527 159.263, 264.820 156.714 C 265.082 154.428, 264.046 152.859, 259.044 147.964 C 252.095 141.164, 250.462 140.560, 251.375 145.125 M 268 143.520 C 268 144.560, 272.790 151.544, 274.620 153.172 C 277.586 155.811, 281.458 156.399, 283.356 154.501 C 285.190 152.667, 285.395 151.172, 284.094 149.118 C 283.406 148.032, 283.074 148.193, 282.542 149.868 C 281.690 152.553, 279.654 152.568, 275.368 149.918 C 273.046 148.483, 272 147.086, 272 145.418 C 272 143.667, 271.449 143, 270 143 C 268.900 143, 268 143.234, 268 143.520 M 280 144.500 C 280 145.325, 280.450 146, 281 146 C 281.550 146, 282 145.325, 282 144.500 C 282 143.675, 281.550 143, 281 143 C 280.450 143, 280 143.675, 280 144.500 M 275 145.500 C 275 145.775, 275.863 146.863, 276.917 147.917 C 279.312 150.312, 280.607 149.329, 278.347 146.831 C 276.785 145.105, 275 144.395, 275 145.500 M 335.660 152.482 C 334.178 153.965, 334.454 157.544, 336.130 158.580 C 337.537 159.450, 340.756 158.078, 341.430 156.321 C 343.073 152.041, 338.887 149.256, 335.660 152.482 M 215.325 160.750 C 207.105 169.323, 205.637 172.083, 206.276 177.753 C 207.088 184.956, 208.284 185.129, 214.622 178.958 C 221.359 172.399, 224.977 165.348, 224.990 158.750 C 225.004 152.144, 223.222 152.513, 215.325 160.750 M 290.872 155.655 C 287.258 160.014, 279.602 160.751, 274.265 157.254 C 271.654 155.544, 271.330 156.598, 273.508 159.708 C 275.609 162.707, 284.974 164.624, 290.069 163.098 C 294.311 161.826, 295.357 160.068, 293.997 156.491 C 292.877 153.546, 292.668 153.490, 290.872 155.655 M 325.772 159.057 L 322.044 161.025 323.716 164.531 C 324.636 166.460, 325.638 167.893, 325.944 167.716 C 326.250 167.539, 328.179 166.628, 330.231 165.692 L 333.962 163.989 332.296 160.494 C 331.379 158.573, 330.375 157.020, 330.065 157.044 C 329.754 157.069, 327.822 157.974, 325.772 159.057 M 267.121 172.169 C 264.146 173.642, 261.201 176.436, 257.929 180.892 C 255.281 184.498, 253.279 187.612, 253.480 187.813 C 253.680 188.014, 256.430 186.268, 259.591 183.933 C 266.823 178.590, 275.273 174.299, 280.199 173.466 C 286.979 172.321, 284.279 169.999, 276.168 170.001 C 273.395 170.001, 269.723 170.881, 267.121 172.169 M 292.374 173.467 C 291.397 176.013, 293.494 180.476, 295.828 180.820 C 298.302 181.184, 298.550 179.876, 296.902 175.149 C 295.753 171.854, 293.338 170.956, 292.374 173.467 M 198.445 178.362 C 197.276 183.019, 198.354 187.381, 201 188.704 C 203.231 189.819, 203.535 189.738, 203.823 187.953 C 204.226 185.451, 201.156 176, 199.939 176 C 199.443 176, 198.771 177.063, 198.445 178.362 M 275.794 180.529 C 274.012 181.509, 272.875 183.147, 272.468 185.321 C 271.754 189.125, 273.507 206.572, 274.996 210.489 C 275.548 211.942, 276 213.504, 276 213.960 C 276 215.158, 270.655 213.719, 261.631 210.090 C 254.278 207.134, 253.606 207.028, 251.381 208.486 C 250.071 209.344, 249 210.421, 249 210.879 C 249 211.337, 253.613 213.866, 259.250 216.498 C 267.623 220.408, 270.809 221.373, 276.645 221.767 C 283.440 222.226, 283.872 222.125, 285.454 219.711 C 287.071 217.242, 287.019 217.042, 283.559 212.509 C 279.774 207.551, 279.100 203.626, 280.933 197.233 C 281.447 195.443, 281.974 190.721, 282.106 186.739 C 282.320 180.248, 282.146 179.476, 280.423 179.270 C 279.365 179.143, 277.282 179.710, 275.794 180.529 M 215.250 186.102 C 212.912 188.463, 211 190.950, 211 191.629 C 211 192.308, 212.351 193.826, 214.002 195.001 C 218.618 198.288, 219.600 200.793, 217.162 203.064 C 214.480 205.562, 213.627 213.022, 214.202 228.948 C 214.540 238.304, 215.078 242.273, 216.230 243.918 C 217.763 246.107, 217.898 245.946, 222.270 236.717 C 224.729 231.526, 227.250 226.964, 227.871 226.580 C 228.492 226.196, 229 224.628, 229 223.096 C 229 221.564, 229.870 219.523, 230.933 218.561 C 231.995 217.599, 232.609 216.146, 232.297 215.332 C 231.985 214.517, 232.298 212.127, 232.993 210.020 C 235.240 203.212, 232.694 196.954, 223.286 186.155 L 219.500 181.809 215.250 186.102 M 260.710 194.440 C 255.068 200.888, 254.129 202.450, 255.153 203.684 C 256.677 205.520, 270.014 212.320, 270.715 211.618 C 270.996 211.338, 270.715 208.946, 270.092 206.304 C 269.469 203.662, 268.631 198.166, 268.229 194.091 L 267.500 186.682 260.710 194.440 M 195.500 193 C 195.840 193.550, 197.554 194.015, 199.309 194.033 C 201.064 194.051, 204.842 194.875, 207.705 195.864 C 213.734 197.947, 213.683 196.668, 207.627 193.918 C 203.251 191.931, 194.427 191.263, 195.500 193 M 206.758 211.196 C 205.994 216.399, 208.275 244.608, 209.563 245.896 C 210.945 247.278, 211.809 244.087, 211.011 240.549 C 210.521 238.377, 209.804 230.377, 209.418 222.771 C 208.734 209.289, 207.699 204.785, 206.758 211.196 M 249.500 224.778 C 251.784 227.021, 278.204 240, 280.488 240 C 281.852 240, 284.303 238.762, 285.935 237.250 C 289.203 234.220, 290.519 230.200, 288 230.941 C 282 232.705, 276.160 232.027, 266.500 228.446 C 256.573 224.766, 247.495 222.807, 249.500 224.778 M 246.701 241.250 C 244.614 244.688, 243.833 246.375, 244.965 245 C 252.051 236.395, 253.004 235, 251.804 235 C 251.084 235, 248.787 237.813, 246.701 241.250 M 255.864 244.006 C 251.515 249.826, 249.351 257.033, 246.476 275.280 C 245.952 278.604, 247.216 279.248, 257.500 280.905 C 275.074 283.735, 280.863 284.253, 287.250 283.566 C 293.776 282.865, 294 282.749, 294 280.083 C 294 276.798, 289.139 250.033, 288.294 248.666 C 287.364 247.162, 285.324 251.899, 283.027 260.893 C 280.599 270.404, 278.133 277, 277.005 277 C 276.578 277, 275.248 271.742, 274.050 265.316 C 272.853 258.889, 271.197 252.027, 270.371 250.066 C 268.926 246.633, 268.815 246.574, 267.407 248.479 C 266.603 249.568, 264.564 254.968, 262.877 260.479 C 261.190 265.991, 259.484 270.846, 259.085 271.269 C 258.687 271.692, 258.559 265.840, 258.801 258.264 C 259.376 240.243, 259.225 239.507, 255.864 244.006 M 297.070 245 C 296.971 245.766, 309.730 277.064, 310.424 277.758 C 310.759 278.093, 311.417 277.947, 311.886 277.433 C 312.374 276.899, 309.401 269.656, 304.936 260.500 C 300.645 251.700, 297.105 244.725, 297.070 245 M 213.500 251 C 212.063 252.588, 211.990 253, 213.145 253 C 214.714 253, 217 251.102, 217 249.800 C 217 248.383, 215.359 248.946, 213.500 251 M 223.566 258.150 C 224.009 258.893, 225.747 261.300, 227.426 263.500 C 229.105 265.700, 230.596 267.688, 230.740 267.917 C 230.883 268.146, 231.291 268.042, 231.646 267.687 C 232.581 266.752, 227.410 259.290, 224.893 257.943 C 223.162 257.016, 222.911 257.055, 223.566 258.150 M 216.688 260.646 C 214.201 263.132, 218.110 270.663, 221.259 269.454 C 223.361 268.647, 223.359 268.416, 221.202 264.073 C 219.469 260.584, 217.923 259.410, 216.688 260.646 M 243.390 286.765 C 240.110 288.935, 235 305.641, 235 314.192 C 235 319.254, 236.931 325.221, 238.979 326.487 C 242.452 328.633, 253.074 310.809, 255.199 299.270 C 256.243 293.596, 256.174 292.847, 254.423 290.882 C 252.663 288.907, 247.163 285.978, 245.282 286.015 C 244.852 286.024, 244 286.361, 243.390 286.765 M 301.773 298.759 C 300.979 301.795, 301.926 305, 303.617 305 C 305.307 305, 305.312 303.442, 303.635 299.509 C 302.416 296.650, 302.333 296.617, 301.773 298.759 M 328.370 326.250 C 327.282 327.488, 324.512 330.975, 322.214 334 C 319.917 337.025, 316.811 341.075, 315.313 343 L 312.589 346.500 316.360 343 C 320.744 338.931, 332.383 324, 331.171 324 C 330.718 324, 329.458 325.012, 328.370 326.250 M 235.313 340.908 C 230.868 343.057, 226.936 345.294, 226.575 345.878 C 226.215 346.462, 229.425 345.266, 233.710 343.220 C 239.911 340.259, 242.675 339.500, 247.260 339.500 C 252.109 339.500, 252.751 339.302, 251.319 338.250 C 248.376 336.088, 243.662 336.871, 235.313 340.908 M 304 353.941 C 304 354.459, 304.450 355.160, 305 355.500 C 305.550 355.840, 306 355.416, 306 354.559 C 306 353.702, 305.550 353, 305 353 C 304.450 353, 304 353.423, 304 353.941 M 311 431.500 C 309.947 432.768, 310.160 433, 312.378 433 C 314.042 433, 315 432.452, 315 431.500 C 315 430.675, 314.380 430, 313.622 430 C 312.865 430, 311.685 430.675, 311 431.500 M 319.872 440.313 C 321.373 442.157, 324 442.595, 324 441 C 324 440.450, 323.587 440, 323.082 440 C 322.577 440, 321.339 439.691, 320.332 439.313 C 318.719 438.708, 318.664 438.828, 319.872 440.313 M 328.441 446.468 C 326.597 447.863, 326.653 447.938, 329.559 447.968 C 331.241 447.986, 333.491 447.339, 334.559 446.532 C 336.403 445.137, 336.347 445.062, 333.441 445.032 C 331.759 445.014, 329.509 445.661, 328.441 446.468 M 192 447.893 C 192 449.002, 195.076 450.257, 195.864 449.469 C 196.182 449.151, 195.780 448.473, 194.971 447.961 C 193.101 446.778, 192 446.753, 192 447.893 M 193.500 459 C 193.840 459.550, 195.216 460, 196.559 460 C 197.902 460, 199 459.550, 199 459 C 199 458.450, 197.623 458, 195.941 458 C 194.156 458, 193.139 458.417, 193.500 459 M 198 467.824 L 194.500 469.485 199.216 469.796 C 203.922 470.106, 208 468.792, 208 466.965 C 208 465.459, 201.875 465.985, 198 467.824" stroke="none" fill="black" fill-rule="evenodd"/>
</svg>