<svg xmlns="http://www.w3.org/2000/svg" width="512" height="512" viewBox="0 0 512 512" version="1.1">
	<path d="M 227.198 13.570 C 181.978 20.159, 134.805 41.866, 99.264 72.441 C 70.293 97.363, 44.720 133.954, 31.581 169.283 C 9.532 228.570, 10.213 287.485, 33.628 346.500 C 46.035 377.770, 61.792 402.366, 84.498 425.906 C 105.142 447.308, 125.918 462.533, 151.500 475.007 C 175.544 486.731, 197.945 493.760, 223.500 497.597 C 238.552 499.857, 273.898 500.148, 288 498.128 C 325.887 492.699, 366.547 475.634, 398.756 451.641 C 412.521 441.388, 437.412 416.513, 447.429 403 C 471.602 370.390, 488.462 330.377, 494.620 291 C 497.337 273.628, 497.109 239.895, 494.156 222.500 C 489.361 194.248, 482.609 173.108, 470.523 148.500 C 456.572 120.095, 444.040 102.872, 421.404 80.995 C 383.673 44.527, 335.196 20.957, 282.500 13.460 C 269.966 11.676, 239.784 11.736, 227.198 13.570 M 228.500 41.572 C 210.348 44.350, 193.082 49.375, 175 57.141 C 157.741 64.554, 158.552 62.741, 166.010 77.224 C 174.617 93.940, 214.799 166.132, 216.370 167.704 C 216.512 167.846, 220.574 166.620, 225.396 164.980 C 230.218 163.339, 235.899 161.720, 238.020 161.381 C 240.141 161.042, 242.138 160.083, 242.457 159.251 C 244.773 153.216, 252.959 64.624, 252.991 45.250 L 253 40 245.250 40.097 C 240.988 40.150, 233.450 40.814, 228.500 41.572 M 257.519 40.970 C 256.329 42.895, 257.847 76.388, 260.512 107 C 265.250 161.436, 265.169 160.988, 270.321 161.009 C 271.520 161.014, 277 162.580, 282.500 164.488 C 288 166.397, 292.968 167.968, 293.540 167.979 C 294.112 167.991, 297.681 162.488, 301.471 155.750 C 305.260 149.012, 315.629 131.350, 324.512 116.500 C 342.257 86.834, 352 69.170, 352 66.662 C 352 62.186, 313.604 47.698, 289.329 43.013 C 275.401 40.325, 258.585 39.245, 257.519 40.970 M 144.211 73.267 C 138.552 76.695, 130.242 82.200, 125.745 85.500 C 115.480 93.031, 97.503 110.817, 88.722 122.128 C 80.620 132.565, 68 152.662, 68 155.127 C 68 157.261, 72.159 159.303, 109.500 175.499 C 124.350 181.939, 145.035 191.223, 155.467 196.128 C 165.898 201.034, 174.946 204.851, 175.573 204.610 C 176.859 204.117, 188 188.526, 188 187.220 C 188 184.960, 169.678 160.099, 148.224 133.250 C 126.255 105.755, 160.437 136.671, 187.197 168.500 C 195.742 178.663, 199.172 180.801, 199.805 176.360 C 199.973 175.184, 194.533 160.784, 187.715 144.360 C 173.206 109.404, 173.299 109.639, 166.805 91.550 C 160.309 73.452, 157.414 66.996, 155.805 67.017 C 155.087 67.027, 149.870 69.839, 144.211 73.267 M 354.427 71.250 C 352.901 76.107, 338.169 109.804, 326.776 134.500 C 313.331 163.646, 308.588 174.922, 309.424 175.758 C 310.819 177.152, 315.774 173.034, 334.188 155.177 C 355.575 134.436, 372 121.147, 372 124.584 C 372 124.905, 366.865 130.642, 360.590 137.334 C 341.333 157.867, 323.792 179.996, 322.411 185.499 C 322.012 187.089, 323.395 189.823, 327.472 195.506 C 330.558 199.807, 333.443 203.969, 333.883 204.755 C 334.539 205.927, 335.929 205.559, 341.591 202.716 C 352.768 197.104, 370.269 189.692, 407.500 174.802 C 426.750 167.103, 443.122 160.210, 443.882 159.485 C 445.050 158.369, 444.612 156.956, 441.047 150.333 C 424.607 119.788, 397.526 91.485, 368.107 74.100 C 358.547 68.451, 355.507 67.817, 354.427 71.250 M 63.203 164.652 C 56.493 177.974, 49.228 201.526, 46.017 220.364 C 43.405 235.689, 42.327 251.466, 43.829 252.394 C 45.217 253.252, 63.506 251.745, 99 247.847 C 114.125 246.185, 134.886 244.579, 145.136 244.276 L 163.773 243.726 165.840 233.613 L 167.908 223.500 165.704 221.661 C 158.829 215.924, 71.338 162.424, 66.958 161.279 C 65.626 160.931, 64.623 161.832, 63.203 164.652 M 442.194 166.156 C 422.693 173.600, 343.018 219.592, 342.993 223.420 C 342.989 224.014, 343.933 228.613, 345.091 233.640 L 347.196 242.780 355.848 243.439 C 381.328 245.382, 416.978 251.310, 447.282 258.644 C 457.612 261.144, 466.793 262.910, 467.684 262.568 C 469.112 262.020, 469.233 260.261, 468.707 247.723 C 468.020 231.358, 464.709 212.027, 459.577 194.418 C 455.743 181.261, 451.310 169.445, 449 166.223 L 447.500 164.131 442.194 166.156 M 244 199.446 C 229.542 203.516, 217.503 212.587, 210.244 224.880 C 202.889 237.336, 200.013 255.749, 203.376 268.841 C 207.398 284.496, 218.839 299.390, 231.883 305.952 C 263.887 322.052, 302.134 301.615, 308.573 264.972 C 310.305 255.121, 309.797 248.830, 306.389 237.922 C 300.976 220.594, 285.777 205.104, 269.145 199.964 C 261.867 197.715, 250.948 197.490, 244 199.446 M 247 223.549 C 231.012 227.949, 220.799 243.416, 223.851 258.610 C 226.019 269.408, 232.622 278.707, 241.285 283.163 C 247.585 286.404, 258.835 286.824, 266.079 284.090 C 278.395 279.441, 285.032 270.113, 285.789 256.388 C 286.188 249.145, 285.942 247.621, 283.489 242.154 C 276.906 227.485, 261.409 219.583, 247 223.549 M 53.189 256.937 C 47.560 257.373, 44.576 258.052, 43.943 259.040 C 42.221 261.731, 44.902 287.854, 48.645 304.848 C 53.240 325.713, 64.999 356, 68.505 356 C 70.360 356, 73.140 354.163, 95.500 338.159 C 111.186 326.932, 149.721 301.185, 162.006 293.724 C 167.710 290.259, 168.170 289.723, 167.582 287.224 C 167.229 285.726, 166.228 280.225, 165.357 275 C 164.487 269.775, 163.592 264.488, 163.368 263.250 C 162.988 261.147, 162.458 260.999, 155.231 260.992 C 150.979 260.988, 138.500 260.332, 127.500 259.534 C 116.500 258.737, 100.975 257.832, 93 257.523 C 85.025 257.215, 74.675 256.812, 70 256.628 C 65.325 256.444, 57.760 256.583, 53.189 256.937 M 358.318 260.745 L 348.135 261.068 347.539 266.784 C 347.211 269.928, 346.282 276.064, 345.475 280.420 C 344.668 284.776, 344.118 288.439, 344.254 288.559 C 344.389 288.679, 348.775 291.357, 354 294.509 C 373.725 306.408, 408.179 330.064, 424.132 342.660 C 434.582 350.912, 442.182 356, 444.057 356 C 445.275 356, 446.969 353.282, 449.822 346.750 C 459.540 324.499, 464.908 305.321, 467.621 283.160 C 469.132 270.818, 469.173 268.744, 467.931 267.504 C 465.968 265.542, 444.905 262.333, 425.595 261.054 C 410.932 260.082, 383.197 259.955, 358.318 260.745 M 332.477 310.250 C 330.943 312.587, 327.647 317.113, 325.152 320.306 L 320.617 326.112 346.792 352.306 C 371.961 377.494, 379.574 385.759, 378.547 386.786 C 377.622 387.711, 342.974 359.799, 323 342.037 C 313.711 333.777, 313.508 333.658, 310.973 335.015 C 309.450 335.829, 309.083 336.686, 309.582 338.259 C 309.955 339.434, 316.103 352.569, 323.244 367.448 C 330.385 382.327, 338.920 400.575, 342.210 408 C 352.424 431.048, 358.951 444, 360.353 444 C 362.261 444, 379.101 433.734, 388 427.147 C 404.308 415.075, 425.243 391.683, 436.166 373.329 C 443.341 361.272, 443.512 362.182, 432.779 355.252 C 420.115 347.076, 406.703 339.429, 387.601 329.496 C 370.105 320.397, 338.886 306, 336.654 306 C 335.890 306, 334.011 307.913, 332.477 310.250 M 152.447 317.348 C 107.978 338.181, 70.997 358.831, 71.002 362.827 C 71.005 365.187, 79.744 379.436, 88.186 390.843 C 101.700 409.102, 123.474 428.466, 144.068 440.540 C 150.869 444.527, 152.350 445.058, 153.411 443.889 C 154.105 443.125, 158.528 433.500, 163.241 422.500 C 167.955 411.500, 178.206 388.346, 186.022 371.047 C 200.551 338.888, 200.774 338.152, 196.715 335.592 C 195.350 334.731, 193.266 336.448, 184.665 345.525 C 174.811 355.924, 147.747 381.388, 143.053 384.676 C 136.006 389.611, 143.183 379.727, 167.529 350.966 C 181.618 334.321, 188.023 325.976, 187.978 324.320 C 187.966 323.869, 187.047 322.375, 185.937 321 C 184.826 319.625, 182.120 315.913, 179.922 312.750 C 177.724 309.587, 175.605 307.004, 175.213 307.008 C 174.821 307.013, 164.576 311.665, 152.447 317.348 M 204.805 361.750 C 199.513 370.962, 189.914 387.500, 183.472 398.500 C 170.546 420.575, 158.666 442.251, 157.560 445.783 C 156.901 447.885, 157.663 448.449, 167.172 452.901 C 192.362 464.694, 224.672 473, 245.359 473 C 251.709 473, 251.991 472.895, 252.731 470.250 C 254.162 465.133, 253.269 433.621, 251.081 412 C 249.884 400.175, 248.273 382.445, 247.501 372.599 C 246.729 362.753, 245.687 354.287, 245.184 353.784 C 244.682 353.282, 241.001 352.194, 237.006 351.367 C 233.010 350.540, 226.707 348.769, 222.999 347.432 C 219.292 346.094, 215.846 345, 215.342 345 C 214.839 345, 210.097 352.538, 204.805 361.750 M 287.500 347.158 C 284.750 348.285, 278.289 350.258, 273.143 351.543 C 267.997 352.829, 263.588 354.079, 263.345 354.322 C 262.741 354.925, 260.719 387.809, 258.067 440.126 C 257.159 458.026, 258.012 471.769, 260.111 473.073 C 260.875 473.548, 263.075 473.743, 265 473.506 C 266.925 473.269, 272.062 472.808, 276.415 472.481 C 285.099 471.829, 299.337 469.108, 311 465.872 C 326.845 461.476, 355 449.221, 355 446.721 C 355 444.849, 331.045 403.239, 314.713 376.742 C 306.834 363.959, 299.317 351.587, 298.010 349.250 C 295.326 344.453, 294.502 344.289, 287.500 347.158" stroke="none" fill="black" fill-rule="evenodd"/>
</svg>