<svg xmlns="http://www.w3.org/2000/svg" width="512" height="512" viewBox="0 0 512 512" version="1.1">
	<path d="M 234.487 9.381 C 231.857 12.129, 228.067 14.563, 223.487 16.446 C 195.403 27.991, 184.285 33.661, 175.589 40.869 C 165.148 49.524, 159.961 58.249, 152.026 80.500 C 147.418 93.420, 144.165 100.341, 138.629 109 C 136.356 112.556, 135.456 114.845, 136.082 115.475 C 136.615 116.012, 140.439 116.728, 144.581 117.067 C 155.152 117.931, 155.357 118.227, 156.141 133.786 C 156.493 140.779, 157.270 148.300, 157.867 150.500 C 158.464 152.700, 158.963 157.333, 158.976 160.797 C 158.999 166.814, 158.863 167.169, 155.902 168.797 C 149.556 172.285, 148 174.001, 148 177.507 C 148 182.215, 149.357 185.283, 153.438 189.800 C 157.225 193.992, 160.942 201.242, 160.978 204.507 C 160.997 206.275, 160.463 206.472, 156.496 206.156 C 152.513 205.839, 151.653 206.160, 149.069 208.926 C 147.462 210.646, 145.847 213.422, 145.479 215.095 C 144.619 219.011, 143.291 219.441, 136.017 218.160 C 122.108 215.710, 106.094 221.894, 94.403 234.229 C 83.968 245.240, 79.849 254.437, 73.998 279.789 C 70.719 293.997, 64.846 307.179, 57.746 316.270 C 56.126 318.343, 55.049 320.687, 55.353 321.478 C 56.402 324.210, 66.863 330.182, 76.127 333.337 C 91.012 338.406, 92.507 342.424, 86.835 362.112 C 83.972 372.048, 83.818 373.246, 85.223 374.652 C 86.209 375.638, 92.214 377.076, 101.639 378.584 C 132.676 383.550, 135.484 384.087, 137.559 385.447 C 139.402 386.654, 139.854 388.446, 140.887 398.641 C 142.749 417.005, 147.932 429.338, 160.191 444.578 C 175.956 464.175, 207.520 485.338, 244.350 501.005 L 254.200 505.195 260.350 503.001 C 272.100 498.809, 304.572 482.136, 316.874 473.979 C 337.432 460.348, 354.152 442.211, 361.521 425.548 C 364.743 418.262, 366.923 409.487, 368.085 399.129 C 368.617 394.383, 369.298 389.705, 369.599 388.733 C 370.881 384.590, 378.638 382.584, 415.292 376.917 C 420.515 376.109, 423.360 375.183, 423.922 374.106 C 424.451 373.093, 423.856 369.544, 422.312 364.500 C 420.377 358.178, 419.952 354.965, 420.286 349.184 C 420.831 339.741, 422.592 337.316, 431.368 333.925 C 440.555 330.375, 444.844 327.806, 449.394 323.126 L 453.288 319.121 447.256 312.538 C 437.665 302.072, 434.507 294.995, 426.534 266.101 C 417.543 233.521, 395.282 214.622, 370.027 218.127 C 365.887 218.701, 362.113 219.245, 361.641 219.336 C 361.168 219.426, 360.151 217.730, 359.380 215.566 C 357.138 209.277, 352.038 204.995, 346.800 205.004 C 344.471 205.008, 338.898 207.960, 336.284 210.573 C 334.034 212.823, 331.040 212.254, 328 209 C 326.097 206.963, 324.240 206, 322.214 206 C 320.104 206, 318.731 205.238, 317.526 203.400 C 315.991 201.057, 315.397 200.863, 311.529 201.443 C 307.622 202.029, 306.918 201.789, 303.717 198.769 C 299.774 195.051, 298.593 191.555, 297.046 179.026 C 295.667 167.852, 295.769 157.863, 297.282 156 C 297.952 155.175, 301.116 152.304, 304.313 149.619 C 313.738 141.705, 313.479 143.044, 309.462 122.960 C 301.189 81.593, 289.487 56.942, 268.873 37.451 C 264.772 33.574, 257.945 28.238, 253.701 25.593 C 248.008 22.044, 245.833 20.090, 245.409 18.141 C 243.919 11.291, 240.882 4.880, 239.227 5.094 C 238.827 5.146, 236.694 7.075, 234.487 9.381 M 228 24.109 C 203.858 36.863, 192.062 48.032, 183.488 66.256 C 179.813 74.067, 175 89.653, 175 93.743 C 175 96.108, 175.228 96.220, 178.750 95.578 C 197.390 92.177, 224.811 92.203, 236.500 95.631 C 240.198 96.715, 229.191 86.516, 222.044 82.235 C 215.946 78.582, 200.038 71.304, 194.465 69.618 C 192.021 68.878, 190.546 71.140, 186.556 81.743 C 183.947 88.676, 182 91.669, 182 88.747 C 182 86.346, 187.826 70.035, 190.834 64.017 C 193.637 58.406, 199.700 50, 200.943 50 C 201.277 50, 201.539 52.587, 201.525 55.750 L 201.500 61.500 215.196 68.622 C 223.042 72.701, 232.416 78.549, 237.139 82.311 C 241.675 85.924, 245.680 88.698, 246.041 88.475 C 246.401 88.252, 246.977 84.117, 247.321 79.285 C 247.665 74.453, 248.705 68.276, 249.633 65.558 C 251.588 59.827, 258.278 52.752, 263.540 50.849 C 265.443 50.161, 267 49.229, 267 48.777 C 267 48.325, 265.131 45.928, 262.848 43.451 C 257.209 37.333, 244.711 31.171, 236 30.213 L 229.500 29.499 234.500 26.573 C 239.716 23.520, 241.914 21.365, 241.968 19.250 C 242.023 17.095, 239.835 17.857, 228 24.109 M 216.571 44.571 C 214.090 47.052, 214.591 50.857, 217.578 52.217 C 220.833 53.700, 223.380 52.292, 223.804 48.775 C 224.124 46.120, 221.799 43, 219.500 43 C 218.754 43, 217.436 43.707, 216.571 44.571 M 261.212 70.188 C 259.614 71.786, 259.672 73.660, 261.341 74.300 C 263.330 75.064, 265.246 73.514, 264.848 71.463 C 264.408 69.189, 262.782 68.618, 261.212 70.188 M 186.500 100.625 C 166.533 105.350, 164.354 105.533, 149.500 103.741 C 146.824 103.418, 146.092 107.596, 148.692 108.358 C 159.093 111.408, 169.636 111.626, 179.776 109.001 C 186.092 107.366, 191.328 106.956, 208.500 106.751 C 232.792 106.461, 236.599 107.254, 244.564 114.265 C 252.033 120.839, 252.952 123.855, 252.978 141.849 C 253.009 163.792, 254.112 162.270, 228.500 175.655 L 213.500 183.494 201 183.295 C 194.125 183.186, 184.675 182.398, 180 181.544 C 158.113 177.546, 158.060 177.540, 156.776 178.824 C 154.351 181.249, 157.345 183.424, 165.394 185.088 C 169.618 185.961, 173.463 187.086, 173.936 187.588 C 174.410 188.089, 175.758 192.047, 176.932 196.383 C 179.025 204.111, 184.220 218.681, 188.157 227.866 L 190.143 232.500 192.822 229.367 C 197.272 224.160, 207.098 216.849, 213.961 213.637 C 219.115 211.226, 221.770 210.610, 226.968 210.620 C 230.561 210.628, 234.156 210.829, 234.957 211.067 C 236.662 211.574, 239.194 203.289, 238.765 198.610 L 238.500 195.720 234.043 199.454 C 231.592 201.508, 225.517 205.229, 220.543 207.724 C 209.378 213.325, 203.845 216.987, 197.884 222.721 L 193.268 227.161 189.682 218.597 C 185.203 207.895, 181 194.705, 181 191.347 C 181 188.809, 181.031 188.800, 187.750 189.373 C 191.463 189.691, 198.100 190.222, 202.500 190.555 L 210.500 191.160 229 181.990 C 239.175 176.946, 249.010 171.676, 250.856 170.278 C 256.478 166.020, 257 163.468, 257 140.228 L 257 119.392 254.093 114.808 C 250.976 109.893, 245.243 105.493, 238 102.456 C 234.103 100.822, 230.485 100.542, 211 100.361 C 198.625 100.246, 187.600 100.365, 186.500 100.625 M 216.500 120.713 C 215.400 120.978, 214.108 121.565, 213.629 122.018 C 213.150 122.471, 214.712 122.403, 217.101 121.866 C 219.489 121.329, 221.643 120.690, 221.888 120.445 C 222.434 119.899, 219.220 120.059, 216.500 120.713 M 224 125.578 C 220.975 126.324, 210.850 127.659, 201.500 128.544 C 184.986 130.107, 180.641 131.157, 184.522 132.647 C 189.278 134.472, 227.870 128.558, 230.886 125.543 C 232.799 123.629, 231.881 123.634, 224 125.578 M 173.615 143.750 C 174.556 167.735, 175.197 173.417, 177 173.764 C 178.295 174.013, 178.410 172.439, 177.840 162.276 C 177.476 155.799, 177.139 145.213, 177.090 138.750 C 177.005 127.655, 176.887 127, 174.979 127 C 173.005 127, 172.973 127.391, 173.615 143.750 M 157 130.907 C 157 133.093, 168.808 133.663, 169.281 131.500 C 169.404 130.940, 166.748 130.369, 163.250 130.202 C 159.542 130.026, 157 130.312, 157 130.907 M 222.500 135.565 C 219.750 136.327, 211.443 137.882, 204.039 139.019 C 190.957 141.030, 189.147 141.480, 190.144 142.478 C 191.777 144.110, 226.488 138.253, 229.349 135.863 C 231.436 134.120, 231.441 134.068, 229.500 134.123 C 228.400 134.154, 225.250 134.803, 222.500 135.565 M 220 144.593 C 216.425 145.338, 207.070 146.255, 199.212 146.631 C 191.353 147.007, 184.658 147.744, 184.334 148.269 C 182.527 151.193, 191.106 151.229, 214.500 148.397 C 228.603 146.689, 230 146.332, 230 144.433 C 230 142.754, 228.728 142.774, 220 144.593 M 158 145.746 C 158 148.139, 168.143 150.196, 169.457 148.069 C 170.269 146.755, 169.226 146.327, 163.250 145.520 C 160.161 145.104, 158 145.196, 158 145.746 M 219.500 155.550 C 216.200 156.290, 208.775 157.392, 203 158 C 187.372 159.642, 186 159.929, 186 161.545 C 186 163.314, 185.016 163.317, 199.530 161.509 C 216.421 159.405, 227.245 157.184, 228.958 155.470 C 230.252 154.177, 230.132 154.012, 227.964 154.102 C 226.609 154.159, 222.800 154.810, 219.500 155.550 M 161 160.361 C 162.911 162.263, 170 163.656, 170 162.130 C 170 161.530, 168.875 160.805, 167.500 160.519 C 159.004 158.755, 159.396 158.765, 161 160.361 M 217.500 165.140 C 213.650 166.207, 205.362 167.850, 199.082 168.790 C 191.338 169.950, 187.513 170.953, 187.196 171.907 C 186.354 174.441, 204.738 172.466, 215.635 168.853 C 225.410 165.611, 230.368 163, 226.500 163.131 C 225.400 163.168, 221.350 164.072, 217.500 165.140 M 262.665 189.053 C 259.549 191.285, 257 193.776, 257 194.590 C 257 196.566, 259.244 195.334, 265.026 190.184 C 271.106 184.769, 269.633 184.063, 262.665 189.053 M 274.769 194.221 C 273.958 195.443, 269.066 199.399, 263.897 203.013 C 256.458 208.214, 254.434 210.147, 254.184 212.292 C 253.792 215.643, 254.288 215.649, 260.508 212.362 C 270.447 207.109, 276.437 201.066, 277.633 195.084 C 278.360 191.448, 276.902 191.009, 274.769 194.221 M 284.461 212.041 C 279.774 216.933, 272.993 220.744, 265.757 222.554 C 258.295 224.419, 250 229.118, 250 231.478 C 250 232.315, 250.275 233, 250.612 233 C 251.476 233, 269.838 226.247, 273.760 224.486 C 277.889 222.633, 285.706 215.470, 287.602 211.802 C 289.500 208.132, 288.104 208.238, 284.461 212.041 M 344.400 215.765 C 342.528 217.015, 341.297 220.275, 340.585 225.863 C 340.209 228.813, 338.748 234.106, 337.339 237.626 C 335.267 242.801, 335.013 244.311, 336.011 245.513 C 338.004 247.915, 339.309 247.279, 342.705 242.248 C 349.882 231.617, 352.653 221.957, 349.965 216.934 C 348.912 214.967, 346.389 214.437, 344.400 215.765 M 153.035 217.934 C 150.851 222.015, 152.004 227.574, 157.635 240.122 C 160.342 246.153, 161.803 247.147, 164.025 244.469 C 165.061 243.222, 164.903 240.701, 163.178 230.858 C 162.013 224.213, 160.541 218.152, 159.907 217.388 C 158.232 215.370, 154.238 215.687, 153.035 217.934 M 300.630 226.360 C 290.654 234.310, 279.374 239.559, 263.895 243.453 C 249.875 246.980, 245.206 249.789, 255.115 248.735 C 268.157 247.348, 289.453 238.418, 299.731 230.027 C 304.906 225.802, 309.153 221, 307.714 221 C 307.517 221, 304.330 223.412, 300.630 226.360 M 316.358 227.306 C 313.686 229.674, 310.012 232.648, 308.192 233.915 C 304.003 236.832, 304.719 237.702, 309.458 235.453 C 313.373 233.595, 323 225.387, 323 223.907 C 323 222.117, 321.138 223.070, 316.358 227.306 M 371.147 230.075 C 362.195 231.835, 352.097 240.392, 347.632 250 C 344.432 256.888, 344.703 267.878, 348.241 274.649 C 353.258 284.252, 363.952 290.743, 376.906 292.048 C 381.598 292.521, 386.474 293.711, 388.999 294.999 L 393.230 297.158 399.126 294.953 C 404.906 292.791, 411.713 292.595, 416.183 294.460 C 417.727 295.105, 417.711 294.652, 415.993 288.976 C 413.874 281.979, 411.660 279, 408.576 279 C 407.413 279, 403.125 280.402, 399.046 282.116 C 385.921 287.630, 371.856 286.027, 362.706 277.972 C 357.417 273.317, 355 268.674, 355 263.170 C 355 255.458, 361.065 253.276, 362.050 260.633 C 363.275 269.783, 369.523 273.955, 382 273.957 C 390.590 273.958, 400.902 270.837, 406.553 266.527 C 409.263 264.460, 410 263.188, 410 260.575 C 410 248.300, 397.518 234.128, 383.540 230.533 C 376.988 228.848, 377.325 228.860, 371.147 230.075 M 115.729 232.421 C 104.870 236.886, 96.521 245.961, 93.403 256.687 C 91.461 263.365, 92.334 265.067, 99.423 268.420 C 110.445 273.635, 122.582 274.295, 130.756 270.124 C 135.821 267.541, 138 264.569, 138 260.246 C 138 256.324, 140.361 254.932, 142.828 257.399 C 145.234 259.807, 144.826 266.758, 141.982 271.819 C 135.654 283.078, 120.605 286.867, 104.007 281.381 C 93.948 278.057, 91.530 278.549, 88.920 284.447 C 87.856 286.852, 86.694 290.282, 86.336 292.068 C 85.725 295.126, 85.827 295.276, 88.093 294.644 C 94.634 292.820, 98.663 292.859, 104.174 294.798 C 109.398 296.637, 110.027 296.670, 112.107 295.213 C 113.349 294.342, 118.573 292.834, 123.715 291.860 C 141.826 288.431, 151.217 280.011, 154.055 264.658 C 156.466 251.616, 148.271 236.490, 136.385 232.043 C 129.246 229.372, 122.859 229.489, 115.729 232.421 M 209.880 241.545 C 213.786 243.241, 224.152 246.034, 226.144 245.928 C 227.905 245.834, 209.974 240.035, 208 240.059 C 207.175 240.070, 208.021 240.738, 209.880 241.545 M 197.695 247.783 C 191.256 249.155, 204.581 255.465, 228.693 262.463 C 239.188 265.508, 248.777 268, 250.002 268 C 252.327 268, 280.824 259.800, 294.280 255.259 C 303.183 252.254, 304.557 251.144, 302.630 248.509 C 301.050 246.347, 302.931 245.938, 271.282 255.333 L 249.064 261.928 238.782 258.883 C 233.127 257.208, 223.325 254.238, 217 252.283 C 203.144 248.001, 200.053 247.281, 197.695 247.783 M 170.017 250.286 C 165.134 252.757, 164.752 261.195, 169.443 262.978 C 172.594 264.176, 178.678 262.471, 179.988 260.022 C 181.767 256.698, 181.143 253.258, 178.365 251.073 C 175.338 248.691, 173.509 248.519, 170.017 250.286 M 319.503 250.997 C 317.260 253.475, 317.305 258.574, 319.591 261.101 C 321.713 263.445, 327.659 263.628, 330.777 261.443 C 334.030 259.165, 333.816 253.787, 330.365 251.073 C 326.985 248.414, 321.873 248.378, 319.503 250.997 M 191.500 263.863 C 189.850 264.884, 186.982 267.406, 185.127 269.468 C 181.782 273.186, 181.703 273.213, 175.627 272.675 C 172.257 272.377, 168.262 271.825, 166.750 271.450 C 164.156 270.806, 164 270.959, 164 274.161 C 164 278.556, 166.127 281.491, 171.316 284.256 C 174.755 286.089, 177.116 286.487, 184.571 286.493 C 192.694 286.499, 194.250 286.187, 199.474 283.500 C 206.682 279.792, 209.455 276.279, 209.455 270.851 C 209.455 267.647, 208.866 266.282, 206.672 264.394 C 203.161 261.374, 195.933 261.121, 191.500 263.863 M 295.077 264.589 C 292.732 266.561, 292 268.002, 292 270.639 C 292 276.517, 294.356 279.558, 301.719 283.183 C 307.918 286.235, 309.217 286.500, 317.978 286.500 C 326.174 286.500, 328.078 286.169, 331.649 284.122 C 336.841 281.148, 338.461 278.269, 337.581 273.580 C 336.837 269.617, 335.200 269.099, 331 271.500 C 329.625 272.286, 326.068 272.945, 323.096 272.965 C 317.983 272.998, 317.502 272.778, 314.157 268.870 C 308.054 261.741, 300.481 260.042, 295.077 264.589 M 277.027 270.962 C 276.216 271.475, 272.504 272.641, 268.777 273.555 C 265.050 274.468, 262 275.758, 262 276.421 C 262 278.637, 267.647 283.068, 271.207 283.646 C 275.807 284.393, 278.817 282.683, 280.657 278.277 C 283.096 272.441, 281.088 268.394, 277.027 270.962 M 219.667 271.667 C 219.300 272.033, 219 273.854, 219 275.712 C 219 281.492, 225.477 286.101, 231.482 284.594 C 234.404 283.860, 241 278.319, 241 276.598 C 241 275.902, 236.915 274.481, 231.240 273.201 C 220.229 270.718, 220.570 270.763, 219.667 271.667 M 245.500 286.078 C 238.499 290.700, 227.055 295.316, 218.406 297.007 C 214.717 297.729, 206.823 298.039, 198.406 297.794 C 182.865 297.342, 176.206 295.642, 165.697 289.445 C 160.164 286.181, 159.782 286.097, 157.447 287.626 C 154.393 289.628, 154.402 290.291, 157.627 300.632 C 162.186 315.256, 159.961 328.444, 151.075 339.464 C 148.790 342.298, 148.071 344.008, 148.554 345.464 C 148.926 346.584, 149.596 360.100, 150.044 375.500 C 150.757 400.050, 151.127 404.362, 153.043 410.500 C 162.210 439.867, 187.688 462.728, 238.310 487.011 C 255.571 495.291, 252.366 495.422, 274 485.550 C 315.156 466.770, 339.783 446.918, 350.364 423.992 C 356.057 411.658, 356.885 405.254, 357.064 372.180 L 357.223 342.860 354.332 339.180 C 349.606 333.164, 348.226 330.586, 346.439 324.440 C 344.134 316.508, 344.939 305.998, 348.437 298.356 C 350.858 293.069, 350.921 292.570, 349.383 290.871 C 346.576 287.769, 344.223 287.680, 339.421 290.493 C 328.366 296.972, 312.932 299.487, 294.146 297.871 C 279.765 296.633, 269.736 293.139, 255 284.232 L 251.500 282.117 245.500 286.078 M 137.349 291.482 C 135.117 292.430, 134.001 293.717, 133.522 295.898 C 132.090 302.419, 120.344 309, 110.135 309 C 107.585 309, 102.446 308.361, 98.713 307.580 C 90.946 305.955, 87.712 306.542, 81.780 310.652 C 78.353 313.027, 74 317.876, 74 319.318 C 74 319.597, 81.762 319.638, 91.250 319.408 C 107.892 319.004, 108.700 318.887, 114.188 316.099 C 117.316 314.510, 120.129 313.462, 120.438 313.771 C 120.747 314.080, 121 315.440, 121 316.792 C 121 319.031, 121.290 319.193, 124.250 318.606 C 129.256 317.614, 136.120 312.906, 139.435 308.189 C 141.928 304.641, 142.437 302.933, 142.466 298.015 C 142.507 290.846, 141.594 289.680, 137.349 291.482 M 240.248 296.545 C 227.607 302.972, 219.591 305.120, 205.870 305.755 C 192.812 306.359, 184.174 304.963, 173.069 300.452 C 168.432 298.569, 164.513 297.153, 164.360 297.307 C 164.207 297.460, 164.786 300.266, 165.646 303.543 C 168.784 315.488, 165.977 329.994, 158.396 341.015 C 156.288 344.079, 155.232 346.544, 155.711 347.282 C 156.145 347.952, 156.725 361.775, 157 378 L 157.500 407.500 162.748 418.211 C 167.202 427.300, 169.378 430.365, 177.118 438.462 C 187.508 449.330, 195.978 455.970, 210.964 464.997 C 224.187 472.961, 250.725 486, 253.711 486 C 256.753 486, 283.577 473.484, 296.832 465.881 C 311.570 457.426, 319.233 451.817, 328.053 443.027 C 336.844 434.267, 342.052 426.672, 346.925 415.505 L 350.419 407.500 350.824 376.762 L 351.228 346.024 348.120 342.484 C 343.907 337.685, 341.279 332.282, 339.511 324.781 C 337.621 316.768, 337.694 312.114, 339.837 303.904 L 341.559 297.308 334.475 300.672 C 312.995 310.873, 281.481 308.296, 258.505 294.461 C 255.344 292.557, 252.250 291.075, 251.629 291.166 C 251.008 291.258, 245.886 293.678, 240.248 296.545 M 360.035 293.934 C 355.900 301.660, 363.488 314.732, 373.922 317.859 C 379.520 319.536, 380 319.349, 380 315.500 C 380 311.716, 380.998 311.088, 383.061 313.573 C 384.738 315.594, 390.414 318.477, 395.434 319.858 C 398.506 320.703, 400.890 320.594, 406.319 319.359 C 411.942 318.080, 414.327 317.990, 418.802 318.889 C 425.272 320.188, 432 320.345, 432 319.196 C 432 318.180, 426.443 312.960, 422.500 310.272 C 417.056 306.561, 412.578 305.925, 404.157 307.666 C 399.587 308.611, 394.152 309.034, 390.528 308.725 C 380.045 307.833, 369.047 301.749, 366.380 295.368 C 364.782 291.542, 361.690 290.843, 360.035 293.934 M 240.181 304.162 C 227.321 310.327, 215.226 313.012, 200.622 312.942 C 192.241 312.902, 186.340 312.319, 181.500 311.051 C 177.650 310.043, 174.231 309.377, 173.903 309.573 C 173.575 309.769, 173.033 314.418, 172.699 319.904 C 172.138 329.115, 172.290 330.363, 174.685 336.190 C 179.433 347.740, 185.120 369.047, 190.637 395.954 C 191.042 397.928, 191.594 397.058, 193.463 391.504 C 195.300 386.047, 196.824 383.611, 200.742 379.874 C 206.694 374.197, 210.662 373.168, 219.694 374.964 C 225.295 376.077, 226.309 376.028, 228.591 374.532 C 232.470 371.991, 234.321 366.588, 233.750 359.473 C 232.908 348.990, 227.942 342, 221.337 342 C 217.281 342, 216.382 340.592, 218.437 337.456 C 219.670 335.574, 220.917 335.001, 223.773 335.004 C 233.818 335.014, 242.110 346.773, 242.156 361.071 C 242.190 371.908, 238.387 378.541, 230.387 381.596 C 226.352 383.137, 225.656 383.129, 219.521 381.468 C 211.310 379.246, 206.656 380.350, 202.031 385.617 C 200.296 387.593, 199.062 389.396, 199.289 389.623 C 199.516 389.850, 201.682 389.137, 204.101 388.040 C 209.398 385.636, 211.215 385.543, 214.959 387.479 C 216.813 388.438, 218.415 390.521, 219.517 393.406 C 221.339 398.175, 223.783 400.882, 228.387 403.228 L 231.275 404.700 226.889 405.288 C 223.875 405.692, 221.799 406.695, 220.252 408.494 C 217.232 412.004, 217.390 413.625, 220.512 411.170 C 223.767 408.609, 232.149 406.618, 236.352 407.406 C 242.092 408.483, 247 415.329, 247 422.259 L 247 425.389 244.494 421.992 C 243.115 420.123, 240.635 417.738, 238.981 416.691 C 236.172 414.912, 235.810 414.894, 233.487 416.417 C 231.600 417.653, 231 418.915, 231 421.646 C 231 426.776, 237.209 444.652, 242.060 453.491 C 244.326 457.621, 245.857 461, 245.462 461 C 243.819 461, 207.420 439.489, 206.474 437.959 C 205.422 436.256, 202.154 436.941, 201.500 439 C 200.675 441.600, 197.376 441.571, 195.974 438.951 C 194.610 436.402, 196.326 430.473, 198.689 429.566 C 199.565 429.230, 201.383 429.676, 202.730 430.559 C 205.020 432.059, 205.156 432.047, 204.832 430.366 C 204.642 429.377, 203.276 427.890, 201.797 427.059 C 199.278 425.646, 198.946 425.702, 196.554 427.949 C 194.444 429.932, 194 431.262, 194 435.603 C 194 443.160, 197 445.790, 201.791 442.434 C 203.903 440.954, 204.243 441.051, 207.928 444.184 C 210.073 446.008, 218.954 451.757, 227.664 456.961 C 236.374 462.164, 245.559 467.882, 248.075 469.667 L 252.650 472.913 252.275 449.207 C 252.069 436.168, 252.260 418.975, 252.700 411 L 253.500 396.500 258 394.178 C 261.814 392.209, 263.605 391.920, 269.750 392.278 C 276.825 392.689, 277 392.643, 277 390.335 C 277 384.538, 290.699 381.864, 299.627 385.918 C 301.896 386.948, 304.059 388.286, 304.432 388.890 C 304.806 389.495, 306.099 390.475, 307.306 391.068 C 308.513 391.661, 307.425 390.123, 304.888 387.649 C 298.689 381.603, 294.036 380.347, 283.870 381.976 C 278.653 382.812, 275.645 382.881, 274.359 382.192 C 268.896 379.269, 266.444 372.203, 268.016 363.914 C 269.354 356.862, 272.858 351.755, 278.728 348.305 C 282.677 345.984, 284.658 345.500, 290.214 345.500 C 295.946 345.500, 296.725 345.297, 295.539 344.110 C 293.324 341.895, 284.602 341.498, 279.655 343.388 C 274.834 345.229, 269.673 349.826, 267.246 354.439 C 266.269 356.296, 265.477 360.844, 265.232 366 C 264.861 373.812, 265.061 374.957, 267.707 380.147 L 270.586 385.793 262.250 381.397 C 257.665 378.978, 253.259 377, 252.457 377 C 251.206 377, 251 371.552, 251 338.500 C 251 308.320, 250.730 300.019, 249.750 300.087 C 249.063 300.135, 244.756 301.968, 240.181 304.162 M 225.267 322.250 C 222.554 325.718, 223.983 332, 227.485 332 C 229.621 332, 232 329.102, 232 326.500 C 232 322.300, 227.467 319.438, 225.267 322.250 M 108.749 343.942 C 110.886 345.726, 125.975 351.358, 126.693 350.641 C 127.099 350.234, 108.553 341.985, 107.341 342.033 C 106.878 342.052, 107.512 342.911, 108.749 343.942 M 101.557 354.223 C 100.701 355.445, 100 357.926, 100 359.737 C 100 363.902, 103.661 366.337, 112.364 367.963 C 122.724 369.898, 126.728 369.717, 129.245 367.199 C 130.982 365.462, 131.239 364.602, 130.410 363.288 C 129.314 361.550, 107.816 352.103, 104.807 352.037 C 103.875 352.017, 102.413 353, 101.557 354.223 M 305.223 427.557 C 304 428.413, 303 430.066, 303 431.231 L 303 433.349 305.314 431.174 C 306.587 429.978, 308.147 429, 308.779 429 C 311.969 429, 313.413 440.244, 310.373 441.410 C 308.498 442.130, 306 440.398, 306 438.378 C 306 436.357, 305.257 436.606, 298.570 440.872 C 295.231 443.002, 285.075 449.125, 276 454.479 C 259.372 464.289, 254 468.253, 254 470.713 C 254 471.767, 254.690 471.701, 257.250 470.401 C 263.996 466.976, 296.661 447.053, 300.388 444.091 C 304.833 440.557, 305.295 440.445, 307 442.500 C 308.735 444.590, 311.731 444.372, 312.965 442.066 C 313.534 441.002, 314 438.056, 314 435.520 C 314 431.958, 313.442 430.351, 311.545 428.455 C 308.661 425.570, 308.161 425.499, 305.223 427.557" stroke="none" fill="black" fill-rule="evenodd"/>
</svg>