<svg xmlns="http://www.w3.org/2000/svg" width="512" height="512" viewBox="0 0 512 512" version="1.1">
	<path d="M 156.012 42.500 C 154.426 46.448, 154.332 56.439, 155.832 61.657 C 158.894 72.309, 169.716 82.331, 187.527 91.010 C 193.041 93.697, 198.551 96.958, 199.772 98.257 C 201.075 99.644, 202.889 104.102, 204.168 109.059 L 206.346 117.500 203.673 124.171 C 202.203 127.839, 201 131.980, 201 133.371 C 201 139.674, 198.846 145.757, 195.449 149.050 C 193.552 150.888, 192 152.990, 192 153.721 C 192 155.345, 196.085 157, 200.096 157 C 201.728 157, 203.268 157.563, 203.518 158.250 C 204.185 160.082, 207 186.546, 207 190.984 C 207 194.577, 206.802 194.814, 203.250 195.473 C 193.856 197.214, 183.566 205.955, 180.575 214.734 C 178.489 220.855, 178.587 223.822, 181.096 230.527 C 183.137 235.983, 183.144 236.185, 181.346 238.217 C 180.331 239.365, 176.401 242.322, 172.613 244.789 C 159.585 253.273, 153.126 262.447, 152.184 273.803 C 151.792 278.525, 151.511 279.072, 149.622 278.803 C 148.092 278.584, 147.408 277.663, 147.170 275.500 C 146.465 269.091, 140.271 266.118, 134.973 269.646 C 131.046 272.261, 130 274.103, 130 278.404 C 130 281.592, 129.431 282.879, 127.250 284.617 C 124.866 286.518, 124.500 287.522, 124.500 292.155 C 124.500 295.095, 124.821 298.936, 125.213 300.691 L 125.927 303.883 118.213 306.849 C 113.971 308.480, 107.800 310.581, 104.500 311.518 C 101.200 312.455, 98.111 313.583, 97.635 314.026 C 97.155 314.472, 97.541 316.850, 98.503 319.370 C 99.457 321.866, 100.296 326.384, 100.369 329.408 C 100.486 334.330, 100.674 334.781, 102.153 333.703 C 109.310 328.491, 118.789 322.593, 125.595 319.116 C 133.684 314.983, 133.694 314.981, 137.971 316.490 C 142.993 318.262, 154.185 318.486, 157.316 316.878 C 158.517 316.261, 160.738 314.601, 162.250 313.191 C 164.583 311.015, 165 309.820, 165 305.313 C 165 299.507, 165.931 298.634, 168 302.500 C 169.014 304.394, 170.141 305, 172.650 305 C 176.470 305, 177.280 303.268, 176.796 296.134 L 176.500 291.771 189.990 284.959 C 197.410 281.212, 203.543 278.226, 203.620 278.323 C 203.697 278.421, 204.891 280.750, 206.275 283.500 C 207.658 286.250, 210.638 290.155, 212.895 292.177 C 216.679 295.566, 217 296.250, 217 300.927 C 217 304.836, 216.645 306, 215.455 306 C 212.909 306, 209 310.661, 208.994 313.705 C 208.991 315.242, 208.518 318.196, 207.942 320.269 C 206.951 323.839, 206.223 324.375, 194.147 330.426 C 179.110 337.962, 178.280 338.707, 180.389 342.786 C 181.881 345.670, 181.834 345.792, 177.348 350.608 C 174.842 353.299, 171.151 358.986, 169.146 363.247 C 166.214 369.477, 165.066 370.995, 163.285 370.997 C 159.979 371.001, 159 373.916, 159 383.753 C 159 397.523, 160.741 401.959, 169.602 410.762 C 175.839 416.959, 176.849 418.414, 176.005 419.990 C 174.762 422.312, 170.606 425.224, 166 427 C 158.029 430.073, 154.848 433.820, 153.543 441.675 C 152.139 450.131, 156.562 453.129, 170.386 453.091 C 175.479 453.077, 183.888 452.377, 189.073 451.536 C 196.007 450.410, 202.070 450.172, 212 450.634 C 226.349 451.301, 232.233 450.162, 233.661 446.440 C 234.560 444.099, 232.644 436.581, 228.030 424.335 C 224.337 414.536, 224.123 413.422, 225.111 409.131 C 226.594 402.682, 226.404 397.732, 224.445 391.834 C 222.768 386.785, 222.769 386.777, 225.215 384.330 L 227.665 381.881 238.082 387.332 C 249.877 393.504, 256.559 395.394, 266.151 395.272 C 274.398 395.167, 278.778 393.195, 284.038 387.219 C 286.231 384.729, 288.189 382.873, 288.391 383.095 C 288.593 383.318, 290.346 385.975, 292.286 389 C 294.226 392.025, 297.134 396.247, 298.748 398.383 C 301.516 402.044, 301.656 402.683, 301.211 409.611 C 300.913 414.253, 301.199 418.066, 301.987 419.968 C 303.762 424.255, 309.831 429.386, 317.975 433.487 C 322.044 435.537, 325 437.665, 325 438.546 C 325 439.382, 323.936 442.189, 322.637 444.783 C 321.337 447.377, 319.717 451.216, 319.038 453.313 C 317.339 458.559, 319.198 460.385, 329.424 463.510 C 335.904 465.490, 338.039 466.656, 340.229 469.409 C 341.956 471.581, 345.077 473.683, 348.729 475.135 C 353.840 477.168, 356.216 477.432, 369.500 477.441 C 382.699 477.451, 385.060 477.196, 389.166 475.320 C 395.534 472.409, 397.418 469.328, 396.545 463.252 C 395.553 456.341, 392.555 450.895, 387.964 447.661 C 385.062 445.617, 382.849 442.667, 380.065 437.129 C 376.534 430.107, 376.306 429.178, 377.443 426.468 C 379.791 420.871, 380.085 416.278, 378.561 408.972 C 377.737 405.017, 375.970 399.918, 374.635 397.641 C 371.693 392.622, 362.234 383.515, 355.759 379.466 C 351.282 376.666, 350.724 375.866, 347.337 367.390 C 347.081 366.750, 348.453 366.026, 350.571 365.682 C 354.724 365.008, 358 362.510, 358 360.016 C 358 359.096, 353.937 353.272, 348.972 347.074 C 332.564 326.595, 333.342 327.904, 331.928 318.404 C 330.271 307.263, 328.589 305, 321.966 305 C 317.085 305, 317.075 304.993, 315.968 300.882 C 314.267 294.564, 314.496 291.928, 317.219 286.500 C 318.598 283.750, 320.293 279.700, 320.984 277.500 C 321.676 275.300, 322.538 273.171, 322.901 272.770 C 323.264 272.368, 326.472 273.836, 330.030 276.032 C 333.589 278.228, 339.650 281.005, 343.500 282.204 C 347.350 283.402, 351.031 284.859, 351.680 285.441 C 353.085 286.702, 353.739 297.577, 352.394 297.327 C 351.882 297.232, 350.238 296.847, 348.741 296.471 C 346.749 295.971, 345.858 296.206, 345.421 297.346 C 344.725 299.159, 348.864 307.167, 353.245 312.481 C 355.912 315.716, 356.678 316.095, 359.488 315.568 C 361.868 315.122, 363.889 315.638, 367.365 317.580 C 380.920 325.157, 399.876 318.683, 404.734 304.818 C 405.905 301.476, 407.264 299.484, 408.768 298.907 C 411.496 297.859, 413 294.288, 413 288.858 C 413 283.307, 408.436 278.578, 403.721 279.242 C 401.949 279.491, 399.757 280.020, 398.850 280.416 C 397.778 280.885, 397.220 280.675, 397.257 279.819 C 397.546 273.234, 394.209 269.070, 386.260 266.097 C 380.955 264.113, 380.238 263.467, 377.527 258.218 C 373.781 250.966, 365.216 242.504, 357.062 238 C 353.578 236.075, 348.795 232.785, 346.435 230.688 C 342.383 227.090, 342.143 226.576, 342.143 221.494 C 342.143 215.679, 339.615 208.806, 335.484 203.390 C 332.434 199.392, 321.900 194.005, 317.090 193.985 C 310.961 193.959, 310.821 193.625, 311.388 180.403 C 311.669 173.856, 312.183 165.745, 312.531 162.378 C 312.880 159.011, 312.733 154.694, 312.206 152.784 C 311.286 149.452, 311.377 149.265, 314.480 148.143 C 316.259 147.500, 318.486 146.121, 319.429 145.078 C 321.035 143.304, 321.039 142.976, 319.485 139.972 C 318.572 138.206, 316.279 134.609, 314.389 131.979 C 309.986 125.850, 306.526 112.884, 307.297 105.407 C 307.593 102.543, 309.475 96.469, 311.480 91.910 C 316.434 80.642, 318 74.051, 318 64.468 C 318 54.854, 316.128 48.638, 311.683 43.496 L 308.489 39.801 308.495 49.821 C 308.499 58.437, 308.206 60.236, 306.401 62.670 C 303.025 67.223, 300.702 66.748, 286.269 58.553 C 266.246 47.185, 262.149 45.635, 251.938 45.561 L 243.377 45.500 227.979 53.381 C 209.280 62.951, 200.881 65.966, 190.849 66.707 C 184.820 67.152, 182.083 66.872, 177.934 65.386 C 170.292 62.648, 163.592 56.233, 161.035 49.208 C 157.305 38.954, 157.391 39.069, 156.012 42.500 M 247.500 54.383 C 244.750 55.063, 237.775 57.790, 232 60.445 C 226.225 63.099, 219.925 65.843, 218 66.541 C 214.946 67.650, 216.923 67.819, 233.500 67.874 C 259.433 67.959, 266.865 70.030, 277.574 80.159 C 283.204 85.483, 287.325 93.365, 286.809 97.823 C 286.533 100.216, 286.207 99.904, 283.738 94.875 C 278.376 83.958, 265.690 75.235, 252 73.052 C 243.020 71.620, 229.218 71.775, 211.500 73.508 C 203.250 74.315, 193.800 75.007, 190.500 75.046 L 184.500 75.117 191.938 78.041 C 207.794 84.274, 214.659 85.439, 236.500 85.601 C 258.390 85.764, 261.103 86.291, 270.232 92.149 C 276.496 96.168, 281.372 101.947, 284.143 108.632 C 285.367 111.585, 286.664 114, 287.026 114 C 287.387 114, 288.255 112.088, 288.953 109.750 C 293.227 95.443, 296.590 90.211, 306.500 82.453 C 309.800 79.869, 312.045 77.923, 311.488 78.128 C 302.789 81.330, 295.923 84.388, 295.037 85.456 C 294.426 86.191, 293.061 88.527, 292.003 90.646 L 290.080 94.500 290.025 83 C 289.992 75.946, 289.492 70.554, 288.732 69.052 C 288.006 67.617, 284.184 64.827, 279.496 62.311 C 264.489 54.253, 256.270 52.217, 247.500 54.383 M 249.232 110.024 C 244.801 110.935, 233 116.735, 233 118.001 C 233 118.992, 238.931 132, 239.383 132 C 239.582 132, 241.926 131.036, 244.590 129.857 C 251.626 126.745, 258.321 127.016, 266.146 130.731 C 274.291 134.598, 280.567 139.235, 281.265 141.904 C 281.566 143.057, 281.639 144, 281.426 144 C 281.213 144, 278.516 142.386, 275.433 140.414 C 266.699 134.827, 259.930 132.021, 255.161 132.010 C 251.006 132, 250.466 132.372, 242.449 140.750 C 233.676 149.919, 232.845 152.725, 240.721 146.590 C 249.681 139.609, 255.499 139.799, 271.560 147.600 C 276.542 150.020, 281.130 152, 281.753 152 C 282.377 152, 283.684 150.650, 284.659 149 C 286.814 145.353, 287.354 145.288, 288.818 148.500 C 289.445 149.875, 290.599 151, 291.385 151 C 293.598 151, 310.001 141.033, 309.995 139.692 C 309.992 139.036, 308.945 137.194, 307.668 135.598 C 304.662 131.842, 302.224 132.421, 295.250 138.545 C 290.342 142.854, 289.448 142.931, 289.958 139 C 290.065 138.175, 292.642 134.962, 295.685 131.861 L 301.218 126.222 300.543 121.313 C 299.504 113.759, 298.655 113.331, 295.991 119.020 C 293.509 124.318, 287.111 132, 285.179 132 C 284.559 132, 283.302 130.551, 282.386 128.779 C 280.031 124.225, 270.161 114.127, 265.977 111.990 C 261.489 109.698, 254.692 108.900, 249.232 110.024 M 248.250 155.662 C 247.563 155.940, 247 157.638, 247 159.437 C 247 163.176, 250.499 167.585, 254.203 168.515 C 256.306 169.043, 256.719 170.020, 257.835 177.115 C 259.666 188.746, 260.352 190.197, 263.464 189.014 C 264.852 188.486, 267.064 187.349, 268.379 186.488 C 270.898 184.837, 270.897 184.938, 268.481 174.281 C 267.943 171.909, 270.262 169.850, 275 168.492 C 277.044 167.906, 277.272 168.015, 276.250 169.088 C 274.692 170.723, 274.640 175.670, 276.136 179.960 C 277.200 183.011, 277.500 183.180, 280.886 182.620 C 282.874 182.291, 287.313 182.017, 290.750 182.011 L 297 182 297 175.949 C 297 170.020, 297.068 169.869, 300.379 168.486 C 303.439 167.207, 305 165.342, 305 162.964 C 305 162.484, 303.852 163.239, 302.450 164.641 C 299.274 167.817, 296.628 167.348, 289.204 162.296 C 283.122 158.158, 280.997 158.684, 282.808 163.878 C 283.733 166.533, 283.617 166.987, 281.873 167.540 C 280.748 167.897, 278.278 167.378, 276.191 166.345 C 273.280 164.904, 270.631 164.579, 263.660 164.807 C 253.540 165.137, 252.267 164.523, 251.363 158.870 C 250.739 154.968, 250.523 154.745, 248.250 155.662 M 226.611 163.144 C 227.425 166.635, 228.447 169.847, 228.881 170.281 C 229.316 170.716, 228.958 168.165, 228.086 164.614 C 227.213 161.062, 226.192 157.850, 225.815 157.476 C 225.438 157.103, 225.796 159.653, 226.611 163.144 M 218.556 166.465 C 219.710 173.902, 221.337 175.718, 228.849 177.955 C 240.097 181.305, 243.222 184.260, 249.597 197.570 C 254.082 206.936, 255.864 209.613, 259.236 212.056 C 265.183 216.364, 272.832 218.285, 284.500 218.401 C 297.085 218.526, 300 217.792, 300 214.501 C 300 210.198, 296.958 204.027, 294.537 203.420 C 291.699 202.708, 281.826 204.480, 274.404 207.033 C 262.122 211.259, 257.851 209.039, 250.358 194.536 C 244.706 183.598, 241.984 180.823, 234.500 178.367 C 224.580 175.111, 222.320 173.454, 220.047 167.769 C 218.006 162.664, 217.960 162.624, 218.556 166.465 M 238.138 165.442 C 238.826 168.952, 243.530 171.353, 250.237 171.618 C 256.174 171.853, 255.857 171.666, 248.229 170.431 C 246.429 170.140, 243.341 168.483, 241.366 166.749 C 238.557 164.282, 237.854 163.998, 238.138 165.442 M 288.362 186.500 C 287.547 188.622, 288.661 191, 290.469 191 C 292.155 191, 292.259 190.567, 291.370 187.250 C 290.678 184.670, 289.205 184.303, 288.362 186.500 M 296 188 C 296 189.824, 296.415 190.862, 297 190.500 C 297.550 190.160, 298 189.035, 298 188 C 298 186.965, 297.550 185.840, 297 185.500 C 296.415 185.138, 296 186.176, 296 188 M 281.622 188.750 C 282.457 192.233, 282.591 192.371, 284.451 191.657 C 285.715 191.172, 285.783 190.618, 284.833 188.534 C 283.215 184.982, 280.757 185.147, 281.622 188.750 M 275.166 190.060 C 275.350 191.316, 276.100 192.541, 276.834 192.783 C 277.741 193.082, 278.061 192.491, 277.834 190.940 C 277.650 189.684, 276.900 188.459, 276.166 188.217 C 275.259 187.918, 274.939 188.509, 275.166 190.060 M 269 192.882 C 269 193.982, 269.450 195.160, 270 195.500 C 270.550 195.840, 271 195.218, 271 194.118 C 271 193.018, 270.550 191.840, 270 191.500 C 269.450 191.160, 269 191.782, 269 192.882 M 261.032 195.128 C 261.014 196.573, 261.675 198.315, 262.500 199 C 263.745 200.033, 264 199.917, 264 198.314 C 264 197.251, 263.339 195.509, 262.532 194.441 C 261.120 192.575, 261.062 192.601, 261.032 195.128 M 284.500 196.680 C 274.546 198.907, 265.359 203.692, 267.302 205.636 C 267.645 205.979, 271.205 205.038, 275.213 203.545 C 279.382 201.992, 285.603 200.591, 289.750 200.271 C 294.580 199.898, 297 199.295, 297 198.463 C 297 196.229, 290.594 195.316, 284.500 196.680 M 319.281 215.283 C 317.728 218.692, 307.582 226.105, 301.676 228.146 L 296.500 229.935 300.282 229.967 C 305.106 230.009, 309.700 228.080, 314.212 224.119 C 317.534 221.202, 321.705 214.371, 320.748 213.415 C 320.515 213.182, 319.855 214.023, 319.281 215.283 M 326.405 223.145 C 325.357 224.325, 322.587 226.146, 320.250 227.192 C 317.913 228.238, 316 229.250, 316 229.440 C 316 229.631, 317.913 229.375, 320.250 228.870 C 324.193 228.019, 329 224.214, 329 221.944 C 329 220.545, 328.514 220.770, 326.405 223.145 M 332.888 237.778 C 330.901 239.275, 325.614 242.278, 321.138 244.450 C 316.662 246.623, 313 248.759, 313 249.197 C 313 251.240, 320.581 258.094, 323.960 259.106 C 327.141 260.059, 328.390 259.921, 332.323 258.181 C 340.396 254.610, 343.445 245.523, 339.011 238.250 C 337.921 236.463, 336.910 235.013, 336.765 235.028 C 336.619 235.043, 334.875 236.281, 332.888 237.778 M 256.500 240.647 C 254.300 242.608, 250.564 245.813, 248.197 247.769 L 243.894 251.327 238.472 245.972 C 235.490 243.027, 232.819 240.848, 232.537 241.129 C 231.758 241.909, 242.863 255, 244.304 255 C 245.990 255, 262.011 239.840, 262.005 238.250 C 261.997 236.291, 260.808 236.809, 256.500 240.647 M 189.667 242.667 C 189.300 243.033, 189 245.649, 189 248.480 C 189 252.813, 189.443 254.050, 191.805 256.313 C 193.347 257.791, 194.922 259, 195.305 259 C 195.687 259, 196 255.876, 196 252.057 C 196 246.015, 195.711 244.911, 193.777 243.557 C 191.313 241.830, 190.647 241.686, 189.667 242.667 M 264.293 249.750 C 260.976 254.012, 255.574 260.410, 252.287 263.967 C 246.328 270.418, 246.306 270.430, 243.766 268.766 C 241.227 267.102, 225.300 247.944, 224.308 245.361 C 224.021 244.613, 223.347 244, 222.811 244 C 221.637 244, 223.950 247.975, 233.582 262.508 C 237.594 268.563, 241.168 274.275, 241.524 275.202 C 241.995 276.430, 239.911 279.089, 233.835 285.011 C 229.251 289.480, 226.461 292.667, 227.635 292.094 C 228.810 291.521, 233.416 287.156, 237.872 282.393 L 245.973 273.734 251.542 278.617 C 257.662 283.984, 270.667 293, 272.287 293 C 272.851 293, 270.470 291.091, 266.995 288.758 C 258.348 282.952, 251 276.182, 251 274.022 C 251 273.036, 255.272 266.215, 260.494 258.864 C 271.510 243.358, 272.372 242, 271.197 242 C 270.717 242, 267.610 245.488, 264.293 249.750 M 349.418 249.250 C 348.116 253.173, 346.200 255.909, 341.838 260.074 C 338.627 263.140, 336 266.202, 336 266.877 C 336 268.391, 347.509 273.884, 352.313 274.663 C 355.365 275.159, 356.288 274.779, 359.263 271.804 C 361.149 269.917, 364.337 267.593, 366.347 266.640 C 370.917 264.471, 370.974 262.637, 366.666 256.359 C 363.766 252.131, 354.057 244, 351.910 244 C 351.498 244, 350.377 246.363, 349.418 249.250 M 275.009 254.486 C 270.120 261.901, 268.904 264.482, 269.390 266.419 C 270.427 270.548, 289.053 283.816, 296.826 285.962 C 301.466 287.244, 306.065 285.249, 308.845 280.750 C 312.866 274.244, 312.668 272.524, 306.424 259.737 L 300.693 248 297.097 247.994 C 295.118 247.991, 291.925 247.585, 290 247.091 C 280.673 244.700, 281.843 244.123, 275.009 254.486 M 206.714 246.619 C 203.609 249.724, 210.484 276.328, 214.760 277.753 C 216.260 278.253, 222.954 269.043, 222.939 266.500 C 222.932 265.400, 220.806 260.450, 218.214 255.500 C 213.995 247.446, 213.181 246.469, 210.464 246.203 C 208.794 246.039, 207.107 246.227, 206.714 246.619 M 173.942 253.393 C 170.040 256.045, 165.908 261.540, 163.546 267.218 C 161.481 272.185, 161.515 272.377, 165.196 276.571 C 168.062 279.835, 168.785 280.158, 172.193 279.701 C 176.080 279.180, 186.914 274.443, 190.490 271.701 C 192.424 270.219, 192.349 270.060, 187.881 266.127 C 184.979 263.572, 182.399 260.040, 180.891 256.556 C 179.576 253.519, 178.267 251.026, 177.982 251.017 C 177.697 251.008, 175.879 252.077, 173.942 253.393 M 367.077 275.589 C 362.012 279.851, 363.504 283.109, 368.662 279.051 C 370.598 277.529, 371.685 277.310, 373.635 278.051 C 377.451 279.502, 378 279.244, 378 276 C 378 273.176, 377.769 273, 374.077 273 C 371.315 273, 369.243 273.766, 367.077 275.589 M 384.169 276.161 C 384.351 277.447, 385.175 278.500, 386 278.500 C 388.169 278.500, 387.870 274.599, 385.669 274.175 C 384.249 273.901, 383.912 274.347, 384.169 276.161 M 138 277 C 138 278.100, 138.450 279, 139 279 C 139.550 279, 140 278.100, 140 277 C 140 275.900, 139.550 275, 139 275 C 138.450 275, 138 275.900, 138 277 M 403.070 288.869 C 401.914 291.029, 402.579 292.099, 404.598 291.324 C 406.166 290.722, 406.543 287, 405.035 287 C 404.505 287, 403.620 287.841, 403.070 288.869 M 241.967 299.893 C 238.374 302.977, 233.881 306.677, 231.983 308.116 C 229.063 310.329, 228.729 310.968, 229.811 312.272 C 230.939 313.631, 232.243 313.218, 240.884 308.767 L 250.678 303.720 260.267 308.263 C 265.541 310.761, 271.801 314.143, 274.178 315.777 L 278.500 318.749 284 316.306 C 287.025 314.961, 292.926 312.534, 297.113 310.911 C 301.300 309.288, 305.412 307.182, 306.250 306.230 C 307.956 304.294, 307.513 298.089, 305.625 297.476 C 305.006 297.275, 299.016 296.973, 292.314 296.805 L 280.127 296.500 286.171 300.343 C 289.495 302.456, 291.829 304.532, 291.357 304.956 C 290.886 305.380, 287.651 307.221, 284.169 309.046 C 278.002 312.279, 277.769 312.321, 275.169 310.654 C 273.701 309.713, 269.800 307.553, 266.500 305.854 C 263.200 304.155, 257.800 300.857, 254.500 298.525 L 248.500 294.287 241.967 299.893 M 319 314.679 C 319 316.260, 321.463 322, 322.142 322 C 323.826 322, 323.985 319.873, 322.515 317.029 C 321.114 314.319, 319 312.906, 319 314.679 M 243 319.632 C 233.875 324.699, 225 331.061, 225 332.534 C 225 333.219, 230.061 339.179, 236.247 345.779 L 247.493 357.780 253.497 353.048 C 256.798 350.446, 262.888 346.049, 267.029 343.277 C 277.145 336.506, 277.623 335.864, 275.383 332.072 C 274.402 330.410, 271.777 327.745, 269.549 326.148 C 265.257 323.071, 251.873 315.992, 250.383 316.011 C 249.898 316.018, 246.575 317.647, 243 319.632 M 303.308 320.194 C 300.210 321.692, 299.804 323.542, 301.990 326.201 C 303.773 328.371, 304.036 328.414, 306.682 326.966 C 310.079 325.107, 310.863 322.104, 308.418 320.316 C 306.333 318.792, 306.216 318.789, 303.308 320.194 M 238.581 325.772 C 233.675 328.372, 229.488 331.026, 229.275 331.668 C 229.062 332.311, 231.678 335.911, 235.089 339.668 C 238.499 343.426, 242.633 348.166, 244.274 350.202 L 247.258 353.904 257.248 345.386 C 262.742 340.702, 268.084 336.340, 269.119 335.694 C 270.153 335.048, 271 334.190, 271 333.788 C 271 332.707, 250.868 320.996, 249.054 321.022 C 248.199 321.033, 243.486 323.171, 238.581 325.772 M 286.193 327.574 C 283.085 329.756, 283.587 333.394, 287.052 333.797 C 290.475 334.196, 293.870 330.604, 292.351 328.191 C 290.882 325.860, 288.916 325.663, 286.193 327.574 M 200.708 337.138 C 190.844 344.135, 190.917 343.466, 199.049 352.363 C 204.099 357.889, 213.707 365.626, 214.515 364.818 C 214.747 364.586, 215.831 359.782, 216.925 354.142 L 218.913 343.887 214.362 337.693 C 211.859 334.287, 209.706 331.390, 209.578 331.255 C 209.449 331.121, 205.458 333.768, 200.708 337.138 M 306.533 339.086 C 302.701 340.744, 299.372 342.295, 299.134 342.533 C 298.897 342.770, 297.220 349.327, 295.407 357.103 C 292.356 370.196, 292.228 371.418, 293.671 373.621 C 295.733 376.767, 297.042 376.623, 300.563 372.864 C 305.095 368.026, 314.422 362.351, 321.810 359.938 C 325.489 358.736, 328.832 357.454, 329.237 357.089 C 330.011 356.392, 323.609 344.817, 319.372 339.250 C 318.011 337.462, 316.134 336.016, 315.199 336.036 C 314.265 336.056, 310.365 337.428, 306.533 339.086 M 336.957 346.856 C 342.938 355.811, 344.627 357.706, 345.686 356.647 C 346.249 356.084, 333.808 339.617, 331.954 338.472 C 331.396 338.127, 333.648 341.900, 336.957 346.856 M 274.500 355.337 C 270.650 358.098, 263.563 363.427, 258.750 367.179 C 253.938 370.930, 249.511 374, 248.912 374 C 248.314 374, 243.701 370.176, 238.662 365.503 C 233.623 360.829, 229.222 357.004, 228.883 357.003 C 228.543 357.001, 227.802 359.344, 227.235 362.209 L 226.205 367.418 229.853 370.784 C 234.570 375.138, 247.870 381.507, 255.405 383.020 C 266.598 385.268, 273.597 382.689, 276.855 375.116 C 279.657 368.603, 282.184 357.575, 281.802 353.527 L 281.500 350.317 274.500 355.337 M 183.575 357.093 C 180.297 360.989, 176.486 368.393, 175.565 372.655 C 174.965 375.428, 175.283 376.109, 178.192 378.293 C 180.011 379.659, 183.895 381.976, 186.823 383.442 C 191.612 385.840, 192.513 385.988, 195.823 384.921 C 202.015 382.923, 212 378.177, 212 377.232 C 212 376.741, 209.863 374.827, 207.250 372.979 C 204.637 371.131, 198.846 366.082, 194.381 361.760 L 186.262 353.900 183.575 357.093 M 326.798 368.931 C 316.590 372.195, 303 381.932, 303 385.981 C 303 388.278, 307.718 393.288, 309.273 392.641 C 315.375 390.101, 318.160 389.731, 322.159 390.929 C 327.162 392.428, 332.671 395.804, 338.063 400.676 C 340.257 402.658, 342.378 403.955, 342.776 403.557 C 343.174 403.159, 343.500 398.708, 343.500 393.667 C 343.500 385.911, 343.063 383.422, 340.664 377.500 C 337.735 370.271, 335.494 366.960, 333.595 367.054 C 332.993 367.083, 329.934 367.928, 326.798 368.931 M 203.500 408.622 C 196.064 412.304, 193.634 413.876, 196 413.474 C 200.737 412.670, 213.649 406.358, 214.362 404.498 C 214.679 403.674, 214.839 403.039, 214.719 403.087 C 214.598 403.136, 209.550 405.626, 203.500 408.622 M 357.767 412.750 C 354.696 417.012, 350.586 422.224, 348.633 424.331 L 345.082 428.162 340.791 425.532 C 330.430 419.182, 312.108 410.747, 313.473 412.956 C 313.778 413.449, 317.958 415.986, 322.764 418.593 C 327.569 421.200, 334.249 425.058, 337.608 427.166 C 340.967 429.275, 344.257 431, 344.918 431 C 348.491 431, 363.145 413.653, 364.558 407.750 C 365.665 403.126, 363.610 404.639, 357.767 412.750 M 166.250 436.662 C 162.079 438.345, 169.827 441.346, 177 440.826 L 181.500 440.500 178 438.254 C 174.736 436.159, 169.316 435.425, 166.250 436.662 M 362.496 460.379 C 360.795 461.623, 361.213 461.828, 366.769 462.473 C 370.156 462.866, 374.764 462.878, 377.007 462.499 C 380.362 461.932, 380.880 461.560, 379.921 460.405 C 378.336 458.495, 365.100 458.476, 362.496 460.379" stroke="none" fill="black" fill-rule="evenodd"/>
</svg>