<svg xmlns="http://www.w3.org/2000/svg" width="512" height="512" viewBox="0 0 512 512" version="1.1">
	<path d="M 247.775 19.405 C 245.288 20.727, 239.788 22.760, 235.553 23.922 C 222.710 27.445, 215.933 31.876, 209.837 40.737 C 205.584 46.919, 203.143 54.488, 201.411 66.870 C 199.111 83.314, 199.845 81.943, 193.683 81.307 C 177.215 79.607, 168.629 99.986, 178.954 116.267 L 181.739 120.657 176.342 125.415 C 169.540 131.412, 165.847 138.458, 165.081 146.896 C 164.699 151.095, 163.985 153.564, 163 154.086 C 162.175 154.523, 154.910 158.005, 146.855 161.824 C 129.892 169.866, 121.137 175.285, 108.227 185.729 C 86.203 203.547, 71.336 224.724, 61.704 252 C 58.371 261.436, 53.655 278.809, 50.031 295 C 48.128 303.502, 45.894 310.219, 43.046 316 C 39.325 323.552, 38.920 325.059, 39.410 329.517 C 40.102 335.795, 42.683 343.617, 45.301 347.367 C 47.565 350.610, 54.117 353.945, 58.290 353.978 C 59.824 353.990, 62.924 354.941, 65.179 356.091 C 68.833 357.955, 69.748 358.050, 73.618 356.967 C 77.295 355.938, 78.480 356, 81.380 357.376 C 85.826 359.486, 87.800 359.419, 91.723 357.027 C 95.933 354.460, 96.944 350.636, 94.189 347.695 C 91.526 344.852, 90 340.741, 90 336.410 C 90 333.617, 90.494 332.763, 92.565 331.975 C 95.025 331.040, 104 330.581, 104 331.391 C 104 331.606, 103.145 333.692, 102.099 336.027 C 99.853 341.045, 100.709 344.971, 104.492 346.996 C 107.761 348.745, 114.635 347.691, 117.497 345.002 C 120.654 342.037, 124.966 332.087, 125.670 326.142 C 126.449 319.560, 122.931 311.698, 117.163 307.129 L 113.032 303.857 114.911 300.179 C 117.118 295.857, 132.485 279.214, 133.430 280.122 C 133.786 280.464, 134.812 285.270, 135.710 290.802 L 137.343 300.859 133.803 308.680 C 126.547 324.713, 123.655 336.958, 123.689 351.500 C 123.728 368.310, 128.588 381.863, 139.436 395.408 L 144.968 402.316 142.996 405.506 C 141.912 407.260, 139.844 411.802, 138.400 415.598 C 136.011 421.880, 135.826 423.373, 136.344 432.213 L 136.912 441.926 133.206 442.554 C 122.638 444.346, 117.043 447.444, 112.480 454.028 C 101.926 469.259, 107.322 484.839, 125.500 491.615 C 133.371 494.549, 157.268 494.093, 175 490.670 C 199.383 485.963, 229.160 476.922, 232.152 473.317 C 233.903 471.207, 229.890 455.237, 227.007 452.845 C 225.357 451.475, 225.117 450.424, 225.620 446.754 C 226.121 443.103, 225.589 440.720, 222.614 433.285 C 220.626 428.317, 219 423.970, 219 423.626 C 219 423.282, 220.268 423, 221.818 423 C 226.955 423, 234.400 420.126, 242.459 415.031 L 250.418 410 259.114 410 C 267.609 410, 267.909 410.082, 272.053 413.545 C 278.673 419.075, 284.230 421.940, 289.581 422.581 C 297.397 423.517, 297.238 423.321, 294.932 429.172 C 291.348 438.266, 289.981 444.819, 291.070 447.684 C 291.882 449.819, 291.704 450.519, 290.056 451.673 C 287.702 453.322, 284 464.546, 284 470.033 C 284 473.669, 284.259 473.977, 289.337 476.379 C 307.326 484.890, 349.936 494, 371.750 494 C 394.767 494, 412.231 479.646, 408.120 464.109 C 405.419 453.903, 397.101 446.141, 386.162 443.619 C 382.677 442.815, 379.630 441.964, 379.393 441.726 C 379.155 441.488, 379.669 438.241, 380.534 434.510 C 381.737 429.324, 381.872 426.632, 381.110 423.078 C 379.805 416.995, 376.475 409.311, 373.387 405.263 C 370.696 401.735, 370.985 400.133, 374.966 396.531 C 378.373 393.447, 385.791 380.915, 388.048 374.428 C 394.488 355.923, 391.866 332.305, 380.646 307.734 C 377.235 300.265, 377.153 299.818, 378.498 296.007 C 379.267 293.827, 380.203 289.324, 380.580 286 C 380.956 282.675, 381.589 279.754, 381.988 279.508 C 382.986 278.891, 397.045 293.532, 400.493 298.778 L 403.303 303.057 397.771 308.278 C 391.336 314.353, 389.590 318.651, 390.189 326.941 C 390.724 334.331, 395.114 343.489, 399.365 346.081 C 402.843 348.202, 408.060 348.574, 411.147 346.921 C 414.187 345.294, 415.884 340.405, 414.896 336.118 C 413.901 331.803, 415.950 329.547, 420 330.498 C 423.903 331.415, 426 334.640, 426 339.726 C 426 343.596, 425.507 344.681, 422.500 347.436 C 418.435 351.160, 418.305 351.846, 421.012 355.288 C 423.699 358.704, 428.003 359.567, 432.013 357.493 C 434.704 356.102, 435.868 356.038, 439.866 357.062 C 444.084 358.143, 444.983 358.049, 448.740 356.133 C 451.039 354.960, 454.626 353.998, 456.710 353.995 C 464.387 353.984, 471.947 346.698, 475.557 335.829 C 477.763 329.188, 477.107 325.087, 472.104 314.226 C 469.847 309.326, 468 304.346, 468 303.159 C 468 300.324, 459.855 268.719, 456.491 258.500 C 452.565 246.575, 443.030 227.667, 435.850 217.570 C 419.049 193.943, 387.832 169.176, 359.998 157.389 L 351.243 153.682 350.779 146.591 C 350.112 136.379, 346.370 129.903, 337.130 122.972 L 333.759 120.444 336.378 116.585 C 343.822 105.616, 341.927 91.795, 331.929 84.132 C 327.786 80.956, 327.206 80.798, 321.767 81.367 C 318.595 81.698, 316 81.717, 316 81.408 C 316 81.099, 315.074 74.693, 313.943 67.173 C 310.859 46.674, 305.451 36.800, 293.646 30.113 C 287.493 26.628, 259.243 17, 255.170 17 C 253.590 17, 250.263 18.082, 247.775 19.405 M 262.231 35.239 C 259.775 37.870, 259.265 42.626, 259.756 58.309 C 260.031 67.118, 260.895 67.439, 264.123 59.936 C 268.046 50.816, 276.223 46.057, 285.563 47.457 C 290.229 48.157, 293.533 50.539, 296.770 55.539 C 297.950 57.361, 297.997 57.323, 297.427 55 C 295.429 46.856, 288.282 39.820, 278 35.876 C 269.239 32.514, 264.938 32.341, 262.231 35.239 M 237 35.542 C 233.975 36.281, 229.863 37.148, 227.862 37.467 C 221.003 38.563, 216.352 46.558, 220.548 50.040 C 221.820 51.096, 222.717 51.028, 225.582 49.662 C 231.720 46.735, 239.362 47.993, 245.693 52.973 C 247.110 54.088, 248.659 55, 249.135 55 C 250.109 55, 250.300 39.723, 249.370 36.250 C 248.659 33.599, 245.656 33.427, 237 35.542 M 214.750 79.689 C 213.231 80.086, 213 81.463, 213 90.131 C 213 96.091, 212.209 104.022, 211.038 109.808 C 208.690 121.405, 207 136.407, 207 145.651 L 207 152.380 212.691 157.635 C 217.514 162.088, 219.970 163.437, 228.797 166.487 C 234.526 168.465, 242.755 171.865, 247.084 174.042 C 251.413 176.219, 255.875 178, 256.998 178 C 258.121 178, 262.971 176.026, 267.775 173.613 C 272.579 171.200, 280.246 168.079, 284.813 166.676 C 292.872 164.201, 295.739 162.411, 304.555 154.350 C 307.796 151.386, 308 150.820, 308 144.786 C 308 137.742, 305.915 120.893, 303.529 108.662 C 302.688 104.351, 302 96.353, 302 90.887 C 302 81.141, 301.951 80.932, 299.435 79.975 C 298.024 79.439, 290.961 79, 283.739 79 C 271.277 79, 270.419 79.131, 266.912 81.561 C 264.526 83.214, 261.317 84.310, 257.858 84.651 C 253.204 85.110, 251.747 84.773, 246.769 82.090 C 241.205 79.090, 240.680 79.003, 228.769 79.116 C 222.021 79.180, 215.713 79.438, 214.750 79.689 M 228.500 84.716 C 225.250 85.502, 222.051 89.098, 220.944 93.208 C 219.472 98.675, 220.456 99.403, 225.400 96.506 C 230.613 93.451, 235.227 93.328, 241.446 96.079 C 246.852 98.470, 249 98.069, 249 94.667 C 249 92.054, 244.361 88.282, 237.782 85.546 C 234.041 83.990, 232.185 83.824, 228.500 84.716 M 273.500 85.693 C 265.176 90.167, 262.443 93.998, 264.859 97.806 C 265.515 98.840, 266.893 98.580, 271.468 96.556 C 278.517 93.439, 283.027 93.325, 288.032 96.138 C 293.091 98.981, 295.202 98.192, 293.976 93.915 C 291.626 85.722, 281.220 81.543, 273.500 85.693 M 185.589 93.077 C 182.483 96.768, 182.094 103.288, 184.656 108.688 C 186.210 111.961, 193.442 117.892, 194.540 116.793 C 195.296 116.037, 198 101.242, 198 97.864 C 198 94.344, 193.826 90, 190.443 90 C 189.141 90, 187.077 91.309, 185.589 93.077 M 318.564 93.107 C 315.766 96.431, 315.762 96.605, 318.146 109.116 C 319.749 117.529, 320.135 117.838, 325.011 114.611 C 333.279 109.140, 335.253 98.370, 329.019 92.750 C 324.991 89.119, 321.829 89.227, 318.564 93.107 M 275.450 102.384 C 273.773 103.127, 271.169 105.199, 269.663 106.989 C 267.015 110.136, 266.861 110.184, 264.963 108.466 C 263.042 106.728, 263 106.780, 263 110.893 C 263 114.153, 263.593 115.645, 265.646 117.548 C 268.681 120.360, 269.549 120.473, 273 118.500 C 276.348 116.586, 281.514 116.636, 284.527 118.610 C 285.879 119.495, 287.635 119.970, 288.430 119.665 C 291.271 118.575, 292.576 108, 289.869 108 C 289.376 108, 287.741 106.666, 286.236 105.036 C 282.907 101.428, 279.499 100.590, 275.450 102.384 M 228.073 104.635 C 226.933 106.084, 226 107.659, 226 108.135 C 226 108.611, 225.041 109, 223.869 109 C 221.971 109, 221.804 109.404, 222.337 112.690 C 222.667 114.720, 223.849 117.293, 224.964 118.408 C 226.912 120.356, 227.106 120.368, 229.900 118.718 C 233.606 116.529, 237.955 116.534, 242.567 118.733 L 246.202 120.467 248.601 117.678 C 250.985 114.906, 251.736 110.081, 250.346 106.460 C 249.768 104.953, 249.489 105.027, 247.928 107.096 L 246.163 109.436 243.331 106.600 C 237.976 101.238, 231.410 100.392, 228.073 104.635 M 248 125.810 C 244.737 127.043, 243.088 128.399, 242 130.740 C 240.969 132.961, 240.031 133.774, 239 133.343 C 233.244 130.940, 227 133.691, 227 138.629 C 227 140.997, 227.105 141.040, 229.223 139.557 C 232.677 137.137, 234.262 137.627, 240.426 143.021 C 247.520 149.228, 251.628 151, 258.926 151 C 265.186 151, 270.787 148.165, 276.437 142.134 C 279.764 138.584, 280.888 138.374, 285.050 140.526 C 287.724 141.909, 288 141.902, 288 140.449 C 288 139.567, 286.685 137.531, 285.077 135.923 C 282.845 133.691, 281.231 133, 278.251 133 C 275.317 133, 273.747 132.347, 271.924 130.368 C 266.369 124.337, 256.747 122.503, 248 125.810 M 248.195 133.842 C 243.191 136.434, 242.992 136.680, 244.695 138.178 C 250.356 143.160, 259.183 145.280, 263.583 142.715 C 266.524 141, 271 137.324, 271 136.623 C 271 136.299, 268.765 134.901, 266.033 133.517 C 259.676 130.295, 254.874 130.383, 248.195 133.842 M 187.418 132.969 C 184.681 134.076, 180.068 139.614, 178.232 143.997 C 175.827 149.737, 177.058 159.849, 181.123 167.743 C 182.980 171.350, 185.502 174.956, 186.727 175.757 C 188.940 177.204, 188.953 177.179, 188.727 171.964 C 188.601 169.038, 188.959 166.551, 189.536 166.345 C 190.106 166.142, 191.741 168.360, 193.170 171.273 C 194.598 174.187, 196.922 177.942, 198.333 179.619 C 201.124 182.936, 209.491 187.843, 210.550 186.783 C 210.911 186.422, 209.965 182.399, 208.448 177.843 C 205.785 169.847, 205.347 169.227, 195.845 159.993 C 184.954 149.411, 184.166 147.517, 188.836 143.151 C 190.769 141.344, 191.853 139.147, 192.241 136.250 C 192.852 131.686, 192.008 131.112, 187.418 132.969 M 322 135.466 C 322 137.967, 322.834 139.784, 325 142 C 326.650 143.688, 328 145.751, 328 146.584 C 328 149.678, 324.887 153.930, 318.546 159.497 C 314.960 162.645, 311.106 166.711, 309.981 168.531 C 307.607 172.372, 302.789 186.004, 303.810 185.991 C 304.189 185.985, 306.905 184.602, 309.844 182.917 C 314.087 180.484, 316.147 178.327, 319.844 172.448 C 322.405 168.376, 324.858 165.034, 325.295 165.022 C 326.026 165.002, 325.772 167.690, 324.308 175.455 C 323.761 178.360, 323.791 178.383, 326.126 176.871 C 332.295 172.875, 338 160.192, 338 150.476 C 338 141.500, 330.982 132, 324.352 132 C 322.335 132, 322 132.494, 322 135.466 M 154.368 171.831 C 135.528 179.979, 118.124 191.921, 103.449 206.769 C 89.725 220.655, 80.203 237.578, 74.588 258.064 C 71.395 269.713, 71.275 273.542, 74.055 275.030 C 77.416 276.828, 78.256 275.739, 78.510 269.256 C 78.685 264.763, 79.443 261.920, 81.317 258.721 C 86.029 250.681, 86.660 250.899, 87.222 260.761 C 87.969 273.866, 92.382 281.043, 100.645 282.593 C 106.365 283.666, 112.161 280.722, 118.980 273.280 C 122.291 269.667, 124.994 266.213, 124.987 265.605 C 124.979 264.997, 122.025 262.086, 118.421 259.135 C 114.817 256.185, 110.365 251.460, 108.528 248.635 C 104.994 243.203, 103.322 239.008, 104.683 238.988 C 105.132 238.981, 110.453 241.499, 116.507 244.583 C 128.202 250.542, 135.620 252.367, 137.743 249.810 C 138.383 249.038, 140.245 244.626, 141.881 240.005 C 144.750 231.897, 144.793 231.514, 143.128 229.052 C 137.892 221.309, 136.748 211.479, 139.884 201.157 C 141.633 195.398, 142.947 193.178, 146.927 189.261 C 151.687 184.575, 160.073 179.511, 161.976 180.172 C 162.495 180.352, 161.344 182.847, 159.417 185.716 C 154.355 193.257, 151.892 201.082, 151.277 211.578 C 150.757 220.465, 151.695 225, 154.055 225 C 156.421 225, 176 189.632, 176 185.360 C 176 184.441, 174.939 182.296, 173.642 180.594 C 172.345 178.892, 170.087 175.137, 168.625 172.250 C 167.163 169.363, 165.861 167.004, 165.733 167.008 C 165.605 167.013, 160.491 169.183, 154.368 171.831 M 348.083 170.788 C 347.028 172.830, 344.553 176.749, 342.582 179.497 C 340.612 182.245, 339 185.071, 339 185.777 C 339 190.007, 351.771 214.392, 357.262 220.646 C 361.022 224.928, 362.556 224.876, 364.027 220.417 C 366.424 213.154, 362.814 198.132, 356.098 187.421 C 353.844 183.826, 352 180.432, 352 179.880 C 352 178.362, 361.616 183.909, 366.620 188.315 C 369.046 190.450, 372.262 194.291, 373.766 196.849 C 376.276 201.119, 376.500 202.361, 376.500 212 C 376.500 221.747, 376.295 222.848, 373.646 227.356 C 370.802 232.194, 370.798 232.225, 372.530 236.067 C 373.487 238.188, 374.803 242.303, 375.456 245.212 C 376.393 249.389, 377.092 250.566, 378.785 250.815 C 381.318 251.187, 397.249 245.044, 404.809 240.780 C 407.729 239.133, 410.347 238.014, 410.627 238.293 C 411.352 239.018, 406.492 248.017, 403.720 251.082 C 402.436 252.501, 398.374 256.030, 394.694 258.922 L 388.002 264.181 395.070 272.010 C 404.993 282.999, 409.458 284.812, 417.500 281.119 C 425.258 277.557, 427.867 272.060, 427.997 259 L 428.081 250.500 431.024 253.943 C 435.026 258.623, 437.397 266.088, 436.639 271.618 C 435.991 276.342, 437.028 277.126, 441.066 274.965 C 443.446 273.691, 443.581 269.624, 441.534 260.812 C 436.510 239.176, 426.248 222.065, 407.652 204.313 C 391.375 188.775, 375.671 178.063, 358.216 170.592 L 350.002 167.077 348.083 170.788 M 224.250 178.672 C 221.299 179.839, 223.913 189.855, 229.052 197.073 C 232.017 201.237, 233 200.721, 233 195 C 233 192.250, 233.272 190, 233.603 190 C 233.935 190, 238.548 194.113, 243.853 199.139 L 253.500 208.279 253.809 204.103 C 254.181 199.090, 251.957 195.059, 245.577 189.178 C 239.347 183.435, 227.261 177.482, 224.250 178.672 M 280.311 181.002 C 273.112 184.600, 263.534 194.292, 262.493 199.034 C 261.217 204.844, 262.972 204.164, 273.926 194.606 C 277.460 191.523, 280.686 189, 281.095 189 C 281.504 189, 281.397 190.598, 280.858 192.552 C 280.319 194.506, 280.017 197.251, 280.189 198.653 L 280.500 201.201 283.188 199.077 C 286.623 196.362, 290.828 187.669, 291.207 182.500 C 291.472 178.883, 291.260 178.472, 288.995 178.207 C 287.618 178.046, 283.710 179.304, 280.311 181.002 M 187.229 199.750 C 185.542 203.463, 182.447 211.380, 180.351 217.344 C 178.254 223.308, 175.492 229.235, 174.213 230.514 C 172.934 231.793, 169.562 233.663, 166.719 234.670 C 163.833 235.692, 159.712 238.266, 157.385 240.500 C 152.138 245.537, 150.589 251.759, 150.537 268 C 150.502 278.765, 150.675 279.798, 153.237 284.155 C 157.739 291.814, 167.322 298.249, 181.199 302.931 C 190.623 306.110, 207.598 309.735, 208.560 308.773 C 208.912 308.422, 208.707 301.916, 208.105 294.317 C 207.503 286.718, 206.562 272.625, 206.015 263 C 204.306 232.978, 201.872 202.592, 200.999 200.381 C 200.373 198.796, 192.146 193, 190.522 193 C 190.398 193, 188.916 196.037, 187.229 199.750 M 320.403 195.940 L 315.307 198.865 314.662 207.183 C 314.307 211.757, 313.571 233.725, 313.026 256 C 312.481 278.275, 311.805 299.127, 311.524 302.337 L 311.013 308.174 315.256 307.475 C 339.935 303.410, 358.023 294.099, 364.009 282.377 C 366.191 278.105, 366.492 276.260, 366.435 267.500 C 366.383 259.559, 365.894 256.265, 364.059 251.500 C 360.501 242.263, 358.048 239.672, 348.583 235.153 C 343.928 232.931, 339.440 230.075, 338.609 228.806 C 337.778 227.538, 335.040 220.200, 332.523 212.500 C 330.007 204.800, 327.397 197.266, 326.724 195.757 L 325.500 193.015 320.403 195.940 M 294.500 207.012 C 293.400 207.494, 289.800 208.617, 286.500 209.507 C 281.194 210.939, 279.691 211.972, 273.500 218.444 C 265.511 226.796, 259.774 231, 256.365 231 C 254.717 231, 251.231 228.186, 244.755 221.626 C 234.443 211.181, 231.691 209.426, 224.024 208.409 C 219.730 207.839, 218.823 207.970, 219.200 209.104 C 219.477 209.939, 221.787 210.763, 224.951 211.155 C 231.241 211.935, 233.522 213.783, 232.622 217.371 C 231.951 220.043, 227.391 221.983, 221.750 221.994 C 219.122 222, 219 222.219, 219 226.941 C 219 232.637, 219.991 233.773, 222.521 230.976 C 225.001 228.237, 229.544 228.454, 232.545 231.455 C 235.884 234.793, 235.686 238.468, 231.967 242.187 C 228.958 245.195, 227.303 245.435, 222.750 243.522 C 221.186 242.864, 221 243.487, 221 249.393 C 221 253.027, 221.267 256, 221.592 256 C 221.918 256, 223.329 255.100, 224.727 254 C 228.134 251.320, 231.570 251.479, 234.545 254.455 C 237.836 257.745, 237.794 262.297, 234.443 265.648 C 231.868 268.223, 228.309 268.526, 223.779 266.556 C 222.214 265.876, 222.113 266.430, 222.668 272.654 C 223.004 276.419, 223.418 279.664, 223.587 279.864 C 223.756 280.064, 225.104 279.277, 226.582 278.114 C 228.060 276.951, 230.144 276, 231.212 276 C 234.083 276, 239 281.367, 239 284.500 C 239 287.605, 234.092 293, 231.268 293 C 230.231 293, 228.509 292.339, 227.441 291.532 C 224.415 289.243, 224 289.652, 224 294.918 C 224 304.200, 225.452 304.886, 233.617 299.466 C 241.086 294.509, 246.168 292.894, 256.280 292.265 C 267.709 291.554, 275.979 293.703, 284.641 299.633 C 293.273 305.543, 296 304.169, 296 293.911 C 296 288.916, 295.921 288.762, 294.171 290.345 C 289.443 294.624, 282 290.400, 282 283.438 C 282 277.359, 289.762 273.762, 293.917 277.917 C 294.971 278.971, 296.096 279.571, 296.417 279.250 C 297.396 278.271, 297.065 266, 296.059 266 C 295.541 266, 294.840 266.450, 294.500 267 C 294.160 267.550, 292.412 268, 290.615 268 C 286.211 268, 283 264.525, 283 259.757 C 283 253.266, 288.960 250.116, 294.080 253.901 L 297 256.060 297 249.089 L 297 242.119 294.250 243.553 C 290.358 245.583, 289.230 245.383, 285.923 242.077 C 281.432 237.585, 282.605 231.031, 288.253 229.062 C 291.451 227.947, 292.276 228.195, 295.750 231.323 L 298 233.349 298 227.095 L 298 220.841 294.934 221.515 C 291.012 222.376, 286.568 220.541, 285.176 217.486 C 284.300 215.565, 284.450 214.666, 285.954 212.808 C 287.457 210.952, 288.846 210.494, 293.158 210.431 C 296.606 210.381, 298.465 209.937, 298.400 209.177 C 298.096 205.598, 297.933 205.508, 294.500 207.012 M 181.603 235.143 C 174.679 238.795, 162 253.028, 162 257.150 C 162 259.883, 163.165 259.478, 169.919 254.402 C 175.703 250.054, 181.527 243.536, 186.139 236.250 C 188.593 232.374, 187.404 232.084, 181.603 235.143 M 327.001 235.002 C 330.060 240.718, 349.950 259, 353.110 259 C 357.875 259, 342.784 241.212, 333.501 235.887 C 327.426 232.403, 325.467 232.136, 327.001 235.002 M 66 296.322 C 62.134 297.623, 60.159 301.534, 60.056 308.094 C 60.017 310.581, 58.732 313.576, 55.879 317.824 C 51.480 324.376, 49.851 331.225, 51.882 334.630 C 52.774 336.127, 52.890 335.603, 52.463 332 L 51.930 327.500 54.358 333.804 C 57.101 340.921, 59.455 344, 62.155 344 C 63.170 344, 63.994 343.887, 63.987 343.750 C 63.980 343.613, 63.081 340.650, 61.989 337.167 C 60.815 333.423, 60.268 329.781, 60.650 328.259 C 61.271 325.783, 61.351 325.758, 62.730 327.592 C 63.519 328.641, 65.916 332.953, 68.056 337.174 C 72.415 345.774, 73.094 346.444, 76.557 345.575 C 78.597 345.063, 79 344.351, 79 341.264 C 79 339.231, 78.253 335.611, 77.340 333.221 C 75.755 329.070, 75.766 328.790, 77.590 326.974 C 78.641 325.928, 83.211 323.074, 87.747 320.631 L 95.994 316.190 100.747 317.956 C 108.100 320.689, 112 321.226, 112 319.507 C 112 318.713, 108.405 314.072, 104.011 309.193 C 95.590 299.843, 94.594 299.273, 83 297.155 C 72.845 295.300, 69.519 295.137, 66 296.322 M 439.500 295.690 C 437.850 295.904, 433.146 296.802, 429.047 297.685 C 421.624 299.285, 421.561 299.326, 412.797 308.317 C 406.695 314.579, 404 318.078, 404 319.739 C 404 322.518, 404.871 322.392, 414.264 318.254 C 419.479 315.956, 420.192 315.860, 421.764 317.246 C 422.719 318.089, 426.676 320.365, 430.558 322.305 C 440.356 327.201, 440.753 327.823, 438.064 334.074 C 435.602 339.797, 435.667 343.777, 438.250 345.394 C 440.913 347.061, 442.924 345.271, 448 336.716 C 450.475 332.545, 452.900 328.764, 453.388 328.316 C 454.267 327.508, 453.630 335.755, 452.388 341.250 C 451.864 343.572, 452.093 344, 453.860 344 C 456.515 344, 458.413 340.971, 460.127 334 L 461.479 328.500 461.989 333.475 C 462.493 338.386, 462.516 338.415, 463.750 335.678 C 465.740 331.265, 465.262 328.664, 460.970 320.564 C 458.754 316.381, 456.502 310.605, 455.967 307.729 C 453.724 295.675, 451.592 294.117, 439.500 295.690 M 251.792 303.402 C 242.193 305.986, 234.074 314.681, 232.487 324.078 C 230.424 336.288, 241.892 348.579, 256.436 349.747 C 272.621 351.046, 286.035 340.622, 285.978 326.790 C 285.949 319.765, 283.334 314.345, 277.497 309.207 C 270.046 302.647, 261.645 300.750, 251.792 303.402 M 250.079 313.211 C 244.410 316.246, 241.893 319.676, 241.329 325.136 C 240.724 331, 243.419 335.767, 249.013 338.725 C 263.323 346.292, 282.197 332.951, 275.501 320.002 C 271.216 311.716, 258.978 308.447, 250.079 313.211 M 144.333 319.750 C 143.103 322.937, 142.500 327.139, 142.500 332.521 C 142.500 339.527, 142.905 341.362, 145.698 347.021 C 156.389 368.677, 178.107 382.802, 214.866 392.007 C 219.467 393.159, 223.427 393.907, 223.665 393.668 C 223.903 393.430, 222.268 391.120, 220.030 388.535 C 210.064 377.020, 202.012 362.183, 201.212 353.859 C 200.956 351.186, 201.080 349, 201.489 349 C 201.898 349, 207.693 354.517, 214.366 361.261 C 227.578 374.611, 237.766 382.074, 247.702 385.681 C 264.118 391.640, 276.471 386.289, 300.599 362.769 C 307.803 355.746, 313.991 350, 314.349 350 C 315.800 350, 314.807 356.854, 312.567 362.302 C 309.345 370.137, 304.577 377.872, 298.163 385.670 C 295.227 389.239, 293.064 392.398, 293.356 392.690 C 294.154 393.487, 316.232 386.376, 326.577 381.989 C 340.723 375.991, 347.800 371.375, 357.091 362.088 C 371.175 348.011, 375.119 337.334, 371.111 324.138 C 369.935 320.268, 368.549 316.839, 368.031 316.519 C 367.513 316.199, 364.256 318.236, 360.794 321.045 C 348.742 330.827, 325.999 339.918, 300.763 345.040 C 292.452 346.727, 289.929 347.669, 287.500 349.992 C 280.466 356.720, 268.277 360.564, 256.575 359.746 C 247.543 359.114, 239.617 356.069, 232.379 350.448 C 228.556 347.480, 225.667 346, 223.696 346 C 218.779 346, 198.255 341.097, 185.352 336.840 C 171.985 332.431, 159.762 326.033, 151.928 319.346 C 149.128 316.956, 146.686 315, 146.501 315 C 146.316 315, 145.341 317.137, 144.333 319.750 M 339.500 420.146 C 318.946 430.371, 314.289 433.659, 310.823 440.386 L 308.821 444.272 313.767 443.796 C 316.980 443.488, 319.901 442.421, 322.106 440.750 C 329.309 435.294, 340.671 433.412, 354.597 435.367 L 360.693 436.224 362.347 432.092 C 365.062 425.304, 363.905 412.905, 360.352 410.720 C 359.883 410.432, 350.500 414.674, 339.500 420.146 M 154.980 414.266 C 152.569 418.220, 152.289 428.363, 154.449 433.532 C 156.126 437.545, 155.801 437.486, 164.688 435.406 C 175.247 432.934, 186.730 435.065, 195.680 441.155 C 198.346 442.970, 201.153 444, 203.430 444 C 207.477 444, 207.525 443.915, 205.577 440.148 C 202.531 434.258, 195.283 429.148, 178.310 420.926 C 155.512 409.882, 157.335 410.402, 154.980 414.266 M 148.578 453.120 C 143.478 454.317, 142 455.634, 142 458.986 C 142 461.589, 142.613 461.944, 154.099 465.994 C 164.789 469.763, 166.900 470.196, 172.239 469.712 C 176.510 469.325, 178.891 468.554, 180.365 467.080 L 182.449 464.995 179.975 462.564 C 177.443 460.077, 157.380 451.919, 154.241 452.100 C 153.283 452.156, 150.735 452.615, 148.578 453.120 M 349.156 456.382 C 341.861 459.541, 337 462.929, 337 464.853 C 337 466.926, 340.173 468.903, 344.555 469.561 C 348.176 470.104, 351.138 469.591, 359.293 467.010 C 372.819 462.730, 375.205 461.451, 374.812 458.692 C 374.356 455.485, 368.621 452.983, 362 453.102 C 358.192 453.170, 354.241 454.179, 349.156 456.382 M 122.582 460.316 C 121.592 461.040, 120.944 462.398, 121.141 463.335 C 121.462 464.858, 121.841 464.798, 124.733 462.769 C 126.511 461.521, 127.973 460.163, 127.983 459.750 C 128.011 458.529, 124.527 458.894, 122.582 460.316 M 387.500 460.605 C 390.675 463.052, 393 464.145, 393 463.190 C 393 461.664, 389.424 458.999, 387.421 459.032 C 385.559 459.063, 385.561 459.111, 387.500 460.605" stroke="none" fill="black" fill-rule="evenodd"/>
</svg>