<svg xmlns="http://www.w3.org/2000/svg" width="512" height="512" viewBox="0 0 512 512" version="1.1">
	<path d="M 249.484 28.803 C 246.726 30.324, 240.651 34.275, 235.984 37.583 C 227.884 43.325, 222.751 46.540, 209.603 54.106 C 202.326 58.294, 194.948 65.600, 190.965 72.560 C 185.072 82.862, 180.397 99.972, 182.123 104.924 C 183.171 107.930, 181.707 123.360, 180.181 125.384 C 179.719 125.998, 179.283 129.200, 179.213 132.500 C 179.031 141.087, 174.702 157.181, 170.068 166.500 L 166.089 174.500 167.545 179.968 C 168.345 182.975, 169 188.629, 169 192.531 C 169 198.970, 168.583 200.444, 164.486 208.472 C 158.925 219.371, 158.400 222.469, 160.061 234.568 C 162.246 250.485, 159.705 256.140, 144.658 268.841 C 139.808 272.936, 134.642 278.134, 133.179 280.393 C 129.786 285.632, 129.279 285.966, 124.708 285.985 C 118.987 286.008, 106.307 288.842, 99 291.732 C 86.229 296.781, 75.394 305.079, 63.910 318.606 C 59.991 323.223, 56.442 327, 56.024 327 C 54.602 327, 43.118 290.528, 40.594 277.992 C 33.365 242.092, 35.463 210.371, 47.535 173.028 C 61.834 128.796, 87.346 94.508, 131.563 60.097 C 140.328 53.275, 152.999 44.059, 159.721 39.617 C 167.348 34.577, 171.588 31.188, 171.001 30.601 C 169.606 29.206, 155.099 33.356, 144 38.325 C 96.913 59.404, 53.979 103.352, 31.967 153.005 C 24.064 170.831, 17.709 191.915, 14.482 211.014 C 12.252 224.214, 11.448 252.032, 12.921 265 C 15.933 291.506, 25.911 322.660, 38.621 345.240 C 43.195 353.366, 44 354.131, 44 350.349 C 44 346.113, 45.814 341.121, 48.828 337.068 C 52.128 332.629, 52.535 334.131, 50.016 341.454 C 47.446 348.924, 47.480 349.387, 50.464 347.431 C 53.032 345.749, 65 344.150, 65 345.489 C 65 345.910, 62.807 349.235, 60.126 352.878 C 57.445 356.520, 54.520 360.940, 53.626 362.700 C 51.451 366.982, 49.033 377.494, 49.015 382.750 C 49 386.901, 50.242 388.417, 51.332 385.578 C 52.244 383.202, 60.368 379.048, 65.473 378.349 L 70.284 377.689 69.601 383.095 C 69.226 386.068, 68.573 392.550, 68.151 397.500 C 67.221 408.418, 64.403 414.637, 56.536 423.135 C 51.664 428.396, 50.984 429.704, 49.461 436.728 C 48.535 441.003, 46.252 450.957, 44.388 458.850 C 42.525 466.742, 41 474.729, 41 476.600 L 41 480 78.977 480 L 116.954 480 118.505 477.633 C 119.358 476.330, 120.965 469.058, 122.076 461.471 C 124.601 444.228, 126.722 434.040, 128.146 432.325 C 128.750 431.596, 130.326 431, 131.647 431 C 134.472 431, 136 434.144, 136 439.960 C 136 442.066, 136.871 446.649, 137.935 450.145 C 138.999 453.640, 140.405 460.325, 141.058 465 C 141.712 469.675, 142.843 474.962, 143.572 476.750 L 144.898 480 198.949 480 C 247.097 480, 253 479.831, 253 478.450 C 253 475.038, 249.754 471.060, 242.208 465.222 C 237.852 461.852, 231.989 456.581, 229.181 453.508 L 224.076 447.922 220.288 450.422 C 218.205 451.797, 214.492 453.629, 212.037 454.492 C 207.483 456.094, 193 457.774, 193 456.701 C 193 456.376, 196.047 454.508, 199.772 452.551 C 207.530 448.474, 216.369 441.121, 218.526 436.949 C 221.196 431.786, 219.832 422, 216.442 422 C 215.558 422, 211.610 423.417, 207.668 425.149 C 194.906 430.755, 181.847 429.995, 177.522 423.393 C 173.595 417.400, 177.399 413.139, 189.539 409.932 C 194.167 408.710, 198.686 406.900, 199.581 405.910 C 201.114 404.217, 200.908 403.925, 196.092 400.962 C 189.993 397.209, 186 391.082, 186 385.478 C 186 382.190, 186.701 380.957, 190.838 376.969 C 198.235 369.840, 205.746 366.575, 215.735 366.148 C 226.941 365.669, 235.958 368.400, 243.527 374.566 C 251.085 380.721, 252.318 379.802, 249.452 370.149 C 245.446 356.662, 219.313 338, 204.432 338 C 198.092 338, 195.874 340.547, 193.079 351.038 C 190.593 360.369, 186.715 368, 184.458 368 C 183.262 368, 183.017 365.982, 183.094 356.750 C 183.245 338.628, 184.306 327.260, 186 325.602 C 187.320 324.311, 188.866 324.489, 198.890 327.085 C 219.606 332.450, 233.450 340.264, 247.244 354.376 L 255.988 363.321 266.244 353.348 C 277.901 342.011, 286.798 336.322, 300.558 331.404 C 309.768 328.112, 337.431 322.097, 338.490 323.156 C 338.802 323.469, 338.370 327.671, 337.529 332.493 C 335.125 346.282, 335.503 361.688, 338.511 372.500 C 343.916 391.925, 344.467 395.521, 343.293 403.672 C 341.865 413.587, 337.837 421.465, 332.153 425.461 C 328.099 428.311, 327.260 428.500, 318.665 428.500 C 310.365 428.500, 308.840 428.187, 302.508 425.189 L 295.517 421.879 293.758 424.050 C 290.069 428.607, 292.717 437.580, 299.738 444.314 C 301.925 446.411, 307.492 450.151, 312.107 452.624 L 320.500 457.120 312.500 456.640 C 303.552 456.102, 297.363 454.207, 291.653 450.256 C 287.924 447.675, 287.774 447.653, 286.720 449.536 C 284.660 453.217, 276.968 460.736, 270.785 465.112 C 261.922 471.386, 259 474.438, 259 477.423 L 259 480 312.477 480 L 365.954 480 367.437 477.737 C 368.259 476.482, 369.355 471.028, 369.897 465.487 C 370.434 459.994, 371.803 451.941, 372.937 447.590 C 374.072 443.240, 375 438.597, 375 437.274 C 375 433.524, 376.815 431, 379.512 431 C 384.184 431, 386.534 437.771, 390.032 461.315 C 391.191 469.117, 392.794 476.512, 393.593 477.750 L 395.046 480 433.023 480 L 471 480 471 477.783 C 471 476.564, 469.016 467.452, 466.591 457.533 C 464.166 447.615, 461.622 437.038, 460.938 434.028 C 459.985 429.836, 458.603 427.382, 455.025 423.528 C 446.189 414.013, 441.441 404.436, 442.951 399.172 C 443.544 397.102, 443.368 393.818, 442.420 389.287 C 440.251 378.920, 440.400 377.998, 444.250 378.010 C 448.876 378.024, 457.086 382.128, 460.449 386.107 L 463.317 389.500 462.735 382.500 C 461.938 372.907, 458.491 364.068, 451.619 354 L 445.818 345.500 450.491 345.192 C 453.730 344.978, 456.367 345.511, 459.082 346.926 C 461.237 348.049, 463 348.596, 463 348.140 C 463 347.685, 462.124 344.768, 461.054 341.657 C 459.039 335.800, 459.455 334.635, 462.398 337.888 C 464.412 340.112, 468 349.160, 468 352.011 C 468 355.879, 469.850 353.899, 474.316 345.250 C 484.278 325.960, 491.901 304.220, 496.671 281.500 C 499.188 269.512, 499.401 266.710, 499.399 245.500 C 499.398 220.452, 498.548 213.478, 492.890 192.049 C 484.296 159.504, 471.599 132.961, 452.255 107.096 C 427.014 73.348, 385.026 41.954, 352.539 32.539 C 339.445 28.745, 338.726 29.320, 348.250 35.971 C 388.872 64.339, 419.203 91.658, 435.285 114.359 C 456.752 144.664, 471.644 187.338, 475.058 228.334 C 477.080 252.611, 473.413 278.884, 463.798 309 C 459.071 323.806, 456.955 329.004, 455.678 328.949 C 455.030 328.920, 452.025 325.737, 449 321.874 C 441.809 312.693, 429.736 301.371, 422.555 297.077 C 414.364 292.178, 402.195 288.146, 391.540 286.800 L 382.327 285.637 379.913 281.102 C 378.545 278.531, 375.118 274.706, 372 272.270 C 359.830 262.760, 357.071 259.889, 353.892 253.431 C 350.752 247.054, 350.716 246.816, 351.505 237.728 C 352.784 223.013, 352.433 220.662, 347.450 210.555 C 344.970 205.525, 342.683 199.822, 342.368 197.882 C 341.807 194.423, 344.392 179.061, 346.069 175.890 C 346.657 174.778, 346.159 173.248, 344.455 170.940 C 339.495 164.216, 331.641 138.566, 332.148 130.744 C 332.264 128.960, 331.880 126.600, 331.294 125.500 C 329.811 122.715, 328.547 111.704, 328.861 104.311 C 329.069 99.396, 328.385 95.916, 325.535 87.398 C 319.182 68.412, 312.867 60.685, 295.797 51.008 C 290.683 48.110, 282.900 43.154, 278.500 39.996 C 266.459 31.353, 257.876 25.998, 256.095 26.018 C 255.218 26.028, 252.243 27.281, 249.484 28.803 M 247.611 42.475 C 244.437 44.387, 237.938 48.378, 233.170 51.345 C 228.401 54.312, 221.356 58.454, 217.513 60.551 C 207.882 65.805, 201.514 71.988, 199.173 78.357 C 197.283 83.498, 195.736 91, 196.565 91 C 196.807 91, 198.627 89.204, 200.610 87.010 C 202.593 84.815, 207.040 81.629, 210.493 79.929 C 218.189 76.140, 224.970 75.825, 233 78.882 C 239.463 81.342, 249.326 88.796, 251.383 92.774 C 252.523 94.978, 252.876 101.463, 253.059 123.533 C 253.187 138.915, 253.226 153.409, 253.146 155.741 L 253 159.983 247.388 153.878 C 242.189 148.223, 241.820 147.505, 242.387 144.136 C 244.426 132.012, 244.354 130.574, 241.538 127.227 C 239.780 125.138, 237.072 123.505, 233.712 122.507 C 229.159 121.155, 228.002 121.149, 223.538 122.454 C 220.767 123.264, 214.900 126.170, 210.500 128.913 C 206.100 131.655, 200.145 135.354, 197.268 137.133 C 194.390 138.913, 192.221 140.555, 192.449 140.782 C 192.676 141.009, 195.256 140.306, 198.181 139.218 C 201.106 138.131, 206.818 136.687, 210.872 136.010 C 219.033 134.646, 220.257 135.196, 219.759 140 C 219.530 142.214, 218.870 142.595, 214 143.332 C 195.397 146.148, 189.720 149.047, 183.321 159 C 181.022 162.575, 177.693 167.525, 175.922 170 L 172.702 174.500 176.453 171 C 178.517 169.075, 182.296 164.365, 184.853 160.534 C 191.232 150.973, 195.849 148.612, 208.968 148.203 C 216.134 147.979, 220.238 148.394, 225.500 149.876 L 232.500 151.847 227.750 147.819 C 225.137 145.604, 223 143.204, 223 142.485 C 223 140.824, 228.675 136, 230.629 136 C 232.755 136, 238.364 148.413, 237.605 151.438 C 237.077 153.542, 237.972 154.515, 244.924 159.386 C 249.281 162.439, 253.135 165.851, 253.490 166.968 C 254.385 169.787, 256.211 169.495, 258.064 166.237 C 258.924 164.724, 263.081 161.239, 267.301 158.493 C 274.435 153.851, 274.976 153.254, 274.997 150 C 275.025 145.618, 279.409 136, 281.377 136 C 283.359 136, 289 140.839, 289 142.538 C 289 143.286, 287.425 145.100, 285.500 146.568 C 280.795 150.157, 281.088 151.245, 286.250 149.356 C 292.263 147.155, 305.169 147.198, 312 149.440 C 320.086 152.095, 323.537 154.526, 326.840 159.895 C 330.529 165.889, 335.615 171.736, 338.387 173.168 C 340.195 174.102, 340.121 173.844, 337.871 171.380 C 336.426 169.796, 332.863 165.125, 329.954 161 C 323.838 152.327, 323.430 151.952, 315.685 147.928 C 311.728 145.871, 307.257 144.563, 301.685 143.831 C 297.183 143.240, 292.938 142.600, 292.250 142.410 C 290.512 141.927, 290.685 138.506, 292.524 136.980 C 294.540 135.307, 304.895 136.265, 312.484 138.827 C 319.772 141.288, 318.294 139.690, 306.908 132.797 C 290.235 122.703, 287.886 121.620, 282.848 121.696 C 277.780 121.772, 271.743 124.743, 269.987 128.024 C 268.726 130.381, 268.712 139.510, 269.964 143.874 C 270.898 147.131, 270.729 147.429, 264.464 153.572 L 258 159.910 258 127.248 L 258 94.586 264.250 88.488 C 279.787 73.331, 295.140 72.555, 309.643 86.194 L 315.285 91.500 314.582 87.500 C 313.509 81.394, 308.624 71.641, 304.866 68.103 C 303.015 66.359, 296.550 62.089, 290.500 58.614 C 284.450 55.139, 274.598 49.304, 268.608 45.648 C 262.617 41.992, 256.741 39, 255.549 39 C 254.357 39, 250.785 40.564, 247.611 42.475 M 202.214 156.124 C 199.773 164.172, 199.644 163.892, 205.523 163.286 C 212.318 162.584, 214.692 163.466, 230.723 172.646 C 238.739 177.236, 244.585 179.989, 245.540 179.623 C 246.707 179.175, 247.036 177.916, 246.808 174.771 C 246.515 170.727, 246.143 170.276, 239 165.301 C 228.878 158.251, 218.233 153.840, 209.869 153.231 L 203.238 152.748 202.214 156.124 M 291.326 154.986 C 281.973 158.313, 265.533 168.745, 264.496 172.012 C 263.596 174.849, 264.886 180, 266.497 180 C 267.233 180, 271.359 177.910, 275.667 175.356 C 294.544 164.162, 304.303 160.951, 310.066 164.035 C 312.353 165.259, 312.505 164.357, 310.951 158.762 C 310.380 156.706, 309.062 154.568, 308.022 154.012 C 305.134 152.466, 297.091 152.936, 291.326 154.986 M 219 178.777 C 219 179.205, 219.719 180.581, 220.597 181.835 C 221.711 183.426, 222.992 184.021, 224.838 183.807 C 227.776 183.466, 229.071 180.294, 226.848 178.885 C 225.158 177.814, 219 177.729, 219 178.777 M 284.692 178.701 C 281.693 179.477, 282.945 183.436, 286.310 183.822 C 289.598 184.199, 292 182.534, 292 179.878 C 292 177.987, 289.192 177.534, 284.692 178.701 M 199 187.640 C 199 199.011, 208.555 216, 214.950 216 C 216.367 216, 219.865 214.425, 222.724 212.500 C 225.582 210.575, 228.099 209, 228.317 209 C 228.536 209, 228.497 214.287, 228.232 220.750 C 227.866 229.685, 228.147 234.044, 229.405 238.946 C 230.315 242.492, 231.207 245.540, 231.388 245.721 C 231.568 245.902, 234.528 244.720, 237.965 243.094 C 243.968 240.255, 244.671 240.153, 255.857 240.498 C 265.782 240.805, 268.371 241.245, 273.406 243.485 C 279.938 246.391, 280.243 246.267, 281.959 240 C 283.834 233.150, 284.276 223.264, 283.008 216.540 C 282.320 212.894, 281.955 209.712, 282.197 209.469 C 282.440 209.227, 285.082 210.586, 288.069 212.489 C 291.056 214.392, 294.703 215.960, 296.173 215.974 C 302.081 216.031, 308.987 206.273, 311.529 194.280 C 312.319 190.551, 312.973 187.105, 312.983 186.623 C 312.992 186.140, 309.624 188.953, 305.497 192.873 C 300.237 197.870, 297.235 200, 295.454 200 C 291.970 200, 281.003 196.698, 281.001 195.649 C 281.001 195.180, 284.039 195.102, 287.754 195.475 C 295.157 196.219, 296.216 195.642, 300.560 188.500 L 302.384 185.500 299.124 188.500 C 296.024 191.353, 295.437 191.500, 287.182 191.500 C 279.481 191.500, 278.122 191.782, 275.152 194 C 273.311 195.375, 270.681 198.412, 269.307 200.750 C 267.934 203.088, 266.451 205, 266.012 205 C 264.976 205, 264 202.415, 263.999 199.668 C 263.998 197.619, 263.528 197.496, 255.474 197.425 C 247.102 197.352, 246.940 197.397, 246.392 199.925 C 245.201 205.414, 244.886 205.595, 242.972 201.900 C 240.750 197.612, 234.922 192.270, 231.541 191.421 C 230.208 191.086, 226.993 191.266, 224.397 191.820 C 219.093 192.951, 215.928 192.146, 212.063 188.683 L 209.626 186.500 211.751 190 C 212.920 191.925, 214.916 194.283, 216.188 195.240 C 218.313 196.840, 218.899 196.859, 223.440 195.481 C 230.232 193.419, 231.229 195.134, 224.761 197.754 C 216.032 201.291, 214.253 201.123, 208.839 196.250 C 206.547 194.188, 203.396 190.745, 201.836 188.600 L 199 184.700 199 187.640 M 237.331 220.186 C 234.843 223.391, 235.018 223.985, 239.213 226.603 C 241.571 228.074, 245.618 231.240, 248.207 233.639 C 251.021 236.246, 253.871 238, 255.293 238 C 256.658 238, 260.391 235.818, 264.049 232.882 C 267.556 230.068, 271.905 227.059, 273.713 226.197 C 277.103 224.581, 277.897 222.297, 275.800 220.200 C 273.846 218.246, 270.875 218.793, 263.031 222.553 L 255.618 226.105 249.559 223.086 C 241.866 219.254, 238.647 218.490, 237.331 220.186 M 203 226.980 C 203 231.185, 205.268 247.996, 206.131 250.185 C 207.356 253.294, 232.045 272.177, 238.913 275.258 C 242.831 277.016, 244.975 277.191, 257.987 276.822 C 270.973 276.453, 273.085 276.147, 276.477 274.146 C 282.008 270.883, 303.839 253.184, 305.460 250.649 C 306.705 248.703, 308.990 234.103, 308.997 228.050 C 309.002 223.759, 307.151 227.142, 305.180 235.026 C 302.856 244.321, 301.194 247.531, 296.332 252.109 C 292.057 256.135, 282.732 263.117, 279.193 264.942 L 276.886 266.131 277.553 260.237 L 278.220 254.342 274.128 251.101 L 270.036 247.860 256.864 247.659 C 242.807 247.444, 238.580 248.420, 234.081 252.919 C 232.267 254.733, 232.072 255.757, 232.630 260.508 C 232.985 263.529, 232.918 266, 232.482 266 C 231.142 266, 224.834 260.921, 217.766 254.153 C 210.770 247.452, 208.701 243.588, 206.034 232.247 C 204.924 227.525, 203 224.186, 203 226.980 M 244.075 251.683 C 240.525 253.566, 238.114 256.447, 239.188 257.521 C 239.528 257.861, 241.581 257.607, 243.751 256.957 C 246.178 256.229, 252.180 255.917, 259.348 256.144 C 271.742 256.538, 273.619 255.762, 268.460 252.382 C 264.478 249.773, 248.538 249.316, 244.075 251.683 M 303.527 275.956 C 303.202 276.482, 302.665 284.919, 302.333 294.706 C 301.759 311.643, 301.828 312.620, 303.780 315 C 305.600 317.219, 306.505 317.475, 311.834 317.280 C 323.030 316.871, 341.654 312.145, 344.510 308.989 C 346.014 307.327, 345.670 307.127, 338.595 305.553 C 329.158 303.454, 320.037 298.945, 316.057 294.412 C 314.369 292.490, 311.304 287.337, 309.244 282.962 C 305.555 275.124, 304.694 274.068, 303.527 275.956 M 123.500 293.674 C 115.171 294.713, 104.732 297.565, 98.095 300.612 C 85.800 306.259, 78.678 313.511, 83.582 315.393 C 88.382 317.235, 102.166 314.488, 111.210 309.887 C 119.969 305.432, 118.113 308.619, 107.286 316.626 C 99.312 322.523, 95.233 327.792, 94.329 333.360 C 93.780 336.742, 93.917 337, 96.264 337 C 102.617 337, 120.546 329.735, 127.750 324.241 C 131.941 321.045, 131.841 322.353, 127.463 328 C 118.400 339.688, 116.580 343.612, 115.054 354.750 C 114.148 361.360, 115.294 361.549, 123.629 356.162 C 131.320 351.191, 136.395 345.270, 140.780 336.154 C 145.490 326.360, 146.421 328.099, 145.720 345.386 C 144.956 364.238, 140.075 378.780, 129.760 392.928 C 126.796 396.994, 125 400.503, 125 402.229 C 125 405.704, 125.525 405.687, 131.293 402.029 C 141.857 395.330, 151.802 381.399, 156.657 366.500 C 158.612 360.502, 159.373 355.747, 159.701 347.500 C 160.242 333.897, 159.557 332.412, 148.454 323.103 C 138.960 315.143, 134.742 309.208, 131.973 299.910 C 130.422 294.701, 129.495 293.037, 128.208 293.150 C 127.268 293.232, 125.150 293.468, 123.500 293.674 M 379.907 297.734 C 377.420 303.556, 374.570 306.670, 365.500 313.475 C 352.750 323.040, 350.998 326.319, 350.244 342.015 C 349.830 350.640, 350.124 354.057, 351.881 361.015 C 355.583 375.677, 364.868 391.855, 373.240 398.229 C 376.333 400.584, 384.303 405, 385.460 405 C 387.415 405, 385.169 399.507, 380.961 394 C 369.072 378.439, 363.290 360.179, 364.364 341.582 C 364.679 336.126, 365.367 331.233, 365.893 330.707 C 366.501 330.099, 368.190 332.414, 370.535 337.070 C 372.787 341.542, 376.256 346.356, 379.452 349.445 C 384.883 354.694, 395.618 361.716, 396.644 360.690 C 397.846 359.487, 394.919 347.298, 392.035 341.500 C 390.393 338.200, 386.771 332.855, 383.986 329.623 C 378.592 323.364, 378.103 321.523, 382.692 324.764 C 390.939 330.587, 409.154 337.456, 414.673 336.824 C 421.549 336.036, 415.914 324.783, 404.741 316.988 C 390.978 307.388, 390.770 306.451, 403.547 311.603 C 421.748 318.942, 434.319 316.755, 424.331 307.986 C 416.685 301.273, 401.892 295.667, 386.221 293.546 L 381.943 292.967 379.907 297.734 M 295.842 340.375 C 286.944 344.035, 281.401 347.657, 273.965 354.672 C 266.649 361.573, 261 370.936, 261 376.160 C 261 379.821, 262.388 379.744, 266.838 375.838 C 276.334 367.500, 293.006 363.825, 305.223 367.376 C 311.908 369.320, 319.682 374.468, 322.750 378.984 C 325.878 383.587, 325.717 380.909, 322.085 367.923 C 320.482 362.191, 318.716 355.025, 318.161 352 C 316.766 344.403, 315.507 341.468, 312.841 339.601 C 309.591 337.324, 302.470 337.649, 295.842 340.375 M 204 384.952 C 204 385.476, 209.850 390.931, 217 397.076 C 231.744 409.747, 240.739 419.796, 245.045 428.410 C 247.967 434.254, 248.792 438, 247.157 438 C 246.693 438, 243.697 437.100, 240.500 436 C 232.848 433.367, 231.156 433.458, 229.975 436.565 C 228.595 440.195, 229.865 442.148, 240.012 452 C 245.043 456.885, 250.133 462.946, 251.979 466.250 C 253.746 469.413, 255.555 472, 256 472 C 256.445 472, 258.217 469.505, 259.939 466.454 C 261.728 463.284, 267.139 456.975, 272.574 451.722 C 282.404 442.221, 283.958 439.658, 282.050 436.093 C 280.643 433.465, 277.930 433.444, 270.492 436.003 C 267.291 437.104, 264.467 437.800, 264.216 437.549 C 263.300 436.634, 265.002 432.357, 268.707 426.257 C 274.029 417.498, 284.592 406.188, 297.218 395.730 C 303.148 390.819, 308 386.395, 308 385.900 C 308 383.243, 290.462 386.957, 279.466 391.943 C 268.512 396.910, 261.174 405.561, 257.002 418.426 L 255.729 422.352 254.032 416.926 C 248.657 399.732, 239.942 392.626, 217.178 386.877 C 204.502 383.675, 204 383.602, 204 384.952" stroke="none" fill="black" fill-rule="evenodd"/>
</svg>