<svg xmlns="http://www.w3.org/2000/svg" width="512" height="512" viewBox="0 0 512 512" version="1.1">
	<path d="M 245.862 10.265 C 225.273 35.809, 204.708 56.891, 191.761 65.728 C 185.203 70.204, 184.389 70.494, 178.635 70.396 C 170.611 70.259, 154.807 64.949, 137.141 56.454 C 126.784 51.473, 123.400 50.253, 122.355 51.120 C 119.958 53.110, 120.821 58.461, 124.534 64.627 C 126.478 67.855, 128.585 72.219, 129.216 74.326 C 130.579 78.877, 130.242 79.208, 121.767 81.621 C 115.092 83.522, 112.933 85.402, 115.086 87.436 C 115.864 88.171, 120.775 91.287, 126 94.361 C 131.225 97.435, 135.837 100.299, 136.249 100.725 C 138.312 102.861, 144.002 110.272, 144.019 110.845 C 144.029 111.205, 145.149 115.731, 146.507 120.901 L 148.976 130.302 145.050 134.561 C 139.931 140.115, 139.161 144.240, 141.494 153.608 C 142.489 157.602, 142.957 161.631, 142.546 162.655 C 142.139 163.670, 141.646 168.706, 141.451 173.847 C 140.859 189.452, 136.544 199.379, 123.510 215.126 C 114.155 226.429, 109.543 234.644, 108.045 242.675 C 106.318 251.935, 109.617 264.159, 115.992 272.125 L 118.893 275.750 115.098 283.304 C 110.223 293.009, 108.530 300.957, 109.354 310.277 C 109.705 314.250, 110.254 318.648, 110.574 320.050 C 111.127 322.471, 110.673 322.792, 101.648 326.364 C 89.799 331.054, 88.525 332.335, 92.398 335.666 C 93.956 337.006, 95.066 338.229, 94.865 338.383 C 94.664 338.537, 91.944 339.679, 88.820 340.919 C 85.697 342.160, 79.769 345.304, 75.649 347.906 C 71.528 350.508, 63.846 354.585, 58.578 356.965 C 53.310 359.345, 49 361.698, 49 362.194 C 49 365.773, 67.723 390.423, 78.661 401.244 C 93.182 415.610, 106.976 424.644, 120.248 428.479 C 125.097 429.881, 125.854 430.403, 125.095 431.820 C 124.599 432.744, 119.200 438.978, 113.097 445.673 C 106.994 452.368, 102 458.258, 102 458.763 C 102 459.267, 109.622 461.552, 118.937 463.840 C 164.020 474.913, 213.668 491.580, 244.484 505.987 L 255.469 511.122 264.227 506.544 C 269.044 504.027, 277.928 499.943, 283.968 497.469 C 312.177 485.915, 371.267 467.807, 398.121 462.486 C 402.862 461.546, 407.307 460.428, 407.998 460.001 C 408.876 459.459, 405.887 455.470, 398.073 446.758 C 382.202 429.061, 382.888 430.560, 389.516 428.080 C 412.189 419.597, 433.289 402.287, 452.363 376.521 C 459.913 366.323, 461.706 363.288, 460.736 362.355 C 460.056 361.702, 454.775 359.013, 449 356.379 C 443.225 353.745, 434.675 349.182, 430 346.240 C 425.325 343.297, 419.587 340.371, 417.250 339.738 C 412.624 338.483, 412.147 337.600, 414.621 334.866 C 415.513 333.881, 415.997 332.434, 415.696 331.650 C 415.395 330.867, 410.503 327.864, 404.825 324.977 L 394.500 319.728 394.500 307.114 L 394.500 294.500 390.123 285.332 L 385.747 276.165 387.956 273.061 C 390.876 268.961, 393.816 260.430, 394.585 253.825 C 396.009 241.596, 391.512 230.040, 379.593 215.305 C 368.158 201.169, 364.084 191.284, 364.013 177.500 C 363.993 173.650, 363.316 168.025, 362.509 165 C 361.151 159.908, 361.193 158.964, 363.067 152.275 C 365.391 143.976, 364.682 138.968, 360.377 133.277 L 357.939 130.054 359.893 122.427 C 360.968 118.232, 363.297 111.578, 365.068 107.642 L 368.289 100.484 379.181 94.492 C 394.098 86.286, 393.987 86.377, 391.500 84.454 C 390.400 83.604, 386.238 81.960, 382.250 80.800 C 378.262 79.641, 375 78.154, 375 77.496 C 375 76.839, 377.475 72.195, 380.500 67.177 C 386.126 57.846, 386.975 54.715, 384.717 51.628 C 383.530 50.004, 382.469 50.364, 370.467 56.463 C 357.046 63.284, 340.123 69.384, 331.422 70.538 C 324.853 71.410, 321.024 69.761, 310.662 61.600 C 298.856 52.303, 276.476 28.964, 259.996 8.763 C 256.973 5.058, 254.050 2.027, 253.500 2.028 C 252.950 2.029, 249.513 5.736, 245.862 10.265 M 246.500 32.737 C 237.599 45.066, 212.559 70.259, 199.374 80.151 C 193.805 84.330, 183.567 91.247, 176.624 95.522 L 164 103.296 164 107.648 C 164 110.042, 164.236 112, 164.525 112 C 164.814 112, 168.197 110.415, 172.043 108.478 C 185.403 101.750, 205.500 95.100, 213.671 94.703 C 217.652 94.509, 218.194 94.068, 225.590 85 C 233.436 75.378, 246.465 56.254, 251.012 47.683 C 253.287 43.395, 255 41.743, 255 43.838 C 255 45.470, 272.790 71.658, 281.340 82.612 L 290.014 93.723 295.787 94.247 C 303.030 94.904, 320.584 100.730, 332.906 106.566 C 338.080 109.016, 342.420 110.904, 342.552 110.761 C 342.683 110.617, 343.250 108.817, 343.812 106.759 C 344.758 103.294, 344.637 102.879, 342.167 101.137 C 340.700 100.103, 337.250 98.122, 334.500 96.734 C 326.182 92.539, 309.047 80.822, 299.438 72.759 C 286.245 61.690, 274.139 48.700, 256 26.149 L 253.500 23.041 246.500 32.737 M 244.870 79.775 C 233.545 95.694, 227.155 102.715, 223 103.807 C 221.075 104.312, 215.779 105.222, 211.231 105.828 C 189.108 108.777, 155.884 125.356, 153.563 134.605 C 153.200 136.052, 153.062 137.395, 153.257 137.590 C 153.451 137.784, 155.981 136.347, 158.879 134.396 C 173.514 124.540, 198.401 115.664, 215 114.381 C 221.300 113.894, 223.740 114.200, 230.250 116.294 C 234.512 117.666, 238 118.630, 238 118.438 C 238 118.246, 236.875 116.431, 235.500 114.405 C 232.133 109.443, 232.215 104.464, 235.750 99.227 C 240.463 92.244, 252.053 80, 253.949 80 C 254.944 80, 258.751 83.173, 262.410 87.052 C 276.006 101.464, 277.939 106.015, 273.607 113.407 C 272.173 115.854, 271 118.098, 271 118.393 C 271 118.688, 273.137 117.993, 275.750 116.850 C 283.437 113.485, 291.684 113.388, 305.480 116.501 C 322.821 120.413, 333.224 124.866, 346.725 134.154 L 351 137.096 351 134.526 C 351 128.414, 336.810 118.075, 319.999 111.940 C 311.779 108.940, 298.818 105.907, 288.215 104.503 C 282.939 103.804, 282.916 103.785, 273.706 92.651 C 268.633 86.518, 262.236 78.689, 259.491 75.254 C 256.746 71.818, 254.050 69.017, 253.500 69.028 C 252.950 69.040, 249.066 73.876, 244.870 79.775 M 137.359 76.494 C 137.712 77.412, 138.005 78.914, 138.011 79.832 C 138.019 81.065, 140.498 82.259, 147.515 84.412 C 152.737 86.014, 157.296 87.038, 157.647 86.687 C 158.805 85.528, 156.044 83.288, 151.236 81.485 C 148.631 80.508, 144.299 78.610, 141.609 77.266 C 137.568 75.248, 136.830 75.114, 137.359 76.494 M 358.250 80.546 C 352.192 83.415, 349 85.485, 349 86.546 C 349 87.448, 349.555 87.940, 350.250 87.657 C 350.938 87.376, 355.212 85.896, 359.750 84.367 C 367.452 81.773, 368 81.402, 368 78.794 C 368 77.257, 367.887 76.037, 367.750 76.082 C 367.613 76.128, 363.337 78.136, 358.250 80.546 M 256.859 96.250 C 255.483 98.805, 255.184 106.156, 256.289 110.235 C 257.285 113.910, 260.973 114.784, 265.163 112.337 C 270.768 109.063, 270.648 101.406, 264.916 96.583 C 261.139 93.404, 258.451 93.293, 256.859 96.250 M 244.206 96.048 C 242.944 96.554, 241.212 98.641, 240.358 100.686 C 236.678 109.493, 244.835 118.165, 251 112 C 252.515 110.485, 253 108.667, 253 104.500 C 253 100.333, 252.515 98.515, 251 97 C 248.815 94.815, 247.675 94.655, 244.206 96.048 M 203.919 123.010 C 186.820 125.904, 169.135 133.916, 159.750 143.020 C 154.548 148.067, 154 148.998, 154 152.799 C 154 155.110, 154.266 157, 154.591 157 C 154.916 157, 156.893 155.537, 158.985 153.750 C 163.798 149.636, 177.673 142.705, 185.500 140.504 C 189.238 139.453, 196.972 138.619, 206.018 138.291 C 222.663 137.689, 228.641 138.759, 240.854 144.527 C 244.898 146.437, 248.501 148, 248.860 148 C 249.947 148, 252.172 139.729, 251.256 139.092 C 250.787 138.767, 248.401 137.097, 245.952 135.383 C 235.903 128.347, 219.428 121.883, 212.145 122.118 C 210.140 122.182, 206.439 122.584, 203.919 123.010 M 290 123.074 C 283.036 124.207, 271.817 129.760, 258.211 138.809 C 256.616 139.870, 257.673 148, 259.406 148 C 260.039 148, 263.830 146.431, 267.831 144.514 C 279.818 138.769, 285.481 137.719, 301.500 138.270 C 321.207 138.947, 332.425 142.718, 345.750 153.144 L 352 158.034 352 154.985 C 352 147.218, 344.612 139.111, 331.287 132.255 C 317.399 125.110, 300.534 121.359, 290 123.074 M 201.925 145.913 C 194.199 147.002, 182.718 150.613, 175.535 154.212 C 163.854 160.065, 151 170.681, 151 174.476 C 151 177.496, 153.155 176.867, 159.035 172.128 C 170.877 162.587, 187.177 155.990, 203.953 153.952 C 220.529 151.937, 234.144 154.384, 246.322 161.567 C 249.524 163.455, 252.657 165, 253.285 165 C 253.913 165, 258.943 162.747, 264.464 159.992 C 276.399 154.037, 284.818 152.413, 298.500 153.425 C 319.127 154.952, 336.026 161.609, 348.529 173.133 C 351.741 176.095, 353 176.783, 353 175.578 C 353 169.860, 343.585 161.026, 330.513 154.478 C 317.545 147.982, 308.175 145.765, 293.500 145.721 C 279.994 145.680, 275.011 146.956, 260.838 154.081 L 252.939 158.053 246.191 154.112 C 236.216 148.286, 228.380 145.967, 217.137 145.514 C 211.837 145.301, 204.991 145.480, 201.925 145.913 M 218.667 170.667 C 218.300 171.033, 218 172.588, 218 174.123 C 218 176.523, 218.987 177.488, 225.086 181.050 C 228.983 183.326, 234.158 186.067, 236.586 187.141 C 241.452 189.293, 241.977 190.373, 239.047 192.203 C 237.146 193.390, 237.173 193.558, 240.047 198.583 C 241.671 201.421, 243 204.374, 243 205.144 C 243 207.075, 237.157 214, 235.528 214 C 234.798 214, 231.805 212.200, 228.877 210 C 222.873 205.488, 222.609 205.430, 217.654 207.500 C 212.402 209.695, 203.856 209.461, 200.777 207.039 C 198.286 205.080, 198.280 205.080, 195.137 207.399 C 193.153 208.863, 191.101 209.551, 189.585 209.261 C 187.386 208.841, 186.990 209.390, 184.969 215.665 L 182.758 222.529 187.447 234.015 C 193.208 248.123, 195.889 252.817, 200.497 256.863 C 205.053 260.863, 208.061 260.855, 215.884 256.821 C 221.695 253.823, 222.136 253.340, 223.575 248.391 C 225.434 241.997, 228.020 238.537, 231.972 237.160 C 236.108 235.718, 236.879 237.473, 233.609 240.886 C 229.377 245.304, 231.020 251.013, 236.138 249.674 C 237.411 249.341, 240.255 250.109, 243.111 251.556 C 249.187 254.635, 254.073 254.646, 261.573 251.595 C 266.093 249.755, 267.942 249.434, 269.425 250.228 C 270.984 251.062, 271.724 250.825, 273.183 249.022 C 275.702 245.912, 275.471 244.317, 272 240.846 C 269.261 238.107, 268.188 236, 269.532 236 C 271.295 236, 277.043 239.130, 278.858 241.078 C 280.485 242.825, 281 244.643, 281 248.646 C 281 253.801, 281.094 253.971, 285.319 256.447 C 293.212 261.073, 295.426 261.456, 300.381 259.058 C 306.068 256.305, 308.640 252.295, 314.356 237.273 C 319.372 224.088, 319.887 219.960, 317.420 212.719 C 315.966 208.453, 315.621 208.126, 313.102 208.630 C 311.086 209.033, 309.553 208.495, 307.288 206.589 C 303.517 203.416, 303.483 203.415, 299.818 206.500 C 296.345 209.422, 292.410 209.669, 283.500 207.525 C 277.837 206.161, 277.360 206.191, 275 208.054 C 269.165 212.662, 268.295 212.691, 263.886 208.424 C 259.996 204.659, 259.860 204.318, 260.534 200 C 260.920 197.525, 261.232 193.885, 261.228 191.911 C 261.221 188.799, 261.637 188.168, 264.360 187.156 C 266.087 186.515, 271.016 183.730, 275.314 180.968 C 282.257 176.505, 283.093 175.642, 282.814 173.223 C 282.271 168.517, 279.072 169.458, 259.349 180.119 C 253.386 183.342, 253.180 183.589, 252.565 188.222 C 252.087 191.822, 251.508 193, 250.216 193.001 C 248.766 193.003, 248.552 192.169, 248.836 187.619 L 249.171 182.235 241.348 177.867 C 237.045 175.465, 231.719 172.738, 229.512 171.806 C 225.391 170.066, 219.850 169.484, 218.667 170.667 M 289.250 183.675 C 284.163 185.649, 280 187.722, 280 188.280 C 280 188.944, 283.577 189.063, 290.352 188.625 L 300.705 187.956 304.602 192.228 C 306.746 194.578, 309.269 197.625, 310.209 199 L 311.918 201.500 316.032 197.210 L 320.146 192.921 318.148 189.710 C 315.849 186.018, 305.238 179.978, 301.163 180.042 C 299.698 180.066, 294.337 181.700, 289.250 183.675 M 192.871 183.006 C 188.844 185.134, 184 190.368, 184 192.591 C 184 194.677, 191.038 201.774, 191.642 200.298 C 193.023 196.926, 196.971 192.264, 200.610 189.707 C 204.415 187.032, 204.972 186.915, 208.894 187.971 C 213.024 189.084, 217 188.640, 217 187.067 C 217 185.842, 202.894 180.984, 199.500 181.039 C 197.850 181.066, 194.867 181.951, 192.871 183.006 M 160.671 187 C 160.416 187.825, 159.452 192.993, 158.528 198.484 C 155.596 215.909, 150.257 225.873, 136.167 240.219 C 131.457 245.014, 127.850 249.183, 128.151 249.484 C 129.179 250.512, 143.493 240.322, 149.313 234.419 C 155.863 227.776, 161.453 217.465, 162.984 209.202 C 164.478 201.141, 162.416 181.351, 160.671 187 M 341.315 188.632 C 340.884 190.209, 340.525 196.458, 340.516 202.518 C 340.501 212.992, 340.664 213.868, 343.824 220.290 C 348.146 229.075, 356.515 238.040, 366.500 244.583 C 370.900 247.466, 374.684 249.643, 374.909 249.420 C 375.134 249.198, 371.055 244.623, 365.846 239.255 C 351.958 224.943, 347.415 215.852, 344.537 196.612 C 343.723 191.174, 342.841 186.508, 342.577 186.244 C 342.313 185.980, 341.745 187.055, 341.315 188.632 M 348.070 191.083 C 348.109 193.512, 348.551 196.400, 349.054 197.500 C 349.656 198.820, 349.760 197.459, 349.358 193.500 C 348.623 186.248, 347.974 185.030, 348.070 191.083 M 153.115 193.750 C 153.229 199.439, 153.239 199.457, 154.057 195.500 C 155.193 190.012, 155.177 188, 154 188 C 153.436 188, 153.050 190.507, 153.115 193.750 M 217 215 C 210.193 217.312, 206.465 217.428, 201 215.500 C 196.134 213.783, 195 213.659, 195 214.841 C 195 216.252, 204.596 221, 207.448 221 C 210.371 221, 220.376 216.457, 222.143 214.328 C 223.464 212.736, 223.792 212.693, 217 215 M 304.450 213.907 C 301.991 216.255, 295.999 216.814, 288.947 215.355 C 279.537 213.407, 278.310 214.055, 285.218 217.323 C 289.039 219.131, 292.524 220, 295.953 220 C 300.363 220, 301.519 219.544, 304.765 216.527 C 307.164 214.297, 307.945 213.044, 306.950 213.027 C 306.097 213.012, 304.972 213.408, 304.450 213.907 M 228.500 258.014 C 216.191 260.730, 201.993 274.091, 202.005 282.946 L 202.010 286.500 204.418 283.500 L 206.826 280.500 207.521 283.250 C 208.456 286.946, 209.676 286.712, 211.436 282.500 C 213.020 278.708, 214.629 277.966, 215.232 280.750 C 215.492 281.951, 216.433 280.911, 218.228 277.437 C 219.667 274.653, 221.590 271.755, 222.503 270.998 C 224.017 269.741, 224.097 269.965, 223.424 273.560 C 222.720 277.321, 222.773 277.434, 224.593 276.054 C 225.642 275.259, 228.188 273.030, 230.250 271.101 C 233.890 267.697, 235.077 268.119, 232.965 272.066 C 231.360 275.065, 234.132 274.529, 237.191 271.250 C 240.118 268.112, 242 264.776, 242 262.726 C 242 260.092, 233.124 256.993, 228.500 258.014 M 267.121 259.063 C 262.929 260.943, 262.767 261.177, 263.311 264.529 C 263.903 268.177, 266.673 272.382, 270.037 274.738 C 271.859 276.015, 272 275.895, 272 273.057 C 272 271.376, 272.408 270, 272.907 270 C 273.406 270, 275.853 272.267, 278.345 275.038 L 282.875 280.077 283.187 276.288 L 283.500 272.500 286.702 278.500 C 288.633 282.119, 289.923 283.713, 289.952 282.518 C 289.989 280.999, 290.642 281.466, 292.750 284.518 L 295.500 288.500 295.820 284 L 296.141 279.500 299.044 283 C 301.725 286.234, 301.948 286.326, 301.973 284.210 C 302.044 278.193, 293.089 268.076, 281.576 261.165 C 274.788 257.090, 272.318 256.731, 267.121 259.063 M 244.219 274.337 C 242.964 275.034, 242.251 275.918, 242.635 276.302 C 243.692 277.358, 255.797 277.138, 256.469 276.050 C 258.120 273.378, 248.396 272.018, 244.219 274.337 M 191.150 278.769 C 191.067 281.667, 189.875 287.258, 188.500 291.193 C 184.003 304.064, 185.696 309.584, 196.588 317.564 C 200.293 320.279, 204.887 323.977, 206.796 325.783 C 208.705 327.589, 210.438 328.896, 210.646 328.687 C 210.855 328.478, 210.345 326.677, 209.513 324.686 C 207.392 319.609, 207.563 312.761, 209.882 309.898 C 211.758 307.581, 211.762 307.595, 211.261 314.602 C 210.665 322.921, 211.689 325.406, 218.399 331.938 C 223.158 336.569, 225.470 336.892, 222.608 332.525 C 220.110 328.712, 219.086 325.479, 219.940 324.098 C 220.451 323.270, 221.786 324.550, 223.981 327.970 C 225.784 330.779, 229.113 334.566, 231.379 336.384 C 237.282 341.119, 239.258 341.955, 234.321 337.628 C 229.691 333.571, 226 328.199, 226 325.518 C 226 323.732, 228.078 323.733, 233.750 325.523 C 235.688 326.135, 236 325.873, 236 323.638 C 236 321.202, 236.160 321.116, 238.617 322.235 C 240.913 323.281, 241.456 323.155, 243.028 321.214 C 244.014 319.996, 245.557 319, 246.457 319 C 247.357 319, 248.860 317.653, 249.797 316.006 C 251.875 312.354, 253.750 312.156, 254.589 315.500 C 255.076 317.441, 255.859 318, 258.089 318 C 260.310 318, 261.103 318.560, 261.582 320.471 C 262.183 322.866, 262.307 322.898, 265.601 321.522 C 268.857 320.162, 269.007 320.195, 269.158 322.301 C 269.246 323.510, 269.252 325.281, 269.173 326.236 C 269.044 327.784, 269.243 327.757, 271.014 325.986 C 273.144 323.856, 278 323.262, 278 325.132 C 278 325.755, 277.030 327.892, 275.844 329.882 C 273.754 333.389, 273.846 333.348, 278.844 328.538 C 281.680 325.808, 284 324.143, 284 324.837 C 284 326.661, 281.393 331.429, 279.566 332.945 C 278.705 333.660, 278 334.640, 278 335.122 C 278 336.807, 280.242 335.976, 284.240 332.810 C 289.278 328.820, 292.977 321.185, 292.990 314.750 C 293.001 309.288, 294.609 308.399, 295.536 313.341 C 296.269 317.247, 294.696 323.811, 291.946 328.320 C 288.787 333.502, 289.711 334.015, 294.280 329.618 C 296.633 327.353, 302.049 322.602, 306.315 319.060 C 314.308 312.424, 317.406 308.478, 319.093 302.785 C 320.544 297.891, 320.277 288.102, 318.553 283 C 317.612 280.213, 317.219 279.642, 317.521 281.500 C 317.790 283.150, 318.255 286.975, 318.555 290 L 319.100 295.500 317.480 292 C 316.590 290.075, 315.284 285.800, 314.579 282.500 L 313.297 276.500 312.591 280.500 C 312.202 282.700, 311.670 285.539, 311.408 286.809 C 310.603 290.714, 303.321 297.702, 298.263 299.426 C 288.843 302.636, 283.438 301.033, 277.741 293.341 C 274.658 289.180, 273.520 288.431, 268.366 287.178 C 259.236 284.956, 240.825 284.522, 237.115 286.441 C 235.456 287.298, 232.567 288, 230.695 288 C 227.746 288, 226.908 288.605, 224.439 292.511 C 220.908 298.097, 214.642 301.502, 209.764 300.484 C 205.050 299.502, 198.851 295.672, 196.247 292.135 C 194.175 289.319, 192.647 284.087, 191.682 276.500 C 191.462 274.775, 191.236 275.740, 191.150 278.769 M 316.079 276.583 C 316.127 277.748, 316.364 277.985, 316.683 277.188 C 316.972 276.466, 316.936 275.603, 316.604 275.271 C 316.272 274.939, 316.036 275.529, 316.079 276.583 M 187.651 283.685 C 186.797 286.333, 185.849 290.300, 185.544 292.500 C 185.240 294.700, 186.076 292.675, 187.403 288 C 190.012 278.811, 190.182 275.837, 187.651 283.685 M 151.037 288.221 C 149.133 290.991, 143.415 297.119, 138.331 301.839 C 133.247 306.559, 129.273 310.606, 129.499 310.832 C 130.535 311.868, 139.245 305.503, 144.376 299.960 C 149.277 294.667, 155.773 284.422, 154.817 283.493 C 154.643 283.323, 152.942 285.451, 151.037 288.221 M 351.570 287 C 354.656 293.287, 362.366 302.160, 368.622 306.625 C 371.995 309.031, 375.122 311, 375.571 311 C 376.021 311, 371.635 306.387, 365.824 300.750 C 360.013 295.113, 354.042 288.925, 352.555 287 L 349.852 283.500 351.570 287 M 241.917 294.838 C 237.954 297.351, 234 301.723, 234 303.592 C 234 303.957, 235.978 302.432, 238.395 300.203 C 242.622 296.308, 247.945 294.017, 252.800 294.006 C 255.941 293.998, 260.326 296.399, 265.221 300.807 C 267.995 303.304, 268.954 303.807, 268.184 302.358 C 266.655 299.483, 261.240 295.007, 257.282 293.348 C 252.079 291.168, 246.914 291.669, 241.917 294.838 M 194.608 303.750 C 193.780 307.260, 194.584 312.625, 196.077 313.548 C 197.122 314.194, 197.118 308.032, 196.069 303.500 L 195.375 300.500 194.608 303.750 M 307.035 309.250 C 307.069 316.042, 307.161 316.342, 308.500 314 C 310.698 310.155, 310.286 302, 307.893 302 C 307.402 302, 307.016 305.262, 307.035 309.250 M 199.052 309.918 C 198.171 313.110, 198.127 314.984, 198.895 316.668 C 200.710 320.653, 201.682 319.247, 201.256 313.250 C 200.689 305.254, 200.442 304.881, 199.052 309.918 M 302 312.816 C 302 314.430, 301.743 317.269, 301.428 319.125 C 300.887 322.320, 300.941 322.396, 302.428 320.559 C 304.171 318.406, 304.566 311.468, 303 310.500 C 302.420 310.142, 302 311.115, 302 312.816 M 242.667 335.333 C 249.432 342.099, 251.199 345.739, 245.750 341.683 C 241.003 338.150, 237 335.691, 237 336.308 C 237 336.870, 249.761 346, 250.548 346 C 250.797 346, 251 345.058, 251 343.907 C 251 341.849, 239.157 329, 237.259 329 C 236.750 329, 239.183 331.850, 242.667 335.333 M 259.250 338.160 C 257.462 340.391, 256 342.591, 256 343.049 C 256 345.446, 258.659 344.743, 263.545 341.054 C 270.384 335.891, 270.753 334.553, 264 339.405 C 258.442 343.397, 257.244 342.241, 261.589 337.077 C 263.013 335.385, 263.800 334.023, 263.339 334.052 C 262.878 334.080, 261.038 335.929, 259.250 338.160 M 272.437 337.163 C 269.505 340.320, 269.504 340.322, 272.208 338.413 C 273.697 337.361, 275.145 335.938, 275.426 335.250 C 276.202 333.352, 275.645 333.709, 272.437 337.163 M 191 341.812 C 191 345.044, 187.168 358.283, 183.642 367.238 L 180.200 375.977 184.350 377.042 C 210.403 383.729, 228.684 391.951, 244.572 404.129 C 248.194 406.905, 251.411 408.922, 251.721 408.612 C 252.818 407.515, 250.053 397.049, 247.151 391.313 C 245.534 388.116, 242.344 383.385, 240.063 380.799 C 232.484 372.207, 215.595 362.621, 203.384 359.980 L 198.500 358.924 195.589 349.462 C 192.883 340.666, 191 337.527, 191 341.812 M 315.756 342.629 C 315.230 343.525, 312.678 352.472, 311.624 357.112 C 311.123 359.321, 310.339 359.819, 306.538 360.340 C 296.228 361.753, 278.160 371.691, 270.586 380.115 C 264.841 386.505, 259.843 396.583, 259.224 403.024 C 258.698 408.498, 259.278 408.944, 263 405.934 C 269.784 400.447, 281.196 393.317, 288.910 389.747 C 297.975 385.552, 322.281 377.035, 325.250 377.013 C 327.538 376.996, 327.517 376.851, 323.875 367.500 C 322.162 363.100, 319.749 355.508, 318.514 350.629 C 317.279 345.749, 316.038 342.149, 315.756 342.629 M 87 357.862 C 81.225 359.863, 76.317 361.608, 76.094 361.740 C 75.373 362.165, 79.390 370.282, 83.386 376.477 C 88.269 384.044, 100.495 396.690, 109 402.971 C 116.440 408.465, 128.977 415.132, 130.314 414.306 C 131.635 413.489, 130.265 406.448, 127.853 401.658 C 126.701 399.371, 122.239 392.100, 117.938 385.500 C 113.636 378.900, 107.723 369.261, 104.799 364.080 C 101.874 358.899, 99.035 354.562, 98.491 354.442 C 97.946 354.322, 92.775 355.861, 87 357.862 M 403.086 365.250 C 399.598 371.438, 393.559 381.450, 389.666 387.500 C 385.773 393.550, 381.566 400.975, 380.318 404 C 378.159 409.229, 377.274 415, 378.629 415 C 378.975 415, 383.251 412.895, 388.132 410.322 C 404.462 401.711, 418.166 389.037, 428.672 372.828 C 435.388 362.465, 435.406 362.508, 422.500 357.925 C 416.450 355.776, 411.034 354.014, 410.464 354.009 C 409.894 354.004, 406.574 359.063, 403.086 365.250 M 126.621 364 C 127.042 364.825, 128.945 367.951, 130.850 370.947 C 136.183 379.334, 142.689 393.866, 143.989 400.295 C 144.633 403.482, 144.850 407.927, 144.471 410.172 C 143.429 416.337, 145.619 414.063, 147.101 407.441 C 149.714 395.762, 144.365 381.703, 132.706 369.606 C 128.939 365.698, 126.201 363.175, 126.621 364 M 375.834 368.743 C 372.817 371.909, 369.160 376.301, 367.706 378.501 C 361.850 387.369, 359.389 400.884, 362.136 409.101 C 363.756 413.945, 364.665 414.573, 364.192 410.522 C 363.106 401.220, 368.179 386.403, 377.653 371.203 C 380.162 367.176, 382.014 363.680, 381.767 363.434 C 381.520 363.187, 378.850 365.576, 375.834 368.743 M 182.945 398.644 C 182.425 400.012, 182 401.927, 182 402.900 C 182 406.042, 177.907 417.349, 174.775 422.858 C 170.793 429.865, 161.568 439.648, 152.854 446.108 C 149.018 448.952, 146.244 451.621, 146.690 452.038 C 147.135 452.455, 154.320 454.644, 162.656 456.901 C 192.178 464.896, 217.394 474.238, 240.236 485.642 C 247.240 489.139, 253.693 492, 254.575 492 C 255.457 492, 263.001 488.654, 271.340 484.564 C 279.678 480.475, 292.602 474.868, 300.060 472.106 C 314.185 466.874, 344.875 457.557, 358.250 454.440 C 362.512 453.447, 365.987 452.379, 365.970 452.067 C 365.954 451.755, 362.537 449.250, 358.376 446.500 C 342.894 436.266, 332.005 421.398, 328.520 405.733 C 326.029 394.539, 326.877 394.890, 313.356 399.448 C 292.058 406.626, 276.745 415.235, 261.211 428.762 C 255.565 433.677, 254.746 434.091, 253.211 432.800 C 252.270 432.009, 248.800 429.095, 245.500 426.324 C 232.212 415.170, 214.425 405.380, 198 400.182 C 184.008 395.754, 184.043 395.757, 182.945 398.644" stroke="none" fill="black" fill-rule="evenodd"/>
</svg>