<svg xmlns="http://www.w3.org/2000/svg" width="512" height="512" viewBox="0 0 512 512" version="1.1">
	<path d="M 237.500 13.345 C 230.455 15.680, 225.516 18.716, 221.268 23.326 C 215.574 29.502, 212.227 36.553, 209.877 47.321 C 208.781 52.343, 207.057 57.812, 206.047 59.476 C 205.036 61.139, 203.398 65.111, 202.405 68.303 C 201.413 71.494, 199.068 75.897, 197.193 78.087 C 193.337 82.592, 189.644 84.675, 176.853 89.556 C 161.078 95.576, 155.080 101.446, 158.238 107.775 L 159.675 110.656 154.090 113.578 C 143.393 119.174, 134.230 130.618, 135.178 137.198 C 135.706 140.861, 141.461 144, 147.648 144 C 152.609 144, 153 144.173, 153 146.365 C 153 150.149, 149.317 153.816, 141.770 157.546 C 131.693 162.526, 126.852 166.377, 113.890 179.725 C 100.538 193.475, 94.264 201.429, 93.413 205.686 C 92.895 208.274, 93.459 209.450, 97.283 213.755 L 101.759 218.795 99.839 224.482 C 98.783 227.610, 98.162 230.935, 98.459 231.871 C 98.756 232.808, 101.812 235.192, 105.250 237.171 C 119.978 245.647, 136.548 261.288, 141.481 271.372 C 142.981 274.437, 145.135 277.196, 146.522 277.828 C 147.939 278.474, 149.179 280.088, 149.508 281.716 C 151.347 290.800, 153.210 294.957, 156.960 298.345 C 161.945 302.848, 166.333 303.714, 172.978 301.507 C 179.329 299.398, 181.464 300.017, 180.539 303.699 C 179.367 308.369, 171.943 320.069, 169.423 321.217 C 166.919 322.358, 166.269 325.297, 167.939 327.935 C 168.550 328.901, 168.063 330.915, 166.448 334.103 C 162.603 341.690, 156.537 357.546, 152.524 370.500 C 146.885 388.703, 145.565 391.323, 140.692 393.997 C 138.386 395.262, 135.741 396.949, 134.813 397.747 C 132.388 399.830, 131.503 398.825, 130.052 392.340 L 128.765 386.589 125.580 390.045 C 123.828 391.945, 119.606 395.907, 116.197 398.849 C 112.725 401.846, 110 405.019, 110 406.064 C 110 407.091, 111.434 409.563, 113.186 411.559 C 115.397 414.077, 116.085 415.578, 115.436 416.463 C 114.921 417.165, 111.880 420.835, 108.678 424.620 C 100.116 434.737, 83.527 456.883, 79.501 463.569 C 77.575 466.766, 76 470.256, 76 471.323 C 76 473.002, 76.506 473.185, 79.750 472.684 C 81.813 472.365, 84.512 471.803, 85.750 471.435 C 89.071 470.448, 88.555 471.975, 83.042 479.443 C 80.315 483.137, 77.122 488.711, 75.946 491.830 C 74.069 496.808, 73.975 497.805, 75.174 500 C 77.685 504.594, 82.454 506.195, 92 505.650 C 98.747 505.264, 101.987 505.598, 107.710 507.270 C 114.700 509.313, 115.197 509.328, 124.015 507.765 C 129.018 506.878, 133.761 505.613, 134.556 504.954 C 137.433 502.566, 135.402 491.807, 131.706 489.862 C 128.902 488.386, 128.034 487.066, 128.015 484.250 C 127.995 481.228, 129.043 481.416, 132.187 485 C 133.635 486.650, 135.423 487.987, 136.160 487.972 C 136.897 487.957, 139.858 483.119, 142.740 477.222 C 147.167 468.165, 151.089 462.087, 162.528 446.557 C 163.937 444.643, 163.995 444.647, 166.294 446.807 C 169.629 449.939, 171.098 449.572, 175.288 444.560 C 178.750 440.418, 179 439.673, 179 433.495 C 179 427.293, 179.201 426.702, 182.149 424.221 C 186.811 420.298, 191.005 414.056, 190.965 411.100 C 190.945 409.670, 190.322 407.404, 189.580 406.064 C 188.293 403.741, 188.614 403.203, 196.513 394.457 C 205.636 384.356, 217.433 368.853, 232.945 346.578 C 238.529 338.560, 243.536 332, 244.071 332 C 244.605 332, 246.917 333.238, 249.208 334.750 C 253.175 337.369, 253.950 337.500, 265.467 337.500 L 277.561 337.500 287.030 343.127 C 300.001 350.835, 307.087 354.253, 316.605 357.394 C 329.252 361.566, 329.082 361.219, 322.996 370.410 C 319.994 374.943, 317.451 377.851, 316.937 377.337 C 316.450 376.850, 315.448 374.707, 314.709 372.575 L 313.367 368.698 310.529 373.599 C 308.968 376.294, 306.485 380.075, 305.013 382 C 300.644 387.711, 300.641 387.773, 304.557 391.360 L 308.229 394.725 300.182 411.112 C 295.756 420.126, 288.729 433.327, 284.567 440.449 C 280.405 447.572, 277 454.473, 277 455.785 C 277 458.089, 277.222 458.159, 283.502 457.835 C 287.078 457.651, 290.003 457.766, 290.002 458.090 C 290.001 458.415, 288.658 461.115, 287.018 464.090 C 283.009 471.363, 280.677 478.579, 281.403 481.470 C 282.087 484.193, 284.094 484.982, 297.915 487.957 C 304.935 489.468, 308.628 490.878, 312.435 493.500 C 316.786 496.496, 318.869 497.180, 326.521 498.124 C 336.761 499.388, 350.201 498.823, 354.231 496.959 C 358.083 495.178, 358.402 493.064, 356.022 485.075 C 353.926 478.035, 351.448 475, 347.798 475 C 346.831 475, 344.198 474.263, 341.947 473.362 C 338.503 471.984, 337.468 470.853, 335.426 466.238 C 331.414 457.165, 332.449 456.709, 340.500 464 C 343.537 466.750, 346.446 469, 346.965 469 C 348.052 469, 348.545 466.367, 350.055 452.500 C 350.654 447, 351.973 438.675, 352.986 434 C 354.812 425.573, 361.348 406.252, 362.897 404.703 C 363.340 404.260, 364.455 405.045, 365.374 406.449 C 367.534 409.745, 369.537 409.681, 371.636 406.250 C 372.562 404.738, 374.477 402.499, 375.893 401.276 L 378.467 399.053 376.745 390.776 C 375.049 382.620, 375.054 382.459, 377.085 379.692 C 386.099 367.410, 386.323 353.162, 377.606 346.513 C 375.623 345, 374 343.128, 374 342.353 C 374 336.747, 360.270 317.372, 347.856 305.462 C 339.970 297.895, 322.176 283.747, 317.250 281.127 C 315.712 280.308, 315 279.015, 315 277.040 C 315 274.673, 314.230 273.727, 310.750 271.812 C 307.238 269.881, 306.444 268.893, 306.178 266.123 C 305.924 263.476, 305.242 262.540, 302.928 261.667 C 300.402 260.713, 300 260.043, 300 256.781 C 300 252.885, 297.319 249, 294.631 249 C 292.906 249, 292.025 243.865, 292.011 233.718 C 291.995 222.124, 296.724 209.460, 302.915 204.523 C 307.059 201.217, 316.999 195, 318.140 195 C 319.628 195, 325.691 199.841, 338 210.857 C 343.775 216.025, 350.351 221.091, 352.614 222.114 C 356.412 223.830, 357.112 223.859, 361.737 222.485 C 372.533 219.279, 385.805 208.197, 403.036 188 C 406.555 183.875, 413.204 176.339, 417.810 171.254 C 424.095 164.318, 425.804 161.862, 424.656 161.421 C 423.418 160.946, 424.382 158.404, 429.702 148.123 C 435.338 137.229, 436.265 134.704, 436.183 130.456 C 436.131 127.730, 436.099 122.083, 436.111 117.906 C 436.131 111.147, 435.845 109.969, 433.503 107.185 C 428.975 101.805, 418.565 100.232, 414.702 104.344 C 413.491 105.634, 411.150 107.015, 409.500 107.414 C 407.850 107.812, 405.074 109.510, 403.332 111.186 C 401.589 112.863, 399.114 114.754, 397.832 115.390 C 396.248 116.175, 395.399 117.581, 395.187 119.773 C 395.014 121.548, 394.405 123, 393.832 123 C 393.259 123, 386.200 127.661, 378.145 133.358 C 370.090 139.055, 358.606 146.939, 352.626 150.877 C 340.711 158.723, 341.797 158.619, 335.162 152.552 C 331.690 149.377, 327.438 142.228, 328.432 141.235 C 328.746 140.921, 330.097 141.249, 331.434 141.965 C 332.771 142.680, 334.570 142.995, 335.433 142.664 C 339.100 141.257, 335.714 127.985, 329.327 118.736 C 323.912 110.894, 311.555 103.596, 296.848 99.554 C 290.119 97.705, 289.335 96.209, 288.345 83.330 L 287.705 75 290.745 75 C 292.418 75, 294.014 74.407, 294.292 73.682 C 295.201 71.311, 293.323 64.086, 290.800 60.253 C 289.252 57.901, 287.733 53.226, 286.730 47.732 C 283.780 31.566, 277.952 22.857, 265.801 16.455 C 259.244 13, 257.634 12.578, 250 12.314 C 244.827 12.134, 239.934 12.538, 237.500 13.345 M 253 18.406 C 253 19.234, 259.294 24.933, 260.250 24.971 C 261.487 25.019, 261.096 21.324, 259.744 20.203 C 258.212 18.931, 253 17.542, 253 18.406 M 237.429 22.381 C 231.663 25.066, 226.747 30.476, 224.334 36.794 C 222.797 40.820, 222.799 41.227, 224.361 42.789 C 226.846 45.274, 233.501 44.818, 236.551 41.953 C 237.898 40.687, 239 39.055, 239 38.326 C 239 37.597, 239.450 37, 240 37 C 240.550 37, 241 37.900, 241 39 C 241 44.187, 249.772 47.119, 253.376 43.137 C 255.867 40.384, 256.552 32.256, 254.672 27.757 C 253.050 23.875, 247.964 20.003, 244.500 20.014 C 243.400 20.017, 240.218 21.082, 237.429 22.381 M 267.057 27.398 C 265.150 32.331, 269.983 44, 273.934 44 C 279.570 44, 278.657 36.500, 272.107 29 L 268.178 24.500 267.057 27.398 M 261.050 33.906 C 260.473 34.985, 260 40.675, 260 46.551 L 260 57.233 256.060 53.673 C 252.614 50.560, 249.757 49.431, 243.500 48.712 C 241.562 48.489, 228.969 51.241, 228.508 51.988 C 228.250 52.404, 229.943 52.974, 232.270 53.255 C 242.763 54.521, 252.150 60.307, 258.591 69.477 C 260.324 71.944, 261.375 72.455, 264.724 72.455 C 268.307 72.455, 269.632 71.680, 276.383 65.637 C 280.572 61.888, 284 58.411, 284 57.910 C 284 55.742, 278.833 57.333, 272.297 61.515 C 267.941 64.302, 264.620 65.792, 263.620 65.408 C 261.951 64.767, 261.363 63, 262.818 63 C 263.268 63, 265.491 61.575, 267.758 59.833 C 271.586 56.890, 271.776 56.519, 270.439 54.610 C 269.648 53.480, 269 51.778, 269 50.829 C 269 48.243, 264.077 33.166, 263.019 32.512 C 262.514 32.200, 261.628 32.827, 261.050 33.906 M 273.755 52.500 C 273.218 55.312, 273.366 55.409, 276.029 53.985 C 277.132 53.394, 277.687 52.349, 277.356 51.485 C 276.456 49.140, 274.280 49.754, 273.755 52.500 M 244.555 52.911 C 243.895 53.978, 258.767 62.244, 260.379 61.707 C 261.983 61.172, 256.135 56.022, 251.500 53.886 C 247 51.813, 245.374 51.585, 244.555 52.911 M 222.500 58.398 C 219.636 59.646, 219.794 59.704, 226 59.680 C 234.526 59.647, 238.823 61.189, 246.595 67.072 C 252.715 71.704, 256 72.544, 256 69.478 C 256 67.483, 247.205 61.534, 240.712 59.137 C 234.213 56.737, 226.984 56.444, 222.500 58.398 M 226.563 79.801 C 225.627 82.750, 226.958 85, 229.638 85 C 234.182 85, 233.818 78.877, 229.234 78.192 C 227.905 77.993, 226.955 78.565, 226.563 79.801 M 256 82 C 256 83.708, 268.673 83.637, 270.450 81.919 C 271.030 81.358, 268.401 81, 263.700 81 C 259.233 81, 256 81.420, 256 82 M 220.892 96.692 C 218.320 102.009, 218.315 102.052, 220.590 99.915 C 222.603 98.025, 224.815 92.359, 223.845 91.580 C 223.655 91.428, 222.327 93.728, 220.892 96.692 M 252.728 93.128 C 253.349 93.749, 256.927 94.463, 260.678 94.716 C 265.862 95.065, 267.980 94.801, 269.500 93.619 C 271.348 92.181, 270.746 92.061, 261.550 92.032 C 254.162 92.008, 251.891 92.291, 252.728 93.128 M 179.201 95.674 C 174.856 97.452, 172.994 98.729, 173.201 99.793 C 173.590 101.797, 176 102.604, 176 100.730 C 176 99.939, 178.588 97.889, 181.750 96.173 C 188.715 92.394, 187.703 92.196, 179.201 95.674 M 248 100.392 C 248 100.608, 251.154 101.557, 255.008 102.502 C 262.389 104.311, 267.296 104.001, 270.576 101.519 C 272.294 100.219, 271.191 100.060, 260.250 100.032 C 253.512 100.014, 248 100.177, 248 100.392 M 244 107.777 C 244 109.035, 255.749 112.002, 260.706 111.994 C 265.239 111.988, 271.684 110.320, 272.542 108.931 C 272.933 108.299, 270.490 108.022, 265.829 108.171 C 261.798 108.301, 255.238 108.044, 251.250 107.602 C 246.635 107.089, 244 107.153, 244 107.777 M 422 107.851 C 422 108.393, 423.543 109.791, 425.429 110.956 C 427.315 112.122, 429.080 113.621, 429.350 114.288 C 429.621 114.955, 429.878 114.557, 429.921 113.405 C 429.964 112.253, 429.212 110.618, 428.250 109.773 C 425.994 107.793, 422 106.564, 422 107.851 M 225 108.986 C 225 109.528, 227.590 111.279, 230.755 112.876 C 233.920 114.474, 238.283 117.406, 240.450 119.391 L 244.391 123 253.864 123 C 265.065 123, 275.438 121.382, 277.103 119.375 C 277.975 118.326, 278.008 117.312, 277.226 115.596 C 276.178 113.296, 276.058 113.278, 270.861 114.626 C 267.948 115.382, 260.724 116, 254.808 116 C 244.248 116, 243.907 115.927, 236.119 112 C 228.183 107.998, 225 107.135, 225 108.986 M 305.752 114.512 C 304.939 116.980, 304.637 119, 305.080 119 C 306.312 119, 309 114.774, 309 112.837 C 309 109.256, 307.171 110.199, 305.752 114.512 M 168.500 113.402 C 164.315 114.729, 156 118.749, 156 119.445 C 156 119.667, 158.363 119.040, 161.250 118.052 C 166.308 116.320, 174 114.762, 174 115.468 C 174 115.656, 171.975 116.997, 169.500 118.447 C 167.025 119.898, 165 121.230, 165 121.407 C 165 121.585, 168.938 120.443, 173.750 118.869 C 178.563 117.296, 184.525 115.499, 187 114.877 C 190.736 113.938, 191.160 113.610, 189.500 112.943 C 186.395 111.697, 172.950 111.991, 168.500 113.402 M 417 112.706 C 417.825 113.008, 419.574 114.210, 420.886 115.377 L 423.271 117.500 422.163 115.368 C 421.057 113.237, 418.872 111.930, 416.668 112.079 C 416.026 112.122, 416.175 112.405, 417 112.706 M 314.210 119.163 C 311.874 124.381, 312.833 126.163, 316.785 123.952 C 320.151 122.069, 320.716 118.958, 318.120 116.608 C 316.202 114.873, 316.101 114.940, 314.210 119.163 M 411.256 118.059 C 413.297 119.742, 415.411 121.879, 415.953 122.809 C 416.868 124.378, 416.941 124.380, 416.970 122.827 C 417.016 120.281, 412.100 115, 409.683 115 C 407.841 115, 408.058 115.424, 411.256 118.059 M 402.102 120.724 C 402.266 121.973, 412 130.384, 412 129.276 C 412 127.510, 407.923 123.012, 404.912 121.454 C 403.310 120.626, 402.046 120.298, 402.102 120.724 M 184.030 131.113 C 177.198 133.839, 171.261 141.097, 172.548 145.150 C 172.910 146.293, 175.162 148.069, 177.636 149.163 C 183.838 151.907, 191.888 150.312, 196.842 145.358 C 199.828 142.372, 200.180 141.496, 199.666 138.330 C 198.793 132.948, 195.536 129.986, 190.576 130.063 C 188.334 130.098, 185.388 130.570, 184.030 131.113 M 294 133.451 C 294 139.210, 296.208 146.019, 298.716 147.991 C 304.237 152.334, 313 149.004, 313 142.562 C 313 136.176, 306.532 131, 298.550 131 C 294.388 131, 294 131.209, 294 133.451 M 206.199 134.364 C 206.463 136.186, 207.622 136.591, 215.616 137.658 C 220.630 138.328, 227.542 139.604, 230.977 140.494 C 234.411 141.384, 237.410 141.923, 237.641 141.692 C 238.919 140.414, 221.349 134.643, 211.699 133.172 C 206.161 132.327, 205.912 132.381, 206.199 134.364 M 273.500 141.076 C 264.166 145.717, 260.585 148.256, 261.118 149.855 C 261.435 150.806, 281.223 140.110, 283.663 137.670 C 285.424 135.909, 280.722 137.485, 273.500 141.076 M 390 144.526 C 384.775 148.665, 374.668 155.978, 367.540 160.776 C 360.412 165.574, 354.112 169.841, 353.540 170.257 C 352.888 170.733, 353.383 171.699, 354.870 172.852 C 357.209 174.666, 357.366 174.634, 367.233 170.351 C 381.057 164.351, 388.683 160.387, 394.249 156.310 L 398.998 152.831 398.365 147.445 C 397.879 143.312, 398.117 141.470, 399.389 139.529 C 400.300 138.138, 400.698 137, 400.273 137 C 399.847 137, 395.224 140.387, 390 144.526 M 284 147.193 C 282.075 148.380, 275.855 152.415, 270.178 156.159 L 259.856 162.967 256.178 161.384 C 250.554 158.964, 248.189 158.375, 238.656 157.022 C 232.851 156.198, 229.663 155.285, 229.301 154.343 C 228.537 152.351, 228.923 152.142, 235.065 151.227 L 240.500 150.416 234 148.756 C 227.291 147.043, 220 145.857, 220 146.480 C 220 146.675, 220.907 148.951, 222.016 151.538 L 224.032 156.241 220.079 160.530 C 210.959 170.424, 213.399 181.932, 225.605 186.593 C 233.759 189.707, 250.281 186.295, 257.265 180.055 C 259.815 177.776, 260.384 176.412, 260.781 171.629 C 261.225 166.269, 261.506 165.749, 265.377 163.098 C 267.645 161.545, 270.482 159.967, 271.682 159.591 C 273.762 158.940, 273.817 159.078, 272.860 162.546 C 269.897 173.276, 278.576 183.911, 290.349 183.978 C 305.983 184.067, 308.387 166.753, 293.983 157.799 C 291.242 156.095, 289 154.573, 289 154.416 C 289 154.259, 289.461 152.916, 290.025 151.433 C 291.180 148.395, 290.468 144.991, 288.683 145.017 C 288.032 145.026, 285.925 146.005, 284 147.193 M 206.496 154.725 C 204.848 155.571, 203.400 156.342, 203.277 156.438 C 202.638 156.938, 205.238 164, 206.062 164 C 207.347 164, 210.992 157.951, 210.996 155.809 C 211.002 153.294, 209.831 153.012, 206.496 154.725 M 320.478 159.127 C 317.527 161.847, 316 164.086, 316 165.693 C 316 168.765, 317.691 172, 319.296 172 C 320.940 172, 334 163.192, 334 162.083 C 334 160.948, 327.233 155, 325.943 155 C 325.400 155, 322.940 156.857, 320.478 159.127 M 143.401 164.905 C 133.220 169.529, 130.686 184.201, 139.300 188.655 C 142.705 190.416, 150.442 189.863, 154.906 187.540 C 158.226 185.812, 161.580 182.128, 162.452 179.250 C 163.100 177.114, 162.865 176.999, 157.817 176.985 C 150.443 176.965, 147.399 175.278, 147.854 171.465 C 148.049 169.834, 148.848 167.262, 149.630 165.750 C 150.923 163.248, 150.891 163.002, 149.276 163.022 C 148.299 163.034, 145.655 163.882, 143.401 164.905 M 340.498 180.138 C 336.649 182.856, 333.353 185.502, 333.174 186.017 C 332.618 187.617, 338.076 191.924, 341.464 192.559 C 343.235 192.891, 345.981 193.014, 347.566 192.832 C 350.092 192.541, 350.554 191.959, 351.309 188.114 C 352.385 182.643, 351.450 177.311, 349.205 176.110 C 347.904 175.413, 345.827 176.374, 340.498 180.138 M 176.105 183.358 C 168.415 193.767, 159.185 199.021, 147.227 199.795 C 143.227 200.054, 139.704 200.670, 139.399 201.163 C 139.095 201.656, 140.223 203.629, 141.908 205.548 C 143.593 207.467, 145.229 210.266, 145.544 211.768 C 147.022 218.814, 150.485 228.065, 155.118 237.346 C 161.472 250.074, 161.555 250.172, 165.388 249.464 C 169.546 248.695, 172.272 250.804, 172.400 254.889 C 172.497 257.975, 172.864 258.241, 183 262.569 C 192.847 266.774, 193.580 266.943, 194.788 265.277 C 198.827 259.708, 201 255.651, 201 253.678 C 201 252.450, 202.301 250.304, 203.890 248.909 C 206.013 247.046, 207.109 244.796, 208.017 240.436 C 209.580 232.927, 208.350 225.615, 203.985 216.468 C 201.353 210.953, 199.938 209.296, 195.361 206.368 C 192.349 204.441, 189.654 202.261, 189.370 201.523 C 189.087 200.785, 189.602 198.736, 190.516 196.970 L 192.176 193.759 186.857 185.879 C 183.931 181.546, 181.205 178, 180.800 178 C 180.395 178, 178.282 180.411, 176.105 183.358 M 113.938 191.788 C 107.012 198.565, 105.247 202.390, 108.475 203.629 C 109.286 203.940, 111.477 203.250, 113.345 202.096 C 115.212 200.942, 118.805 199.714, 121.329 199.368 L 125.917 198.740 124.325 195.661 C 123.449 193.968, 122.688 190.876, 122.633 188.791 C 122.579 186.706, 122.161 185, 121.705 185 C 121.249 185, 117.753 188.055, 113.938 191.788 M 250.596 200.983 C 244.768 204.824, 237.750 209.106, 235 210.500 C 229.597 213.238, 228.578 215, 232.398 215 C 235.295 215, 242.727 211.152, 253.500 204.075 C 260.590 199.417, 261.948 198.879, 265.438 199.340 C 267.604 199.626, 272.055 201.242, 275.328 202.930 C 278.602 204.619, 281.752 206, 282.328 206 C 284.235 206, 277.584 199.847, 272.500 196.909 C 264.956 192.548, 262.779 192.953, 250.596 200.983 M 261.699 229.343 C 261.415 230.082, 260.873 233.345, 260.494 236.593 C 260.115 239.842, 259.153 244.826, 258.355 247.669 C 257.086 252.193, 257.088 253.274, 258.368 256.338 C 260.193 260.705, 262.973 262.341, 266.374 261.048 C 269.519 259.852, 271.332 256.560, 270.731 253.135 C 269.799 247.827, 263.659 228, 262.947 228 C 262.544 228, 261.982 228.604, 261.699 229.343 M 232 236.851 C 232 241.173, 231.346 243.932, 229.498 247.407 L 226.997 252.112 234.554 255.556 C 238.710 257.450, 242.267 259, 242.458 259 C 242.648 259, 242.175 256.909, 241.406 254.354 C 240.637 251.798, 239.499 246.736, 238.877 243.104 C 237.568 235.463, 235.576 231, 233.474 231 C 232.343 231, 232 232.362, 232 236.851 M 216.625 261.798 C 215.476 263.657, 218.314 265.131, 232.055 269.815 C 240.041 272.537, 250.261 276.617, 254.766 278.882 C 259.270 281.147, 263.348 283, 263.827 283 C 264.306 283, 270.363 278.787, 277.288 273.639 C 286.702 266.638, 289.590 263.990, 288.739 263.139 C 288.112 262.512, 287.280 262, 286.890 262 C 286.499 262, 281.085 265.150, 274.859 269 C 268.632 272.850, 262.762 276, 261.814 276 C 260.866 276, 256.132 274.260, 251.295 272.133 C 230.630 263.046, 218.152 259.326, 216.625 261.798 M 275.774 286.440 C 270.974 290.515, 266.103 294.150, 264.948 294.517 C 263.463 294.988, 261.299 294.154, 257.557 291.669 C 252.298 288.178, 236.711 280, 235.314 280 C 234.912 280, 236.428 281.913, 238.682 284.250 C 240.936 286.587, 246.242 293.802, 250.474 300.282 C 258.864 313.130, 262.139 316.289, 264.560 313.869 C 265.352 313.077, 269.645 306.370, 274.101 298.964 C 278.557 291.559, 283.102 284.038, 284.200 282.250 C 285.299 280.462, 285.816 279.006, 285.349 279.014 C 284.882 279.022, 280.573 282.364, 275.774 286.440 M 310.902 300.750 C 295.857 314.677, 299.184 324.656, 323.018 337.098 C 328.710 340.069, 335.711 344.637, 338.574 347.250 C 341.438 349.863, 344.421 352, 345.203 352 C 345.986 352, 347.934 350.635, 349.532 348.967 C 351.130 347.298, 354.363 344.805, 356.716 343.426 L 360.993 340.920 359.456 337.210 C 356.474 330.011, 350.651 322.393, 340.766 312.756 C 331.850 304.065, 320.199 295, 317.943 295 C 317.487 295, 314.319 297.587, 310.902 300.750 M 199.537 314.730 L 197.003 318.460 205.751 321.210 C 210.563 322.722, 214.725 323.965, 215 323.972 C 215.275 323.979, 216.008 322.890, 216.628 321.552 C 217.582 319.494, 217.428 318.812, 215.628 317.122 C 213.397 315.027, 205.369 311.060, 203.286 311.022 C 202.618 311.010, 200.931 312.679, 199.537 314.730 M 182.905 335.250 C 173.526 349.721, 168.873 362.207, 168.239 374.605 C 167.696 385.241, 168.656 388, 172.900 388 C 176.503 388, 179.140 385.993, 191.833 373.594 C 203.178 362.510, 209.574 354.787, 213.460 347.479 C 216.917 340.977, 216.760 338.434, 212.750 335.989 C 208.013 333.100, 195.092 329, 190.725 329 C 187.201 329, 186.693 329.406, 182.905 335.250 M 362.270 349.480 C 356.940 351.801, 352.998 360.018, 356.559 361.384 C 358.440 362.106, 366.904 360.324, 368.709 358.826 C 370.689 357.183, 370.247 353.388, 367.750 350.593 C 365.625 348.213, 365.321 348.152, 362.270 349.480 M 166.195 403.490 C 162.427 406.660, 162.195 408.323, 165.223 410.443 C 168.938 413.046, 173.459 412.432, 176.411 408.923 C 177.835 407.231, 179 405.486, 179 405.046 C 179 403.567, 176.207 401.908, 172.784 401.352 C 170.072 400.912, 168.747 401.342, 166.195 403.490" stroke="none" fill="black" fill-rule="evenodd"/>
</svg>