<svg xmlns="http://www.w3.org/2000/svg" width="512" height="512" viewBox="0 0 512 512" version="1.1">
	<path d="M 251.931 14.166 C 248.348 22.818, 227.894 51.003, 225.205 50.995 C 224.267 50.993, 218.349 48.067, 212.053 44.493 C 205.757 40.919, 200.306 38.333, 199.941 38.747 C 199.575 39.161, 198.796 41.300, 198.209 43.500 C 197.622 45.700, 196.360 49.542, 195.405 52.038 L 193.668 56.577 196.334 59.243 C 199.683 62.592, 199.716 64.716, 196.445 66.207 C 191.462 68.477, 171.413 63.619, 156.503 56.529 C 152.651 54.697, 149.106 53.440, 148.624 53.736 C 145.998 55.348, 151.315 78.547, 155.058 81.808 C 156.126 82.739, 157.871 84.259, 158.936 85.186 C 160.001 86.114, 162.129 90.614, 163.664 95.186 C 166.272 102.955, 166.455 104.582, 166.447 120 C 166.438 137.832, 165.759 141.669, 160.914 151.280 C 157.608 157.838, 157.322 160.789, 159.573 165.140 C 160.643 167.210, 160.940 169.398, 160.502 171.988 C 160.111 174.303, 160.278 176.054, 160.929 176.456 C 162.869 177.655, 162.046 183.399, 159.018 189.800 C 156.891 194.295, 153.185 199.070, 146.080 206.465 C 135.253 217.736, 134.329 219.666, 135.238 229.127 C 135.904 236.053, 140.173 242.011, 145.894 244 L 150.209 245.500 149.795 255 C 149.240 267.708, 146.677 272.987, 135.089 285.297 C 124.421 296.629, 122.502 300.789, 123.232 310.997 L 123.733 318 120.048 318 C 114.153 318, 106.368 320.786, 103.082 324.072 C 100.883 326.271, 99.881 328.415, 99.416 331.918 L 98.777 336.738 92.639 337.377 C 84.847 338.188, 77.229 341.897, 72.419 347.221 C 69.435 350.524, 68.952 351.556, 70.080 352.223 C 70.861 352.686, 77.575 356.467, 85 360.626 C 92.425 364.785, 99.175 368.856, 100 369.674 C 101.804 371.462, 103.066 370.433, 82.413 383.996 C 74.115 389.445, 66.727 394.623, 65.996 395.504 C 64.843 396.894, 65.451 397.904, 70.584 403.133 C 89.415 422.318, 118.119 440.086, 147.746 450.897 C 167.817 458.221, 209.544 468.028, 220.406 467.975 L 225.500 467.950 239.509 482.475 C 247.213 490.464, 254 497, 254.590 497 C 255.180 497, 261.925 490.681, 269.578 482.957 C 277.231 475.234, 284.394 468.752, 285.496 468.554 C 286.598 468.355, 292.675 467.448, 299 466.536 C 325.596 462.705, 357.105 454.183, 377.742 445.238 C 399.655 435.741, 421.588 421.250, 437.857 405.520 C 445.512 398.119, 446.284 397.047, 445.041 395.550 C 444.275 394.627, 435.841 388.701, 426.299 382.381 C 416.757 376.061, 409.197 370.490, 409.500 370 C 409.802 369.511, 416.226 365.645, 423.775 361.410 C 441.358 351.545, 440.358 352.416, 438.239 348.818 C 434.592 342.623, 426.340 338.067, 417.115 337.154 L 410.500 336.500 409.958 331.786 C 409.105 324.370, 402.403 318.762, 392.842 317.464 C 383.805 316.237, 384.358 316.764, 384.791 309.781 C 385.429 299.515, 382.491 293.288, 372.376 283.464 C 361.084 272.498, 358.782 267.486, 358.619 253.522 C 358.509 244.091, 358.634 243.378, 360.217 244.367 C 362.552 245.826, 366.752 242.662, 369.855 237.106 C 372.668 232.072, 373.083 223.358, 370.767 218 C 369.935 216.075, 365.611 210.534, 361.158 205.686 C 352.344 196.089, 346.833 186.476, 346.954 180.907 C 347.162 171.309, 347.721 166.290, 348.803 164.316 C 350.615 161.009, 350.243 156.129, 347.887 152.318 C 344.801 147.323, 342.062 135.853, 341.366 125 C 340.375 109.555, 345.097 89.521, 351.037 83.967 C 355.577 79.723, 362.030 64.751, 361.985 58.568 C 361.949 53.748, 360.905 53.771, 347.433 58.886 C 340.320 61.586, 330.339 64.794, 325.253 66.015 C 316.592 68.093, 315.846 68.129, 313.503 66.594 C 310.143 64.392, 310.350 61.724, 314.128 58.546 L 317.256 55.914 314.250 49.207 C 312.597 45.518, 310.967 41.681, 310.627 40.681 C 309.827 38.325, 308.786 38.684, 295.099 46.035 C 288.990 49.316, 283.596 52, 283.113 52 C 282.153 52, 265.587 28.370, 259.325 18.069 C 257.176 14.533, 254.935 11.478, 254.345 11.282 C 253.756 11.085, 252.670 12.383, 251.931 14.166 M 247.986 40.451 C 240.533 51.993, 227.454 65.725, 212.750 77.446 C 207.387 81.721, 203 85.742, 203 86.381 C 203 87.729, 222.125 103.101, 229.500 107.681 C 236.229 111.859, 238.435 112.423, 240.395 110.463 C 244.259 106.598, 241.248 99.176, 232.286 90.475 C 228.829 87.118, 226 84.072, 226 83.706 C 226 83.340, 227.879 82.082, 230.177 80.910 C 236.012 77.933, 244.121 69.988, 249.058 62.411 C 251.355 58.885, 253.618 56, 254.086 56 C 254.554 56, 256.812 58.587, 259.103 61.750 C 265.410 70.453, 272.959 77.885, 278.250 80.598 C 280.863 81.938, 283 83.392, 283 83.830 C 283 84.268, 281.608 85.948, 279.906 87.563 C 274.545 92.654, 269.037 99.667, 267.486 103.379 C 266.035 106.851, 266.074 107.052, 268.798 110.100 L 271.605 113.242 275.553 111.195 C 284.333 106.641, 305.897 87.260, 304.571 85.114 C 304.205 84.522, 298.850 79.801, 292.671 74.622 C 277.781 62.143, 269.595 53.304, 261.317 40.770 L 254.472 30.407 247.986 40.451 M 248.576 109.566 C 241.518 117.741, 235.838 120.993, 212 130.503 C 181.877 142.522, 167 151.142, 167 156.577 C 167 158.616, 168.326 158.368, 174.779 155.120 C 180.146 152.419, 197.703 145.324, 225.500 134.623 C 232.100 132.082, 240.382 128.090, 243.904 125.752 C 247.426 123.413, 251.324 120.845, 252.567 120.044 C 254.667 118.690, 255.235 118.874, 260.663 122.665 C 269.272 128.679, 274.570 131.107, 298.670 140.086 C 310.676 144.559, 324.728 150.195, 329.896 152.610 C 335.064 155.024, 339.676 157, 340.146 157 C 342.191 157, 340.728 152.549, 337.779 149.793 C 333.433 145.734, 313.904 136.470, 295 129.502 C 274.363 121.894, 268.833 118.846, 260.974 110.750 C 257.371 107.037, 254.188 104, 253.902 104 C 253.616 104, 251.219 106.505, 248.576 109.566 M 233.500 142.598 C 212.217 145.588, 197.520 149.741, 183.500 156.729 C 172.440 162.242, 168 165.494, 168 168.082 C 168 171.560, 170.784 171.316, 179.460 167.077 C 190.383 161.740, 205.894 156.684, 220.166 153.809 C 230.056 151.816, 234.431 151.530, 254.500 151.561 C 286.938 151.611, 302.592 154.667, 326.071 165.533 C 338.701 171.378, 340.723 171.885, 341.661 169.440 C 343.885 163.646, 316.688 150.256, 291.970 144.975 C 283.236 143.109, 277.769 142.691, 259 142.457 C 246.625 142.303, 235.150 142.366, 233.500 142.598 M 201.374 181.689 C 198.189 182.314, 194.996 186.251, 194.326 190.380 C 193.838 193.384, 194.310 194.980, 196.934 199.201 L 200.138 204.355 197.564 211.428 C 196.149 215.317, 194.993 219.882, 194.995 221.572 C 195.009 230.107, 202.080 241.045, 208.908 243.091 C 212.132 244.056, 213.367 243.931, 217.156 242.255 C 219.607 241.171, 222.713 238.817, 224.056 237.025 C 228.496 231.105, 233.740 226, 235.382 226 C 237.635 226, 237.405 228.266, 235 229.768 C 233.724 230.565, 233 232.100, 233 234.008 C 233 236.719, 233.305 236.999, 236.250 236.990 C 238.037 236.985, 242.984 238.213, 247.241 239.720 L 254.983 242.460 261.741 240.265 C 265.459 239.057, 269.988 237.788, 271.808 237.443 C 274.675 236.899, 275.074 236.462, 274.808 234.158 C 274.620 232.540, 273.610 231.110, 272.224 230.502 C 269.488 229.302, 269.734 226.377, 272.536 226.787 C 273.616 226.945, 276.935 229.645, 279.911 232.787 C 289.738 243.162, 295.633 245.803, 301.800 242.595 C 305.773 240.528, 308.551 237.180, 311.424 231 C 314.650 224.060, 314.686 218.609, 311.554 211.526 L 309.108 205.995 312.088 199.626 C 314.721 193.998, 314.957 192.763, 314.113 189.008 C 313.588 186.671, 312.728 184.328, 312.201 183.801 C 310.954 182.554, 304.416 181.054, 300.095 181.024 C 296.850 181.001, 296.991 181.153, 303.095 184.250 C 307.750 186.612, 309.500 188.046, 309.500 189.500 C 309.500 191.113, 308.946 191.435, 306.632 191.163 C 303.861 190.837, 303.817 190.900, 305.307 193.028 C 307.366 195.967, 306.498 197.763, 302.129 199.602 C 297.510 201.546, 294.688 201.617, 288.201 199.955 C 279.151 197.635, 280.157 200.042, 290.526 205.513 C 295.724 208.256, 299.983 211.063, 299.989 211.750 C 300.011 214.269, 291.968 213.098, 283.746 209.385 C 277.059 206.366, 274.933 205.848, 270.840 206.241 C 268.145 206.500, 265.704 206.330, 265.416 205.864 C 265.127 205.397, 264.455 202.303, 263.921 198.988 C 262.857 192.382, 263.814 189.031, 266.785 188.958 C 267.728 188.934, 271.650 187.096, 275.500 184.872 C 280.748 181.841, 281.749 180.955, 279.500 181.331 C 277.850 181.608, 272.802 182.371, 268.282 183.027 C 261.678 183.986, 259.945 184.597, 259.457 186.137 C 258.603 188.825, 254.492 191.291, 252.118 190.538 C 251.030 190.192, 249.227 188.467, 248.113 186.705 C 246.141 183.584, 245.818 183.472, 235.794 182.417 C 230.132 181.821, 225.342 181.454, 225.150 181.601 C 224.530 182.072, 237.938 188.038, 240.991 188.648 C 243.983 189.247, 245.723 192.021, 244.424 194.123 C 244.036 194.750, 243.670 197.792, 243.610 200.882 L 243.500 206.500 237 206.559 C 231.849 206.606, 229.359 207.217, 225 209.502 C 219.445 212.414, 208 214.287, 208 212.284 C 208 211.758, 212.613 208.892, 218.250 205.914 C 227.075 201.253, 228.108 200.455, 225.679 200.177 C 224.128 199.999, 221.473 200.336, 219.780 200.927 C 215.194 202.525, 210.714 202.235, 205.503 200.001 C 201.114 198.120, 200.879 197.827, 201.500 195.001 C 202.062 192.439, 201.863 192, 200.138 192 C 199.027 192, 197.837 191.545, 197.493 190.989 C 196.533 189.435, 202.491 184.052, 205.935 183.363 C 207.621 183.026, 209 182.356, 209 181.875 C 209 180.998, 205.353 180.909, 201.374 181.689 M 299.441 204.468 C 298.374 205.276, 297.976 205.951, 298.559 205.968 C 299.141 205.986, 300.491 205.339, 301.559 204.532 C 302.626 203.724, 303.024 203.049, 302.441 203.032 C 301.859 203.014, 300.509 203.661, 299.441 204.468 M 207 204.893 C 207 205.384, 207.712 206.059, 208.582 206.393 C 211.028 207.332, 211.351 207.128, 210 205.500 C 208.620 203.838, 207 203.510, 207 204.893 M 178.190 209.762 C 176.768 214.508, 169.187 225.176, 165.537 227.568 C 164.142 228.482, 163 229.650, 163 230.163 C 163 230.676, 165.067 229.674, 167.593 227.936 C 172.654 224.454, 177.486 217.623, 179.083 211.691 C 180.498 206.438, 179.701 204.717, 178.190 209.762 M 329.048 208.590 C 328.948 215.044, 338.959 230.078, 343.285 229.970 C 343.953 229.953, 343.744 229.498, 342.820 228.959 C 340.359 227.524, 332.465 215.220, 330.656 210 C 329.199 205.798, 329.092 205.704, 329.048 208.590 M 279.734 244.499 C 278.213 245.837, 275.258 247.392, 273.169 247.955 C 271.079 248.517, 268.352 250.061, 267.107 251.386 L 264.845 253.794 268.390 254.964 C 270.339 255.607, 273.147 257.566, 274.629 259.317 L 277.323 262.500 276.658 259.811 C 275.525 255.232, 277.501 255.865, 280.530 261.052 C 283.450 266.051, 285 267.247, 285 264.500 C 285 261.958, 286.876 262.805, 292.198 267.750 L 297.310 272.500 296.712 268.500 L 296.115 264.500 300.010 268.954 C 303.223 272.627, 304.021 273.109, 304.561 271.702 C 306.269 267.250, 300.470 258.543, 292.005 252.851 C 288.298 250.358, 286.227 248.158, 285.470 245.911 C 284.060 241.724, 283.146 241.499, 279.734 244.499 M 223.864 246.377 C 223.082 248.136, 220 251.146, 216.638 253.435 C 209.105 258.565, 205.887 262.822, 205.246 268.506 C 204.968 270.978, 205.117 273, 205.578 273 C 206.039 273, 208.122 271.334, 210.208 269.297 C 213.786 265.803, 214 265.725, 214 267.924 C 214 270.082, 214.346 269.936, 218.678 265.943 C 223.233 261.744, 223.382 261.688, 224.331 263.815 C 225.693 266.869, 226.875 266.544, 228.493 262.670 C 229.258 260.839, 230.585 258.759, 231.442 258.048 C 232.771 256.945, 233 257.074, 233 258.928 C 233 261.100, 233.003 261.099, 236.250 258.636 C 238.037 257.279, 241.051 255.772, 242.946 255.285 L 246.392 254.401 242.911 251.746 C 240.997 250.285, 236.235 247.790, 232.329 246.201 L 225.227 243.311 223.864 246.377 M 314.053 247.216 C 313.356 249.543, 311.756 253.483, 310.496 255.973 C 308.200 260.513, 306.535 269, 307.940 269 C 308.936 269, 311.447 266.072, 312.967 263.137 C 314.010 261.125, 316.238 243.992, 315.554 243.244 C 315.426 243.103, 314.750 244.890, 314.053 247.216 M 193.742 252.123 C 194.094 257.382, 194.956 260.847, 196.745 264.192 C 201.681 273.421, 204.045 269.893, 199.639 259.871 C 198.341 256.917, 196.372 252.305, 195.264 249.623 L 193.249 244.745 193.742 252.123 M 236.060 273.565 C 231.969 274.945, 227.946 275.944, 227.121 275.785 C 226.205 275.608, 224.624 277.344, 223.061 280.242 C 221.398 283.324, 218.603 286.306, 215.091 288.744 C 207.448 294.052, 206.763 295.525, 210.500 298.619 C 217.459 304.381, 222.123 306.424, 227.777 306.188 C 230.745 306.064, 234.430 305.312, 235.967 304.517 C 239.851 302.509, 243.730 297.633, 244.956 293.219 C 246.566 287.422, 246.309 286, 243.649 286 C 242.356 286, 239.853 285.496, 238.087 284.881 L 234.876 283.761 237.188 281.252 C 240.675 277.467, 245.164 275.999, 253.218 276.010 C 258.781 276.017, 261.711 276.583, 265.627 278.407 C 273.905 282.261, 273.751 284.954, 265.250 284.985 C 261.001 285, 261 285.001, 261 288.788 C 261 295.191, 264.734 301.132, 270.500 303.903 C 276.784 306.923, 282.235 306.961, 288 304.025 C 294.498 300.716, 299.992 296.143, 299.381 294.550 C 299.094 293.803, 296.304 291.393, 293.180 289.195 C 289.526 286.624, 286.444 283.380, 284.540 280.100 C 282.024 275.765, 281.124 274.993, 278.540 274.956 C 276.868 274.932, 273.700 274.236, 271.500 273.410 C 269.095 272.506, 262.716 271.738, 255.500 271.482 C 244.676 271.098, 242.771 271.302, 236.060 273.565 M 167.053 290.198 C 165.157 292.955, 161.179 297.188, 158.211 299.605 C 152.067 304.610, 152.479 305.365, 159.054 301.151 C 164.396 297.728, 166.110 295.848, 169.027 290.207 C 172.118 284.230, 171.159 284.225, 167.053 290.198 M 338.004 286.079 C 337.993 290.416, 347.341 300.658, 353.419 302.969 C 355.106 303.611, 353.548 301.657, 348.833 297.220 C 344.904 293.524, 340.862 289.150, 339.849 287.500 C 338.768 285.739, 338.006 285.152, 338.004 286.079 M 119.344 328.546 C 118.273 331.338, 119.652 338.396, 122.405 344.211 C 125.705 351.181, 138.311 365.254, 148.797 373.674 C 153.026 377.069, 156.603 379.731, 156.745 379.588 C 158.054 378.279, 147.501 355.803, 140.271 344.500 C 134.429 335.368, 131.514 332.331, 125.783 329.407 C 120.212 326.564, 120.110 326.551, 119.344 328.546 M 385 328.739 C 374.912 333.696, 359.710 357.413, 353.507 377.871 C 352.811 380.168, 352.940 380.140, 357.644 376.991 C 360.315 375.203, 367.634 368.511, 373.909 362.120 C 386.894 348.895, 391.132 341.762, 391.366 332.737 C 391.522 326.734, 390.450 326.061, 385 328.739 M 147.656 337.486 C 145.882 339.261, 146.293 343.527, 148.699 348.310 C 150.428 351.745, 154.428 353.532, 173.829 359.539 C 191.921 365.140, 202.174 368.856, 216.904 375.151 C 223.177 377.832, 228.452 379.882, 228.627 379.707 C 229.645 378.688, 221.706 371.266, 214.395 366.402 C 199.601 356.558, 162.619 338.768, 152.374 336.567 C 150.150 336.089, 148.788 336.355, 147.656 337.486 M 343.383 341.841 C 327.512 348.797, 304.163 361.038, 294.649 367.392 C 286.867 372.588, 279.147 379.480, 280.072 380.405 C 280.311 380.645, 283.656 379.478, 287.504 377.814 C 297.202 373.618, 322.756 364.194, 339.500 358.638 C 347.200 356.083, 354.990 353.084, 356.810 351.974 C 360.479 349.737, 363.278 344.217, 362.806 340.147 C 362.538 337.830, 362.001 337.467, 358.500 337.235 C 355.511 337.036, 351.691 338.200, 343.383 341.841 M 97.667 346.425 C 95.963 350.865, 102.127 360.909, 109.588 365.851 C 115.968 370.076, 133 375.407, 133 373.179 C 133 372.639, 130.075 369.825, 126.500 366.925 C 122.925 364.024, 120 361.264, 120 360.791 C 120 360.318, 122.250 360.230, 125 360.594 C 128.908 361.113, 129.995 360.957, 129.978 359.879 C 129.917 356.113, 124.040 352.184, 111.294 347.386 C 104.106 344.681, 98.489 344.284, 97.667 346.425 M 400 347.354 C 391.529 350.367, 385.571 353.470, 383.038 356.189 C 379.733 359.737, 380.456 360.864, 386.250 361.198 L 391.500 361.500 384.195 367.500 C 375.592 374.566, 376.401 375.358, 388.403 371.616 C 400.606 367.811, 408.414 361.298, 411.487 352.361 C 414.158 344.590, 411.288 343.339, 400 347.354 M 172.702 378.632 C 169.891 381.442, 174.465 389.569, 183.509 397.834 C 189.046 402.895, 223.450 430.614, 242 444.960 C 247.225 449.001, 252.060 452.742, 252.745 453.272 C 254.361 454.524, 255.321 453.878, 279 435.622 C 308.772 412.667, 317.758 405.330, 326.842 396.557 C 335.742 387.962, 338 384.695, 338 380.414 C 338 377.816, 337.856 377.748, 333.613 378.329 C 327.633 379.149, 316.149 383.789, 299.824 391.981 C 284.603 399.619, 279.022 402.999, 264.681 413.261 L 254.863 420.288 252.181 418.140 C 243.303 411.027, 220.433 396.780, 208 390.615 C 191.161 382.267, 174.666 376.667, 172.702 378.632 M 129 385.207 C 129 385.871, 131.859 389.204, 135.354 392.614 C 144.548 401.584, 156.234 406.848, 195.750 419.818 C 199.188 420.946, 202 421.483, 202 421.012 C 202 419.493, 191.753 411.030, 182.500 404.906 C 170.189 396.758, 153.112 388.482, 143.562 386.034 C 134.558 383.727, 129 383.411, 129 385.207 M 369 385.522 C 355.592 388.273, 343.302 393.912, 327.500 404.561 C 318.690 410.499, 307.180 420.452, 308.061 421.370 C 309.023 422.373, 347.013 409.135, 356.919 404.345 C 364.058 400.894, 367.993 398.172, 373.169 393.107 C 382.835 383.650, 382.358 382.781, 369 385.522" stroke="none" fill="black" fill-rule="evenodd"/>
</svg>