<svg xmlns="http://www.w3.org/2000/svg" width="512" height="512" viewBox="0 0 512 512" version="1.1">
	<path d="M 293.943 10.750 C 293.276 12.813, 291.621 16.417, 290.264 18.760 C 287.480 23.569, 277.601 32.811, 274.380 33.619 C 273.212 33.913, 267.587 32.562, 261.878 30.618 C 248.130 25.937, 240.461 25.214, 232.218 27.823 C 220.344 31.580, 201.897 44.642, 190.264 57.532 L 184.413 64.015 179.456 62.578 C 176.730 61.788, 172.591 60.643, 170.257 60.034 C 167.033 59.193, 165.624 58.155, 164.393 55.713 C 160.680 48.353, 154.630 44, 148.115 44 C 137.920 44, 129.994 51.754, 130.004 61.718 C 130.009 66.930, 132.990 71.341, 138.687 74.568 C 148.497 80.123, 150.239 81.674, 155.452 89.500 C 162.085 99.458, 166.256 107.740, 169.493 117.383 C 172.814 127.277, 172.726 132.113, 169.100 139 C 164.605 147.540, 163.599 152.323, 165.518 156.035 C 166.391 157.722, 167.756 159.353, 168.552 159.658 C 170.751 160.502, 170.332 163.215, 166.448 173.288 C 159.920 190.217, 155.344 196.885, 142.891 207.613 C 124.723 223.265, 116.053 240.204, 116.015 260.125 C 116.007 264.318, 116.948 273.318, 118.107 280.125 C 121.793 301.774, 120.501 309.245, 110.619 323.400 C 106.970 328.626, 106.500 329.948, 106.500 334.978 C 106.500 342.289, 109.664 346.706, 117.742 350.672 C 123.217 353.361, 124.162 353.498, 137 353.456 C 148.895 353.417, 151.388 353.102, 157.970 350.808 C 165.411 348.215, 165.284 349.197, 157.669 353.140 C 146.884 358.723, 123.705 361.114, 114.184 357.624 C 104.412 354.043, 100.800 349.250, 100.800 339.869 C 100.800 335.418, 101.543 332.437, 103.917 327.363 C 105.632 323.699, 106.828 320.495, 106.575 320.242 C 105.908 319.575, 96.403 327.781, 93.642 331.408 C 84.539 343.365, 82.883 358.942, 89.356 371.717 C 92.637 378.191, 100.631 385.465, 108.527 389.159 C 112.087 390.825, 115 392.469, 115 392.813 C 115 393.156, 112.799 395.701, 110.108 398.469 C 104.487 404.250, 85.992 428.766, 86.016 430.405 C 86.036 431.790, 101.379 441.867, 110.545 446.514 C 118.479 450.536, 138.450 457.189, 151 459.991 C 164.482 463.001, 193.682 467.680, 216.500 470.486 C 243.763 473.840, 267.632 477.521, 282 480.587 C 296.325 483.643, 320.664 490.279, 319.264 490.745 C 318.690 490.937, 310.859 489.740, 301.861 488.087 C 272.520 482.697, 256.086 480.147, 217.908 475.057 C 186.147 470.822, 154.637 465.916, 142.512 463.316 C 139.887 462.754, 140.251 463.258, 145.512 467.470 C 158.634 477.976, 166.819 487.256, 173.092 498.738 L 176.500 504.976 229.500 504.987 C 258.650 504.993, 301.046 504.700, 323.713 504.337 L 364.926 503.676 366.058 498.088 C 367.507 490.941, 370.327 484.455, 373.960 479.915 L 376.830 476.329 373.415 469.544 C 368.467 459.713, 368.783 455.973, 375.261 447.709 C 377.524 444.823, 378.099 443.245, 377.670 441.101 C 377.150 438.500, 377.428 438.189, 381.303 437.033 C 388.545 434.873, 397.416 430.451, 401.234 427.100 C 405.016 423.779, 411 413.159, 411 409.767 C 411 408.026, 410.515 408.131, 405.628 410.927 C 396.857 415.945, 396.500 415.684, 396.498 404.246 C 396.496 395.310, 396.249 394.054, 393.524 389.130 C 390.354 383.403, 382.182 375.430, 375.311 371.362 L 371.122 368.881 372.957 364.601 C 377.402 354.231, 377.747 344.065, 373.953 335.267 C 371.128 328.716, 367.425 324.489, 359.130 318.347 C 350.585 312.020, 349 310.384, 349 307.895 C 349 306.929, 353.434 302.510, 359.094 297.836 C 370.497 288.418, 376.858 280.642, 380.030 272.243 C 382.493 265.723, 383.630 256.546, 382.497 252.339 L 381.732 249.500 380.843 252.727 C 378.645 260.711, 372.683 258.603, 367.228 247.912 C 362.785 239.206, 360.692 228.675, 361.269 217.930 C 361.700 209.897, 362.138 208.489, 368.273 195.430 C 376.334 178.272, 377.963 172.964, 378.686 161.500 C 379.908 142.134, 373.071 129.560, 355.545 118.938 C 348.980 114.959, 348.606 114.018, 348.618 101.500 C 348.631 86.355, 354.237 75.728, 371.638 57.860 C 380.962 48.287, 382 46.854, 382 43.561 C 382 33.491, 372.321 27.311, 361.485 30.461 C 357.448 31.635, 355.211 33.090, 352.222 36.485 C 348.997 40.149, 347.322 41.167, 342.985 42.097 C 340.071 42.722, 336.197 43.855, 334.376 44.616 C 329.596 46.613, 328.320 46.348, 327.695 43.226 C 327.343 41.465, 323.645 37.006, 317.569 31.015 C 312.304 25.825, 305.651 18.299, 302.784 14.290 C 299.916 10.280, 297.027 7, 296.363 7 C 295.699 7, 294.610 8.688, 293.943 10.750 M 292.536 33.250 C 289.378 40.538, 286.401 46.917, 285.920 47.426 C 285.392 47.987, 284.348 47.737, 283.274 46.790 C 276.653 40.958, 260.188 35.967, 247.500 35.945 C 236.795 35.928, 229.078 37.788, 220.092 42.552 C 211.976 46.855, 196.942 58.833, 194.126 63.240 C 192.198 66.257, 192.167 66.593, 193.712 67.750 C 196.604 69.915, 198.415 69.156, 204.034 63.427 C 211.069 56.254, 220.170 49.344, 226.500 46.369 C 230.605 44.440, 233.144 44.018, 240.678 44.010 C 245.725 44.004, 253.357 44.487, 257.636 45.082 C 266.218 46.276, 280.559 50.477, 281.555 52.090 C 281.905 52.655, 280.932 54.934, 279.393 57.154 C 274.266 64.553, 261.715 73.904, 244.732 82.978 L 235.132 88.108 230.816 85.905 C 224.044 82.448, 208.428 77.449, 184 70.917 C 171.625 67.608, 160.713 64.668, 159.750 64.383 C 158.536 64.024, 158 62.842, 158 60.522 C 158 56.102, 153.353 52, 148.346 52 C 141.751 52, 137.019 59.429, 140.030 65.055 C 141.708 68.192, 146.196 69.886, 162.271 73.449 C 182.188 77.863, 207.690 85.100, 221.284 90.195 L 232.153 94.269 240.826 90.539 C 260.906 81.903, 278.282 70.445, 286.040 60.724 C 292.667 52.420, 295.660 45.845, 299.063 32.115 L 300.150 27.730 302.684 33.115 C 304.077 36.077, 306.938 43.095, 309.042 48.711 C 314.218 62.530, 319.124 70.563, 329.985 83 C 339.398 93.779, 341.479 95.653, 342.393 94.173 C 343.220 92.834, 339.305 86.216, 332.531 77.500 C 323.827 66.301, 323.427 65.419, 326.233 63.592 C 327.480 62.780, 332.775 60.695, 338 58.959 C 350.539 54.792, 355.172 52.194, 354.792 49.542 C 354.186 45.304, 342.756 47.140, 328.640 53.742 C 321.041 57.296, 320.733 57.356, 319.390 55.518 C 317.450 52.866, 317.651 51, 320.165 48.324 C 322.008 46.363, 322.160 45.646, 321.186 43.510 C 319.953 40.802, 315.643 39.980, 314.583 42.250 C 314.123 43.236, 313.874 43.226, 313.401 42.203 C 309.973 34.781, 300.322 20.018, 298.889 20.005 C 298.553 20.002, 295.694 25.962, 292.536 33.250 M 285.441 35.433 C 283.835 36.618, 283.728 37.093, 284.817 38.183 C 285.907 39.272, 286.382 39.165, 287.567 37.559 C 290.176 34.024, 288.976 32.824, 285.441 35.433 M 360.145 38.070 C 358.411 38.765, 357.986 39.472, 358.533 40.756 C 361.218 47.064, 361.359 49.792, 359.294 55.397 C 358.159 58.479, 357.375 61, 357.552 61 C 358.541 61, 370.491 49.803, 372.090 47.378 C 374.519 43.692, 374.496 41.496, 372 39 C 369.835 36.835, 364.310 36.402, 360.145 38.070 M 282.621 70.866 C 281.017 72.638, 281.104 72.879, 284.320 75.616 C 293.915 83.781, 302.856 91, 303.375 91 C 304.443 91, 318 76.642, 318 75.511 C 318 73.899, 315.847 71.997, 314.050 72.021 C 312.555 72.041, 304 83.932, 304 85.990 C 304 87.875, 302.237 87.011, 300.451 84.250 C 296.837 78.662, 287.702 69, 286.033 69 C 285.085 69, 283.550 69.840, 282.621 70.866 M 274.234 84.201 C 274.454 84.862, 279.104 87.369, 284.567 89.773 C 304.387 98.496, 304.748 98.534, 311.546 92.632 C 316.693 88.164, 315.726 87.327, 309.730 91.060 C 307.132 92.677, 304.246 94, 303.318 94 C 302.390 94, 298.656 92.461, 295.022 90.580 C 288.694 87.306, 277.292 83, 274.948 83 C 274.335 83, 274.013 83.540, 274.234 84.201 M 193.384 87.765 C 191.032 89.314, 180.465 114.896, 181.230 117.190 C 181.761 118.782, 195.597 103.633, 198.944 97.796 C 202.803 91.067, 202.787 89.470, 198.851 88.098 C 195.166 86.813, 194.859 86.795, 193.384 87.765 M 321 92.866 C 321 93.261, 323.363 94.776, 326.250 96.233 C 329.137 97.691, 333.863 100.269, 336.750 101.962 C 343.213 105.752, 343.699 104.265, 337.411 99.939 C 332.604 96.632, 321 91.630, 321 92.866 M 234 99.405 C 212.789 106.743, 193.255 116.040, 184.612 122.910 C 178.966 127.398, 181.094 126.722, 191.935 120.585 C 203.641 113.958, 217.064 108.199, 235.480 101.901 C 243.169 99.271, 249.619 96.643, 249.813 96.060 C 250.431 94.206, 246.825 94.969, 234 99.405 M 280 101.136 C 257.232 102.997, 232.376 109.027, 212.500 117.514 C 190.728 126.809, 174 138.519, 174 144.465 C 174 145.309, 174.392 146, 174.870 146 C 175.349 146, 180.186 143.025, 185.620 139.389 C 191.054 135.752, 199.901 130.567, 205.280 127.865 C 222.111 119.409, 251.090 111.070, 271.263 108.875 C 281.840 107.724, 326.922 108.246, 332.399 109.583 C 337.321 110.784, 334.497 108.332, 328.231 105.963 C 320.786 103.150, 303.190 99.962, 296.081 100.139 C 293.011 100.216, 285.775 100.664, 280 101.136 M 334.591 129.512 C 327.308 132.294, 321.890 137.213, 316.981 145.500 C 312.626 152.852, 313.343 153.575, 319.027 147.565 C 324.422 141.860, 333.214 136.593, 339.191 135.484 C 347.189 134.001, 357.981 140.173, 361.876 148.460 C 364.405 153.840, 364.717 165.206, 362.509 171.500 C 361.263 175.051, 361.271 175.277, 362.583 173.517 C 364.857 170.467, 367.002 162.192, 366.978 156.568 C 366.950 150.016, 364.303 144.312, 358.307 137.880 C 354.633 133.939, 354.030 132.890, 355.750 133.429 C 359.375 134.566, 358.342 133.215, 353.822 130.909 C 348.475 128.181, 339.737 127.547, 334.591 129.512 M 222.946 132.838 C 213.523 138.853, 205.504 150.597, 203.105 161.896 C 201.836 167.870, 202.202 169.404, 204.044 165.836 C 205.796 162.443, 209.188 158.909, 211.580 157.983 C 212.818 157.504, 214.392 155.220, 215.469 152.339 C 218.527 144.157, 223.001 135.636, 225.752 132.750 C 229.068 129.272, 228.504 129.290, 222.946 132.838 M 244.908 133.890 C 239.026 136.192, 231.994 141.034, 228.457 145.219 C 224.784 149.564, 222.402 155.111, 219.913 165.109 C 216.380 179.305, 211.280 186.580, 201.507 191.365 C 194.995 194.554, 183.823 196.142, 176.433 194.929 C 169.033 193.714, 168.257 193.792, 170.696 195.500 C 171.874 196.325, 175.647 197.720, 179.080 198.599 C 190.004 201.398, 202.366 198.645, 210.781 191.540 C 215.787 187.313, 219.654 181.061, 224.473 169.399 C 229.915 156.232, 234.493 149.238, 241.075 144.035 C 253.381 134.308, 270.190 135.481, 277.027 146.544 C 279.857 151.124, 280.548 150.411, 278.424 145.102 C 276.457 140.186, 270.057 134.388, 265.065 133.002 C 259.575 131.476, 249.998 131.899, 244.908 133.890 M 288.809 136.552 C 288.504 137.074, 287.931 139.732, 287.535 142.461 C 286.887 146.920, 283.328 158, 282.542 158 C 282.370 158, 280.940 157.328, 279.364 156.506 C 272.220 152.780, 257.616 155.917, 250.664 162.669 C 245.306 167.873, 243.589 171.764, 239.524 187.906 C 235.868 202.422, 233.678 208.794, 227.759 222.134 C 224.573 229.315, 224.417 230.174, 225.135 236.634 C 226.603 249.853, 226.523 250.010, 221.867 243.038 L 217.734 236.849 213.867 242.965 C 211.740 246.328, 210 249.404, 210 249.800 C 210 250.921, 214.964 256, 216.060 256 C 216.604 256, 216.760 254.891, 216.411 253.500 C 216.042 252.031, 216.213 251, 216.825 251 C 217.398 251, 218.010 252.195, 218.184 253.656 L 218.500 256.311 221.675 253.630 C 225.255 250.606, 224.852 250.128, 227.050 260 C 229.080 269.113, 232.006 274.124, 239.940 282.080 C 251.831 294.004, 273.639 307.443, 288.355 311.916 C 296.315 314.336, 307.471 314.666, 312.353 312.626 C 315.827 311.174, 322.659 302.850, 327.849 293.744 C 329.493 290.860, 333.181 280.850, 336.045 271.500 C 344.475 243.972, 344.235 245.295, 343.067 232.776 C 342.498 226.684, 341.896 221.563, 341.730 221.397 C 341.564 221.230, 339.331 221.848, 336.769 222.769 C 331.280 224.743, 329.346 223.680, 333.252 220.835 C 337.782 217.535, 335.982 214.213, 330.421 215.609 C 327.768 216.275, 327.103 218, 329.500 218 C 330.325 218, 331 218.450, 331 219 C 331 220.246, 326.998 220.285, 325.059 219.058 C 324.127 218.468, 322.627 218.659, 320.809 219.599 C 318.304 220.894, 318 220.881, 318 219.476 C 318 210.361, 335.833 200.641, 340.454 207.238 C 341.691 209.004, 342.376 209.252, 343.701 208.417 C 346.351 206.745, 347.349 202.491, 345.822 199.378 C 342.800 193.219, 340.214 193.573, 327 201.953 C 317.279 208.118, 314.301 209.263, 315.393 206.418 C 315.727 205.548, 316 204.198, 316 203.418 C 316 202.638, 316.563 201.998, 317.250 201.996 C 317.938 201.993, 320.525 200.619, 323 198.942 C 331.741 193.018, 337.094 190.749, 341.069 191.282 L 344.780 191.780 344.413 188.140 C 341.766 161.922, 340.898 159.227, 333.980 155.752 C 327.906 152.700, 321.683 153.430, 314.199 158.073 C 311.979 159.450, 311.501 159.079, 300.630 147.552 C 294.433 140.981, 289.113 136.031, 288.809 136.552 M 259.804 188.584 C 254.999 190.063, 243.855 199.150, 245.185 200.505 C 245.561 200.889, 248.621 199.505, 251.983 197.430 C 256.434 194.682, 259.524 193.538, 263.349 193.221 C 268.211 192.818, 269.483 193.240, 280.455 198.893 C 291.608 204.639, 297.125 206.224, 298.460 204.065 C 299.784 201.922, 281.753 191.739, 271.068 188.597 C 264.772 186.746, 265.776 186.747, 259.804 188.584 M 261 206.500 C 258.139 208.425, 254.971 210, 253.959 210 C 251.457 210, 250.554 211.758, 252.100 213.620 C 253.087 214.810, 253.101 215.320, 252.162 215.900 C 250.830 216.723, 252.240 218.216, 257.377 221.419 C 261.821 224.190, 265.708 224.998, 269.028 223.840 C 272.816 222.520, 272.807 221.411, 269 220.650 C 265.449 219.940, 265.100 218.278, 268.250 217.079 C 269.789 216.492, 270.999 216.660, 272.079 217.611 C 273.925 219.236, 277 219.459, 277 217.969 C 277 217.401, 276.325 216.678, 275.500 216.362 C 272.745 215.304, 273.958 214, 277.696 214 C 280.066 214, 282.765 214.951, 285.214 216.649 C 287.316 218.105, 289.284 219.049, 289.588 218.745 C 290.366 217.967, 286.585 210.827, 284.356 208.867 C 280.872 205.801, 274.086 203, 270.140 203 C 267.296 203, 264.756 203.972, 261 206.500 M 298.215 253.500 C 298.409 254.855, 299.145 255.411, 300.500 255.225 C 301.600 255.074, 305.091 254.674, 308.257 254.336 C 313.085 253.820, 313.823 253.492, 312.833 252.299 C 311.970 251.259, 309.806 250.960, 304.791 251.188 C 298.586 251.470, 297.957 251.691, 298.215 253.500 M 162.699 254.780 C 159.304 258.532, 156.653 266.365, 156.639 272.685 C 156.627 278.164, 157.219 280.048, 161.825 289.185 C 169.096 303.608, 168.789 308.441, 160.101 316.290 C 154.927 320.965, 147.621 324.643, 138.638 327.097 L 131.500 329.047 140.674 328.653 C 148.246 328.329, 150.952 327.741, 156.174 325.290 C 159.653 323.656, 163.927 321.112, 165.672 319.636 C 173.315 313.171, 175.241 300.822, 170.372 289.500 C 162.898 272.120, 161.581 265.434, 163.983 257.060 C 165.164 252.941, 164.857 252.395, 162.699 254.780 M 213.135 261.555 C 210.397 265.036, 211.745 268, 216.067 268 C 219.571 268, 220.725 265.962, 219.381 262.143 C 218.129 258.583, 215.656 258.350, 213.135 261.555 M 312 271.026 C 311.175 271.573, 308.818 271.753, 306.763 271.425 C 304.218 271.019, 300.884 271.541, 296.317 273.061 C 292.628 274.289, 288.347 275.257, 286.804 275.214 C 284.656 275.152, 284 275.594, 284 277.098 C 284 278.179, 284.788 279.360, 285.750 279.723 C 286.712 280.087, 290.275 282.277, 293.666 284.591 C 304.559 292.024, 314.090 292.345, 319.674 285.468 C 321.228 283.554, 323.713 280.497, 325.195 278.675 L 327.889 275.362 322.422 272.681 C 316.556 269.804, 314.366 269.456, 312 271.026 M 214.050 276.350 C 212.457 281.174, 212.398 290.570, 213.947 292.437 C 215.986 294.893, 218.634 294.297, 219.966 291.081 C 220.909 288.805, 220.911 286.879, 219.976 282.331 C 217.950 272.483, 215.981 270.496, 214.050 276.350 M 312.500 279.121 C 310.850 279.643, 307.848 279.830, 305.829 279.536 C 303.811 279.242, 301.336 279.318, 300.329 279.705 C 298.723 280.322, 298.805 280.493, 301 281.104 C 307.442 282.899, 317 281.620, 317 278.965 C 317 277.835, 316.512 277.852, 312.500 279.121 M 231.500 302.235 C 231.500 314.691, 231.140 318.600, 229.541 323.478 C 223.411 342.188, 198.382 365.508, 167.749 381.051 C 161.842 384.048, 157.007 387.022, 157.005 387.661 C 156.995 390.019, 163.287 394, 170.291 396.067 C 184.892 400.376, 194.486 407.274, 199.707 417.216 C 202.140 421.849, 202.483 423.609, 202.491 431.500 C 202.501 441.374, 200.862 446.162, 195.129 453 C 191.521 457.304, 190.425 456.607, 192.620 451.404 C 195.008 445.743, 194.855 435.588, 192.297 429.878 C 187.625 419.452, 178.878 413.204, 163 408.953 C 152.288 406.085, 147.576 402.023, 146.479 394.710 C 146.091 392.120, 145.453 390, 145.063 390 C 143.321 390, 127.930 394.985, 125.010 396.495 C 120.857 398.642, 113.487 405.399, 109.842 410.400 C 107.560 413.532, 107 415.353, 107 419.647 C 107 424.389, 107.410 425.448, 110.628 429.009 C 116.593 435.612, 142.350 447, 161.291 451.409 L 164.082 452.059 162.415 448.779 C 161.499 446.976, 158.758 442.688, 156.324 439.250 C 153.890 435.813, 152.301 433, 152.793 433 C 153.285 433, 156.278 433.891, 159.445 434.981 C 169.745 438.525, 177.487 444.106, 182.497 451.599 L 185.906 456.698 197.203 457.857 C 240.713 462.324, 246.282 463.069, 269.500 467.536 C 276.650 468.912, 288.819 471.631, 296.543 473.579 L 310.586 477.121 320.543 467.214 C 326.019 461.766, 334.816 454.137, 340.092 450.262 C 345.368 446.387, 350.655 441.982, 351.842 440.474 C 356.351 434.741, 353.305 429.421, 343.914 426.626 C 336.196 424.329, 331.077 421.123, 327.372 416.265 C 321.568 408.655, 320.903 398.348, 325.506 387.332 C 326.342 385.331, 326.908 383.604, 326.763 383.495 C 326.618 383.386, 322.950 383.912, 318.612 384.663 C 304.308 387.140, 299.400 390.600, 298.273 399 C 297.610 403.942, 296.142 403.738, 294.262 398.444 C 292.574 393.691, 293.252 386.932, 295.862 382.510 L 297.713 379.372 294.809 377.705 C 287.225 373.353, 284.716 353.760, 289.412 335.571 C 290.822 330.110, 291.817 325.484, 291.624 325.291 C 291.431 325.098, 288.624 324.511, 285.386 323.987 C 270.166 321.524, 243.891 304.182, 233.490 289.735 L 231.500 286.971 231.500 302.235 M 360.672 336.500 C 365.574 343.673, 365.943 350.400, 361.794 357 L 359.594 360.500 358.890 355.112 C 358.065 348.810, 354.245 342.871, 349 339.739 L 345.500 337.649 348.630 341.075 C 350.352 342.959, 352.264 345.483, 352.880 346.684 C 354.544 349.929, 354.252 359.611, 352.382 363.228 L 350.765 366.356 349.547 362.813 C 347.543 356.986, 344.252 353.269, 338.726 350.592 C 332.532 347.592, 322.967 345, 318.090 345 C 313.453 345, 315.208 346.325, 322 347.953 C 332.254 350.409, 341.472 356.251, 344.749 362.369 C 345.671 364.091, 346.667 367.868, 346.963 370.761 L 347.500 376.022 354.756 369.108 C 358.893 365.165, 362.859 360.325, 363.984 357.847 C 367.538 350.013, 366.094 339.994, 360.740 335.341 L 358.622 333.500 360.672 336.500 M 255.902 353.750 C 262.938 373.297, 264.175 376.127, 268.356 382.234 C 272.264 387.943, 277.424 392.909, 278.416 391.917 C 279.003 391.330, 260.680 353.905, 256.792 347.750 C 255.142 345.137, 253.396 343, 252.912 343 C 252.428 343, 253.774 347.837, 255.902 353.750 M 203.427 383.992 C 195.686 384.361, 188.816 384.996, 188.160 385.401 C 185.823 386.846, 188.054 387.729, 195.722 388.393 C 207.048 389.375, 254.696 395.900, 259.985 397.194 C 267.239 398.969, 272.688 401.912, 276.471 406.099 C 278.412 408.248, 280 410.454, 280 411.003 C 280 411.551, 280.509 412, 281.132 412 C 283.209 412, 281.302 404.146, 277.961 398.940 C 274.438 393.450, 268.402 388.774, 261.761 386.389 C 259.301 385.506, 251.159 384.480, 242.500 383.963 C 226.221 382.989, 224.392 382.990, 203.427 383.992 M 351.725 399.752 C 346.405 405.630, 347.962 413.479, 355.525 418.910 C 360.519 422.497, 360.822 422.049, 358.537 414.456 C 357.732 411.781, 357.268 409.399, 357.505 409.161 C 359.130 407.536, 367.360 416.560, 368.531 421.250 C 369.439 424.890, 370.603 424.733, 371.377 420.865 C 372.778 413.862, 367.624 405.954, 357.882 400.154 C 353.526 397.560, 353.698 397.572, 351.725 399.752 M 362.947 447.080 C 358.301 449.324, 350.787 453.628, 346.248 456.645 C 338.243 461.966, 321 477.307, 321 479.109 C 321 480.813, 325.701 479.987, 327.534 477.962 C 330.010 475.227, 346.378 462.809, 357.500 455.229 C 367.595 448.349, 374.030 443.102, 372.447 443.041 C 371.868 443.018, 367.593 444.836, 362.947 447.080" stroke="none" fill="black" fill-rule="evenodd"/>
</svg>