<svg xmlns="http://www.w3.org/2000/svg" width="512" height="512" viewBox="0 0 512 512" version="1.1">
	<path d="M 132 19.798 C 132 21.537, 145.837 56.859, 149.992 65.724 C 162.450 92.308, 180.621 110.380, 202.078 117.526 C 209.542 120.012, 209.768 120.183, 210.365 123.791 C 212.899 139.122, 208.415 156.635, 199.244 167.222 C 193.883 173.411, 192.380 179.975, 193.966 190.267 C 195.323 199.069, 198.022 204.934, 202.541 208.902 C 205.955 211.900, 211.420 213.984, 215.893 213.994 C 218.286 214, 218.287 214.003, 217.623 222.750 C 216.540 237.019, 213.817 245.050, 208.339 250.136 C 204.798 253.423, 201.408 255.142, 190.914 258.972 C 183.532 261.666, 182.262 261.863, 179.259 260.777 C 176.352 259.725, 175.037 259.858, 169.694 261.742 C 166.287 262.943, 159.225 264.795, 154 265.857 C 133.083 270.108, 122.531 277.065, 113.369 292.647 C 110.265 297.925, 105.046 312.660, 105.020 316.215 C 104.996 319.418, 106.774 320.558, 115.413 322.882 C 120.810 324.334, 121.536 324.828, 121.815 327.243 C 121.999 328.841, 120.397 333.918, 117.938 339.523 C 115.633 344.780, 113.916 349.240, 114.124 349.435 C 114.331 349.630, 117.539 350.723, 121.254 351.863 C 127.567 353.802, 142.322 355.727, 155 356.266 L 160.500 356.500 160.149 365.540 C 159.720 376.566, 160.629 379.063, 169.381 390.902 C 172.877 395.631, 176.281 400.548, 176.946 401.829 C 180.167 408.035, 184.897 429.362, 185.914 442.267 C 186.967 455.628, 186.843 455.506, 210.500 466.545 C 227.016 474.253, 225.409 474.477, 224.647 464.570 L 223.995 456.088 230.561 458.559 C 246.465 464.546, 255.610 471.143, 265.980 484.111 L 273.386 493.373 275.676 490.437 C 276.936 488.821, 280.787 483.685, 284.234 479.023 C 290.437 470.631, 297.578 464.818, 311.117 457.140 L 315.277 454.781 314.566 462.934 L 313.855 471.087 322.416 464.479 C 327.125 460.845, 331.657 456.900, 332.489 455.713 C 333.584 454.150, 334 450.897, 334 443.908 C 334 433.572, 335.660 422.271, 339.433 406.921 C 341.463 398.662, 342.654 396.083, 348.067 388.219 L 354.346 379.097 355.280 368.299 C 355.794 362.359, 356.351 357.007, 356.517 356.405 C 356.704 355.724, 361.674 355.090, 369.659 354.729 C 379.564 354.281, 384.386 353.549, 390.750 351.530 C 395.287 350.091, 399 348.685, 399 348.406 C 399 348.126, 397.200 343.669, 395 338.500 C 389.721 326.097, 389.749 324.394, 395.250 323.001 C 403.357 320.948, 407 318.889, 407 316.360 C 407 311.828, 400.963 295.254, 397.186 289.413 C 389.189 277.052, 378.199 269.951, 361 266.031 C 355.775 264.841, 348.564 262.836, 344.977 261.577 C 340.163 259.888, 337.806 259.528, 335.984 260.202 C 334.157 260.877, 332.344 260.594, 329.008 259.110 C 326.528 258.008, 322.301 256.180, 319.614 255.049 L 314.729 252.992 315.468 241.746 C 315.875 235.561, 316.724 226.694, 317.354 222.043 L 318.500 213.586 324.276 212.179 C 327.664 211.354, 330.440 210.046, 330.991 209.016 C 332.086 206.971, 330.764 197.417, 328.497 190.992 C 327.674 188.658, 327 184.175, 327 181.029 C 327 174.835, 327.790 173.614, 333.750 170.595 C 338.607 168.135, 338.068 165.267, 331.395 158.059 C 324.083 150.162, 321 141.261, 321 128.051 L 321 119.178 325.750 116.917 C 343.168 108.624, 354.437 97.229, 363.743 78.500 C 368.965 67.991, 370.946 62.018, 376.355 40.473 C 378.837 30.588, 381.191 21.661, 381.585 20.635 C 382.201 19.034, 381.966 18.876, 379.936 19.520 C 378.634 19.934, 374.628 21.746, 371.034 23.549 C 352.501 32.844, 339.722 36.314, 324 36.321 C 313.681 36.326, 311.532 35.997, 303.074 33.123 C 297.890 31.362, 289.068 27.463, 283.469 24.460 C 277.871 21.457, 272.775 19, 272.145 19 C 269.662 19, 271.267 21.701, 276.982 27.139 C 289.625 39.170, 302.757 46.071, 320.288 49.900 C 325.122 50.955, 329.678 52.318, 330.414 52.928 C 332.310 54.503, 334.354 62.455, 333.616 65.392 C 332.960 68.009, 323.438 75.468, 310.311 83.650 L 303.004 88.204 290.240 81.133 C 270.549 70.225, 273.589 70.319, 254.711 80.025 L 238.600 88.308 234.050 87.106 C 227.717 85.432, 208.447 76.057, 201.134 71.091 C 194.275 66.433, 193 64.637, 193 59.631 C 193 52.991, 194.272 51.448, 202.182 48.494 C 211.654 44.957, 223.314 38.763, 229 34.248 C 239.458 25.944, 245.394 19, 242.034 19 C 241.503 19, 236.666 21.454, 231.284 24.452 C 225.903 27.451, 217.900 31.137, 213.500 32.644 C 206.351 35.092, 204.117 35.380, 192.500 35.344 C 181.813 35.312, 177.810 34.852, 170 32.760 C 162.773 30.824, 141.568 23.086, 132.750 19.167 C 132.338 18.983, 132 19.267, 132 19.798 M 368 29.643 C 357.502 36.042, 346.308 40.037, 333.500 41.956 L 321.500 43.753 326.804 44.513 C 337.238 46.006, 343.003 53.110, 342.996 64.462 C 342.992 71.705, 340.983 75.528, 334.783 80.094 C 327.621 85.369, 314.900 91.043, 309.697 91.284 C 307.121 91.403, 305.011 91.630, 305.007 91.790 C 305.003 91.949, 305.947 93.936, 307.104 96.204 C 309.896 101.677, 309.223 105.233, 303.661 114.394 C 299.310 121.561, 296.157 129.178, 293.995 137.750 C 292.697 142.894, 290.526 143.294, 288.566 138.750 C 280.520 120.097, 278.592 117.061, 266.729 104.373 C 259.683 96.837, 256.232 95.360, 241.118 93.416 C 225.739 91.438, 216.770 88.913, 206.219 83.591 C 188.698 74.752, 185.547 71.028, 186.175 59.904 C 186.501 54.134, 187.020 52.540, 189.624 49.306 C 191.310 47.213, 194.222 44.963, 196.095 44.306 C 197.968 43.650, 199.258 43.087, 198.962 43.056 C 177.052 40.758, 165.175 37.633, 150.750 30.372 C 144.050 27, 142.726 26.889, 145.384 29.921 C 146.145 30.790, 149.345 36, 152.496 41.500 C 155.646 47, 159.776 53.622, 161.673 56.216 C 167.870 64.692, 181.257 76.155, 194.656 84.460 C 201.720 88.838, 211.426 94.985, 216.224 98.121 C 227.110 105.235, 231.065 106.506, 248.344 108.440 C 273.615 111.269, 279.443 116.407, 282.510 138.562 C 283.343 144.578, 284.230 150.063, 284.481 150.750 C 284.732 151.438, 284.361 152, 283.657 152 C 281.073 152, 278.006 147.818, 276.492 142.232 C 275.638 139.080, 274.495 134.846, 273.952 132.824 C 272.895 128.890, 268.354 124.378, 264.471 123.403 C 259.031 122.038, 244.372 129.446, 241.492 135.016 C 239.834 138.222, 240.037 141.678, 242.213 147.321 C 243.049 149.488, 243.788 150.022, 245.401 149.627 C 252.453 147.898, 257.896 147.983, 265.410 149.940 C 275.758 152.635, 282.365 155.760, 288.482 160.852 C 291.222 163.134, 293.697 164.983, 293.982 164.962 C 294.267 164.941, 295.770 163.090, 297.321 160.849 C 300.117 156.810, 300.132 156.710, 298.943 149.664 C 295.649 130.132, 300.901 117.720, 317.333 106.206 C 331.789 96.076, 354.402 72.702, 361.557 60.493 C 363.037 57.967, 365.506 51.604, 367.043 46.352 C 368.581 41.100, 370.806 34.553, 371.989 31.804 C 373.172 29.055, 373.995 26.690, 373.820 26.548 C 373.644 26.407, 371.025 27.799, 368 29.643 M 348.121 46.250 C 350.560 53.311, 350.537 63.566, 348.067 70.067 L 346.133 75.156 348.290 73.724 C 352.263 71.085, 357 63.087, 357 59.017 C 357 53.859, 354.458 47.087, 351.274 43.764 C 347.093 39.400, 346.041 40.229, 348.121 46.250 M 171.962 46.075 C 168.811 52.251, 169.011 58.965, 172.495 63.992 C 175.418 68.211, 181.898 74.436, 182.617 73.716 C 182.841 73.492, 182.008 71.102, 180.765 68.405 C 178.865 64.279, 178.505 61.793, 178.503 52.751 C 178.500 42.301, 178.438 42.002, 176.270 42.001 C 174.668 42, 173.455 43.147, 171.962 46.075 M 249 152.556 C 244.870 153.857, 226.430 167, 228.736 167 C 229.289 167, 234.309 164.975, 239.891 162.500 C 252.968 156.702, 257.847 156.532, 269.804 161.457 C 274.371 163.339, 281.571 166.946, 285.804 169.473 C 291.345 172.781, 294.160 173.905, 295.857 173.488 C 297.153 173.169, 302.447 169.928, 307.621 166.286 C 315.543 160.709, 316.929 159.335, 316.402 157.582 C 315.370 154.154, 314.310 153.629, 311.105 154.956 C 307.035 156.642, 301.424 162.249, 298.946 167.105 C 295.740 173.391, 294.527 173.205, 287.102 165.294 C 279.528 157.225, 277.266 155.883, 266.466 153.054 C 257.403 150.680, 255.160 150.617, 249 152.556 M 211.556 167.793 C 217.090 170.434, 222.591 177.113, 223.947 182.838 C 225.134 187.855, 223.674 195.861, 220.426 202.143 C 219.561 203.817, 219.064 205.397, 219.322 205.655 C 220.201 206.535, 224.969 195.519, 225.938 190.367 C 227.325 182.995, 225.817 178.665, 219.650 172.308 C 215.973 168.518, 213.499 166.836, 211 166.428 L 207.500 165.857 211.556 167.793 M 204.106 176.894 C 201.856 179.144, 200.560 185.719, 201.512 190.053 C 202.318 193.726, 207.542 200, 209.793 200 C 210.888 200, 210.356 198.999, 208.079 196.773 C 204.200 192.981, 203 190.236, 203 185.157 C 203 178.114, 208.610 174.527, 213.171 178.655 C 214.177 179.565, 215 180.033, 215 179.694 C 215 179.355, 214.015 178.160, 212.811 177.039 C 210.072 174.486, 206.572 174.428, 204.106 176.894 M 285.831 185.498 C 286.052 190.590, 285.722 193.831, 284.831 195.302 C 284.012 196.654, 283.616 199.731, 283.801 203.294 C 284.068 208.432, 284.387 209.197, 286.616 210.044 C 287.999 210.570, 291.864 211, 295.204 211 L 301.279 211 300.613 205.750 C 300.246 202.863, 299.669 195.943, 299.330 190.372 L 298.713 180.245 294.106 179.648 C 291.573 179.320, 288.600 178.791, 287.500 178.472 C 285.605 177.923, 285.517 178.293, 285.831 185.498 M 258 181.133 C 256.075 181.657, 253.862 182.306, 253.083 182.576 C 250.259 183.552, 253.617 184.755, 260.963 185.399 L 268.425 186.054 265.526 183.027 C 263.931 181.362, 262.373 180.041, 262.063 180.090 C 261.753 180.140, 259.925 180.609, 258 181.133 M 309.496 184.007 C 308.672 185.340, 311.542 186.390, 313.722 185.553 C 315.197 184.987, 315.233 184.759, 313.972 183.962 C 312.039 182.739, 310.268 182.757, 309.496 184.007 M 235 192.323 C 235 194.980, 239.240 198.692, 243.855 200.075 C 246.969 201.008, 249.542 201.040, 254.549 200.210 C 258.176 199.609, 261.803 199.371, 262.609 199.680 C 264.941 200.575, 266.803 205.133, 267.557 211.797 C 267.940 215.190, 268.871 218.478, 269.624 219.103 C 270.378 219.729, 276.005 220.478, 282.130 220.768 C 294.779 221.368, 295.887 220.439, 287.821 216 C 279.921 211.652, 279.799 211.455, 280.164 203.567 L 280.490 196.514 275.005 194.327 C 268.144 191.592, 259.503 190.540, 254.405 191.819 C 252.257 192.358, 249.223 193.088, 247.662 193.441 C 245.312 193.972, 245.032 194.333, 246.034 195.541 C 246.700 196.344, 248.877 197.007, 250.872 197.015 C 252.868 197.024, 255.175 197.467, 256 198 C 257.064 198.688, 255.817 198.974, 251.710 198.985 C 245.273 199.002, 239.167 196.505, 236.566 192.791 C 235.245 190.905, 235 190.832, 235 192.323 M 310.054 194.756 C 308.178 196.274, 307.933 197.321, 308.238 202.506 C 308.559 207.970, 308.664 208.210, 309.426 205.219 C 310.420 201.320, 314.275 198, 317.809 198 L 320.349 198 318 195.500 C 315.232 192.553, 313.028 192.347, 310.054 194.756 M 239.541 223 C 242.112 244.081, 245.539 248.812, 262.095 254.136 C 269.570 256.540, 272.643 257.027, 278.858 256.790 L 286.468 256.500 288.809 252.250 C 292.534 245.486, 298.403 245.725, 301.090 252.750 C 301.591 254.059, 302.797 255, 303.975 255 C 306.396 255, 306.461 254.347, 304.502 249.658 C 302.270 244.317, 300.177 243.622, 288.596 244.381 C 277.209 245.127, 272.203 247.019, 270.146 251.354 C 268.595 254.621, 267.317 254.587, 257.800 251.027 C 248.775 247.650, 244.142 241.766, 241.930 230.870 C 241.330 227.917, 240.451 224.150, 239.976 222.500 C 239.136 219.576, 239.124 219.589, 239.541 223 M 255.543 227.931 C 255.226 228.443, 255.425 229.144, 255.984 229.490 C 256.543 229.835, 257 229.416, 257 228.559 C 257 226.802, 256.400 226.544, 255.543 227.931 M 264.459 228.067 C 263.539 229.556, 264.606 230.365, 266.520 229.631 C 267.404 229.292, 267.847 228.561, 267.504 228.007 C 266.694 226.696, 265.289 226.723, 264.459 228.067 M 272.700 228.341 C 272.417 229.078, 272.581 230.316, 273.064 231.091 C 274.145 232.824, 277.322 231.190, 277.823 228.643 C 278.226 226.597, 273.476 226.317, 272.700 228.341 M 281.646 229.497 C 280.318 230.825, 280.318 231.330, 281.648 233.997 C 283.303 237.315, 283.195 237.246, 285.418 236.393 C 286.417 236.010, 287 234.574, 287 232.500 C 287 230.426, 286.417 228.990, 285.418 228.607 C 283.307 227.797, 283.358 227.785, 281.646 229.497 M 300.500 229 C 300.160 229.550, 300.584 230, 301.441 230 C 302.298 230, 303 229.550, 303 229 C 303 228.450, 302.577 228, 302.059 228 C 301.541 228, 300.840 228.450, 300.500 229 M 289.503 231.991 C 288.690 234.552, 289.613 236, 292.059 236 C 293.549 236, 294 235.303, 294 233 C 294 230.702, 293.548 230, 292.067 230 C 291.004 230, 289.850 230.896, 289.503 231.991 M 256 238 C 256 238.550, 256.450 239, 257 239 C 257.550 239, 258 238.550, 258 238 C 258 237.450, 257.550 237, 257 237 C 256.450 237, 256 237.450, 256 238 M 265.409 238.376 C 264.562 240.584, 265.689 241.711, 267.217 240.183 C 268.119 239.281, 268.122 238.722, 267.233 237.833 C 266.343 236.943, 265.909 237.072, 265.409 238.376 M 274 238.500 C 274 239.530, 274.655 240.020, 275.750 239.810 C 277.858 239.404, 277.725 237.629, 275.553 237.177 C 274.647 236.988, 274 237.539, 274 238.500 M 204 269.543 C 204 270.938, 214.082 280.651, 219 283.995 C 226.132 288.843, 253.935 303.399, 254.666 302.667 C 255.516 301.817, 244.631 295.068, 231.089 288.046 C 222.483 283.584, 217.023 279.944, 212.105 275.391 C 205.638 269.403, 204 268.221, 204 269.543 M 151.513 275.099 C 140.026 277.889, 135.812 286.885, 141.470 296.538 C 145.514 303.439, 159.577 310.910, 169.317 311.331 C 175.344 311.592, 175.850 309.930, 173.243 298.443 C 168.592 277.953, 163.275 272.241, 151.513 275.099 M 352.964 276.750 C 350.357 279.087, 349.748 280.576, 348.908 286.665 C 348.364 290.605, 348.050 297.805, 348.210 302.665 L 348.500 311.500 351.793 311.240 C 356.246 310.889, 367.832 305.530, 371.336 302.201 C 381.460 292.582, 378.623 279.341, 365.609 275.476 C 358.608 273.398, 356.462 273.614, 352.964 276.750 M 318.934 280.172 C 316.422 282.827, 314.569 285, 314.815 285 C 316.357 285, 321.848 280.653, 322.981 278.536 C 325.162 274.460, 323.824 275.001, 318.934 280.172 M 176.131 279.756 C 175.473 280.984, 175.910 283.717, 177.585 288.853 C 178.901 292.891, 180.495 300.225, 181.127 305.151 C 182.253 313.933, 182.325 314.100, 184.848 313.803 C 188.101 313.420, 188.770 311.124, 188.900 299.909 C 189.006 290.764, 187.282 283.074, 184.414 279.905 C 182.233 277.494, 177.388 277.407, 176.131 279.756 M 196.913 280.087 C 194.216 282.784, 194.618 284.386, 201.791 299.500 C 206.913 310.293, 207.522 312.276, 207.847 319.213 C 208.254 327.895, 206.038 342.671, 203.008 351.478 C 201.901 354.695, 201.169 357.502, 201.382 357.716 C 202.093 358.426, 207.860 350.739, 210.909 345.019 C 212.606 341.835, 214.414 336.344, 215.052 332.435 C 216.249 325.098, 216.175 324.591, 211.176 305.855 C 210.054 301.651, 208.647 294.696, 208.049 290.400 C 206.491 279.198, 201.980 275.020, 196.913 280.087 M 334.699 279.780 C 333.333 281.289, 333.043 285.132, 332.794 305.030 L 332.500 328.500 336.853 341 C 339.247 347.875, 341.817 354.625, 342.563 356 C 345.076 360.630, 344.049 355.642, 340.093 343.999 C 332.771 322.449, 332.348 313.547, 337.980 299.500 C 341.985 289.511, 342.947 282.090, 340.549 279.692 C 338.383 277.526, 336.716 277.551, 334.699 279.780 M 236 280.378 C 236 281.135, 235.325 282.315, 234.500 283 C 233.675 283.685, 233 284.607, 233 285.051 C 233 286.015, 243.871 290.210, 245.211 289.763 C 246.250 289.417, 238.132 279, 236.823 279 C 236.370 279, 236 279.620, 236 280.378 M 215.544 296.599 C 213.034 299.109, 213.883 305.352, 218.346 317.206 C 222.384 327.934, 222.634 329.951, 220.628 335.637 C 219.873 337.776, 218.940 341.395, 218.554 343.679 C 217.462 350.143, 221.584 353.942, 240.050 363.493 C 253.308 370.350, 256.306 372.389, 264.554 380.153 C 269.723 385.019, 274.262 389, 274.642 389 C 275.022 389, 274.988 388.663, 274.565 388.250 C 274.142 387.837, 266.305 379.697, 257.148 370.159 C 247.992 360.621, 237.437 350.312, 233.693 347.249 C 226.736 341.557, 221.775 334.897, 225.649 336.451 C 226.667 336.859, 233.350 339.205, 240.500 341.664 C 254.764 346.570, 259.613 349.021, 268.250 355.692 L 274 360.133 274 357.263 C 274 352.610, 269.286 344.384, 264.677 340.992 C 262.380 339.301, 255.550 335.398, 249.500 332.317 C 235.988 325.435, 228.008 319.976, 225.665 316.011 C 224.687 314.355, 224.081 313, 224.318 313 C 225.803 313, 244.778 321.194, 257.245 327.219 C 265.354 331.138, 272.254 334.079, 272.578 333.755 C 273.651 332.682, 269.286 324.322, 265.414 320.036 C 258.340 312.207, 247.007 305.160, 231.726 299.090 C 221.343 294.965, 217.733 294.410, 215.544 296.599 M 303 303.505 C 291.051 309.689, 285.919 313.584, 282.421 319.125 C 280.086 322.825, 277.286 332.619, 278.280 333.613 C 278.541 333.875, 285.949 329.386, 294.742 323.638 C 309.094 314.256, 311.100 312.594, 314.364 307.375 C 321.293 296.298, 318.661 295.402, 303 303.505 M 195.067 302.933 C 193.299 304.701, 193 306.241, 193 313.570 C 193 321.885, 193.067 322.130, 195.250 321.820 C 198.103 321.414, 199.867 316.551, 199.944 308.872 C 200.013 301.928, 198.236 299.764, 195.067 302.933 M 317.500 322.157 C 314.200 324.254, 305.835 328.891, 298.912 332.460 C 286.447 338.885, 281.501 342.570, 279.978 346.565 C 278.662 350.015, 277.696 360, 278.678 360 C 279.178 360, 282.267 357.726, 285.543 354.946 C 293.451 348.236, 300.757 343.437, 307.757 340.354 C 310.916 338.963, 314.337 337.077, 315.360 336.163 C 317.688 334.083, 324.220 321.260, 323.807 319.584 C 323.608 318.781, 321.379 319.691, 317.500 322.157 M 314.345 350.874 C 308.930 355.754, 298.698 366.088, 291.607 373.838 C 284.516 381.588, 278.216 388.134, 277.607 388.385 C 276.905 388.675, 276.966 388.871, 277.773 388.921 C 278.474 388.964, 282.749 385.489, 287.273 381.198 C 291.798 376.907, 299.325 370.426, 304 366.796 C 313.404 359.493, 319.380 353.544, 323.366 347.518 C 328.926 339.112, 326.318 340.082, 314.345 350.874 M 338.405 376.108 C 337.357 377.268, 334.250 379.362, 331.500 380.762 C 327.196 382.954, 324.691 383.398, 313.500 383.950 C 305.579 384.340, 299.534 385.122, 298.026 385.950 C 294.396 387.945, 285.374 396.722, 281.430 402.095 C 277.376 407.618, 276.796 410.076, 280.745 405 C 285.599 398.760, 291.963 392.298, 296.029 389.480 C 299.593 387.010, 301.212 386.649, 311.759 385.976 C 326.633 385.027, 331.081 383.675, 336.867 378.346 C 339.415 376, 341.232 374.062, 340.905 374.040 C 340.578 374.018, 339.453 374.949, 338.405 376.108 M 200.492 375.987 C 201.738 378.004, 209.661 382.807, 214.500 384.480 C 217.845 385.637, 224.524 386.444, 234.682 386.918 C 249.180 387.596, 250.080 387.761, 254.682 390.602 C 257.472 392.324, 262.026 396.789, 265.500 401.209 C 275.073 413.388, 274.979 410.645, 265.389 397.955 C 260.762 391.832, 255.130 387.471, 249.920 385.977 C 248.046 385.440, 241.038 385, 234.346 385 C 220.396 385, 213.157 383.268, 205.721 378.152 C 201.016 374.915, 199.421 374.255, 200.492 375.987 M 318 409 C 317.175 409.533, 312 409.986, 306.500 410.007 C 294.831 410.050, 290.291 411.626, 285.230 417.391 C 281.913 421.169, 274.406 435, 275.672 435 C 276.056 435, 280.224 431.235, 284.935 426.634 C 294.607 417.186, 300.770 413.621, 310.295 411.962 C 313.909 411.333, 317.684 410.198, 318.683 409.441 C 320.760 407.867, 320.256 407.542, 318 409 M 220.306 410.840 C 222.626 411.982, 227.505 412.965, 232.806 413.358 C 245.001 414.262, 253.793 418.633, 263.798 428.769 C 267.832 432.856, 271.303 436.031, 271.510 435.824 C 272.203 435.131, 263.882 421.543, 260.671 418.124 C 255.025 412.113, 250.624 410.842, 234.647 410.609 C 226.866 410.495, 219.600 410.079, 218.500 409.685 C 217.400 409.290, 218.213 409.810, 220.306 410.840 M 220 431.514 C 220 432.753, 229.578 437.102, 236.309 438.919 C 250.577 442.770, 258.953 448.477, 266.573 459.542 C 268.641 462.544, 270.541 464.792, 270.795 464.538 C 271.788 463.546, 264.057 449.252, 260.155 444.865 C 254.994 439.063, 250.052 437.051, 238.189 435.924 C 232.951 435.427, 226.937 434.181, 224.439 433.076 C 221.998 431.996, 220 431.293, 220 431.514 M 313.500 433.055 C 311.300 434.096, 307.925 434.970, 306 434.998 C 292.045 435.200, 283.608 441.926, 276.515 458.500 L 273.948 464.500 277.032 461 C 278.729 459.075, 282.324 454.966, 285.023 451.868 C 291.200 444.776, 297.455 440.613, 306.131 437.819 C 309.873 436.613, 314.187 434.602, 315.717 433.350 C 319.054 430.619, 318.737 430.576, 313.500 433.055" stroke="none" fill="black" fill-rule="evenodd"/>
</svg>