<svg xmlns="http://www.w3.org/2000/svg" width="512" height="512" viewBox="0 0 512 512" version="1.1">
	<path d="M 250.888 19.903 C 247.801 20.890, 240.376 24.665, 234.388 28.291 C 228.400 31.917, 221.475 35.412, 219 36.058 C 208.336 38.840, 191.508 34.810, 174.716 25.452 C 169.334 22.454, 164.679 20, 164.370 20 C 163.267 20, 170.466 31.789, 182.181 49.163 C 194.702 67.735, 196 70.478, 196 78.368 C 196 89.416, 186.275 128.618, 180.733 139.912 C 176.500 148.538, 167.610 157.431, 152.993 167.664 C 139.430 177.158, 134.976 181.777, 132.185 189.236 C 129.749 195.745, 127.006 209.526, 126.985 215.360 C 126.976 217.637, 126.639 219.981, 126.235 220.568 C 125.831 221.155, 122.398 223.074, 118.607 224.833 C 99.902 233.506, 83.865 250.836, 76.545 270.285 C 71.692 283.177, 73.834 290.652, 85.095 300.129 C 96.777 309.960, 104.234 313.969, 128.702 323.574 C 137.941 327.201, 145.932 330.585, 146.460 331.094 C 146.987 331.603, 147.437 335.135, 147.460 338.943 C 147.496 345.200, 147.781 346.160, 150.411 348.907 C 152.013 350.579, 155.479 352.663, 158.115 353.538 C 164.774 355.750, 164.994 357.372, 160.049 367.805 C 157.782 372.587, 155.831 377.821, 155.714 379.436 C 155.530 381.960, 155.957 382.508, 158.750 383.331 C 160.537 383.858, 162 384.936, 162 385.726 C 162 386.517, 159.723 393.507, 156.941 401.261 C 150.724 418.587, 147.194 432.814, 146.338 444 C 145.981 448.675, 145.113 453.400, 144.411 454.500 C 142.639 457.274, 137 472.992, 137 475.156 C 137 477.288, 139.009 478.435, 148.375 481.650 C 160.986 485.980, 184.689 491.650, 218.834 498.505 L 252.168 505.197 260.955 496.599 C 265.788 491.869, 270.588 488, 271.621 488 C 272.655 488, 279.091 488.913, 285.924 490.028 C 295.318 491.560, 298.526 491.766, 299.079 490.873 C 299.810 489.689, 310.301 490.095, 317.750 491.595 C 320.254 492.100, 321 491.908, 321 490.761 C 321 487.585, 280.481 478.447, 240 472.493 C 225.064 470.296, 226 470.876, 226 463.818 C 226 459.179, 225.387 456.645, 223.370 452.939 C 220.828 448.267, 220.792 447.977, 222.304 444.198 C 224.339 439.113, 227 425.006, 227 419.306 C 227 413.087, 228.511 414.057, 233.622 423.555 C 235.971 427.920, 239.085 432.987, 240.543 434.814 C 243.078 437.991, 243.276 438.060, 245.097 436.413 C 246.143 435.465, 247 434.137, 247 433.461 C 247 432.785, 248.820 428.596, 251.044 424.153 C 255.021 416.206, 260.191 410.774, 262.012 412.627 C 262.484 413.107, 265.198 418, 268.044 423.500 C 270.890 429, 275.228 436.327, 277.683 439.782 L 282.147 446.065 279.074 454.943 C 277.383 459.825, 276 464.334, 276 464.961 C 276 466.988, 282.057 468.714, 305.500 473.365 C 349.586 482.112, 352.731 482.429, 355.872 478.436 C 357.973 475.765, 357.793 473.776, 355.173 470.728 C 353.806 469.138, 353.822 468.596, 355.325 465.444 C 357.409 461.075, 357.478 454.825, 355.485 450.971 C 354.652 449.359, 351.613 446.300, 348.734 444.173 C 341.630 438.925, 340.582 437.457, 340.838 433.115 C 341.020 430.041, 340.402 428.685, 337.278 425.301 C 334.724 422.534, 331.067 415.781, 325.999 404.471 C 314.543 378.904, 315.506 381.619, 318.194 382.449 C 319.462 382.841, 331.525 385.331, 345 387.984 C 370.476 392.999, 384.222 396.230, 389.549 398.456 C 400.352 402.970, 409.299 421.778, 412.163 446 C 412.781 451.225, 413.657 455.912, 414.108 456.414 C 415.491 457.955, 421.723 450.138, 425.936 441.575 C 433.940 425.310, 437.777 404.919, 436.685 384.452 C 435.452 361.347, 427.423 336.323, 418.599 328.079 C 417.174 326.748, 415.674 325.992, 415.267 326.400 C 414.859 326.807, 414.007 330.147, 413.373 333.820 C 409.207 357.955, 396.882 367.282, 376.932 361.398 C 368.981 359.053, 368.728 358.701, 369.486 351.059 C 369.857 347.326, 369.665 342.410, 369.041 339.648 C 367.994 335.010, 368.215 333.993, 374.025 316.683 C 381.086 295.644, 381.093 295.149, 374.530 282.394 C 369.120 271.881, 363.184 263.614, 353.528 253.146 C 349.290 248.552, 344.086 242.107, 341.965 238.824 C 338.120 232.875, 338.109 232.830, 338.626 224.678 C 339.077 217.556, 338.873 216.073, 337.051 213.192 C 335.900 211.372, 333.516 209.122, 331.753 208.192 C 329.989 207.261, 326.961 204.856, 325.023 202.846 C 323.086 200.836, 317.788 197.344, 313.250 195.085 L 305 190.978 305.017 182.739 C 305.048 168.216, 306.758 155.986, 309.504 150.658 C 312.276 145.280, 312.529 143.255, 310.881 139.639 C 309.884 137.451, 310.129 136.857, 313.131 134.173 C 315.954 131.650, 316.500 130.474, 316.500 126.918 C 316.500 122.803, 316.632 122.629, 320.823 121.229 C 323.200 120.435, 325.358 119.230, 325.618 118.552 C 326.221 116.981, 322.695 107.568, 319.791 103 C 318.329 100.701, 317.145 96.413, 316.339 90.500 C 314.377 76.123, 314.565 73.901, 318.157 68.942 C 326.645 57.225, 334.992 34.648, 334.958 23.500 L 334.946 19.500 328.723 26.182 C 321.880 33.530, 313.716 40, 311.288 40 C 310.431 40, 305.911 37.076, 301.243 33.503 C 283.089 19.605, 266.134 15.026, 250.888 19.903 M 255.500 25.670 C 247.509 27.803, 241.717 32, 246.763 32 C 247.668 32, 252.579 34.029, 257.677 36.509 C 267.425 41.251, 277.129 49.250, 282.450 56.928 C 286.256 62.420, 289.648 72.200, 290.497 80.131 C 291.309 87.714, 289.720 90.481, 288.114 84.280 C 287.575 82.201, 286.613 78.475, 285.976 76 C 281.823 59.875, 265.842 45.033, 246.670 39.495 C 239.421 37.402, 234.376 37.911, 226 41.580 C 220.307 44.075, 218.258 44.433, 209.500 44.464 C 201.053 44.494, 198.209 44.057, 191.187 41.647 C 186.614 40.077, 182.700 38.967, 182.488 39.179 C 181.340 40.327, 200.352 51.348, 207.472 53.662 C 218.174 57.140, 231.795 57.333, 243.667 54.173 C 255.211 51.101, 261.245 51.299, 267.626 54.959 C 278.173 61.008, 283.218 71.011, 288.042 95.439 C 289.230 101.456, 290.903 107.449, 291.761 108.757 L 293.319 111.136 295.907 108.547 C 298.479 105.975, 298.496 105.854, 298.498 89.729 C 298.500 71.013, 299.108 69.017, 308.002 58.498 C 313.262 52.277, 313.749 50.467, 310.662 48.607 C 309.087 47.658, 308.063 48.344, 303.491 53.418 C 300.557 56.672, 296.924 61.773, 295.416 64.753 C 292.071 71.365, 291.462 70.561, 290.684 58.500 C 289.670 42.765, 284.504 31.483, 276.500 27.519 C 272.527 25.552, 260.056 24.454, 255.500 25.670 M 322.750 40.628 C 316.554 46.598, 316.111 47.445, 318.663 48.424 C 321.623 49.560, 329.628 40.136, 328.810 36.476 C 328.614 35.598, 326.384 37.126, 322.750 40.628 M 228.037 44.201 C 222.894 46.176, 222.719 46.353, 225.037 47.231 C 229.212 48.812, 245 46.264, 245 44.009 C 245 41.327, 235.237 41.437, 228.037 44.201 M 247.250 71.602 C 246.372 71.999, 246 75.118, 246 82.083 L 246 92 250.290 92 C 256.222 92, 264.787 94.379, 273.728 98.510 C 277.883 100.430, 281.443 102, 281.641 102 C 281.838 102, 281.990 99.638, 281.978 96.750 C 281.936 86.808, 276.221 79.210, 265.054 74.250 C 259.727 71.884, 249.870 70.418, 247.250 71.602 M 241 97.428 C 235.431 98.973, 232.362 100.564, 223.672 106.408 C 217.765 110.380, 216.146 111.002, 211.672 111.015 C 207.964 111.026, 206.925 111.305, 208 112 C 208.825 112.533, 211.350 112.976, 213.612 112.985 C 216.915 112.997, 219.175 112.012, 225.112 107.976 C 240.582 97.456, 253.800 97.205, 273.313 107.060 C 281.659 111.276, 289.636 117.395, 291.511 121.021 C 292.481 122.897, 293.832 124, 295.160 124 C 297.218 124, 312.184 110.805, 312.792 108.454 C 312.953 107.833, 312.278 106.342, 311.292 105.141 L 309.500 102.957 302.184 108.478 C 298.160 111.515, 294.559 114, 294.181 114 C 293.803 114, 291.245 112.387, 288.497 110.415 C 277.051 102.204, 260.808 95.944, 251.324 96.089 C 248.121 96.139, 243.475 96.741, 241 97.428 M 247.141 104.892 C 246.268 105.445, 248.058 105.912, 252.141 106.197 C 259.534 106.714, 270.764 111.109, 280.085 117.133 C 283.464 119.317, 286.424 120.909, 286.662 120.671 C 286.901 120.433, 285.231 118.641, 282.951 116.690 C 273.188 108.333, 252.478 101.510, 247.141 104.892 M 261 128.014 C 260.175 128.554, 258.206 128.724, 256.625 128.391 C 253.117 127.653, 253.883 129.625, 257.663 131.062 C 260.530 132.152, 264 130.730, 264 128.465 C 264 126.766, 263.109 126.632, 261 128.014 M 302 130 C 302 130.550, 302.450 131, 303 131 C 303.550 131, 304 130.550, 304 130 C 304 129.450, 303.550 129, 303 129 C 302.450 129, 302 129.450, 302 130 M 240.003 133.752 C 235.293 136.106, 235.141 138.243, 239.451 141.530 C 244.318 145.243, 250.128 145.764, 258.141 143.206 C 261.638 142.090, 265.844 140.877, 267.486 140.510 C 271.535 139.606, 269.193 138.430, 261.938 137.724 C 258.878 137.427, 253.604 136.017, 250.218 134.592 C 246.831 133.166, 243.934 132.001, 243.780 132.002 C 243.626 132.002, 241.926 132.790, 240.003 133.752 M 217.750 134.572 C 217.338 134.991, 216.990 137.171, 216.978 139.417 C 216.954 143.989, 214.503 162.276, 213.449 165.750 C 213.036 167.114, 213.191 168, 213.845 168 C 215.367 168, 216.670 162.240, 218.030 149.499 C 219.218 138.372, 219.120 133.180, 217.750 134.572 M 227.444 142 C 228.346 155.480, 230.118 164.876, 232.409 168.323 C 234.937 172.127, 248.205 181.249, 260.115 187.372 L 268.730 191.800 281.615 191.269 C 288.702 190.977, 295.288 190.331, 296.250 189.834 C 298.798 188.517, 298.657 180.905, 296.041 178.537 C 291.761 174.664, 278.227 175.735, 271.213 180.501 C 269.191 181.876, 266.666 183, 265.603 183 C 263.325 183, 237.299 169.623, 234.743 167.138 C 232.725 165.177, 230.353 154.910, 229.397 144 C 228.449 133.178, 226.736 131.424, 227.444 142 M 279.687 143.526 C 277.021 146.867, 276.627 147.023, 272.187 146.496 C 268.281 146.033, 266.682 146.403, 262.594 148.720 C 256.348 152.259, 254 156.516, 254 164.300 C 254 171.580, 254.902 173.272, 260.550 176.582 L 265.064 179.228 268.935 176.545 C 274.403 172.756, 281.267 170.866, 290.250 170.678 C 298.063 170.514, 300.330 169.593, 295.250 168.647 C 293.738 168.365, 290.700 167.804, 288.500 167.399 C 286.300 166.994, 284.050 166.818, 283.500 167.008 C 282.950 167.197, 281.251 167.426, 279.724 167.516 C 278.197 167.606, 275.119 168.876, 272.884 170.340 C 270.649 171.803, 268.258 173, 267.571 173 C 266.244 173, 264 168.886, 264 166.453 C 264 164.737, 267.659 164.477, 268.218 166.153 C 268.445 166.836, 269.685 166.224, 271.256 164.653 C 274.478 161.431, 275.812 161.317, 276.869 164.176 L 277.675 166.353 278.242 164.181 C 279.070 161.018, 281.974 160.249, 283.937 162.674 C 285.557 164.674, 285.569 164.673, 287.281 162.402 C 289.563 159.378, 289.545 159.335, 285.470 157.990 C 282.874 157.133, 281.111 157.114, 278.804 157.919 C 274.262 159.502, 270.764 157.099, 271.191 152.688 C 271.458 149.938, 271.843 149.542, 274 149.805 C 275.375 149.972, 278.200 150.073, 280.277 150.028 C 282.643 149.978, 285.685 150.903, 288.415 152.503 C 292.112 154.670, 293.157 154.885, 295.278 153.919 C 298.957 152.243, 300.525 148.296, 300.111 141.750 C 299.949 139.198, 298.134 139.611, 296.818 142.500 C 296.192 143.875, 295.061 145, 294.306 145 C 293.551 145, 290.713 143.875, 288 142.500 C 285.287 141.125, 282.939 140, 282.783 140 C 282.627 140, 281.234 141.587, 279.687 143.526 M 294 160 C 293.052 160.612, 292.948 160.975, 293.718 160.985 C 294.388 160.993, 295.607 162.238, 296.428 163.750 L 297.920 166.500 297.960 162.750 C 298.001 158.896, 296.896 158.129, 294 160 M 153.645 174.428 C 144.071 181.762, 137.274 192.247, 143.250 190.463 C 147.416 189.220, 149.981 186.982, 151.540 183.230 C 152.393 181.179, 154.495 177.700, 156.213 175.500 C 161.002 169.365, 161.272 168.994, 160.872 169.089 C 160.668 169.138, 157.415 171.540, 153.645 174.428 M 165.052 191.053 C 165.848 191.557, 167.227 191.976, 168.116 191.985 C 171.198 192.014, 183.523 198.980, 188.010 203.229 C 190.490 205.578, 195.298 210.643, 198.692 214.484 C 202.087 218.326, 205.174 221.159, 205.552 220.781 C 206.874 219.459, 204.907 213.087, 201.716 208.356 C 195.851 199.658, 181.665 192.194, 168.052 190.644 C 165.147 190.313, 164.106 190.455, 165.052 191.053 M 200.825 201.387 C 208.629 209.435, 212.974 217.232, 212.990 223.215 C 212.997 225.935, 212.455 227.221, 210.962 228.020 C 206.804 230.245, 202.562 227.328, 195.427 217.339 C 189.588 209.164, 184.220 204.716, 174.186 199.736 C 166.490 195.916, 165.190 195.591, 156.686 195.355 C 149.329 195.151, 148.396 195.268, 152 195.944 C 164.194 198.230, 175.269 205.246, 189.688 219.819 C 198.161 228.381, 201.472 231.061, 204.820 232.064 C 213.125 234.552, 217.562 230.529, 216.472 221.500 C 215.305 211.836, 210.261 204.011, 200.600 196.879 C 193.436 191.590, 193.550 193.884, 200.825 201.387 M 303.751 207.128 C 304.745 211.604, 304.707 224.692, 303.688 228.673 C 302.958 231.522, 303.076 231.793, 304.852 231.329 C 309.028 230.236, 311.388 226.289, 311.792 219.718 C 312.116 214.456, 311.816 212.978, 309.838 210.102 C 308.552 208.234, 306.488 206.042, 305.251 205.231 C 303.038 203.781, 303.014 203.812, 303.751 207.128 M 316.426 215.342 C 316.385 218.273, 315.761 222.783, 315.038 225.364 C 313.440 231.072, 314.084 232.007, 317.359 228.732 C 320.788 225.303, 321.758 218.399, 319.484 213.607 C 318.542 211.623, 317.486 210.003, 317.136 210.006 C 316.786 210.009, 316.467 212.410, 316.426 215.342 M 156.977 216.818 C 153.654 219.508, 153.454 227.453, 156.603 231.670 C 159.811 235.967, 166.667 239.047, 173.566 239.290 C 179.257 239.491, 179.512 239.395, 179.799 236.932 C 180.221 233.301, 174.204 222.262, 169.923 218.812 C 165.119 214.942, 160.224 214.188, 156.977 216.818 M 325.653 222.941 C 322.550 232.897, 313.703 240.915, 305.750 240.978 C 302.749 241.002, 302.060 242.425, 304.582 243.393 C 309.345 245.221, 317.435 242.854, 322.342 238.197 C 325.581 235.122, 328.444 229.944, 329.429 225.378 C 330.113 222.207, 329.311 216.993, 328.142 217.009 C 327.789 217.013, 326.669 219.683, 325.653 222.941 M 234.246 222.239 C 234.939 224.316, 254.811 230.197, 261.500 230.305 C 267.612 230.404, 278 226.919, 278 224.770 C 278 224.229, 277.213 224.106, 276.250 224.497 C 267.456 228.071, 259.452 227.954, 246 224.055 C 234.084 220.602, 233.680 220.540, 234.246 222.239 M 137.452 227.401 C 125.829 230.214, 110.650 239.310, 101.828 248.748 C 96.516 254.432, 91.564 263.579, 90.568 269.547 C 89.668 274.943, 92.248 278.201, 99.604 280.953 C 107.751 284.001, 109.692 285.123, 129.239 298.077 C 139.037 304.570, 147.957 310.169, 149.062 310.520 C 150.590 311.005, 152.588 309.761, 157.403 305.329 L 163.734 299.500 161.368 296.500 C 158.528 292.898, 150.882 281.399, 145.859 273.174 C 140.770 264.840, 134.924 261.446, 126 261.644 C 122.425 261.724, 118.255 262.278, 116.734 262.876 L 113.968 263.963 115.464 261.070 C 117.404 257.319, 121.319 254.284, 126.047 252.868 C 129.308 251.891, 130.416 252.026, 134.162 253.856 C 136.548 255.022, 140.750 257.770, 143.500 259.962 C 152.980 267.521, 152.517 267.311, 156.712 265.966 C 164.295 263.536, 170 257.364, 170 251.588 C 170 249.469, 169.336 248.909, 165.750 248.001 C 154.668 245.195, 148.864 240.459, 145.947 231.843 C 144.962 228.933, 143.783 226.468, 143.328 226.366 C 142.873 226.263, 140.228 226.729, 137.452 227.401 M 229 230.987 C 229 235.090, 251.682 244, 262.125 244 C 271.045 244, 287.401 237.076, 284.753 234.421 C 284.342 234.009, 279.842 235.101, 274.753 236.848 C 264.867 240.241, 259.402 240.820, 257.610 238.664 C 257 237.930, 253.575 236.488, 250 235.461 C 246.425 234.433, 240.921 232.559, 237.770 231.296 C 230.737 228.478, 229 228.417, 229 230.987 M 223 236.845 C 223 241.073, 251.768 252, 262.899 252 C 271.004 252, 290.316 244.946, 291.637 241.503 C 292.715 238.693, 291.123 238.616, 286.255 241.241 C 279.652 244.802, 268.683 248.003, 263.145 247.985 C 254.789 247.959, 240.726 243.935, 230.012 238.506 C 224.816 235.873, 223 235.443, 223 236.845 M 331 248.757 C 329.625 250.816, 325.462 255.739, 321.750 259.698 C 314.056 267.903, 313.151 271.242, 317.455 275.545 C 320.615 278.706, 324.525 278.687, 329.233 275.488 C 337.761 269.692, 340.801 258.186, 336.165 249.250 C 334.952 246.912, 333.856 245.003, 333.730 245.007 C 333.603 245.011, 332.375 246.698, 331 248.757 M 290.239 255.112 C 284.955 257.726, 276.999 266.199, 277.004 269.207 C 277.010 273.037, 280.421 277.406, 287.634 282.824 C 296.302 289.334, 298.673 289.500, 292.143 283.139 C 282.259 273.512, 283.249 261.699, 294.466 255.428 C 298.148 253.369, 294.336 253.084, 290.239 255.112 M 224.016 255.027 C 220.386 255.877, 216 260.025, 216 262.605 C 216 267.785, 222.912 273, 229.777 273 C 236.806 273, 244.022 268.719, 243.978 264.576 C 243.911 258.305, 232.769 252.975, 224.016 255.027 M 342.863 270.360 C 334.876 281.172, 333.637 284.349, 333.643 294 C 333.646 298.675, 333.840 306.212, 334.074 310.749 L 334.500 318.997 337.785 318.999 C 339.592 318.999, 344.706 320.202, 349.150 321.670 C 358.636 324.806, 357.327 325.785, 363.407 311 C 367.489 301.072, 368.701 294.549, 367.576 288.553 C 366.824 284.547, 356.067 267.861, 352.729 265.523 C 349.190 263.044, 347.743 263.753, 342.863 270.360 M 262 274.176 C 252.083 286.725, 237.370 296.617, 224.198 299.592 C 215.440 301.569, 214.461 303.546, 222.750 302.516 C 236.980 300.747, 254.602 292.210, 265.295 281.903 C 270.042 277.327, 270.250 276.904, 269.717 272.929 C 269.410 270.635, 268.785 268.411, 268.329 267.987 C 267.873 267.563, 265.025 270.348, 262 274.176 M 271.994 288.494 C 274.411 291.066, 292.803 301, 295.149 301 C 295.874 301, 293.550 299.288, 289.984 297.195 C 286.418 295.103, 281.196 291.728, 278.381 289.695 C 272.227 285.254, 268.247 284.505, 271.994 288.494 M 307.574 294.880 C 307.216 295.460, 307.222 298.191, 307.588 300.950 C 308.120 304.964, 307.879 306.517, 306.377 308.732 C 304.393 311.658, 303.945 316.295, 304.083 332.500 C 304.139 339.202, 304.561 341.947, 305.734 343.250 C 307.916 345.674, 308.395 345.493, 310.285 341.529 C 311.195 339.620, 313.509 337.032, 315.426 335.779 C 317.744 334.264, 319.470 331.991, 320.577 329 C 321.492 326.525, 322.850 323.521, 323.595 322.325 C 325.310 319.568, 324.201 316.092, 318.629 306.754 C 314.111 299.183, 308.584 293.246, 307.574 294.880 M 102 297.430 C 102 297.705, 102.900 298.411, 104 299 C 105.100 299.589, 106 299.845, 106 299.570 C 106 299.295, 105.100 298.589, 104 298 C 102.900 297.411, 102 297.155, 102 297.430 M 107 300.318 C 107 300.725, 120.039 308.644, 122.500 309.732 C 123.050 309.975, 122.455 309.320, 121.177 308.278 C 118.507 306.098, 107 299.638, 107 300.318 M 167.972 304.125 C 162.911 307.148, 158.097 311.972, 155.912 316.210 C 153.625 320.648, 153.520 322.357, 155.438 323.948 C 156.608 324.919, 157.156 324.600, 158.380 322.232 C 160.203 318.707, 171.136 308.409, 174.031 307.490 C 176.442 306.725, 176.219 305.221, 173.418 303.361 C 171.732 302.242, 170.939 302.354, 167.972 304.125 M 254.028 310.024 C 247.169 313.853, 239.406 317.701, 236.778 318.574 C 234.150 319.447, 232 320.625, 232 321.192 C 232 323.363, 245.478 319.429, 258.875 313.348 C 267.750 309.319, 269.960 309.235, 278.727 312.597 C 286.468 315.564, 291 317.013, 291 316.521 C 291 316.334, 287.063 314.056, 282.250 311.458 C 277.438 308.860, 272.427 305.894, 271.115 304.867 C 269.803 303.840, 268.228 303.014, 267.615 303.031 C 267.002 303.048, 260.888 306.195, 254.028 310.024 M 173.673 314.093 C 169.149 317.090, 165.988 320.661, 164.702 324.229 C 164.266 325.438, 165.072 326.716, 167.378 328.475 C 172.065 332.050, 176.234 340.094, 175.825 344.774 L 175.500 348.500 180.850 348.210 C 183.792 348.051, 186.808 348.426, 187.551 349.043 C 188.556 349.876, 189.825 349.831, 192.492 348.867 C 195.325 347.842, 196.490 347.825, 198.027 348.785 C 200.942 350.605, 203.582 350.263, 206.591 347.676 C 209.292 345.352, 209.293 345.351, 208.044 338.734 C 207.357 335.095, 206.954 329.523, 207.148 326.352 L 207.500 320.588 197 315.871 C 184.051 310.054, 180.212 309.762, 173.673 314.093 M 262.273 327.830 C 257.748 329.849, 254.035 331.892, 254.023 332.370 C 254.010 332.849, 256.587 332.986, 259.750 332.674 C 262.913 332.363, 270.542 331.668, 276.705 331.129 C 282.868 330.590, 288.711 329.701, 289.691 329.153 C 291.691 328.034, 291.939 328.118, 280.500 326.054 C 277.200 325.458, 273.600 324.789, 272.500 324.566 C 271.400 324.343, 266.798 325.812, 262.273 327.830 M 330.750 325.716 C 329.788 326.784, 329 327.960, 329 328.329 C 329 328.698, 331.843 329, 335.318 329 C 342.043 329, 350.049 330.972, 356.347 334.180 C 360.733 336.414, 361.665 336.111, 359.997 332.994 C 358.140 329.525, 346.866 324.794, 339.151 324.246 C 333.468 323.843, 332.245 324.057, 330.750 325.716 M 217.174 334.965 C 219.654 340.933, 219.136 346.565, 215.474 353.453 C 212.890 358.313, 213.379 358.890, 218.040 356.479 C 222.833 354.001, 228.024 341.217, 226.578 335.455 C 225.912 332.800, 221.040 330, 217.088 330 C 215.130 330, 215.131 330.049, 217.174 334.965 M 325.557 336.047 C 320.804 338.418, 317 341.839, 317 343.742 C 317 344.732, 317.650 344.928, 319.250 344.418 C 323.779 342.974, 324.361 343.419, 327.199 350.500 C 330.009 357.508, 330.489 363.948, 328.532 368.351 C 327.748 370.114, 327.856 370.126, 330.805 368.601 C 332.507 367.720, 334.614 367, 335.486 367 C 336.357 367, 338.203 366.258, 339.587 365.351 C 341.481 364.110, 342.386 363.986, 343.251 364.851 C 344.880 366.480, 347.650 366.275, 350.656 364.306 C 353.087 362.713, 353.317 362.713, 354.481 364.306 C 357.301 368.161, 360.424 364.776, 361.973 356.184 C 363.473 347.866, 362.187 343.872, 356.737 339.925 C 348.508 333.963, 333.480 332.094, 325.557 336.047 M 232.295 343.092 C 231.599 347.413, 231.632 349.285, 232.407 349.534 C 233.008 349.727, 240.700 350.617, 249.500 351.511 C 258.300 352.405, 276.048 354.456, 288.940 356.068 C 318.377 359.750, 317 359.752, 317 356.039 C 317 352.433, 315.946 352.096, 295 349.010 C 281.502 347.021, 247.951 340.311, 240.007 338.011 C 233.747 336.199, 233.364 336.451, 232.295 343.092 M 365.305 368.487 C 364.390 370.406, 363.835 372.151, 364.071 372.366 C 364.960 373.176, 394.967 377.366, 395.569 376.764 C 395.916 376.417, 395.679 374.558, 395.044 372.632 C 393.946 369.306, 393.602 369.096, 388.194 368.458 C 385.062 368.088, 379.433 367.159, 375.685 366.393 C 366.760 364.569, 367.217 364.477, 365.305 368.487 M 225.607 374.214 C 229.381 394.020, 234.465 398.980, 251.007 398.994 C 258.286 399.001, 258.616 398.916, 275.883 392.653 C 291.245 387.081, 292.037 386.414, 289.043 381.569 C 286.754 377.866, 284.265 376, 281.614 376 C 280.270 376, 280.259 376.542, 281.519 380.729 C 284.096 389.291, 279.370 389.088, 273.372 380.378 C 268.988 374.014, 266.303 372.048, 265.357 374.512 C 264.773 376.033, 265.042 379.175, 266.575 388.750 C 267.193 392.609, 267.064 393, 265.170 393 C 263.035 393, 262.147 391.731, 254.679 378 C 252.442 373.887, 250.511 371.500, 249.422 371.500 C 247.211 371.500, 245.101 377.425, 244.292 385.912 C 243.687 392.252, 243.661 392.299, 241.897 390.122 C 240.917 388.911, 238.702 384.225, 236.975 379.710 C 232.622 368.326, 231.643 367, 227.593 367 L 224.232 367 225.607 374.214 M 427.504 392.184 C 427.121 397.858, 426.974 403.850, 427.178 405.500 C 427.383 407.150, 427.913 402.724, 428.356 395.665 C 428.800 388.606, 428.947 382.613, 428.682 382.349 C 428.418 382.084, 427.888 386.510, 427.504 392.184 M 185.857 413.090 C 171.229 430.751, 167.569 438.777, 171.776 443.971 C 174 446.718, 174.655 446.613, 186.619 441.594 C 189.984 440.182, 196.284 438.430, 200.619 437.702 C 207.760 436.501, 208.633 436.103, 209.915 433.458 C 210.693 431.853, 211.524 427.380, 211.761 423.520 C 212.140 417.363, 211.900 416.070, 209.813 413 C 207.551 409.674, 197.933 403, 195.401 403 C 194.748 403, 190.453 407.540, 185.857 413.090 M 335.321 455.415 C 329.366 461.371, 329.566 463.004, 336.250 462.985 C 342.611 462.967, 346.387 461.239, 346.830 458.143 C 347.210 455.491, 344.837 452.452, 341.757 451.647 C 340.186 451.236, 338.532 452.205, 335.321 455.415 M 197.500 454.684 C 191.709 455.976, 188.365 457.579, 184.869 460.737 C 177.867 467.063, 180.792 471.008, 192.473 470.988 C 204.871 470.967, 214 467.543, 214 462.914 C 214 457.841, 204.527 453.116, 197.500 454.684" stroke="none" fill="black" fill-rule="evenodd"/>
</svg>