<svg xmlns="http://www.w3.org/2000/svg" width="512" height="512" viewBox="0 0 512 512" version="1.1">
	<path d="M 250 9.163 C 241.674 14.289, 209.820 29.873, 202.500 32.401 C 193.764 35.419, 192 36.906, 192 41.257 C 192 42.838, 191.508 45.051, 190.907 46.174 C 189.530 48.747, 175.597 55.265, 166.928 57.392 C 158.904 59.360, 145.102 61.181, 143.888 60.431 C 143.400 60.129, 143.003 58.221, 143.007 56.191 C 143.013 52.810, 146.179 29.592, 147.602 22.500 C 148.193 19.550, 148.117 19.583, 143.025 24.500 C 135.255 32.004, 126.896 45.105, 123.566 55 C 121.326 61.655, 120.608 65.888, 120.254 74.500 C 119.709 87.803, 121.394 96.151, 126.641 106.137 C 133.172 118.564, 142.247 126.556, 155.938 131.935 C 165.350 135.633, 165.326 135.608, 164.653 140.513 C 163.017 152.451, 155.259 169.958, 145.463 183.814 C 141.493 189.431, 141 190.732, 141 195.596 C 141 202.246, 144.006 211.569, 148.588 219.131 C 150.465 222.228, 152 225.929, 152 227.355 C 152 228.781, 150.650 233.346, 149 237.500 C 146.747 243.173, 146 246.673, 146 251.566 C 146 259.330, 144.817 261.940, 134.266 277.462 C 122.903 294.179, 119.011 302.571, 113.893 321.394 C 112.236 327.489, 110.119 333.317, 109.190 334.345 C 108.260 335.374, 103.403 338.130, 98.396 340.471 C 87.860 345.396, 79.572 350.824, 72.510 357.423 C 66.950 362.620, 67.304 363.956, 74.250 363.985 C 76.313 363.993, 78 364.287, 78 364.639 C 78 364.990, 74.737 368.703, 70.748 372.889 C 55 389.418, 45.422 409.571, 43.490 430.245 C 42.633 439.412, 43.590 450.065, 45.503 452.654 C 46.753 454.346, 47.085 454, 49.487 448.500 C 62.901 417.779, 79.812 387.884, 87.688 380.969 C 92.153 377.049, 92.925 377.748, 89.568 382.672 C 86.398 387.323, 87.311 387.765, 95.615 385.596 C 98.805 384.763, 101.594 384.260, 101.812 384.479 C 102.030 384.697, 101.751 390.416, 101.192 397.188 C 99.673 415.587, 102.295 433.811, 107.821 443.250 C 110.970 448.628, 112.499 446.931, 115.931 434.250 C 120.166 418.608, 122.773 410.693, 124.445 408.406 C 125.768 406.596, 125.865 406.621, 126.829 409.010 C 127.382 410.379, 128.590 414.875, 129.514 419 C 132.652 433.018, 141.964 447.572, 147.309 446.812 C 149.923 446.440, 150.774 441.832, 150.912 427.309 C 150.961 422.254, 151.437 417.848, 151.971 417.518 C 153.300 416.697, 158.726 419.620, 159.883 421.781 C 160.401 422.750, 161.556 428.826, 162.449 435.284 C 164.303 448.694, 164.597 449.714, 166.959 450.978 C 168.851 451.990, 173.569 449.210, 177.855 444.557 C 179.150 443.150, 181.209 442, 182.429 442 C 185.423 442, 200.306 451.967, 212.264 461.981 C 223.737 471.587, 232.976 481.803, 242.340 495.234 C 249.643 505.708, 253.239 509.229, 255.678 508.293 C 256.531 507.966, 261.759 501.579, 267.296 494.099 C 278.853 478.486, 284.219 472.571, 295.467 463.044 C 305.742 454.340, 322.977 442, 324.858 442 C 325.655 442, 328.686 444.250, 331.594 447 C 334.501 449.750, 337.572 452, 338.417 452 C 341.602 452, 344.176 444.223, 346.483 427.624 C 347.218 422.337, 350.520 418, 353.811 418 C 355.545 418, 355.796 419.236, 356.653 431.963 C 357.170 439.643, 357.895 446.229, 358.265 446.598 C 359.483 447.816, 364.956 444.814, 368.152 441.174 C 372.627 436.077, 376.693 426.805, 378.919 416.617 C 379.976 411.782, 381.138 407.529, 381.502 407.165 C 383.221 405.446, 387.716 417.215, 394.500 441.197 C 396.414 447.966, 397.850 447.979, 401.011 441.254 C 406.206 430.201, 407.427 422.789, 407.437 402.229 C 407.445 385.362, 407.637 383.031, 408.973 383.544 C 413.178 385.158, 422.073 387.260, 422.576 386.757 C 422.890 386.443, 422.439 384.816, 421.574 383.143 C 419.412 378.963, 419.539 377.273, 421.857 379.371 C 426.679 383.735, 438.697 403.865, 450.587 427.493 C 458.415 443.051, 464.310 453.624, 465.257 453.808 C 467.379 454.221, 468.496 445.409, 467.545 435.757 C 465.274 412.717, 454.612 388.994, 438.599 371.353 C 432.694 364.849, 432.743 364, 439.023 364 C 440.595 364, 442.113 363.627, 442.395 363.170 C 443.016 362.166, 434.373 353.636, 427.561 348.531 C 424.845 346.495, 418.320 342.668, 413.061 340.027 C 407.803 337.385, 402.766 334.386, 401.868 333.362 C 400.971 332.338, 398.365 325.524, 396.078 318.219 C 391.028 302.090, 384.436 288.947, 374.403 275 C 364.080 260.649, 363.666 259.741, 363.463 251 C 363.321 244.857, 362.720 242.324, 360.145 237 C 356.088 228.611, 356.145 225.696, 360.487 219.589 C 364.297 214.230, 367.675 206.061, 368.989 199.030 C 370.125 192.951, 368.693 189.257, 361.399 179.439 C 358.104 175.006, 354.437 169.119, 353.249 166.356 C 350.771 160.596, 346.239 145.399, 345.416 140.091 L 344.860 136.500 355.680 131.317 C 368.012 125.410, 374.308 120.381, 380.156 111.770 C 391.293 95.370, 393.364 76.688, 386.416 55.302 C 382.498 43.245, 374.469 30.365, 365.966 22.500 L 362.723 19.500 363.404 23 C 365.280 32.639, 367.980 52.012, 367.989 55.899 L 368 60.297 359.750 59.702 C 346.715 58.762, 326.011 52.011, 321.099 47.099 C 319.689 45.689, 319 43.727, 319 41.122 C 319 38.990, 318.425 36.767, 317.721 36.184 C 317.018 35.600, 312.405 33.669, 307.471 31.892 C 302.537 30.115, 288.895 23.788, 277.157 17.831 C 265.418 11.874, 255.293 7.002, 254.657 7.004 C 254.020 7.006, 251.925 7.977, 250 9.163 M 237.500 40.993 C 229.308 45.616, 219.974 50.011, 215 51.586 C 203.524 55.219, 201.788 56.211, 198.676 60.913 C 197.204 63.137, 196 65.192, 196 65.479 C 196 65.765, 199.375 66, 203.500 66 C 208.032 66, 211 66.412, 211 67.041 C 211 67.614, 208.761 69.475, 206.024 71.176 C 200.438 74.648, 200.378 75.998, 205.809 76.004 L 209.500 76.008 209.729 88.031 C 209.856 94.644, 210.421 100.918, 210.986 101.974 C 211.551 103.030, 214.730 105.113, 218.050 106.603 C 226.406 110.353, 231.699 114.318, 242.594 124.988 C 247.753 130.041, 252.522 133.993, 253.191 133.770 C 255.869 132.877, 256.236 125.368, 255.697 82.500 C 255.179 41.294, 254.599 32.908, 252.275 33.046 C 251.849 33.071, 245.200 36.647, 237.500 40.993 M 236.500 49.700 L 225.500 57.176 230.239 56.609 C 234.494 56.099, 235.329 56.350, 238.428 59.071 C 240.325 60.737, 242.320 63.540, 242.859 65.300 C 243.399 67.060, 244.037 79.112, 244.277 92.083 C 244.549 106.790, 245.132 116.387, 245.826 117.583 C 246.686 119.064, 246.972 116.316, 247.085 105.500 C 247.165 97.800, 247.516 80.362, 247.865 66.749 C 248.214 53.135, 248.275 42.048, 248 42.111 C 247.725 42.173, 242.550 45.589, 236.500 49.700 M 136 50.500 C 133.704 55.093, 133.500 56.600, 133.500 69 C 133.500 82.055, 133.603 82.714, 136.617 89 C 141.698 99.597, 156.305 111.980, 164.158 112.348 C 167.115 112.487, 167.545 112.112, 169.143 108 C 171.336 102.356, 171.511 91.082, 169.510 84.345 C 167.851 78.760, 163.292 71.892, 159.664 69.515 C 158.357 68.659, 153.746 67.281, 149.418 66.453 C 145.089 65.625, 141.086 64.488, 140.523 63.928 C 139.961 63.367, 139.275 58.992, 139 54.204 L 138.500 45.500 136 50.500 M 372.081 54.295 C 371.978 62.941, 369.956 65.371, 362.094 66.302 C 354.545 67.196, 348.869 70.262, 345.134 75.462 C 340.599 81.778, 338.997 87.128, 339.022 95.876 C 339.045 103.960, 341.480 111.480, 344.443 112.616 C 346.963 113.584, 358.119 107.676, 364.083 102.216 C 367.309 99.262, 371.075 94.460, 373.006 90.837 C 376.006 85.210, 376.393 83.541, 376.794 74.523 C 377.243 64.422, 376.129 56.233, 373.525 50.500 C 372.209 47.603, 372.160 47.732, 372.081 54.295 M 203.643 108.984 C 200.087 110.104, 197.244 112.628, 195.298 116.390 C 193.831 119.228, 193.848 119.271, 196.151 118.587 C 201.102 117.114, 210.783 116.773, 214.336 117.946 C 220.870 120.102, 233.068 128.944, 243.468 139.063 C 249.086 144.528, 254.149 149, 254.720 149 C 255.291 149, 258.827 145.738, 262.579 141.750 C 282.698 120.365, 296.887 113.521, 310.874 118.456 C 313.143 119.256, 315 119.483, 315 118.959 C 315 116.560, 307.552 109.956, 303.642 108.886 C 294.413 106.362, 287.108 110.620, 268.856 129.158 C 261.082 137.054, 255.448 142, 254.227 142 C 253.052 142, 249.479 139.041, 245.471 134.750 C 235.481 124.053, 223.208 113.318, 218.365 111.042 C 213.142 108.586, 207.437 107.789, 203.643 108.984 M 199.676 127.454 C 194.822 129.182, 194.772 129.243, 195.567 132.413 C 196.105 134.555, 196.640 134.935, 198.366 134.404 C 203.574 132.800, 206.122 130.872, 205.812 128.771 C 205.407 126.030, 204.327 125.798, 199.676 127.454 M 304 128.864 C 304 131.447, 312.791 134.940, 314.098 132.876 C 315.466 130.717, 315.201 130.156, 312.050 128.526 C 307.855 126.357, 304 126.519, 304 128.864 M 219.015 131.750 C 219.041 133.014, 220.306 134.344, 225.286 138.346 C 228.556 140.974, 231.152 144.338, 233.482 148.964 C 236.909 155.769, 241.960 161.085, 250.800 167.194 L 255.101 170.165 260.746 165.833 C 269.769 158.907, 272.472 155.714, 274.862 149.158 C 276.451 144.800, 278.144 142.196, 280.654 140.250 C 282.604 138.737, 285.105 136.803, 286.212 135.950 C 287.318 135.098, 288.061 133.633, 287.862 132.694 C 286.739 127.399, 265.308 146.119, 259.177 157.750 C 257.365 161.188, 255.748 164, 255.583 164 C 255.418 164, 253.569 161.412, 251.473 158.250 C 245.782 149.661, 241.262 144.558, 234.545 139.141 C 226.284 132.479, 218.959 128.992, 219.015 131.750 M 197.500 146.235 C 195.850 147.429, 192.025 150.642, 189 153.376 C 185.975 156.109, 179.122 161.220, 173.772 164.733 C 164.818 170.612, 161.861 173, 163.532 173 C 163.890 173, 170.435 169.785, 178.077 165.855 C 195.767 156.758, 198.897 156.293, 209.222 161.235 C 213.225 163.151, 221.898 168.607, 228.496 173.359 C 235.095 178.112, 241.057 182, 241.746 182 C 244.318 182, 247 178.046, 247.003 174.250 C 247.006 170.868, 246.247 169.782, 239.253 163.172 C 221.762 146.640, 205.855 140.187, 197.500 146.235 M 295.977 146.225 C 288.597 148.799, 279.740 154.834, 269.544 164.235 C 262.792 170.462, 262.596 170.778, 262.847 175.036 C 263.401 184.415, 266.732 184.232, 279.734 174.111 C 291.587 164.884, 298.752 160.594, 305.173 158.876 C 311.952 157.063, 318.998 158.990, 333.765 166.697 C 340.585 170.256, 346.344 172.989, 346.563 172.770 C 346.782 172.551, 342.132 168.917, 336.231 164.695 C 330.329 160.472, 322.061 154.277, 317.858 150.928 C 308.623 143.569, 305.510 142.900, 295.977 146.225 M 152.620 188.066 C 151.576 189.833, 151.136 191.854, 151.527 193.085 C 152.150 195.047, 152.273 195.063, 154.091 193.418 C 156.002 191.688, 156.720 186.563, 155.183 185.613 C 154.734 185.336, 153.581 186.440, 152.620 188.066 M 205.750 185.689 C 203.241 186.345, 203.592 188.534, 206.582 190.886 C 210.575 194.027, 212.817 194.342, 217.756 192.455 L 222.316 190.714 216.022 187.857 C 209.712 184.993, 208.995 184.841, 205.750 185.689 M 292.553 187.631 C 288.102 189.977, 287.781 190.367, 289.355 191.518 C 292.700 193.963, 298.095 194.319, 300.833 192.275 C 303.597 190.212, 305.691 187.354, 304.965 186.637 C 304.709 186.385, 302.925 185.919, 301 185.601 C 298.374 185.168, 296.265 185.675, 292.553 187.631 M 355 188.066 C 355 190.611, 356.733 194, 358.035 194 C 359.336 194, 359.252 191.647, 357.839 188.547 C 356.439 185.473, 355 185.229, 355 188.066 M 181.010 201.250 C 181.021 210.594, 183.513 217.438, 188.624 222.155 C 192.914 226.117, 211.414 240.984, 212.063 240.992 C 212.372 240.997, 215.950 236.943, 220.013 231.984 C 230.265 219.472, 232.463 218.217, 237.365 222.073 C 240.893 224.847, 240.684 226, 236.655 226 C 232.727 226, 229.685 228.820, 230.170 232.013 C 230.426 233.705, 233.119 235.429, 242.256 239.749 L 254.012 245.309 265.479 239.904 C 277.430 234.273, 278.310 233.316, 275.387 229.142 C 274.029 227.204, 273.050 226.891, 269.206 227.170 C 263.895 227.554, 264.593 229.088, 260.992 209.130 C 258.564 195.678, 256.784 192.335, 252.699 193.553 C 247.577 195.079, 246.058 196.972, 243.844 204.592 C 241.747 211.809, 241.583 212.051, 240.362 209.721 C 237.781 204.795, 227.764 203.120, 220.760 206.444 C 214.769 209.287, 204.197 218.961, 201.903 223.700 L 199.746 228.157 198.102 223.328 C 197.198 220.673, 194.158 214.675, 191.346 210 C 188.535 205.325, 185.272 199.588, 184.097 197.250 C 182.921 194.912, 181.743 193, 181.480 193 C 181.216 193, 181.004 196.713, 181.010 201.250 M 203.595 196.138 C 206.847 199.787, 210.809 200.796, 219.750 200.248 C 224.287 199.970, 228 199.361, 228 198.895 C 228 198.428, 226.878 197.311, 225.508 196.413 C 223.322 194.981, 222.241 194.934, 216.728 196.030 C 211.237 197.121, 210.039 197.072, 207.270 195.640 C 202.840 193.349, 201.296 193.558, 203.595 196.138 M 303.500 195.660 C 301.552 197.141, 293.053 197.040, 287.500 195.470 C 285.405 194.877, 281.024 197.357, 282.160 198.493 C 282.521 198.854, 287.020 199.397, 292.158 199.699 C 300.424 200.186, 301.775 200.025, 303.892 198.301 C 306.830 195.907, 306.459 193.411, 303.500 195.660 M 325.616 199.500 C 324.029 202.250, 320.468 208.100, 317.702 212.500 C 314.936 216.900, 311.524 222.518, 310.120 224.984 L 307.567 229.468 306.628 225.495 C 304.730 217.468, 288.692 205.028, 280.219 205.009 C 275.144 204.998, 274.210 206.457, 275.854 211.825 C 277.158 216.084, 294.592 239.636, 296.135 239.222 C 298.694 238.534, 319.094 223.638, 322.229 220.168 C 327.153 214.718, 329.172 208.822, 328.803 200.966 L 328.500 194.500 325.616 199.500 M 220.966 245.063 C 219.531 247.745, 218.605 264.106, 219.791 265.820 C 220.517 266.869, 221.466 266.624, 224.403 264.630 C 231.931 259.522, 239.791 259.024, 249.556 263.036 C 252.263 264.148, 253.391 263.981, 259.405 261.575 C 267.382 258.384, 270.564 258.615, 279.984 263.070 C 283.392 264.682, 286.650 266, 287.226 266 C 288.640 266, 287.687 248.152, 286.115 245.216 C 285.463 243.997, 284.349 243, 283.639 243 C 281.733 243, 278.248 247.096, 277.463 250.259 C 276.596 253.756, 275.573 254.375, 273.158 252.867 C 271.511 251.838, 270.181 252.340, 263.875 256.375 C 259.828 258.965, 255.538 261.329, 254.344 261.628 C 252.794 262.018, 250.074 260.698, 244.836 257.015 C 239.189 253.043, 236.847 251.950, 234.664 252.267 C 232.346 252.604, 231.649 252.206, 230.848 250.089 C 229.500 246.532, 226.019 243, 223.861 243 C 222.876 243, 221.573 243.928, 220.966 245.063 M 203.049 258.757 C 202.937 261.636, 206.157 280.902, 207.575 285.841 C 208.846 290.268, 210.579 292.707, 217.690 300.084 C 223.442 306.051, 228.079 309.870, 231.755 311.668 C 236.849 314.161, 237.567 314.265, 241.869 313.135 C 244.416 312.465, 248.408 310.562, 250.740 308.904 L 254.980 305.890 258.740 308.868 C 268.621 316.693, 276.666 314.728, 291.484 300.866 C 300.108 292.799, 302.576 288.413, 304.355 277.993 C 306.481 265.543, 307.262 259, 306.624 259 C 306.314 259, 304.489 262.401, 302.569 266.558 C 297.931 276.594, 291.591 285.786, 282.672 295.402 L 275.342 303.304 271.995 298.643 C 267.801 292.802, 263.931 291.594, 251.466 292.235 C 241.944 292.724, 239.231 293.630, 234.737 297.822 L 231.974 300.399 226.943 295.450 C 220.135 288.752, 212.733 277.832, 207.465 266.715 C 205.063 261.647, 203.076 258.065, 203.049 258.757 M 235.173 276.589 C 235.402 278.564, 236.543 280.013, 239 281.451 C 241.978 283.195, 244.214 283.500, 254 283.500 C 264.306 283.500, 265.889 283.258, 269.250 281.168 C 273.228 278.695, 273.887 276.981, 271.593 275.077 C 270.520 274.186, 268.589 274.187, 263.464 275.080 C 257.267 276.159, 251.014 275.974, 239.173 274.364 C 234.902 273.783, 234.850 273.812, 235.173 276.589 M 132.607 335.316 C 122.471 345.452, 116.844 354.828, 115.092 364.500 C 113.985 370.609, 112.565 389.693, 113.268 389 C 113.548 388.725, 114.764 384.450, 115.971 379.500 C 117.178 374.550, 120.582 365.427, 123.535 359.227 C 128.127 349.584, 131.195 344.367, 141.712 328.316 C 144.559 323.972, 141.931 325.992, 132.607 335.316 M 117.231 335.365 C 112.574 340.418, 111.105 343.061, 108.160 351.684 C 105.974 358.086, 103.751 369.729, 104.986 368.308 C 105.372 367.863, 106.735 364.800, 108.013 361.500 C 109.292 358.200, 112.990 350.165, 116.230 343.644 C 119.470 337.123, 121.935 331.602, 121.707 331.374 C 121.479 331.146, 119.465 332.942, 117.231 335.365 M 215.327 340.652 C 216.205 352.280, 218.227 355.282, 236.750 372.464 C 239.088 374.632, 241 375.872, 241 375.219 C 241 374.567, 237.613 369.021, 233.474 362.896 C 229.335 356.772, 224.090 348.552, 221.818 344.630 C 214.765 332.455, 214.705 332.418, 215.327 340.652 M 139.943 354.130 C 135.277 363.663, 134.040 364.047, 136.337 355.250 C 137.090 352.363, 137.581 350, 137.427 350 C 137.273 350, 135.801 352.363, 134.157 355.250 C 128.088 365.906, 125.653 377.671, 128 385 C 128.790 387.467, 128.803 387.461, 128.977 384.500 C 129.212 380.515, 131.740 372.850, 131.946 375.500 C 132.031 376.600, 133.120 380.650, 134.366 384.500 L 136.632 391.500 137.270 380 C 137.873 369.112, 141.261 353.119, 144.078 347.855 C 144.674 346.741, 144.987 345.654, 144.774 345.441 C 144.560 345.227, 142.386 349.137, 139.943 354.130 M 151.194 349.840 C 149.522 352.557, 147.381 356.967, 146.435 359.640 C 144.214 365.919, 143.943 380.965, 145.952 386.500 L 147.403 390.500 148.083 387.500 C 148.457 385.850, 148.824 382.250, 148.899 379.500 C 148.974 376.750, 150.345 367.980, 151.945 360.011 C 153.546 352.043, 154.716 345.382, 154.545 345.211 C 154.373 345.040, 152.865 347.123, 151.194 349.840 M 355.132 360.750 C 355.204 365.012, 355.548 373.675, 355.897 380 L 356.531 391.500 358.266 386.068 C 360.628 378.670, 360.503 367.839, 357.960 359.605 C 356.838 355.972, 355.713 353, 355.460 353 C 355.207 353, 355.059 356.488, 355.132 360.750 M 374.350 364.183 C 374.432 369.307, 374.180 377.550, 373.790 382.500 L 373.079 391.500 375.527 386.500 C 377.461 382.549, 377.974 379.927, 377.975 374 C 377.976 367.502, 376.065 356.732, 374.663 355.330 C 374.408 355.075, 374.267 359.059, 374.350 364.183 M 369.241 369.500 C 369.226 379.597, 369.370 380.737, 370.145 376.691 C 370.700 373.791, 370.707 369.029, 370.162 364.691 C 369.271 357.607, 369.258 357.678, 369.241 369.500 M 389.071 359 C 389.076 359.825, 390.147 367.025, 391.450 375 L 393.819 389.500 393.894 381 C 393.969 372.482, 392.390 363.245, 390.220 359.499 C 389.416 358.112, 389.064 357.959, 389.071 359 M 183.655 365.829 C 179.370 370.564, 181.950 372.506, 200.504 378.519 C 221.579 385.349, 238.373 395.193, 246.081 405.234 C 250.934 411.555, 251.043 411.637, 250.052 408.181 C 248.025 401.115, 244.110 395.104, 236.500 387.375 C 229.826 380.597, 226.924 378.487, 218.991 374.643 C 207.683 369.164, 192.872 364, 188.467 364 C 186.679 364, 184.593 364.793, 183.655 365.829 M 305.896 367.885 C 282.935 375.382, 265.304 388.599, 257.365 404.267 C 253.828 411.247, 254.823 411.853, 259.625 405.643 C 267.686 395.220, 281.240 386.853, 299.538 381.004 C 319.034 374.773, 322.308 373.477, 323.552 371.500 C 324.380 370.184, 324.511 368.730, 323.937 367.250 C 322.716 364.101, 316.855 364.308, 305.896 367.885 M 368.158 384 C 368.158 385.375, 368.385 385.938, 368.662 385.250 C 368.940 384.563, 368.940 383.438, 368.662 382.750 C 368.385 382.063, 368.158 382.625, 368.158 384 M 179.065 388.421 C 177.539 390.261, 178.066 397.912, 180.519 409.500 C 181.333 413.349, 182 418.342, 182 420.595 C 182 425.771, 182.727 426.398, 196.858 433.413 C 203.105 436.515, 210.161 440.391, 212.538 442.026 C 214.915 443.662, 217.229 444.999, 217.680 444.997 C 218.131 444.995, 210.724 437.458, 201.221 428.247 C 191.614 418.936, 183.955 410.725, 183.971 409.754 C 183.998 408.121, 184.335 408.135, 189.183 409.978 C 203.719 415.501, 224.220 432.251, 236.245 448.430 C 242.240 456.496, 250.526 472.381, 251.637 477.937 C 252.209 480.793, 254 482.308, 254 479.934 C 254 479.348, 255.573 475.463, 257.497 471.301 C 269.746 444.788, 297.565 417.768, 321.197 409.430 C 329.270 406.582, 324.658 413.121, 308.805 427 C 302.837 432.225, 295.152 439.355, 291.727 442.844 L 285.500 449.187 292 444.710 C 295.575 442.248, 304.462 437.252, 311.750 433.609 L 325 426.986 325 423.144 C 325 421.031, 325.293 415.837, 325.651 411.603 L 326.302 403.904 319.532 406.452 C 315.808 407.853, 312.339 409, 311.822 409 C 309.396 409, 312.945 406.456, 319.602 403.422 C 325.138 400.899, 327.093 399.479, 327.553 397.646 C 328.224 394.973, 325.897 389.558, 323.718 388.722 C 319.864 387.243, 295.872 399.320, 283.916 408.757 C 276.386 414.700, 260.118 432.982, 257.149 438.837 C 256.221 440.668, 256.831 440.250, 259.102 437.500 C 265.746 429.454, 280.669 414.637, 287 409.800 C 293.533 404.809, 315.509 393.175, 316.511 394.178 C 316.806 394.473, 310.845 399.887, 303.264 406.209 C 288.741 418.321, 266.650 439.517, 258.330 449.322 L 253.391 455.144 249.244 449.233 C 241.844 438.683, 212.647 411.168, 195.590 398.670 C 191.789 395.885, 189.170 393.443, 189.770 393.243 C 191.475 392.675, 203.832 397.908, 210.932 402.204 C 220.764 408.154, 228.901 415.185, 237.594 425.242 C 250.329 439.976, 251.537 441.035, 245.869 432.500 C 238.794 421.847, 221.439 404.663, 212.473 399.433 C 204.065 394.529, 189.158 388.209, 184.086 387.398 C 181.382 386.965, 180.048 387.238, 179.065 388.421 M 183.460 402.935 C 183.961 403.745, 194.156 408, 195.597 408 C 197.188 408, 194.186 405.534, 190.627 403.918 C 186.207 401.911, 182.514 401.405, 183.460 402.935" stroke="none" fill="black" fill-rule="evenodd"/>
</svg>