<svg xmlns="http://www.w3.org/2000/svg" width="512" height="512" viewBox="0 0 512 512" version="1.1">
	<path d="M 245.500 33.161 C 238.186 35.901, 236.626 36.130, 227.308 35.829 L 217.117 35.500 219.248 37.766 C 222.390 41.107, 228.511 44.423, 237.250 47.516 C 241.512 49.025, 245 50.545, 245 50.894 C 245 51.242, 242.737 52.602, 239.970 53.916 C 234.530 56.498, 229.516 61.522, 227.456 66.451 C 226.745 68.154, 224.783 76.576, 223.097 85.168 C 221.411 93.759, 219.574 101.990, 219.016 103.459 C 217.361 107.811, 217.825 110.035, 221.011 113.010 L 224.022 115.823 220.643 117.912 C 216.208 120.653, 215.800 120.597, 210.468 116.528 C 204.845 112.235, 199.333 110.681, 191.516 111.184 C 179.927 111.929, 171.042 118.551, 163.711 131.908 C 161.447 136.034, 157.415 142.253, 154.752 145.727 C 152.089 149.202, 150.186 152.491, 150.523 153.037 C 151.433 154.510, 158.644 158.002, 164.157 159.639 C 166.821 160.430, 169 161.635, 169 162.317 C 169 163.602, 163.564 174.877, 159.993 181 C 157.580 185.137, 157.745 187.880, 160.500 189.398 C 161.600 190.004, 162.676 190.601, 162.890 190.724 C 163.105 190.847, 161.672 192.727, 159.707 194.903 C 151.724 203.739, 152.325 214.878, 161.098 220.684 C 164.599 223.001, 166.431 223.498, 171.427 223.489 C 176.786 223.480, 178.558 222.906, 186.500 218.604 C 191.450 215.924, 197.871 212.216, 200.769 210.365 C 203.668 208.514, 207.155 207, 208.519 207 C 210.680 207, 211 207.444, 211 210.443 C 211 212.831, 211.658 214.347, 213.146 215.389 C 215.026 216.707, 215.216 217.527, 214.684 222.023 C 213.933 228.359, 210.436 236.164, 205.207 243.173 C 203.021 246.103, 200.506 249.939, 199.617 251.698 C 198.094 254.715, 197.826 254.835, 194.895 253.814 C 192.433 252.955, 191.093 253.062, 188.439 254.328 C 184.425 256.242, 182.515 259.685, 179.513 270.420 C 178.270 274.864, 175.397 282.301, 173.127 286.947 C 170.857 291.593, 169 295.911, 169 296.542 C 169 300.388, 177.818 303.612, 191.070 304.613 C 199.170 305.224, 200.087 305.500, 200.582 307.471 C 200.883 308.671, 201.445 318.783, 201.830 329.940 L 202.529 350.228 206.265 353.364 C 210.432 356.863, 211.312 358.906, 207.606 356.477 C 204.513 354.451, 200.617 355.406, 197.879 358.862 C 196.176 361.013, 195.885 362.436, 196.304 366.566 C 196.716 370.631, 196.480 371.844, 195.111 372.699 C 189.687 376.086, 183.684 394.783, 182.493 412 C 181.600 424.914, 179.693 432.726, 174.981 442.781 C 172.792 447.454, 171 451.879, 171 452.615 C 171 453.352, 172.238 454.728, 173.750 455.674 C 175.263 456.621, 176.673 457.516, 176.884 457.665 C 177.096 457.814, 176.223 461.554, 174.945 465.976 L 172.622 474.017 174.653 476.758 C 180.643 484.847, 207.937 487.730, 216.082 481.134 C 218.220 479.403, 218.222 479.379, 216.414 473.643 C 215.176 469.716, 212.905 465.932, 209.265 461.728 C 203.154 454.672, 202.023 451.737, 204.402 449.108 C 205.736 447.634, 205.923 446.011, 205.406 440.398 C 204.835 434.206, 205.089 432.681, 207.888 425.500 C 212.298 414.185, 222.347 395.694, 224.757 394.461 C 228.365 392.614, 230.147 390.692, 235.220 383.174 C 241.860 373.334, 245.096 365.773, 245.232 359.779 C 245.325 355.726, 244.885 354.431, 242.666 352.211 C 240.378 349.924, 239.150 349.536, 234.244 349.549 C 225.194 349.572, 213.521 356.648, 212.023 363.019 L 211.205 366.500 211.102 362.955 C 211.013 359.847, 211.584 358.970, 215.750 355.828 C 223.275 350.153, 226.949 348.624, 233.220 348.559 L 238.939 348.500 240.001 343.500 C 242.807 330.286, 246.401 316.370, 247.307 315.208 C 247.862 314.497, 248.658 314.272, 249.077 314.708 C 249.497 315.143, 253.766 323.375, 258.565 333 C 263.364 342.625, 268.611 352.488, 270.224 354.918 C 272.759 358.734, 272.995 359.642, 271.954 361.586 C 271.291 362.824, 270.973 365.336, 271.247 367.169 C 271.633 369.755, 271.132 371.283, 269.009 374 C 263.131 381.522, 260.082 391.655, 259.982 404 C 259.906 413.484, 257.607 424.952, 253.305 437.302 C 249.764 447.468, 249.631 448.257, 251.259 449.447 C 253.400 451.013, 253.441 453.772, 251.464 463.172 C 249.517 472.425, 250.084 472.985, 261.441 473.036 C 265.874 473.055, 272.200 473.723, 275.500 474.520 C 287.589 477.439, 304.072 475.820, 303.969 471.724 C 303.952 471.051, 302.940 468.039, 301.719 465.032 C 299.555 459.700, 299.316 459.489, 292.103 456.532 C 287.588 454.681, 283.916 452.438, 282.676 450.774 C 280.789 448.241, 280.761 447.921, 282.283 446.240 C 283.612 444.771, 283.807 443.089, 283.321 437.294 C 282.566 428.281, 283.563 424.338, 291.294 405.769 C 297.404 391.093, 297.463 391, 300.649 391 C 304.610 391, 306.587 388.656, 312.231 377.266 C 315.854 369.954, 316.409 367.919, 316.742 360.714 C 317.042 354.205, 316.745 351.773, 315.311 349 C 312.491 343.550, 310.132 343.926, 303.138 350.942 C 299.816 354.274, 296.620 357, 296.035 357 C 293.946 357, 291.008 363.447, 291.004 368.038 C 291.001 371.682, 290.395 373.257, 287.928 376.038 L 284.856 379.500 287.428 375.906 C 289.403 373.145, 290 371.100, 290 367.090 C 290 360.264, 290.880 358.835, 298.109 353.926 C 303.033 350.582, 304.075 349.407, 303.664 347.655 C 303.387 346.470, 301.985 339.200, 300.549 331.500 C 299.113 323.800, 297.506 316.475, 296.978 315.221 C 296.088 313.111, 295.850 313.052, 293.753 314.426 C 292.509 315.242, 288.567 316.598, 284.995 317.440 C 272.508 320.383, 273.198 318.808, 286.322 314.409 C 290.624 312.968, 294.389 311.150, 294.688 310.371 C 294.987 309.592, 294.504 306.059, 293.616 302.522 C 292.727 298.984, 292 295.677, 292 295.174 C 292 294.671, 294.025 293.693, 296.500 293 C 299.551 292.146, 301 291.198, 301 290.058 C 301 286.350, 291.403 260.702, 286.039 250.078 C 283.771 245.585, 283.222 243.406, 283.667 240.665 C 284.126 237.835, 283.595 235.944, 281.098 231.520 C 278.168 226.328, 277.996 225.494, 278.613 219.471 C 278.978 215.912, 279.402 213, 279.555 213 C 279.709 213, 282.009 213.940, 284.667 215.088 C 287.906 216.487, 290.819 217.027, 293.500 216.726 C 297.889 216.232, 321.071 207.796, 333.145 202.298 C 339.438 199.433, 341.160 199.015, 342.878 199.935 C 344.576 200.843, 345.854 200.580, 349.732 198.525 C 352.355 197.135, 355.512 195.269, 356.750 194.377 L 359 192.756 359 202.242 C 359 212.449, 357.789 220.713, 355.670 224.961 C 354.573 227.159, 354.565 234.049, 355.624 265.057 C 356.328 285.651, 357.365 308.125, 357.929 315 C 358.493 321.875, 358.979 328.850, 359.008 330.500 C 359.112 336.418, 360.788 330.619, 362.909 317 C 366.162 296.107, 371.251 242.586, 370.990 232 C 370.622 217.034, 370.841 201.874, 371.491 197.366 C 372.002 193.827, 372.494 193.151, 374.915 192.667 C 378.211 192.008, 382.430 185.754, 381.634 182.708 C 381.355 181.642, 381.634 179.958, 382.253 178.966 C 383.101 177.609, 383.074 176.795, 382.147 175.677 C 381.441 174.826, 381.183 173.119, 381.544 171.682 C 382.175 169.166, 380.613 166.871, 376.655 164.500 C 375.171 163.610, 374.945 160.227, 374.611 133.872 C 374.400 117.143, 373.810 103.482, 373.256 102.493 C 371.749 99.800, 365.923 131.938, 363.511 156.250 L 362.841 163 358.871 163 C 352.506 163, 349.644 165.119, 346.634 172.057 C 344.286 177.473, 343.689 178.150, 341.730 177.627 C 340.504 177.299, 336.800 177.919, 333.500 179.004 C 327.167 181.087, 303.018 184.188, 301.764 183.079 C 300.868 182.287, 296.481 169.746, 295.534 165.274 C 294.864 162.108, 294.931 162.035, 299.081 161.371 C 301.566 160.974, 304.586 159.552, 306.405 157.923 C 309.330 155.303, 309.492 154.776, 309.351 148.325 C 308.983 131.524, 298.298 118.089, 285.250 118.022 L 281 118 281 105.632 L 281 93.263 285.083 92.716 C 287.328 92.415, 289.434 91.899, 289.763 91.570 C 290.092 91.242, 288.762 89.508, 286.807 87.718 C 284.183 85.314, 283.059 83.291, 282.507 79.981 C 280.731 69.331, 278.170 63.478, 273.116 58.514 C 270.417 55.865, 267.487 53.292, 266.605 52.799 C 264.129 51.413, 264.686 50.184, 268.250 49.165 C 277.659 46.475, 293 38.727, 293 36.665 C 293 36.163, 290.413 35.975, 287.250 36.247 C 279.385 36.924, 270.103 35.490, 262.999 32.500 C 259.733 31.125, 256.259 30.037, 255.280 30.082 C 254.301 30.126, 249.900 31.512, 245.500 33.161 M 252.402 39.628 C 249.412 41.438, 246.980 42.006, 242 42.058 C 236.342 42.118, 235.824 42.272, 238 43.251 C 241.564 44.854, 272.879 44.879, 275.500 43.280 C 277.196 42.246, 276.418 42.056, 270.390 42.030 C 264.593 42.006, 262.635 41.563, 259.791 39.633 L 256.303 37.266 252.402 39.628 M 245.329 61.458 C 239.433 64.022, 238.405 70.497, 243.523 72.829 C 254.257 77.719, 266.250 66.801, 255.979 61.489 C 252.446 59.662, 249.476 59.654, 245.329 61.458 M 268.536 61.942 C 268.214 62.463, 268.636 66.177, 269.474 70.195 C 270.313 74.213, 270.999 78.118, 270.999 78.872 C 271.001 81.672, 268.126 77.896, 266.478 72.935 C 264.366 66.577, 262.460 65.222, 263.336 70.702 C 263.834 73.816, 263.589 75.053, 262.239 76.243 C 259.268 78.862, 248.210 83.991, 242.218 85.529 L 236.500 86.998 242.500 86.588 C 245.904 86.356, 250.879 85.114, 254 83.718 C 261.908 80.181, 265.481 79.587, 268.741 81.266 C 270.259 82.047, 274.343 84.151, 277.818 85.942 C 284.510 89.390, 287.421 89.626, 281.711 86.257 C 278.622 84.434, 278.237 83.657, 277.144 77.043 C 276.488 73.069, 275.325 68.321, 274.560 66.490 C 273.089 62.970, 269.551 60.299, 268.536 61.942 M 265.111 92.931 C 264.047 93.589, 264.140 94.284, 265.589 96.495 C 267.329 99.151, 267.326 99.288, 265.503 100.621 C 263.837 101.839, 263.815 102, 265.309 102 C 266.309 102, 267 102.783, 267 103.918 C 267 104.973, 267.273 106.548, 267.607 107.418 C 268.042 108.552, 267.617 109, 266.107 109 C 264.948 109, 264 109.450, 264 110 C 264 110.550, 264.900 111, 266 111 C 267.671 111, 268 111.667, 268 115.057 L 268 119.115 263.750 118.807 L 259.500 118.500 259.186 114.118 C 258.928 110.519, 259.146 109.842, 260.404 110.325 C 261.247 110.648, 262.182 110.514, 262.483 110.028 C 262.784 109.541, 262.010 108.998, 260.765 108.821 C 259.038 108.576, 258.427 107.747, 258.192 105.327 C 257.938 102.700, 258.282 102.070, 260.192 101.663 C 262.328 101.209, 262.314 101.185, 260 101.336 C 257.854 101.477, 257.455 102.047, 257.183 105.367 L 256.865 109.234 252.859 108.593 C 250.232 108.173, 249.071 108.305, 249.485 108.976 C 249.833 109.539, 251.891 110, 254.059 110 L 258 110 258 114.088 L 258 118.176 253.750 117.473 C 251.412 117.086, 249.210 116.599, 248.855 116.390 C 248.500 116.182, 247.898 112.495, 247.517 108.197 C 246.739 99.400, 245.273 91.923, 245.102 95.881 C 245.009 98.049, 244.675 98.209, 241.362 97.671 L 237.723 97.081 238.244 105.422 C 238.815 114.575, 238.307 116.378, 235.420 115.452 C 232.297 114.451, 238.321 118.884, 249.408 125.747 C 258.993 131.680, 259.817 131.994, 265.807 131.997 C 269.276 131.999, 274.137 131.491, 276.609 130.868 C 280.342 129.928, 281.053 129.377, 280.802 127.618 C 280.538 125.763, 280.003 125.562, 276.500 126 C 274.300 126.275, 269.125 126.493, 265 126.483 C 258.382 126.469, 256.529 126.009, 249.236 122.569 C 238.130 117.331, 235.411 113.917, 243.564 115.446 C 246.048 115.912, 247.391 116.780, 247.750 118.151 C 248.143 119.653, 248.484 119.835, 249.084 118.863 C 249.714 117.845, 250.728 117.794, 253.696 118.633 C 255.788 119.225, 257.950 119.828, 258.500 119.973 C 259.050 120.118, 262.624 120.184, 266.441 120.118 C 272.186 120.020, 273.109 119.784, 271.797 118.750 C 269.527 116.960, 268.858 111.010, 270.923 110.968 C 272.241 110.942, 272.199 110.709, 270.667 109.547 C 269.446 108.622, 268.895 107.045, 269.018 104.829 C 269.120 102.998, 269.109 101.050, 268.995 100.500 C 268.881 99.950, 268.862 98.339, 268.952 96.920 C 269.141 93.924, 267.039 91.740, 265.111 92.931 M 256 97.930 C 256 99.137, 255.157 100.023, 253.750 100.294 C 251.821 100.666, 251.892 100.747, 254.250 100.864 C 256.553 100.978, 257 100.594, 257 98.500 C 257 97.125, 256.775 96, 256.500 96 C 256.225 96, 256 96.869, 256 97.930 M 239.817 102.438 C 239.490 105.240, 239.793 105.977, 241.458 106.424 C 245.348 107.469, 246 107.066, 246 103.617 C 246 100.953, 245.521 100.105, 243.750 99.630 C 240.318 98.711, 240.247 98.761, 239.817 102.438 M 248 100.031 C 248 100.564, 248.675 101, 249.500 101 C 250.325 101, 251 100.823, 251 100.607 C 251 100.391, 250.325 99.955, 249.500 99.638 C 248.675 99.322, 248 99.499, 248 100.031 M 274 101 C 272.718 101.828, 272.754 101.972, 274.250 101.985 C 275.212 101.993, 276 101.550, 276 101 C 276 99.780, 275.887 99.780, 274 101 M 240.177 110.646 C 240.438 112.894, 241.136 113.558, 243.805 114.099 C 247.026 114.753, 247.102 114.690, 246.805 111.635 C 246.538 108.889, 246.088 108.460, 243.177 108.181 C 240.070 107.883, 239.875 108.043, 240.177 110.646 M 273.543 108.931 C 272.803 110.128, 274.684 111.313, 276.016 110.490 C 277.135 109.799, 276.400 108, 275 108 C 274.515 108, 273.859 108.419, 273.543 108.931 M 274.694 117.639 C 273.895 118.438, 274.798 120, 276.059 120 C 276.577 120, 277 119.325, 277 118.500 C 277 116.954, 275.820 116.513, 274.694 117.639 M 188.802 120.131 C 182.403 123.942, 181.283 131.173, 186.557 134.629 C 194.824 140.046, 210 136.644, 210 129.373 C 210 120.265, 197.631 114.873, 188.802 120.131 M 287.365 127.179 C 286.190 127.742, 284.671 129.246, 283.989 130.521 C 282.929 132.501, 283.055 133.269, 284.855 135.796 C 287.457 139.450, 293.356 142.378, 296.518 141.585 C 301.018 140.455, 300.831 134.083, 296.169 129.722 C 292.867 126.632, 290.144 125.846, 287.365 127.179 M 219.071 137.631 C 218.180 141.170, 216.657 143.630, 213.457 146.696 C 205.895 153.942, 195.295 155.581, 176.110 152.469 C 170.946 151.632, 166.525 151.142, 166.286 151.381 C 165.782 151.884, 174.092 154.387, 182.022 156.120 C 189.606 157.778, 202.557 157.774, 208.276 156.113 C 210.903 155.350, 214.908 153.078, 217.177 151.065 C 220.895 147.766, 221.348 146.853, 221.765 141.818 C 222.020 138.745, 221.793 135.453, 221.261 134.503 C 220.475 133.098, 220.065 133.684, 219.071 137.631 M 269.638 148.696 C 266.414 152.163, 263.031 155, 262.120 155 C 261.209 155, 258.672 153.841, 256.482 152.424 L 252.500 149.848 256 152.873 C 262.315 158.331, 263.484 158.631, 267.248 155.760 C 271.269 152.693, 276.302 145.665, 275.837 143.767 C 275.633 142.935, 273.183 144.883, 269.638 148.696 M 234 145.321 C 234 145.497, 235.768 150.335, 237.929 156.071 C 243.651 171.261, 245.097 181.223, 242.477 187.399 C 241.740 189.137, 242.048 189.255, 246.127 188.795 C 251.613 188.177, 257.499 184.499, 259.423 180.488 C 260.218 178.831, 261.177 175.148, 261.554 172.302 C 262.800 162.908, 257.921 156.599, 242.878 148.156 C 238.088 145.467, 234 144.161, 234 145.321 M 276.924 154.264 C 269.255 163.039, 268.750 164.149, 269.540 170.474 C 270.454 177.791, 273.685 183.987, 277.827 186.364 C 281.992 188.755, 283.161 187.785, 285.414 180.068 C 288.349 170.015, 286.510 150.626, 282.500 149.346 C 281.950 149.171, 279.441 151.384, 276.924 154.264 M 290 152.965 C 290 154.336, 293.454 156.008, 296.184 155.958 C 298.214 155.921, 298.067 155.679, 295 154 C 290.999 151.810, 290 151.603, 290 152.965 M 220.500 169.931 C 218.850 170.331, 216.150 171.433, 214.500 172.381 L 211.500 174.104 214.500 173.414 C 216.150 173.035, 220.425 172.420, 224 172.047 C 230.165 171.404, 230.355 171.308, 227.685 170.184 C 224.600 168.887, 224.786 168.893, 220.500 169.931 M 372.500 173 C 372.160 173.550, 372.332 174, 372.882 174 C 373.432 174, 374.160 173.550, 374.500 173 C 374.840 172.450, 374.668 172, 374.118 172 C 373.568 172, 372.840 172.450, 372.500 173 M 187.289 177.060 C 183.639 180.475, 182.439 181.009, 178.289 181.067 L 173.500 181.135 178.251 182.413 C 180.863 183.116, 183.873 184.480, 184.938 185.444 C 186.003 186.407, 187.346 186.904, 187.924 186.547 C 189.103 185.818, 192.333 175.467, 191.827 174.041 C 191.647 173.535, 189.605 174.894, 187.289 177.060 M 225.179 176.686 C 224.306 177.035, 224.769 177.686, 226.543 178.607 C 231.046 180.943, 233.674 180.074, 230.800 177.200 C 229.559 175.959, 227.474 175.769, 225.179 176.686 M 373 180 C 373 180.550, 373.450 181, 374 181 C 374.550 181, 375 180.550, 375 180 C 375 179.450, 374.550 179, 374 179 C 373.450 179, 373 179.450, 373 180 M 294.208 185.126 C 291.848 186.294, 290.117 187.450, 290.362 187.695 C 290.862 188.196, 299 184.225, 299 183.480 C 299 182.773, 298.877 182.815, 294.208 185.126 M 227.460 185.491 C 229.529 187.113, 231.180 187.106, 231.106 185.475 C 231.082 184.939, 229.811 184.377, 228.281 184.227 C 225.607 183.965, 225.576 184.014, 227.460 185.491 M 169.268 188.813 C 168.477 189.315, 169.464 189.978, 172.018 190.659 C 176.182 191.771, 177.389 190.814, 174.066 189.035 C 171.771 187.807, 170.914 187.767, 169.268 188.813 M 260 193.727 C 254.740 198.902, 247.867 203.055, 236.025 208.214 C 229.857 210.901, 228.254 211.937, 230.227 211.964 C 236.822 212.052, 252.313 204.230, 260.890 196.480 L 264.894 192.863 271.507 197.932 C 275.290 200.832, 279.164 203, 280.560 203 C 284.279 203, 283.485 201.383, 278.558 198.922 C 276.115 197.702, 272.424 194.970, 270.355 192.852 C 268.287 190.733, 266.123 189.068, 265.547 189.150 C 264.971 189.233, 262.475 191.292, 260 193.727 M 227.813 191.683 C 228.534 191.972, 229.397 191.936, 229.729 191.604 C 230.061 191.272, 229.471 191.036, 228.417 191.079 C 227.252 191.127, 227.015 191.364, 227.813 191.683 M 259.519 212.963 C 255.022 221.837, 254.880 222.577, 257.124 225.430 C 258.236 226.844, 260.022 228, 261.094 228 C 264.395 228, 265.335 224.169, 264.057 215.929 C 263.430 211.889, 262.741 208.408, 262.526 208.193 C 262.311 207.977, 260.957 210.124, 259.519 212.963 M 244.004 229.496 C 242.714 230.869, 241.848 232.159, 242.079 232.363 C 242.311 232.568, 246.913 234.607, 252.306 236.895 L 262.113 241.056 265.038 238.973 C 268.324 236.633, 271 233.188, 271 231.298 C 271 230.567, 269.175 231.327, 266.637 233.117 C 262.315 236.163, 262.241 236.176, 258.982 234.491 C 257.172 233.555, 253.894 231.487, 251.696 229.895 C 249.498 228.303, 247.396 227, 247.024 227 C 246.653 227, 245.293 228.123, 244.004 229.496 M 231.637 243.778 C 231.373 244.205, 232.007 247.018, 233.046 250.028 C 234.615 254.574, 234.940 258.505, 234.967 273.250 C 234.996 288.972, 235.186 291, 236.629 291 C 238.066 291, 238.183 289.853, 237.621 281.250 C 236.997 271.701, 238.086 251.581, 239.292 250.375 C 240.290 249.377, 253.043 255.794, 257.789 259.683 L 262.191 263.290 268.799 256.682 C 272.434 253.048, 275.153 249.820, 274.842 249.509 C 274.531 249.198, 271.864 250.756, 268.915 252.972 C 265.966 255.187, 263.131 257, 262.615 257 C 262.098 257, 258.211 254.969, 253.977 252.486 C 246.717 248.230, 235.195 243, 233.079 243 C 232.550 243, 231.902 243.350, 231.637 243.778 M 216.679 257.184 C 213.723 261.069, 212.195 266, 213.947 266 C 215.197 266, 220.540 255.206, 219.704 254.370 C 219.428 254.094, 218.067 255.361, 216.679 257.184 M 247 259.394 C 247 262.124, 252.214 282.501, 253.601 285.188 C 255.214 288.315, 261.094 289.663, 268.365 288.573 C 274.464 287.658, 276.118 286.134, 276.709 280.887 C 277.181 276.701, 275.512 262.179, 274.436 261.102 C 274.171 260.837, 271.811 262.731, 269.193 265.310 C 266.574 267.890, 264.043 270, 263.569 270 C 263.095 270, 260.594 268.023, 258.011 265.607 C 252.200 260.172, 247 257.238, 247 259.394 M 222.079 261.668 C 222.036 262.311, 221.741 263.661, 221.424 264.668 C 220.877 266.409, 220.906 266.412, 221.995 264.712 C 222.626 263.729, 222.920 262.379, 222.650 261.712 C 222.295 260.837, 222.136 260.825, 222.079 261.668 M 191.624 264.539 C 191.281 265.432, 191.029 266.689, 191.063 267.332 C 191.098 267.974, 191.558 267.422, 192.085 266.105 C 192.612 264.787, 192.864 263.531, 192.645 263.312 C 192.426 263.093, 191.966 263.645, 191.624 264.539 M 212.713 275.500 C 211.174 280.262, 208 292.236, 208 293.283 C 208 293.555, 209.607 294.079, 211.571 294.447 C 213.535 294.816, 215.713 295.336, 216.410 295.604 C 217.322 295.954, 218.153 293.231, 219.369 285.909 C 220.299 280.309, 220.850 275.517, 220.594 275.260 C 220.337 275.004, 218.946 278.665, 217.503 283.397 C 215.385 290.342, 214.505 292, 212.939 292 C 210.496 292, 210.508 290.761, 213.048 280.811 C 215.382 271.671, 215.148 267.969, 212.713 275.500 M 216.166 314.499 C 216.962 315.295, 236.056 317.988, 240.950 317.994 C 248.907 318.005, 243.951 316.040, 233.442 315.018 C 222.425 313.947, 215.403 313.736, 216.166 314.499 M 291 465.500 L 288.500 466.929 292.250 466.965 C 294.932 466.990, 296 466.573, 296 465.500 C 296 463.637, 294.259 463.637, 291 465.500 M 200.500 472.462 L 194.500 474.859 199 474.924 C 204.785 475.007, 211.240 473.226, 210.734 471.686 C 210.080 469.699, 206.794 469.948, 200.500 472.462" stroke="none" fill="black" fill-rule="evenodd"/>
</svg>