<svg xmlns="http://www.w3.org/2000/svg" width="512" height="512" viewBox="0 0 512 512" version="1.1">
	<path d="M 249.810 18.198 L 249.500 22.500 239 26.007 C 225.250 30.599, 218.957 34.173, 211.486 41.634 C 201.906 51.200, 194.631 66.922, 191.957 83.839 C 191.347 87.698, 189.890 92.042, 188.494 94.165 C 187.169 96.180, 184.892 101.975, 183.434 107.043 C 179.855 119.483, 180.261 126.098, 185.221 136.133 C 188.330 142.423, 189.599 143.930, 193.899 146.441 C 199.712 149.836, 199.947 150.611, 200.294 167.500 L 200.500 177.500 196.500 179.293 C 185.914 184.037, 185.536 184.331, 184.645 188.500 C 183.009 196.160, 182.678 196.507, 174.786 198.850 C 167.806 200.922, 167.145 200.959, 163.578 199.468 C 159.190 197.635, 151.722 197.364, 147.746 198.894 C 146.231 199.477, 143.598 201.930, 141.896 204.346 C 139.003 208.449, 138.375 208.808, 132.322 209.811 C 128.759 210.401, 123.067 212.198, 119.672 213.804 C 102.873 221.753, 92.614 235.580, 80.579 266.500 C 73.382 284.989, 71.164 290.028, 67.478 296.262 C 65.605 299.430, 64.301 302.622, 64.582 303.353 C 65.364 305.392, 71.721 308.573, 79.750 310.944 C 88.112 313.413, 88.390 314.052, 84.380 321.581 C 77.321 334.832, 77.797 333.269, 79.547 337.458 C 81.076 341.119, 81.006 341.770, 77.606 355.378 C 75.666 363.145, 73.144 373.541, 72.003 378.480 C 69.720 388.359, 68.293 391.164, 63.492 395.209 C 59.419 398.640, 57.589 402.995, 58.401 407.323 C 59.156 411.348, 61.489 413.644, 69.662 418.404 C 73.490 420.634, 77.140 423.793, 79.297 426.746 C 83.485 432.479, 93.053 448.199, 96.523 455.045 L 99.034 460 105.017 460 C 109.899 460, 111 459.698, 111 458.358 C 111 456.382, 99.160 433.897, 95.594 429.101 C 92.819 425.368, 92.997 424, 96.258 424 C 99.593 424, 106.804 432.541, 114 445.016 C 122.069 459.003, 124.062 461.285, 127.193 460.117 C 129.442 459.279, 129.501 458.920, 129.536 445.879 L 129.571 432.500 133.237 426.500 C 137.992 418.718, 139.117 413.562, 137.798 405.603 C 136.771 399.400, 136.779 399.366, 141.803 387.944 C 144.572 381.650, 148.297 371.775, 150.081 366 L 153.324 355.500 156.241 364.500 C 162.623 384.185, 171.380 420.905, 170.116 422.681 C 169.777 423.157, 168.262 424.334, 166.750 425.296 C 163.313 427.483, 163.263 429.803, 166.467 438.315 L 168.933 444.868 165.477 457.184 C 163.576 463.958, 162.016 470.069, 162.011 470.765 C 161.985 473.769, 178.001 480.026, 194.517 483.464 C 216.049 487.946, 268.453 489.514, 294.500 486.455 C 316.342 483.890, 341.937 477.691, 347.508 473.618 C 349.444 472.202, 349.445 472.103, 347.580 465.342 C 343.884 451.943, 343.529 448.522, 345.343 443.772 C 347.721 437.545, 347.387 434.085, 343.972 429.572 C 340.615 425.134, 340.336 422.832, 342.525 417.594 C 343.593 415.039, 343.890 412.078, 343.516 407.722 C 343.086 402.703, 344.001 396.513, 348.248 375.701 C 351.144 361.512, 353.960 349.814, 354.507 349.706 C 355.053 349.598, 357.785 356.032, 360.578 364.005 C 363.371 371.977, 367.786 383.108, 370.390 388.739 C 372.993 394.371, 375.097 399.771, 375.065 400.739 C 375.033 401.708, 374.726 405.572, 374.382 409.327 C 373.794 415.752, 373.976 416.621, 377.471 424.069 L 381.185 431.984 380.009 444.402 C 378.542 459.899, 378.944 461, 386.071 461 C 392.103 461, 392.559 460.570, 401.967 446 C 406.428 439.093, 411.532 432.841, 416.886 427.728 C 424.668 420.296, 431.253 415.919, 432.609 417.276 C 432.958 417.625, 430.327 421.106, 426.762 425.012 C 420.122 432.288, 408.723 450.207, 407.429 455.404 C 406.721 458.248, 406.774 458.295, 409.978 457.654 C 411.778 457.294, 414.045 457, 415.016 457 C 416.203 457, 418.800 453.540, 422.943 446.438 C 431.612 431.577, 439.955 420.299, 446.410 414.713 C 452.797 409.186, 454.605 404.775, 452.945 398.764 C 451.822 394.695, 447.874 391.008, 444.615 390.985 C 441.152 390.960, 440.292 389.802, 439.060 383.500 C 438.415 380.200, 435.842 369.265, 433.343 359.199 C 429.206 342.535, 428.919 340.612, 430.134 337.699 C 431.853 333.579, 431.694 333.029, 426.484 325.131 C 421.159 317.057, 420.037 313.404, 422.665 312.690 C 434.396 309.506, 443.269 306.360, 445.467 304.608 L 448.158 302.463 443.453 295.591 C 440.388 291.115, 435.893 281.650, 430.558 268.438 C 420.913 244.551, 415.024 234.285, 405.555 224.849 C 397.341 216.664, 386.180 210.541, 377.496 209.456 C 372.318 208.809, 371.780 208.489, 369.992 204.985 C 366.160 197.473, 356.057 195.144, 346.686 199.613 C 343.266 201.244, 342.951 201.214, 335.851 198.582 C 331.829 197.091, 328.199 195.338, 327.785 194.686 C 327.370 194.034, 327.024 191.993, 327.015 190.151 C 326.995 185.693, 322.565 181.586, 315.947 179.890 C 313.178 179.180, 310.493 178.094, 309.980 177.476 C 309.403 176.780, 309.417 173.142, 310.016 167.926 C 310.549 163.292, 310.995 157.250, 311.008 154.500 L 311.031 149.500 316.765 146.425 C 320.752 144.287, 323.181 142.153, 324.734 139.425 C 327.382 134.772, 330 126.312, 330 122.410 C 330 115.755, 324.019 97.889, 320.484 93.982 C 319.695 93.110, 318.579 89.045, 318.004 84.948 C 315.666 68.274, 310.978 56.339, 302.668 45.904 C 294.143 35.198, 285.940 30.002, 270.491 25.525 C 265.561 24.097, 261.216 22.607, 260.835 22.214 C 260.454 21.821, 259.998 19.925, 259.821 18 C 259.509 14.594, 259.375 14.492, 254.810 14.198 L 250.120 13.895 249.810 18.198 M 254.539 31.625 C 254.130 33.206, 253.575 48.524, 253.304 65.665 L 252.811 96.831 231.655 97.271 C 215.169 97.614, 209.326 98.095, 205.179 99.451 C 198.605 101.602, 199.080 102.578, 205.980 101.098 C 214.354 99.302, 293.887 99.629, 303.662 101.500 C 307.973 102.325, 312.384 103, 313.464 103 C 315.235 103, 315.276 102.848, 313.886 101.457 C 310.824 98.395, 294.716 96.027, 276.857 96.013 C 262.611 96.002, 260.127 95.772, 259.607 94.418 C 259.273 93.548, 258.999 83.086, 258.997 71.168 C 258.994 43.358, 256.719 23.181, 254.539 31.625 M 262.562 35.616 C 263.435 40.438, 264 41.200, 264 37.555 C 264 34.887, 264.149 34.805, 267.750 35.478 C 269.813 35.863, 274.875 37.710, 279 39.582 C 283.125 41.454, 285.600 42.278, 284.500 41.413 C 281.288 38.888, 273.816 35.297, 269.171 34.046 C 266.808 33.410, 264.196 32.629, 263.367 32.311 C 262.115 31.830, 261.978 32.390, 262.562 35.616 M 238.250 35.958 C 234.813 37.585, 232 39.138, 232 39.412 C 232 39.685, 234.363 38.808, 237.250 37.464 C 243.945 34.347, 246.724 34.288, 247.294 37.250 C 247.608 38.877, 247.765 38.600, 247.864 36.250 C 248.038 32.091, 246.522 32.045, 238.250 35.958 M 265.250 46.220 C 263.027 47.293, 263 47.543, 263.014 67.403 C 263.021 78.456, 263.279 88.436, 263.586 89.580 C 264.125 91.589, 264.733 91.657, 281.566 91.580 L 298.988 91.500 298.986 89 C 298.982 82.114, 296.859 69.544, 294.952 65.110 C 291.095 56.144, 277.155 44.959, 270 45.090 C 268.625 45.115, 266.488 45.624, 265.250 46.220 M 238.973 51.651 C 234.403 54.703, 229.839 59.472, 227.912 63.210 C 225.280 68.317, 225.334 77.395, 228.022 81.805 C 230.139 85.276, 238.588 89.972, 242.750 89.990 L 245 90 245 71.582 C 245 61.452, 244.727 52.452, 244.393 51.582 C 243.617 49.560, 242.074 49.580, 238.973 51.651 M 299.064 58.500 C 299.064 59.050, 299.724 60.374, 300.532 61.441 C 301.339 62.509, 302 62.932, 302 62.382 C 302 61.832, 301.339 60.509, 300.532 59.441 C 299.724 58.374, 299.064 57.950, 299.064 58.500 M 304.582 71.438 C 304.885 73.054, 305.568 78.207, 306.100 82.889 C 306.632 87.570, 307.340 91.648, 307.673 91.950 C 308.796 92.969, 307.058 77.542, 305.537 73 C 304.709 70.525, 304.279 69.822, 304.582 71.438 M 233 103.972 C 218.987 104.495, 212.234 105.160, 209 106.335 C 206.339 107.301, 205.726 107.732, 207.500 107.389 C 209.150 107.071, 217.925 106.965, 227 107.155 C 236.075 107.345, 254.750 107.352, 268.500 107.170 C 284.028 106.965, 296.949 107.291, 302.603 108.030 L 311.707 109.219 312.351 120.359 C 313.103 133.347, 313.680 132.435, 301.796 137.019 C 287.480 142.539, 280.955 142.168, 264.732 134.908 L 255.964 130.985 251.039 133.480 C 242.834 137.638, 231.530 141, 225.755 141 C 219.547 141, 212.843 139.137, 205.008 135.235 L 199.515 132.500 199.826 123.500 C 199.997 118.550, 199.749 113.464, 199.277 112.197 C 198.689 110.624, 198.361 113.160, 198.242 120.197 C 198.145 125.864, 197.939 131.625, 197.783 132.999 C 197.541 135.137, 198.366 135.956, 203.500 138.671 C 206.800 140.416, 212.993 142.871, 217.262 144.126 C 226.679 146.894, 230.648 146.322, 245.320 140.077 L 254.928 135.987 265.059 140.072 C 279.193 145.771, 285.130 146.749, 293.320 144.728 C 296.879 143.849, 303.478 141.446, 307.983 139.386 C 316.053 135.697, 316.165 135.597, 315.541 132.571 C 315.193 130.882, 314.658 125, 314.353 119.500 C 314.048 114, 313.436 109.115, 312.993 108.643 C 312.549 108.172, 308.657 106.906, 304.343 105.830 C 295.126 103.530, 265.498 102.758, 233 103.972 M 320.014 117.250 C 320.029 124.380, 320.823 128.227, 322.114 127.430 C 323.110 126.814, 323.331 115.027, 322.393 112.582 C 321.084 109.171, 320.001 111.296, 320.014 117.250 M 189.667 112.667 C 188.834 113.499, 188.787 123.281, 189.605 125.412 C 190.864 128.694, 192 125.626, 192 118.941 C 192 112.548, 191.400 110.934, 189.667 112.667 M 251.177 121.867 C 249.530 124.544, 246.904 127.619, 245.341 128.701 C 236.165 135.055, 223.302 135.729, 210.750 130.513 C 209.675 130.066, 209 130.231, 209 130.939 C 209 131.573, 211.363 133.192, 214.250 134.536 C 223.009 138.614, 230.615 137.644, 247.261 130.325 L 255.278 126.800 263.889 130.869 C 275.818 136.505, 282.596 138.124, 289.534 136.994 C 295.362 136.046, 302.556 132.600, 303.422 130.342 C 304.087 128.610, 304.295 128.579, 295.595 131.500 C 285.033 135.046, 278.817 134.850, 270.842 130.722 C 266.293 128.367, 263.412 125.972, 260.614 122.222 C 258.472 119.350, 256.146 117, 255.445 117 C 254.745 117, 252.824 119.190, 251.177 121.867 M 256.710 146 C 256.363 147.327, 256.680 148, 257.650 148 C 258.454 148, 263.699 149.997, 269.306 152.438 C 274.913 154.879, 281.637 157.447, 284.250 158.145 C 289.233 159.477, 289.777 160.496, 288.350 165.824 C 287.835 167.749, 287.279 168.037, 285.114 167.498 C 281.025 166.481, 266.420 159.425, 261.421 156.051 C 258.934 154.373, 256.697 153, 256.450 153 C 256.202 153, 256 154.575, 256 156.500 C 256 158.799, 256.471 160, 257.371 160 C 258.126 160, 263.413 162.229, 269.121 164.953 C 274.830 167.676, 281.396 170.206, 283.714 170.575 L 287.928 171.244 287.323 175.872 C 286.991 178.417, 286.659 180.585, 286.587 180.688 C 286.236 181.194, 268.771 172.845, 263.518 169.661 C 258.866 166.840, 257.292 166.308, 256.434 167.267 C 255.674 168.117, 255.513 173.555, 255.916 184.782 L 256.500 201.063 265.529 196.282 C 270.495 193.652, 277.745 189.725, 281.640 187.556 L 288.723 183.612 289.392 172.556 C 289.760 166.475, 290.337 159.768, 290.674 157.652 C 291.264 153.950, 291.208 153.853, 289.205 155.104 C 286.478 156.807, 278.860 154.510, 266.946 148.392 C 262.241 145.977, 258.131 144, 257.813 144 C 257.494 144, 256.998 144.900, 256.710 146 M 298.683 156 C 298.335 157.925, 297.748 165.206, 297.377 172.180 C 297.007 179.154, 296.433 185.258, 296.102 185.744 C 295.436 186.721, 277.828 196.245, 265.750 202.162 C 258.427 205.749, 256.048 208, 259.579 208 C 261.472 208, 275.833 201.406, 288.981 194.500 L 298.500 189.500 298.158 184.723 C 297.969 182.096, 298.362 174.387, 299.030 167.591 C 300.200 155.696, 299.992 148.761, 298.683 156 M 212.218 155.500 C 212.228 156.600, 212.580 158.850, 213 160.500 C 213.686 163.195, 213.765 163.246, 213.782 161 C 213.792 159.625, 213.440 157.375, 213 156 C 212.373 154.041, 212.203 153.933, 212.218 155.500 M 214.195 166.500 C 214.215 168.150, 214.439 168.704, 214.693 167.731 C 214.947 166.758, 214.930 165.408, 214.656 164.731 C 214.382 164.054, 214.175 164.850, 214.195 166.500 M 215.439 179.900 L 215.500 190.299 223.500 194.751 C 232.174 199.578, 249.035 207.298, 249.621 206.712 C 249.821 206.512, 246.275 204.290, 241.742 201.774 C 237.209 199.257, 229.588 195.016, 224.806 192.349 L 216.112 187.500 215.745 178.500 C 215.383 169.632, 215.378 169.652, 215.439 179.900 M 310.121 205.584 C 305.056 210.637, 286.011 220.436, 268.250 227.127 C 262.063 229.458, 257 231.733, 257 232.183 C 257 233.821, 267.981 232.940, 277.425 230.544 C 294.598 226.188, 309.794 217.245, 313.986 209.028 C 318.003 201.153, 316.185 199.534, 310.121 205.584 M 350.990 206.844 C 346.129 209.422, 336.343 221.228, 332.626 229 C 329.782 234.948, 329.488 236.519, 329.165 247.500 C 328.584 267.259, 332.640 278.607, 344.584 290.633 C 352.027 298.126, 361.512 303.568, 371.134 305.864 C 384.018 308.939, 404.121 308.084, 415.851 303.961 C 422.421 301.652, 422.775 301.343, 420.940 299.521 C 419.763 298.352, 418.678 298.297, 415 299.219 C 412.525 299.840, 403.300 300.383, 394.500 300.424 C 380.527 300.490, 377.587 300.213, 371.290 298.233 C 357.552 293.914, 344.441 282.141, 339.924 270.066 C 332.415 249.998, 336.181 232.237, 351.325 216.295 C 357.006 210.314, 358.195 208.533, 357.376 207.235 C 355.876 204.856, 354.857 204.794, 350.990 206.844 M 157 207.610 C 157 208.496, 160.344 212.776, 164.431 217.120 C 174.617 227.948, 177.401 233.869, 177.843 245.644 C 178.489 262.882, 174.368 273.637, 163.010 284.352 C 155.912 291.048, 145.964 296.661, 137 299.028 C 134.525 299.682, 127.550 300.506, 121.500 300.858 C 111.082 301.466, 110.483 301.619, 110.181 303.748 C 109.759 306.714, 113.163 308, 121.434 308 C 142.153 308, 163.357 299.033, 174.343 285.626 C 182.916 275.164, 187.707 258.557, 186.479 243.559 C 185.640 233.301, 183.155 226.834, 177.224 219.473 C 169.410 209.773, 157 202.494, 157 207.610 M 320.658 211.321 C 310.972 227.848, 279.545 239.811, 248.500 238.787 C 236.820 238.403, 234.434 237.994, 225 234.768 C 219.225 232.793, 213.713 230.864, 212.750 230.481 C 211.552 230.005, 211 230.259, 211 231.286 C 211 232.975, 211.250 233.097, 223 237.134 C 233.730 240.819, 249.163 244, 256.319 244 C 270.741 244, 300.390 234.734, 314.083 225.947 C 320.790 221.643, 326.341 211.788, 324.100 208.162 C 323.515 207.216, 322.538 208.113, 320.658 211.321 M 357.018 221.901 C 353.843 225.146, 350.038 230.267, 348.564 233.280 C 341.253 248.223, 344.129 267.884, 355.206 278.689 C 366.251 289.463, 378.905 293.674, 397.317 292.703 C 403.344 292.385, 408.674 291.726, 409.161 291.239 C 409.674 290.726, 409.349 288.706, 408.386 286.427 C 407.473 284.267, 405.886 275.754, 404.860 267.510 C 403.274 254.773, 402.479 251.435, 399.567 245.304 C 393.813 233.188, 383.745 225.049, 374.500 225.040 C 371.931 225.038, 368.564 226.103, 365.090 228.018 C 362.115 229.658, 359.506 231, 359.292 231 C 359.079 231, 360.276 229.006, 361.952 226.570 C 364.972 222.181, 366.108 216, 363.896 216 C 363.289 216, 360.194 218.655, 357.018 221.901 M 151 219.082 C 151 220.227, 152.575 223.085, 154.500 225.435 C 159.018 230.948, 159.027 232.327, 154.532 230.449 C 149.687 228.425, 145.098 228.648, 141 231.109 C 135.675 234.305, 133.025 237.060, 130.522 242 C 127.753 247.464, 124.433 257.766, 125.195 258.529 C 125.499 258.833, 127.267 258.199, 129.124 257.120 C 135.191 253.596, 154 248.899, 154 250.908 C 154 251.457, 149.966 253.990, 145.035 256.536 C 130.869 263.853, 126.180 269.463, 121.457 284.750 L 119.217 292 124.859 291.988 C 141.392 291.953, 159.002 280.957, 166.251 266.142 C 169.257 259.997, 169.500 258.752, 169.500 249.500 C 169.500 240.729, 169.169 238.793, 166.804 233.747 C 164 227.764, 154.713 217, 152.355 217 C 151.610 217, 151 217.937, 151 219.082 M 313 240.463 C 303.331 245.354, 288.485 250.609, 280 252.144 C 275.179 253.015, 265.176 253.477, 252 253.437 C 233.078 253.379, 230.743 253.170, 221.673 250.725 C 216.268 249.268, 209.327 246.923, 206.248 245.513 C 202.582 243.835, 200.311 243.289, 199.667 243.933 C 196.324 247.276, 213.919 253.801, 234.692 256.920 C 251.105 259.385, 280.246 257.709, 296.459 253.369 C 306.466 250.690, 318.930 244.315, 320.081 241.287 C 321.659 237.137, 319.965 236.940, 313 240.463 M 308 258.535 C 296.063 262.754, 281.505 265.702, 268.161 266.601 C 261.552 267.047, 257.655 267.735, 257.358 268.511 C 256.547 270.623, 259.938 283.115, 262.698 288.187 C 265.626 293.567, 273.277 300.705, 285.500 309.459 C 289.900 312.611, 295.692 317.643, 298.372 320.642 C 305.804 328.959, 320.165 335.130, 328.467 333.572 C 332.537 332.809, 336.467 328.512, 338.109 323.030 C 339.915 317.003, 339.041 316, 331.982 316 C 324.823 316, 322.683 315.021, 310.824 306.316 C 301.334 299.351, 293.921 291.726, 290.919 285.842 C 289.059 282.195, 288.421 279, 289.554 279 C 289.859 279, 293.167 281.632, 296.904 284.849 C 305.366 292.132, 310.812 295.888, 318.500 299.743 C 325.347 303.176, 330.539 304.555, 331.397 303.167 C 331.720 302.644, 330.413 299.607, 328.493 296.418 C 322.062 285.739, 319.024 274.472, 319.008 261.250 C 319.003 257.813, 318.663 255.040, 318.250 255.088 C 317.837 255.137, 313.225 256.688, 308 258.535 M 197.668 259.750 C 197.421 260.163, 197.208 264.550, 197.195 269.500 C 197.168 280.244, 194.611 289.411, 190.065 295.068 C 188.379 297.166, 187 299.130, 187 299.433 C 187 300.533, 200.397 294.904, 206.369 291.294 C 209.741 289.256, 214.823 285.403, 217.663 282.732 C 222.476 278.204, 222.871 278.019, 223.500 279.999 C 224.865 284.299, 219.646 292.038, 207.098 304.322 L 195.168 316 202.403 316 C 206.381 316, 211.948 315.314, 214.772 314.475 C 224.829 311.489, 245.953 294.932, 250.114 286.776 C 252.199 282.690, 255.225 269.173, 254.366 267.783 C 254.100 267.352, 251.321 266.999, 248.191 266.997 C 239.009 266.993, 225.338 265.014, 213 261.904 C 200.958 258.869, 198.411 258.511, 197.668 259.750 M 238.786 312.787 C 229.593 319.779, 217.265 329.303, 211.390 333.952 C 205.515 338.600, 197.511 344.143, 193.604 346.270 L 186.500 350.135 192.500 349.604 C 210.253 348.032, 239.419 336.960, 255.070 325.852 C 256.319 324.965, 257.571 325.449, 261.212 328.228 C 275.127 338.850, 311.365 353, 324.652 353 C 329.957 353, 337.003 350.422, 338.553 347.915 C 339.057 347.098, 338.692 347.095, 337.186 347.900 C 334.035 349.587, 324.977 349.173, 320.500 347.138 C 318.300 346.138, 312.675 342.413, 308 338.860 C 303.325 335.307, 289.943 325.111, 278.263 316.200 C 266.583 307.290, 256.683 300.017, 256.263 300.037 C 255.843 300.057, 247.979 305.795, 238.786 312.787 M 396.158 330.850 C 393.220 331.898, 390.142 333.430, 389.317 334.255 C 387.984 335.588, 388.411 335.588, 393.158 334.256 C 396.096 333.432, 402.658 332.710, 407.740 332.651 C 416.153 332.555, 416.749 332.424, 414.394 331.191 C 409.995 328.886, 402.084 328.738, 396.158 330.850 M 123.541 334.240 C 121.890 338.167, 122.092 338.568, 126.126 339.375 C 127.867 339.723, 131.535 341.388, 134.276 343.075 C 137.017 344.761, 139.614 345.772, 140.047 345.320 C 140.481 344.869, 141.134 342.463, 141.498 339.973 L 142.160 335.445 135.259 333.223 C 126.164 330.293, 125.164 330.380, 123.541 334.240 M 249.500 343.593 C 228.452 359.518, 206.386 372.134, 193.500 375.611 C 187.862 377.132, 187.074 377.565, 189.450 377.836 C 201.609 379.219, 240.252 368.079, 252.961 359.526 L 257.864 356.227 260.182 358.708 C 263.590 362.357, 278.822 369.335, 292.281 373.413 C 304.561 377.135, 320.432 379.297, 326.289 378.046 C 329.437 377.373, 329.405 377.345, 324.712 376.613 C 317.813 375.537, 309.738 372.572, 301.277 368.008 C 291.757 362.873, 264.527 345.401, 260.410 341.786 C 258.664 340.254, 256.845 339.012, 256.368 339.027 C 255.891 339.041, 252.800 341.096, 249.500 343.593 M 392.730 342.420 C 385.600 345.352, 380.477 349.176, 378.464 353.070 C 376.190 357.467, 378.650 357.844, 384.382 353.975 C 392.310 348.624, 399.259 346.633, 410.249 346.562 C 415.611 346.528, 419.999 346.232, 419.999 345.905 C 420 344.938, 416.712 342.477, 413.703 341.193 C 409.013 339.193, 399.180 339.768, 392.730 342.420 M 109.500 344.390 C 105.650 345.615, 101.600 347.140, 100.500 347.779 C 98.657 348.848, 98.736 348.942, 101.500 348.977 C 106.592 349.040, 120.610 352.803, 127.657 355.998 C 131.872 357.909, 134.713 358.687, 135.308 358.092 C 137.704 355.696, 132.328 346.439, 126.980 343.752 C 122.472 341.487, 118.124 341.646, 109.500 344.390 M 398 354.079 C 390.248 357.584, 383 366.311, 383 372.140 C 383 374.091, 383.411 373.880, 386.391 370.398 C 391.578 364.338, 398.965 360.766, 407.435 360.223 C 411.322 359.973, 416.277 360.259, 418.445 360.857 C 420.614 361.456, 422.602 361.731, 422.864 361.469 C 423.763 360.571, 418.670 356.019, 414.518 354.009 C 409.259 351.463, 403.733 351.486, 398 354.079 M 105.251 357.489 C 100.751 358.749, 91.997 362.568, 92.001 363.270 C 92.002 363.397, 95.490 363.518, 99.751 363.540 C 108.413 363.586, 114.397 365.689, 122.740 371.620 C 128.810 375.936, 130 375.911, 130 371.468 C 130 359.856, 118.997 353.642, 105.251 357.489 M 402.001 367.084 C 397.891 368.787, 394.901 372.156, 391.869 378.500 C 388.078 386.433, 388.236 388.168, 392.264 382.828 C 394.060 380.447, 397.547 377.455, 400.014 376.179 C 403.832 374.203, 405.618 373.917, 412 374.260 C 416.366 374.494, 420.858 375.371, 422.750 376.357 C 426.600 378.364, 427.044 376.953, 423.634 373.543 C 418.288 368.198, 407.259 364.905, 402.001 367.084 M 100.500 372.573 C 97.200 373.942, 93.716 375.844, 92.759 376.800 C 91.105 378.451, 91.400 378.519, 98.649 378.153 C 102.846 377.941, 108.024 378.290, 110.157 378.929 C 115.037 380.391, 120.534 385.166, 123.079 390.155 C 124.158 392.270, 125.318 394, 125.656 394 C 126.777 394, 125.134 385.527, 122.861 379.587 C 119.117 369.804, 112.319 367.671, 100.500 372.573 M 246.500 377.067 C 235.342 384.749, 221.929 391.659, 211.750 394.968 C 199.831 398.844, 203.663 398.638, 221.717 394.434 C 233.967 391.581, 249.179 385.864, 253.705 382.411 L 256.986 379.909 259.243 382.043 C 264.142 386.675, 278.322 392.533, 292.500 395.781 C 301.164 397.765, 317.030 399.753, 316 398.725 C 315.725 398.451, 311.922 397.252, 307.549 396.061 C 303.176 394.870, 296.453 392.516, 292.610 390.829 C 284.583 387.306, 267.477 377.338, 261.961 372.969 C 259.899 371.336, 257.827 370.041, 257.356 370.091 C 256.885 370.141, 252 373.280, 246.500 377.067 M 407.405 379.976 C 404.263 381.243, 397 390.968, 397 393.908 C 397 394.480, 398.927 393.020, 401.283 390.664 C 409.296 382.652, 417.931 382.330, 426.131 389.737 C 430.577 393.754, 431.137 393.180, 427.466 388.367 C 422.836 382.296, 412.436 377.946, 407.405 379.976 M 97.007 387.593 C 93.436 389.142, 89 392.749, 89 394.104 C 89 394.519, 91.083 393.695, 93.628 392.272 C 98.934 389.307, 105.007 388.832, 109.500 391.031 C 111.150 391.839, 114.047 394.853, 115.938 397.728 C 117.830 400.604, 119.582 402.751, 119.833 402.500 C 120.891 401.443, 116.621 392.859, 113.897 390.567 C 111.080 388.196, 105.229 385.972, 102 386.045 C 101.175 386.063, 98.928 386.760, 97.007 387.593 M 253 398.617 C 247.021 402.921, 240.048 406.092, 226.531 410.655 C 218.185 413.472, 215.118 414.835, 218 414.444 C 225.890 413.376, 236.193 409.972, 247.079 404.839 L 257.658 399.850 264.079 403.377 C 272.128 407.799, 281.827 411.471, 291.227 413.656 C 299.338 415.541, 313.350 416.041, 314.886 414.500 C 315.550 413.834, 313.150 413.483, 307.691 413.448 C 302.509 413.415, 296.378 412.565, 291 411.134 C 282.428 408.853, 266.408 401.851, 261.076 398.054 C 257.502 395.509, 257.298 395.524, 253 398.617 M 412.593 399.105 C 410.076 401.085, 409.934 401.637, 410.208 408.355 C 410.474 414.860, 410.698 415.528, 412.710 415.814 C 415.956 416.276, 423.572 412.584, 425.526 409.601 C 427.601 406.434, 426.877 402.786, 423.505 399.414 C 420.498 396.407, 416.179 396.285, 412.593 399.105 M 98.223 405.557 C 91.461 410.293, 101.172 418.976, 113.250 418.994 C 117.784 419.001, 118.189 417.060, 114.726 411.922 C 110.070 405.012, 102.931 402.259, 98.223 405.557 M 255.944 412.485 C 255.128 413.301, 250.869 415.756, 246.480 417.940 C 236.899 422.709, 239.444 423.392, 250.471 419.011 L 257.995 416.023 263.650 418.524 C 266.761 419.900, 271.150 421.251, 273.403 421.526 C 277.183 421.989, 276.881 421.729, 269.500 418.174 C 265.100 416.055, 260.882 413.574, 260.128 412.661 C 258.441 410.619, 257.835 410.594, 255.944 412.485 M 300.286 437.968 C 287.518 441.182, 272.866 445.212, 267.726 446.925 L 258.381 450.038 238.941 445.027 C 218.217 439.686, 215.495 439.308, 212.750 441.392 C 208.574 444.562, 210.843 445.628, 230 449.494 C 236.875 450.882, 245.790 452.987, 249.812 454.172 L 257.123 456.328 275.812 451.665 C 286.090 449.101, 300.350 445.701, 307.500 444.109 C 327.645 439.625, 329 439.179, 329 437.043 C 329 433.720, 327.840 431.998, 325.643 432.063 C 324.464 432.097, 313.053 434.755, 300.286 437.968 M 296.500 456.876 C 278.040 461.708, 269.805 464.430, 264.124 467.576 C 258.658 470.604, 257.120 470.601, 251.100 467.551 C 245.607 464.767, 199.028 454.680, 197.663 455.978 C 196.235 457.336, 198.248 457.918, 220.698 462.640 C 232.689 465.162, 245.425 468.359, 249 469.744 C 257.173 472.912, 258.886 472.893, 267.500 469.536 C 271.350 468.035, 284.625 464.828, 297 462.408 C 324.860 456.960, 323.107 457.379, 325.500 455.602 L 327.500 454.116 325.500 454.119 C 324.400 454.121, 320.800 453.858, 317.500 453.536 C 312.510 453.049, 308.975 453.611, 296.500 456.876 M 331.609 466.581 C 328.919 467.314, 321.494 468.396, 315.109 468.985 C 293.776 470.954, 272.158 475.175, 262.750 479.209 L 258 481.246 253.250 479.208 C 247.277 476.645, 241.094 475.546, 218.260 472.988 C 208.229 471.865, 199.341 470.684, 198.510 470.366 C 195.710 469.291, 196.919 472.724, 199.750 473.887 C 203.820 475.559, 215.705 477.641, 231.500 479.450 C 239.200 480.331, 248.487 481.789, 252.137 482.690 C 258.252 484.198, 259.236 484.200, 264.637 482.719 C 267.862 481.835, 277.250 480.155, 285.500 478.986 C 305.396 476.166, 335.977 468.465, 337.580 465.870 C 338.224 464.829, 337.894 464.868, 331.609 466.581" stroke="none" fill="black" fill-rule="evenodd"/>
</svg>