<svg xmlns="http://www.w3.org/2000/svg" width="512" height="512" viewBox="0 0 512 512" version="1.1">
	<path d="M 248.452 8.738 C 239.464 23.543, 222.133 44.539, 212.705 52.046 C 205.510 57.775, 203.393 57.691, 196.966 51.422 C 191.799 46.383, 190.346 46.108, 185.508 49.250 C 181.365 51.941, 180.751 53.214, 182.003 56.509 C 183.088 59.362, 184.222 59.643, 186 57.500 C 186.685 56.675, 188.020 56, 188.967 56 C 191.212 56, 194.400 59.544, 193.486 61.022 C 192.030 63.378, 174.160 60.049, 154.722 53.800 C 147.408 51.449, 144.656 50.944, 143.804 51.796 C 142.717 52.883, 144.496 68.416, 147.092 80.500 C 148.395 86.566, 148.190 90.990, 146.576 91.609 C 145.004 92.212, 123.093 87.139, 113.215 83.884 C 105.640 81.388, 103.343 82.332, 104.547 87.444 C 104.943 89.125, 105.545 94.315, 105.884 98.979 L 106.500 107.457 112.313 110.479 C 120.706 114.841, 125.979 123.446, 125.994 132.808 C 125.999 135.465, 126.908 136.942, 130.611 140.308 C 135.162 144.444, 135.216 144.568, 134.699 149.606 C 134.401 152.502, 132.763 157.479, 130.912 161.106 C 127.899 167.012, 127.644 168.263, 127.572 177.500 C 127.499 186.906, 127.272 187.965, 123.759 195.328 C 121.705 199.633, 117.477 207.058, 114.362 211.828 C 98.619 235.937, 96.508 250.526, 105.507 273.017 L 109.074 281.934 107.121 285.717 C 106.047 287.798, 102.704 292.776, 99.693 296.780 C 93.551 304.947, 91.471 309.180, 92.406 311.615 C 93.261 313.844, 99.816 312.941, 107.520 309.533 C 110.671 308.140, 113.621 307, 114.077 307 C 115.780 307, 111.917 316.602, 105.288 328.847 C 94.349 349.054, 90.402 359.059, 89.314 369.347 C 88.557 376.499, 89.516 377.375, 95.906 375.366 C 107.562 371.701, 124.141 368.808, 125.530 370.197 C 126.200 370.867, 121.777 380.021, 115.878 390.174 C 113.745 393.845, 112 397.289, 112 397.828 C 112 399.268, 129.256 412.994, 138.500 418.907 C 149.074 425.670, 164.101 431.449, 178.116 434.141 C 184.377 435.344, 189.906 436.682, 190.401 437.115 C 190.897 437.548, 191.921 444.776, 192.676 453.176 C 193.432 461.577, 194.478 468.878, 195.001 469.401 C 195.524 469.924, 199.471 470.611, 203.771 470.927 C 208.586 471.280, 212.585 472.153, 214.180 473.198 C 217.600 475.439, 237.549 493.808, 246.975 503.397 C 251.086 507.578, 255.075 511, 255.838 511 C 256.602 511, 263.343 505.093, 270.819 497.874 C 278.294 490.655, 287.921 481.655, 292.212 477.874 L 300.013 471 306.756 470.985 C 310.465 470.977, 314.625 470.403, 316 469.709 C 318.455 468.470, 318.510 468.183, 319.030 453.841 C 319.367 444.547, 320.004 438.700, 320.781 437.764 C 321.452 436.955, 326.164 435.493, 331.251 434.515 C 347.456 431.399, 362.788 425.273, 377 416.236 C 384.778 411.291, 400 399.036, 400 397.719 C 400 397.112, 397.710 393.128, 394.912 388.866 C 390.199 381.687, 384.629 370.038, 385.495 369.171 C 386.144 368.523, 400.122 371.051, 409.839 373.575 C 421.720 376.660, 423 376.664, 423 373.612 C 423 365.763, 414.002 343.338, 404.182 326.713 C 398.176 316.543, 396 311.682, 396 308.433 L 396 306.110 401.320 308.463 C 408.166 311.490, 416.152 313.827, 417.750 313.269 C 418.437 313.030, 419 311.332, 419 309.497 C 419 306.881, 417.272 303.857, 410.998 295.498 C 406.598 289.634, 402.738 283.802, 402.420 282.539 C 402.059 281.098, 402.809 278.337, 404.434 275.130 C 408.513 267.082, 410.277 257.864, 409.723 247.500 C 409.088 235.604, 406.095 227.941, 396.405 213.389 C 392.212 207.093, 387.393 198.692, 385.697 194.721 C 383.020 188.452, 382.587 186.182, 382.412 177.500 C 382.235 168.688, 381.850 166.728, 379.170 161 C 377.497 157.425, 375.824 152.371, 375.453 149.768 C 374.792 145.129, 374.869 144.949, 379.389 140.556 C 383.064 136.984, 384 135.393, 384 132.719 C 384 122.727, 390.277 112.694, 398.490 109.557 C 402.826 107.901, 403.002 107.674, 403.044 103.667 C 403.068 101.375, 403.521 97.475, 404.051 95 C 407.058 80.967, 406.831 80.670, 395.803 84.244 C 386.019 87.415, 367.425 91.997, 364.333 91.999 C 363.142 91.999, 361.993 91.480, 361.782 90.845 C 361.319 89.458, 362.450 82.020, 365.178 68.500 C 368.399 52.535, 368.433 52.103, 366.518 51.369 C 365.584 51.010, 361.373 51.878, 357.160 53.298 C 346.735 56.810, 340.018 58.584, 330.140 60.434 C 320.450 62.249, 319.980 62.273, 318.053 61.054 C 316.860 60.299, 317.034 59.783, 319.053 58.103 C 321.834 55.788, 324.073 55.473, 325.758 57.158 C 327.255 58.655, 330 56.556, 330 53.914 C 330 51.876, 323.522 47, 320.815 47 C 319.869 47, 317.641 48.808, 315.865 51.019 C 312.538 55.159, 308.381 56.987, 304.139 56.176 C 298.535 55.104, 279.392 33.945, 265.096 13.020 C 259.538 4.884, 256.281 1, 255.017 1 C 253.760 1, 251.615 3.528, 248.452 8.738 M 250.673 25.228 C 239.719 42.690, 224.770 58.503, 210.162 68.080 L 199.824 74.858 203.104 76.554 C 207.774 78.969, 219.945 83, 222.566 83 C 227.193 83, 251.621 53.341, 253.649 45.263 C 253.961 44.018, 254.567 43, 254.994 43 C 255.422 43, 257.634 46.133, 259.909 49.963 C 264.415 57.549, 272.600 68.166, 281.025 77.355 C 285.998 82.780, 286.654 83.175, 289.947 82.724 C 294.737 82.069, 308 76.036, 308 74.513 C 308 73.842, 304.962 71.261, 301.250 68.778 C 288.339 60.140, 271.525 42.306, 259.867 24.880 L 255.235 17.956 250.673 25.228 M 344.446 70.049 L 339.392 71.993 336.169 91.747 C 334.396 102.611, 332.958 112.287, 332.973 113.250 C 333.007 115.475, 333.731 115.447, 340.365 112.965 L 345.805 110.929 347.380 102.215 C 352.454 74.145, 353.064 67.956, 350.750 68.052 C 350.063 68.081, 347.226 68.979, 344.446 70.049 M 157.009 71.250 C 157.018 73.590, 162.348 100.759, 164.054 107.161 C 164.898 110.330, 165.656 111.035, 169.693 112.411 C 175.518 114.396, 178 114.426, 178 112.512 C 178 111.250, 172.802 80.997, 171.432 74.286 C 171.092 72.620, 169.699 71.691, 165.808 70.536 C 158.624 68.402, 156.998 68.534, 157.009 71.250 M 119.040 97.452 C 115.826 101.324, 120.626 104.581, 146.177 115.867 C 153.700 119.190, 169 125.562, 180.177 130.027 C 206.048 140.363, 233.746 153.941, 246.261 162.423 L 256.022 169.038 269.300 160.269 C 285.582 149.517, 299.728 142.384, 324.500 132.437 C 358.137 118.930, 387.098 105.760, 390.381 102.476 C 391.272 101.585, 392 99.764, 392 98.429 C 392 96.537, 391.473 96, 389.619 96 C 385.187 96, 351.097 109.368, 313.330 125.915 C 304.437 129.812, 296.900 133, 296.580 133 C 296.261 133, 296 132.351, 296 131.558 C 296 130.765, 290.865 126.297, 284.590 121.631 C 278.314 116.964, 269.071 109.252, 264.050 104.493 L 254.920 95.840 245.621 104.729 C 240.508 109.618, 231.526 117.334, 225.662 121.875 C 219.798 126.416, 215 130.777, 215 131.566 C 215 132.354, 214.525 133, 213.944 133 C 213.363 133, 205.101 129.442, 195.583 125.094 C 186.066 120.746, 174.054 115.598, 168.890 113.654 C 163.725 111.711, 154.682 108.094, 148.794 105.618 C 139.083 101.533, 123.133 96, 121.071 96 C 120.617 96, 119.703 96.653, 119.040 97.452 M 247.386 119.375 C 242.923 123.294, 236.173 128.341, 232.386 130.591 C 228.599 132.841, 225.500 135.076, 225.500 135.557 C 225.500 136.304, 245.157 149.051, 253.094 153.452 C 255.584 154.833, 256.242 154.549, 269.594 146.333 C 277.242 141.626, 284.104 137.206, 284.842 136.511 C 285.944 135.471, 284.695 134.271, 277.842 129.783 C 273.254 126.778, 267.025 122.135, 264 119.465 C 260.975 116.795, 257.825 114.079, 257 113.430 C 255.768 112.461, 254.051 113.522, 247.386 119.375 M 251.098 126.092 L 246.802 132.184 249.342 134.842 C 250.739 136.304, 252.758 139.460, 253.828 141.856 L 255.775 146.213 256.924 142.731 C 257.556 140.816, 259.561 137.527, 261.380 135.424 L 264.686 131.599 260.183 125.799 C 257.706 122.610, 255.615 120, 255.536 120 C 255.458 120, 253.461 122.741, 251.098 126.092 M 213.524 150.923 C 213.033 152.470, 213.486 153.588, 215.174 154.995 L 217.500 156.933 215.312 156.967 C 214.109 156.985, 210.059 156.264, 206.312 155.365 C 197.175 153.171, 179.613 153.167, 170.624 155.356 C 150.815 160.179, 134.015 171.475, 139.120 176.537 C 140.289 177.696, 141.877 177.240, 149.500 173.558 C 164.401 166.359, 172.225 164.543, 188 164.620 C 199.534 164.677, 202.738 165.063, 210 167.270 C 222.441 171.052, 234.218 176.340, 245.172 183.063 C 250.491 186.328, 255.303 189, 255.865 189 C 256.427 189, 261.705 185.864, 267.593 182.031 C 284.284 171.166, 298.747 165.934, 316 164.518 C 331.158 163.274, 350.357 167.481, 363.287 174.878 C 369.241 178.285, 371 177.812, 371 172.806 C 371 170.678, 369.987 169.265, 366.750 166.876 C 350.822 155.121, 325.866 150.820, 303.047 155.897 C 291.091 158.557, 291.092 158.557, 294.344 155.163 C 297.441 151.931, 297.068 149, 293.560 149 C 292.335 149, 289.571 150.538, 287.417 152.418 C 284.036 155.369, 283.659 156.100, 284.658 157.757 C 285.660 159.419, 285.391 159.918, 282.658 161.465 C 280.921 162.448, 274.517 166.346, 268.427 170.126 C 262.336 173.907, 256.802 177, 256.129 177 C 255.455 177, 250.462 174.412, 245.034 171.250 C 239.606 168.088, 232.845 164.245, 230.011 162.711 C 225.322 160.173, 224.887 159.641, 225.179 156.819 C 225.550 153.236, 222.589 150.432, 217.351 149.407 C 214.724 148.893, 214.089 149.144, 213.524 150.923 M 182.250 180.051 C 179.045 181.043, 179 181.143, 178.967 187.279 C 178.949 190.700, 178.107 195.898, 177.094 198.829 L 175.254 204.158 179.235 200.329 C 181.425 198.223, 184.982 194.137, 187.140 191.250 C 189.551 188.024, 191.822 186, 193.032 186 C 195.587 186, 195.532 188.054, 192.886 191.418 C 191.723 192.896, 190.936 194.205, 191.136 194.327 C 195.225 196.814, 220.767 208.291, 224.156 209.164 C 229.631 210.576, 239.202 208.798, 242.185 205.815 C 244.936 203.064, 245.515 199.227, 243.513 197.014 C 240.697 193.903, 222.183 185.198, 212.500 182.433 C 202.549 179.591, 187.549 178.410, 182.250 180.051 M 306.625 180.490 C 286.837 184.605, 267 194.572, 267 200.400 C 267 204.413, 272.766 208.955, 279.775 210.465 C 284.313 211.442, 291.936 208.864, 303.654 202.390 C 308.970 199.453, 314.830 196.551, 316.678 195.941 L 320.037 194.833 317.519 191.840 C 314.824 188.638, 314.463 187.450, 315.910 186.556 C 317.519 185.561, 319.908 187.111, 322.773 191.005 C 324.309 193.095, 327.976 196.971, 330.921 199.619 C 336.253 204.413, 336.268 204.419, 334.503 201.006 C 333.528 199.121, 332.327 193.969, 331.833 189.557 C 331.340 185.146, 330.551 181.151, 330.081 180.681 C 328.535 179.135, 313.724 179.014, 306.625 180.490 M 143.672 194.404 C 140.198 201.993, 136.581 207.004, 127.136 217.314 C 122.184 222.720, 117.793 228.703, 115.781 232.786 C 112.835 238.764, 112.471 240.469, 112.215 249.472 C 111.924 259.699, 113.499 269.018, 115.636 269.718 C 117.637 270.374, 119 263.980, 119 253.940 C 119 238.466, 121.702 231.854, 133.838 217.637 C 136.590 214.412, 140.218 209.192, 141.899 206.037 C 144.822 200.555, 147.743 190.410, 146.700 189.367 C 146.428 189.095, 145.065 191.361, 143.672 194.404 M 364.479 193.750 C 365.638 199.938, 369.634 207.257, 377.857 218.247 C 385.706 228.739, 388.268 233.582, 389.532 240.319 L 390.221 243.989 386.099 242.535 C 377.976 239.669, 364.694 228.746, 360.379 221.384 C 357.442 216.372, 356.581 215.759, 358.086 219.750 C 362.754 232.128, 377.762 245, 387.528 245 L 391.121 245 390.847 254.817 C 390.607 263.403, 390.840 265.058, 392.705 268.002 L 394.837 271.370 396.527 265.555 C 397.780 261.244, 398.115 257.124, 397.822 249.620 C 397.367 237.988, 395.167 232.005, 388.217 223.500 C 385.969 220.750, 381.368 215.125, 377.992 211 C 374.615 206.875, 370.305 200.463, 368.414 196.750 C 366.522 193.037, 364.705 190, 364.376 190 C 364.047 190, 364.093 191.688, 364.479 193.750 M 253.409 206.250 C 250.994 211.028, 248.121 213.815, 244.874 214.528 C 241.589 215.249, 241.129 216.589, 243.868 217.458 C 244.896 217.784, 246.490 218.884, 247.412 219.902 C 249.001 221.659, 248.851 221.961, 244.476 225.812 C 238.191 231.345, 235.240 231.841, 228.436 228.513 C 223.686 226.189, 222.041 225.895, 215.740 226.249 C 209.346 226.608, 188.114 229.854, 187.126 230.624 C 186.920 230.784, 188.451 232.709, 190.529 234.902 C 194.748 239.354, 194.257 239.325, 207.964 235.939 C 212.069 234.924, 215.588 234.254, 215.783 234.450 C 216.612 235.278, 206.973 240.195, 200.767 242.108 L 194.034 244.184 190.422 241.952 C 184.677 238.401, 181 232.565, 181 226.999 C 181 222.436, 180.853 222.208, 175.967 219.170 L 170.935 216.042 169.898 218.768 C 168.094 223.513, 166.030 233.358, 166.015 237.290 C 165.997 241.807, 168.820 247.688, 173.483 252.849 C 176.137 255.787, 177.023 257.800, 177.539 262.054 C 177.902 265.049, 179.085 270.580, 180.170 274.344 C 181.782 279.943, 183.093 282.171, 187.377 286.594 C 190.257 289.567, 193.113 292, 193.724 292 C 194.334 292, 197.796 288.207, 201.415 283.572 C 207.727 275.489, 223.759 259.776, 229.675 255.876 C 233.107 253.613, 236.321 253.477, 238.019 255.523 C 239.082 256.804, 238.633 257.646, 235.193 260.821 C 231.066 264.632, 228.527 269.324, 229.384 271.558 C 230.089 273.397, 253.799 285.001, 256.840 284.995 C 258.303 284.993, 262.425 283.408, 266 281.474 C 269.575 279.539, 274.863 276.866, 277.750 275.533 C 284.369 272.478, 284.607 270.163, 279 263.377 C 274.626 258.084, 274.640 258.117, 275.908 256.115 C 278.239 252.434, 287.301 259.942, 308.817 283.380 L 316.969 292.261 320.390 289.652 C 326.443 285.035, 331.379 274.332, 332.659 263.051 C 333.177 258.490, 333.964 256.760, 337.073 253.349 C 342.708 247.170, 345.377 241.381, 345.326 235.454 C 345.282 230.340, 341.294 215, 340.009 215 C 339.625 215, 338.533 215.859, 337.583 216.909 C 336.633 217.958, 334.538 219.363, 332.928 220.030 C 330.415 221.071, 330 221.783, 330 225.056 C 330 230.227, 328.737 233.178, 324.534 237.831 C 319.275 243.652, 316.311 244.587, 309.805 242.477 C 303.766 240.518, 295 236.052, 295 234.935 C 295 234.131, 296.729 234.438, 304.432 236.609 C 312.304 238.829, 315.173 238.449, 318.804 234.702 C 323.270 230.094, 322.941 229, 317.088 229 C 314.386 229, 308.649 228.325, 304.338 227.500 C 300.027 226.675, 293.932 226, 290.793 226 C 284.405 226, 285.776 224.819, 274.542 240 C 271.490 244.125, 268.432 247.500, 267.746 247.500 C 266.825 247.500, 266.500 244.557, 266.500 236.206 C 266.500 225.350, 266.403 224.835, 264 222.943 C 261.554 221.018, 261.542 220.943, 263.441 219.487 C 264.509 218.669, 266.196 218, 267.191 218 C 269.861 218, 269.437 217.066, 265.072 213.330 C 262.912 211.481, 260.627 208.400, 259.995 206.484 C 258.496 201.943, 255.637 201.842, 253.409 206.250 M 150.078 222.560 C 146.788 228.760, 139.243 235.301, 130.645 239.405 C 126.715 241.281, 122.637 243.097, 121.583 243.441 C 120.353 243.842, 120.011 244.411, 120.629 245.029 C 122.247 246.647, 131.643 243.578, 137.573 239.494 C 143.601 235.342, 147.579 230.778, 150.925 224.175 C 153.898 218.308, 153.120 216.825, 150.078 222.560 M 199.523 221.313 C 195.140 223.406, 193.036 224.904, 193.809 225.382 C 195.527 226.444, 221.088 222.951, 220.349 221.755 C 219.362 220.159, 213.275 218, 209.762 218 C 207.946 218, 203.339 219.491, 199.523 221.313 M 299.687 220.805 C 298.209 222.347, 297 223.869, 297 224.186 C 297 225.258, 313.478 226.138, 315.999 225.201 C 318.458 224.286, 318.419 224.222, 313.553 221.136 C 307.271 217.152, 303.278 217.056, 299.687 220.805 M 288.985 275.250 C 288.965 280.714, 288.426 281.460, 282.730 283.901 C 280.128 285.017, 278 286.299, 278 286.752 C 278 287.205, 280.276 289.808, 283.059 292.538 C 285.841 295.267, 289.043 298.986, 290.173 300.803 C 292.725 304.904, 293.734 304.319, 291.513 300.025 C 290.614 298.287, 290.035 296.394, 290.227 295.818 C 290.823 294.031, 296.971 300.021, 300.049 305.388 C 302.181 309.105, 302.984 309.904, 302.991 308.315 C 302.996 307.113, 302.537 304.913, 301.972 303.426 C 299.330 296.478, 304.445 300.605, 308.949 309.056 C 310.692 312.325, 312.294 315, 312.511 315 C 312.727 315, 312.246 312.863, 311.441 310.250 C 310.636 307.637, 309.254 303.025, 308.369 300 C 307.483 296.975, 305.315 292.700, 303.550 290.500 C 301.785 288.300, 298.001 283.012, 295.140 278.750 C 292.280 274.488, 289.728 271, 289.470 271 C 289.211 271, 288.993 272.913, 288.985 275.250 M 216.440 278.250 C 214.430 281.688, 210.883 286.538, 208.559 289.029 C 204.550 293.326, 202.786 297.144, 198.527 310.748 C 196.854 316.093, 198.300 315.308, 201.420 309.179 C 202.730 306.606, 205.038 303.375, 206.549 302 C 209.554 299.265, 209.533 299.094, 207.151 306.750 C 205.882 310.827, 207.328 311.036, 208.994 307.015 C 210.427 303.555, 218.104 295, 219.776 295 C 220.572 295, 220.476 296.234, 219.456 299.126 C 217.311 305.205, 217.662 305.767, 220.854 301.360 C 222.424 299.193, 226.274 295.133, 229.411 292.337 L 235.113 287.255 229.601 284.144 C 223.714 280.821, 222 278.662, 222 274.566 C 222 270.463, 220.359 271.550, 216.440 278.250 M 241.426 308.877 L 237.733 311.500 246.917 311.788 C 251.968 311.947, 260.016 311.947, 264.801 311.788 L 273.500 311.500 270.100 309.075 C 267.061 306.908, 265.552 306.629, 255.909 306.452 C 245.712 306.265, 244.916 306.399, 241.426 308.877 M 130.484 312.250 C 128.925 315.137, 124.105 323.301, 119.773 330.391 C 110.890 344.929, 107.641 350.974, 108.336 351.669 C 109.348 352.682, 124.185 342.294, 134.921 333.056 C 140.505 328.251, 147 320.090, 147 317.878 C 147 317.477, 144.527 319.742, 141.504 322.911 C 136.255 328.414, 120.351 340.684, 119.531 339.864 C 119.316 339.649, 120.733 337.004, 122.680 333.987 C 127.381 326.701, 132.654 315.402, 133.522 310.750 C 133.907 308.688, 134.019 307, 133.770 307 C 133.521 307, 132.043 309.363, 130.484 312.250 M 377.355 310.404 C 378.082 315.390, 383.988 327.853, 388.602 334.138 C 390.564 336.812, 391.757 339, 391.251 339 C 389.347 339, 378.250 330.569, 371.750 324.184 C 368.038 320.537, 365 318.045, 365 318.646 C 365 320.429, 372.405 329.189, 377.637 333.595 C 385.499 340.216, 401.154 352, 402.089 352 C 403.578 352, 401.146 347.018, 394.069 335.571 C 390.305 329.482, 384.876 320.450, 382.005 315.500 C 377.269 307.334, 376.838 306.862, 377.355 310.404 M 233.324 319.054 C 231.338 319.469, 228.113 321.785, 224.716 325.236 C 215.132 334.975, 214.740 336.183, 217.540 347.356 C 220.447 358.957, 220.612 359.176, 225.888 358.424 C 231.806 357.580, 239.586 353.410, 242.590 349.471 C 243.883 347.776, 245.892 344.238, 247.055 341.608 C 248.859 337.531, 248.993 336.397, 247.964 333.913 C 246.523 330.434, 244.436 330.227, 238.960 333.020 C 234.468 335.312, 234.170 334.874, 237.026 330.190 C 240.110 325.131, 244.538 323.769, 256.604 324.164 C 265.119 324.443, 267.339 324.856, 269.680 326.596 C 272.234 328.495, 275.339 332.994, 274.604 333.730 C 274.441 333.893, 272.677 333.345, 270.686 332.513 C 265.433 330.318, 264.286 330.603, 263.028 334.414 C 262.139 337.109, 262.203 338.532, 263.331 341.164 C 267.169 350.117, 275.570 357, 284.256 358.310 C 287.595 358.813, 288.165 358.578, 289.385 356.188 C 291.104 352.819, 293 344.017, 293 339.401 C 293 334.566, 291.140 331.471, 284.044 324.500 L 277.937 318.500 257.218 318.445 C 245.823 318.415, 235.071 318.689, 233.324 319.054 M 199.022 358.536 C 199.063 362.273, 202.927 378.047, 204.887 382.477 C 206.783 386.763, 210.387 389.115, 212.787 387.632 C 214.818 386.377, 221.203 389.192, 222.837 392.063 C 224.243 394.533, 224.964 394.903, 227.500 394.456 C 230.020 394.013, 232.407 395.205, 242.421 401.908 C 252.740 408.815, 254.622 409.739, 256.421 408.783 C 257.565 408.175, 263.327 404.563, 269.228 400.755 C 278.200 394.964, 280.426 393.935, 282.832 394.463 C 285.181 394.979, 286.009 394.635, 287.354 392.583 C 289.537 389.250, 292.695 387.664, 296.836 387.820 C 301.797 388.007, 303.647 386.588, 305.390 381.260 C 306.580 377.621, 310 360.641, 310 358.369 C 310 358.166, 309.334 358, 308.519 358 C 306.894 358, 306.672 358.785, 304.982 370.500 C 303.563 380.334, 302.249 382.550, 297.307 383.447 C 291.360 384.526, 284.375 388.058, 268.635 397.949 L 254.076 407.098 239.788 397.670 C 223.863 387.163, 219.125 384.568, 214 383.547 C 206.121 381.979, 206.772 382.916, 203.903 369.009 C 202.827 363.789, 201.283 358.855, 200.473 358.044 C 199.176 356.747, 199.003 356.806, 199.022 358.536 M 139.071 367.250 C 136.966 372.638, 133.616 380.009, 130.274 386.605 C 128.294 390.512, 126.934 394.384, 127.250 395.210 C 128.234 397.773, 141.048 406.785, 151 411.911 C 162.046 417.602, 172.861 421.053, 189.146 424.085 C 195.551 425.278, 201.242 426.534, 201.792 426.877 C 202.342 427.219, 203.176 434.475, 203.646 443 L 204.500 458.500 209.673 458.800 C 214.612 459.086, 215.357 459.536, 226.173 468.769 C 232.403 474.088, 241.371 482.165, 246.102 486.720 C 250.833 491.274, 255.147 495, 255.688 495 C 256.229 495, 261.133 490.827, 266.586 485.728 C 272.039 480.628, 280.887 472.528, 286.248 467.728 C 295.928 459.061, 296.034 459, 301.343 459 L 306.690 459 307.300 443.378 C 307.636 434.786, 308.125 427.542, 308.387 427.280 C 308.649 427.018, 314.857 425.553, 322.182 424.025 C 339.308 420.452, 347.733 417.896, 356.889 413.496 C 363.778 410.185, 377.345 401.684, 382.942 397.171 L 385.384 395.201 380.265 384.851 C 377.449 379.158, 374.238 372.363, 373.129 369.750 C 371.262 365.352, 370.849 365, 367.556 365 C 365.600 365, 364 365.440, 364 365.977 C 364 367.696, 368.628 379.320, 371.867 385.737 L 375.002 391.947 372.251 393.351 C 369.132 394.943, 341.334 405.244, 336 406.785 C 322.543 410.672, 305.069 416.434, 302.019 417.990 C 295.414 421.360, 282.692 431.456, 269.500 443.797 C 262.350 450.486, 255.882 455.968, 255.126 455.980 C 254.371 455.991, 249.520 451.954, 244.348 447.009 C 233.827 436.951, 219.065 424.849, 211.500 420.080 C 208.568 418.232, 198.640 414.425, 187.500 410.877 C 165.803 403.967, 138 393.299, 138 391.884 C 138 391.360, 140.025 385.811, 142.500 379.553 C 144.975 373.296, 147 367.734, 147 367.195 C 147 366.655, 146.288 365.941, 145.418 365.607 C 142.307 364.413, 139.941 365.025, 139.071 367.250 M 291.472 438.682 C 287.638 441.746, 278.143 449.596, 270.374 456.127 C 262.605 462.657, 255.936 468, 255.554 468 C 255.172 468, 245.724 460.350, 234.558 451 C 223.392 441.650, 213.749 434, 213.128 434 C 212.508 434, 212 435.059, 212 436.353 C 212 437.648, 211.716 441.421, 211.369 444.740 C 210.748 450.683, 210.774 450.766, 213.119 450.351 C 216.491 449.754, 219.377 451.825, 238.187 468.345 C 247.365 476.405, 255.273 483, 255.761 483 C 256.248 483, 264.264 476.216, 273.573 467.925 C 291.534 451.928, 294.940 449.516, 298.358 450.376 C 300.448 450.902, 300.488 450.712, 300 442.538 C 299.725 437.931, 299.263 433.925, 298.972 433.636 C 298.682 433.348, 295.307 435.618, 291.472 438.682" stroke="none" fill="black" fill-rule="evenodd"/>
</svg>